<svg xmlns="http://www.w3.org/2000/svg" viewBox="0 0 195 195"><defs><style>.cls-1{fill:#b12025;}</style></defs><g id="Layer_2" data-name="Layer 2"><g id="Layer_1-2" data-name="Layer 1"><path class="cls-1" d="M135.4,89.22h12.23v52.59a5.83,5.83,0,0,1-5.82,5.82H53.19a5.83,5.83,0,0,1-5.82-5.82V89.22H59.6a38.79,38.79,0,1,0,75.8,0ZM97.5,123.63A26.13,26.13,0,1,0,71.37,97.5,26.13,26.13,0,0,0,97.5,123.63Zm31.31-53h9.95A5.27,5.27,0,0,0,144,65.38V55.43a5.28,5.28,0,0,0-5.28-5.29h-9.95a5.28,5.28,0,0,0-5.28,5.29v9.95a5.27,5.27,0,0,0,5.28,5.28ZM195,0V195H0V0ZM159.61,51.06a15.68,15.68,0,0,0-15.67-15.67H51.06A15.68,15.68,0,0,0,35.39,51.06V144a15.67,15.67,0,0,0,15.67,15.66h92.88A15.67,15.67,0,0,0,159.61,144Z"/></g></g></svg>
