<svg xmlns="http://www.w3.org/2000/svg" viewBox="0 0 195 195"><defs><style>.cls-1{fill:#b12025;fill-rule:evenodd;}</style></defs><g id="Layer_2" data-name="Layer 2"><g id="Layer_1-2" data-name="Layer 1"><path class="cls-1" d="M195,0H0V195H195V0ZM109.77,76h12.49V95.21H109.77v49H83.6v-49H73.87V76H83.6V73a52.82,52.82,0,0,1,.9-9.16,18,18,0,0,1,3.38-8.18,17.58,17.58,0,0,1,6.92-5.13c3-1.29,7.32-1.95,13-1.95a175.13,175.13,0,0,1,19.94,1.61l-2.85,15.73a49.44,49.44,0,0,0-7.58-.77c-2.37,0-4,.4-5.09,1.19a6.4,6.4,0,0,0-2.17,3.76A34.28,34.28,0,0,0,109.77,76Z"/></g></g></svg>
