<svg xmlns="http://www.w3.org/2000/svg" viewBox="0 0 195 195"><defs><style>.cls-1{fill:#b12025;fill-rule:evenodd;}</style></defs><g id="Layer_2" data-name="Layer 2"><g id="Layer_1-2" data-name="Layer 1"><path class="cls-1" d="M195,0H0V195H195V0ZM62.12,51.56h52.33q13.08,0,20.08,6.48a21,21,0,0,1,7,16,20.15,20.15,0,0,1-5,13.74c-2.21,2.57-5.47,4.56-9.74,6.06,6.5,1.55,11.25,4.23,14.33,8s4.58,8.58,4.58,14.33a24.72,24.72,0,0,1-3.26,12.64,24.18,24.18,0,0,1-8.94,8.88c-2.36,1.35-5.89,2.34-10.63,2.95A123.64,123.64,0,0,1,110.35,142H62.12V51.56ZM90.27,87V69.87h12.38c4.23,0,7.22.73,8.92,2.23a7.7,7.7,0,0,1,2.57,6.16,8.26,8.26,0,0,1-2.57,6.53c-1.7,1.49-4.76,2.25-9.11,2.25Zm0,35.48V104.21h14.19q7.35,0,10.29,2.44a7.93,7.93,0,0,1,2.92,6.44,8.56,8.56,0,0,1-3,6.86q-3,2.56-10.19,2.57Z"/></g></g></svg>
