<svg xmlns="http://www.w3.org/2000/svg" viewBox="0 0 195 195"><defs><style>.cls-1{fill:#b12025;fill-rule:evenodd;}</style></defs><g id="Layer_2" data-name="Layer 2"><g id="Layer_1-2" data-name="Layer 1"><path class="cls-1" d="M195,0H0V195H195V0ZM118.36,86.9l-.1-2.37V51.09c.11-.34-.11-.16.48-.22.16,0,.57,0,.75,0,.44,0,.89,0,1.33,0H128V80.16c0,.6-.16,2.54.13,2.86a2.07,2.07,0,0,0,.48,1.45s.06,0,.07,0l.8.38c1.56.5,2.61-.38,3.34-.4l.3-.25.08,0,1.17-.67c.4-.29,1.09-.68,1.22-1.06.25-.12,0,.06.33-.2s.13-.14.18-.26.1,0,.16-.37c0-.08,0-.39,0-.48,0-.33,0-.66,0-1V50.88H146V90.25l-.09,1.62h-9.55a41.89,41.89,0,0,1-.1-4.42,12.59,12.59,0,0,1-2,1.54c-.06.23,0,.09-.29.31a17.49,17.49,0,0,1-6.61,2.94c-2,.38-4.77.33-6.5-.89-.85-.61-.93-1-1.31-1.18-.17-.52-.42-.62-.45-1.16l-.12-.16a6,6,0,0,1-.55-1.95ZM56.83,98.5h81.34A15.56,15.56,0,0,1,153.68,114v28.1a15.56,15.56,0,0,1-15.51,15.51H56.83a15.56,15.56,0,0,1-15.51-15.51V114A15.56,15.56,0,0,1,56.83,98.5Zm49.78,43.06V123.62c1-.64,2-1.5,3.87-1,1.4.38,1.8,1.56,1.8,3.26v14.26l0,1.07c-.25,1.55-.91,2.19-2.72,2.07-1-.07-2.9-.76-2.93-1.72Zm-6.91,6.05V107.68l6.9,0,0,1.53V120l0,.41a8.9,8.9,0,0,1,6.59-2.63,6.9,6.9,0,0,1,3.55,1.09,7.49,7.49,0,0,1,2.06,2.74,1.45,1.45,0,0,0,.31.88c-.06.76.21,2.1.21,3.11v16.11a9.11,9.11,0,0,1-.65,3.19c-.17.18-.29.51-.48.77-.31.42-.39.38-.6.81l-.56.35a7.85,7.85,0,0,1-5.48,1,9.22,9.22,0,0,1-5-2.45v2.16l-6.91.06Zm32.11-23.31c.21-.77.52-1.23,1.19-1.32.46-.5,1.69-.45,2.44-.32a2.16,2.16,0,0,1,1.69,1.12,13.15,13.15,0,0,1,.41,5.16h-6a15.61,15.61,0,0,1,.23-4.63Zm-1.17-6.3c.82-.13,1.52-.38,2.45-.48a20.09,20.09,0,0,1,2.91-.08c4.23.28,7,2,8.18,5.39l.49,2.1-.08,8.69-13.05-.06c0,1-.17,6.17.13,6.55a2,2,0,0,0,.15,1.22,2.28,2.28,0,0,0,2.37,1.84c1.4.08,2.46-.16,3-1.23a4.41,4.41,0,0,0,.36-1.82l0-1.65v-1.42h7l0,2.91-.14,1.47-.71,2.46a5.89,5.89,0,0,0-.58.91c-.29.43-.53.56-.69,1-.69.21-1.74,2.27-7,2.56-5.63.31-7-1.68-7.88-1.82a4.87,4.87,0,0,0-.8-.83,4.14,4.14,0,0,0-.76-.75c-.2-.54-.53-.91-.79-1.49s-.36-1.09-.58-1.65l-.22-1.65V125.79l.31-2.14a8.09,8.09,0,0,1,3-4.16,15.51,15.51,0,0,1,2.83-1.49ZM73.5,143.43l0-25.29,6.86,0v21.12l0,1.84c.14.84.29,1.25,1.06,1.45a3,3,0,0,0,2-.26c.86-.38,2.6-1.38,2.69-2.19v-22l6.86,0,0,29.41-6.84,0v-3.09c-1.8,1.2-2.55,2.33-5.28,3.15-4.62,1.38-6-.92-6.41-1a7.88,7.88,0,0,1-.94-2.62l0-.52ZM49.89,113.52l.08-5.86,23.62.07v5.75l-7.93,0,0,1.31v32.72l-7.73.06,0-34.05-8,0ZM110.56,67V82.74l-.12,1.34a1.91,1.91,0,0,1-.31.94,5.23,5.23,0,0,1-.47,1.76c-.21.13-.15.41-.52.68-.05.38,0,.25-.24.61a4.53,4.53,0,0,1-.42.56,5.51,5.51,0,0,1-.95,1c-.23.28-.19.15-.4.49-.2,0-.12,0-.31.13l-.78.57a17.32,17.32,0,0,1-9.71,2.42,20.07,20.07,0,0,1-4.45-.46A15.39,15.39,0,0,1,90,92.26a8.19,8.19,0,0,0-1.75-.66A5.62,5.62,0,0,0,87,90.73l-1.14-1a4,4,0,0,1-1.17-1.11,8.52,8.52,0,0,1-.88-1.33l-.44-.75-.52-1.62-.24-1-.12-1.22,0-2.21V60.36l.09-1.25.21-.88a4.73,4.73,0,0,1,1-2.24,3.85,3.85,0,0,1,.92-1.37c.27-.28.76-.9,1.13-1l.46-.48c4-3,10.94-3.51,15.56-2.32,2.8.72,3,1.32,4.55,2,.19.19.2.17.41.36a1.33,1.33,0,0,1,.38.41l.38.19c.32.21,0,.08.31.21l1.37,1.73V56a4.55,4.55,0,0,1,1,2.11c.1.37,0,.43.26.71l.09,1.46,0,2.24V67Zm-9.89-2.23V80.53c0,.41.18,2.52-.13,2.61,0,.37.08.14,0,.49-.18.66,0,.09-.2.35,0,.35,0,.17-.16.52a4.54,4.54,0,0,0-.31.5c-.4.11-.48.46-1.43.83a5.47,5.47,0,0,1-2,.31A4.46,4.46,0,0,1,93.12,85a6.51,6.51,0,0,1-.56-1.31l0-.56a9.34,9.34,0,0,1-.13-2.61V60.36a2.82,2.82,0,0,1,1.12-2.22,5,5,0,0,1,3-.77c1.74,0,1.92.44,3.12.88.06.1,0,0,.14.17a1.54,1.54,0,0,1,.16.18,2.5,2.5,0,0,1,.68,1.68v4.49ZM75.05,52.82a12,12,0,0,1-1,2.76l-2.24,5.54A14.81,14.81,0,0,0,71,63.55c-.39.33-.09.31-.48.65l0,.25-.94,2.48-.16,0a16.51,16.51,0,0,1-.7,2.18V86.86l0,4.33v.2H57.85V70.85c0-1.77-1.06-2.78-1.1-3.9l-.22-.33a3.65,3.65,0,0,1-.14-.35,8.76,8.76,0,0,1-.74-2.13A4,4,0,0,1,55,62.85a4.75,4.75,0,0,1-.48-1.48A3.81,3.81,0,0,1,53.89,60l-.58-1.49c-.37-.92-.75-2-1.16-2.88L51.06,52.7a9.38,9.38,0,0,1-.93-2.53,5,5,0,0,1-.64-1.38A4,4,0,0,1,49,47.37l-.39-.68a10.32,10.32,0,0,1-.7-2.1,7.58,7.58,0,0,1-1.11-2.8,6.45,6.45,0,0,1-.95-2.14c-.3-.77-.64-1.49-.87-2.27H55.73c.35.08.26.17.51,1l1,3.32.91,2.82.89,2.68.94,3,.88,2.57.92,2.94L63,59h.63l1.06-3.38.87-2.86.86-2.7.85-2.81.88-2.7L69,41.69c.12-.55,1.08-4.19,1.48-4.31H81.28a32.71,32.71,0,0,1-1.8,4.35,10.07,10.07,0,0,1-.74,2.13l-.37.65a9,9,0,0,1-1.11,2.77,11.48,11.48,0,0,1-1,2.73A10.52,10.52,0,0,1,75.05,52.82Z"/></g></g></svg>
