
<svg width="234px" height="457px" viewBox="0 0 234 457" version="1.1" xmlns="http://www.w3.org/2000/svg" xmlns:xlink="http://www.w3.org/1999/xlink">
    <defs>
        <polygon id="path-1" points="0.127500689 0.018 204.196909 0.018 204.196909 226.338 0.127500689 226.338"></polygon>
        <polygon id="path-3" points="0.00011650576 0.229431316 233.947 0.229431316 233.947 221.94 0.00011650576 221.94"></polygon>
    </defs>
    <g id="Page-1" stroke="none" stroke-width="1" fill="none" fill-rule="evenodd">
        <g id="dzu-dzu">
            <g id="Group-3" transform="translate(24.000000, 0.000000)">
                <mask id="mask-2" fill="white">
                    <use xlink:href="#path-1"></use>
                </mask>
                <g id="Clip-2"></g>
                <path d="M141.355,67.993 C136.5,73.249 131.366,77.087 126.289,79.509 C122.51,81.311 121.307,80.467 121.523,76.419 C121.736,72.433 123.185,71.493 125.308,71.083 L141.355,67.993 Z M89.961,145.289 L94.508,175.08 C95.37,180.718 95.696,187.577 94.351,196.088 C82.225,191.202 71.094,187.122 62.993,186.525 C64.207,176.229 67.057,164.626 70.362,152.657 C77.11,151.063 83.631,148.554 89.961,145.289 Z M31.61,43.756 L31.289,35.721 C66.85,23.951 102.543,7.874 130.616,1.004 C145.437,-2.623 152.317,4.545 157.94,9.682 C163.03,14.339 163.095,20.251 158.903,25.112 L129.01,51.792 C145.209,48.128 158.743,46.9 167.904,50.507 C179.271,54.983 180.917,62.702 172.082,71.4 C162.035,81.293 150.551,88.616 139.938,96.472 C135.262,99.935 127.924,100.67 117.76,100.651 C111.399,100.641 107.805,104.701 106.508,112.867 C105.202,121.074 110.031,119.557 117.115,118.975 C126.568,118.198 136.854,120.149 147.011,116.724 C161.574,111.812 171.107,105.852 183.012,108.687 C189.339,110.194 194.748,113.829 200.049,117.689 C203.486,120.193 204.599,125.875 204.073,134.526 C203.668,141.202 200.444,139.258 194.905,136.654 C182.574,130.858 167.193,131.13 149.583,134.127 C140.78,135.624 132.043,135.938 123.618,135.471 C121.572,135.359 121.925,135.4 121.683,137.436 C118.218,166.456 116.95,207.032 114.544,226.338 C98.075,222.545 78.218,213.42 58.169,200.224 C54.798,198.004 53.961,199.1 52.183,201.585 C47.761,207.775 42.743,212.018 37.076,214.122 C31.226,216.294 29.133,213.18 31.933,206.088 C35.741,196.442 45.254,185.022 44.147,177.477 L44.469,168.798 L8.145,179.085 C-1.361,181.777 -2.25,171.448 4.608,167.191 C31.555,150.468 58.45,139.204 84.65,129.903 C80.984,126.229 86,115.446 88.185,105.474 C80.916,113.94 73.721,120.916 66.282,126.69 C57.532,133.479 53.174,131.979 57.325,122.188 L66.327,100.974 C44.981,109.193 26.92,113.28 12.002,115.117 C3.116,116.211 1.499,107.107 10.074,103.224 C38.386,90.402 66.793,78.011 94.937,64.971 C77.55,62.989 75.178,55.161 84.405,51.303 C93.633,47.446 103.139,45.211 112.017,37.924 C117.82,33.164 118.276,25.934 112.537,26.88 C101.334,28.726 94.208,40.423 85.262,46.345 C80.952,49.199 76.578,50.379 73.077,49.863 L31.61,43.756 L31.61,43.756 Z" id="Fill-1" fill="#1A1919" mask="url(#mask-2)"></path>
            </g>
            <path d="M157.813,141.69 C148.001,141.601 147.414,147.013 156.474,157.374 C163.253,165.125 170.593,172.595 178.55,175.605 C183.129,177.34 186.631,177.585 189.14,176.703 C195.549,174.446 195.47,164.81 190.322,153.755 C188.316,149.451 184.493,147.031 180.262,145.207 C173.213,142.166 164.555,141.484 157.813,141.69" id="Fill-4" fill="#1A1919"></path>
            <path d="M142.632,223.976 C137.182,228.97 138.346,232.143 144.665,233.982 C147.186,234.713 148.523,235.937 150.053,237.61 C152.78,240.585 156.508,239.01 159.245,235.838 C160.959,233.854 162.815,232.757 164.46,231.323 C167.576,228.605 166.77,224.311 160.747,220.699 C154.956,217.225 148.082,218.979 142.632,223.976" id="Fill-5" fill="#1A1919"></path>
            <g id="Group-9" transform="translate(0.000000, 235.000000)">
                <mask id="mask-4" fill="white">
                    <use xlink:href="#path-3"></use>
                </mask>
                <g id="Clip-7"></g>
                <path d="M55.989,57.877 L52.883,53.115 C60.341,39.664 65.784,25.703 71.723,10.055 C77.037,-3.954 89.572,-1.513 91.181,8.192 C94.7,29.406 76.753,45.396 55.989,57.877" id="Fill-6" fill="#1A1919" mask="url(#mask-4)"></path>
                <path d="M111.406,7.956 C111.762,-0.81 129.368,-2.42 130.339,9.788 C131.037,18.594 127.71,29.127 126.431,41.949 C125.817,48.121 125.852,53.329 132.591,51.063 C148.066,45.864 153.077,48.389 142.935,62.64 L125.693,82.592 L127.417,110.92 C129.727,104.327 131.171,93.399 132.836,83.578 C134.966,76.289 138.822,74.306 147.124,79.882 C148.044,80.501 148.251,82.934 149.358,82.934 C150.468,82.934 152.772,80.357 153.775,79.882 C170.572,71.954 165.929,69.717 171.016,63.626 C180.126,52.718 181.268,44.699 172.93,52.294 C166.995,57.705 161.634,63.44 158.207,59.438 C153.865,54.371 155.812,48.411 159.931,44.66 C169.381,36.058 177.476,30.607 185.304,28.893 C194.169,26.956 200.924,27.774 204.763,32.835 C208.331,37.537 204.25,44.8 197.867,51.802 L182.595,68.553 C188.999,66.746 195.403,64.939 201.808,63.134 C205.666,57.549 209.082,57.196 213.385,57.713 C219.644,58.467 224.158,57.372 226.932,58.946 C230.048,61.902 232.183,64.765 233.338,67.813 C235.511,73.551 231.642,76.252 225.456,77.419 L186.043,85.796 C185.77,89.261 186.934,90.831 188.507,90.721 C191.916,90.486 193.142,92.401 193.678,99.589 C193.871,102.175 192.57,111.109 196.142,152.304 C197.766,171.042 197.856,188.607 196.387,203.293 C193.267,234.52 168.096,219.965 151.311,207.48 C133.178,193.992 133.556,189.053 141.457,188.758 C152.113,188.361 161.229,199.632 174.713,198.859 C176.976,172.895 175.981,150.659 172.494,130.626 C171.028,122.202 169.047,113.877 167.322,105.501 C165.136,98.46 163.258,100.834 159.438,106.24 C156.088,110.984 150.239,110.922 144.169,107.964 C142.967,106.462 141.361,107.01 139.98,109.935 L135.792,118.803 C141.808,121.818 147.84,124.796 152.297,129.395 C159.987,137.331 158.206,147.111 154.265,145.95 C147.213,143.87 140.95,140.021 134.51,135.505 C129.29,131.845 126.508,136.065 128.402,144.914 L134.314,172.502 C137.672,183.728 132.775,188.475 122.491,186.789 C110.847,184.877 112.718,178.035 105.496,172.254 C97.447,165.818 93.585,168.195 93.424,154.765 C93.225,138.075 91.762,122.449 89.484,112.398 C87.644,104.288 90.284,100.589 94.656,99.835 C99.559,98.992 103.941,100.869 104.263,106.732 C105.748,133.665 99.151,149.267 112.393,160.186 C113.238,147.348 113.742,133.582 113.008,119.189 C112.611,111.386 111.536,103.814 110.666,95.156 C110.411,92.606 108.964,93.288 105.248,93.923 C101.928,94.493 98.515,93.397 95.149,91.954 C92.553,94.316 89.762,96.287 86.773,97.865 C86.133,105.539 84.697,112.253 82.094,117.573 C89.742,138.776 91.637,163.876 84.064,194.424 C81.154,206.165 66.126,205.722 65.145,193.64 C64.008,179.638 69.913,168.616 67.806,152.055 C50.794,178.048 30.16,199.363 5.488,215.362 C4.046,216.296 2.491,215.089 1.054,213.391 C-0.923,211.058 0.011,208.209 2.776,204.771 C14.06,190.74 24.266,176.559 32.724,162.044 C40.306,149.039 46.397,135.731 52.041,122.497 L66.328,88.997 C67.95,85.196 70.471,83.448 74.211,83.085 C90.61,81.494 104.517,75.298 114.116,62.149 C112.224,42.108 110.789,23.159 111.406,7.956" id="Fill-8" fill="#1A1919" mask="url(#mask-4)"></path>
            </g>
        </g>
    </g>
</svg>
