
<svg width="375px" height="651px" viewBox="0 0 375 651" version="1.1" xmlns="http://www.w3.org/2000/svg" xmlns:xlink="http://www.w3.org/1999/xlink">
    <g id="Page-1" stroke="none" stroke-width="1" fill="none" fill-rule="evenodd">
        <g id="iquan" fill="#1A1919">
            <path d="M130.749,426.788 C159.121,423.222 170.806,413.394 169.519,395.141 C155.023,402.738 144.001,413.786 130.749,426.788 Z M170.371,138.794 C157.794,137.218 146.182,140.79 134.549,143.861 C115.837,148.801 114.821,150.998 120.663,171.874 C134.628,156.634 151.92,147.087 170.371,138.794 Z M194.313,397.564 C210.642,390.742 222.068,381.658 231.997,370.884 C237.62,364.781 244.474,356.263 235.151,349.245 C226.957,343.076 218.753,349.673 213.635,356.493 C205.09,367.879 199.876,381.147 194.313,397.564 Z M141.201,208.931 C162.633,209.241 181.415,196.843 202.854,197.708 C204.436,197.772 206.603,194.217 207.763,191.966 C212.878,182.038 216.477,171.632 217.112,160.325 C217.574,152.098 216.076,147.735 206.659,152.849 C193.014,160.26 178.005,163.295 162.72,165.132 C153.741,166.21 145.116,168.425 137.11,172.863 C127.649,178.108 125.842,186.338 128.196,195.9 C129.194,199.956 132.771,202.791 136.478,199.658 C140.03,196.656 150.136,194.641 146.063,189.993 C127.825,169.183 152.111,175.758 157.22,173.449 C169.391,167.948 182.623,161.748 195.976,171.931 C199.647,174.731 205.634,176.151 204.726,181.812 C203.835,187.357 197.803,185.268 194.035,186.305 C175.488,191.415 156.809,196.126 141.201,208.931 Z M177.604,571.735 C154.712,564.898 138.294,568.726 127.222,582.385 C121.723,589.169 120.561,596.217 127.408,601.979 C136.237,609.41 145.745,616.072 154.854,623.178 C161.966,628.727 170.025,623.922 175.324,616.893 C181.575,608.6 177.827,605.783 169.043,603.949 C165.171,603.141 166.309,597.873 167.142,594.118 C168.886,586.258 172.626,579.339 177.604,571.735 Z M150.332,504.216 C136.418,522.595 121.558,539.991 103.739,554.9 C86.434,569.38 68.773,582.533 45.493,585.212 C41.515,585.67 37.313,587.527 32.622,582.945 C63.666,559.876 94.357,536.766 116.743,502.182 C102.446,504.453 90.13,506.422 79.026,497.73 C68.367,489.386 68.252,485.584 80.127,478.162 C89.32,472.416 99.912,471.062 110.218,468.69 C120.221,466.389 131.116,466.044 139.992,457.425 C128.182,454.746 117.197,453.146 107.646,447.304 C104.033,445.094 99.345,442.615 99.638,438.157 C100.044,431.98 106.648,432.863 110.788,431.378 C115.66,429.63 121.444,431.618 127.467,427.07 C109.767,411.151 108.121,391.286 114.386,369.864 C115.333,366.626 112.858,361.842 117.958,360.464 C122.123,359.339 125.607,362.001 127.343,365.073 C134.895,378.432 144.188,379.511 157.253,372.269 C174.161,362.895 188.895,352.356 191.054,331.433 C191.788,324.314 187.137,325.152 182.954,328.132 C172.847,335.334 171.045,327.961 173.63,321.386 C178.343,309.399 171,307.33 162.979,303.584 C139.896,292.804 118.02,280.612 117.383,249.834 C109.146,249.639 106.626,255.965 103.966,261.168 C96.982,274.833 90.129,288.6 84.081,302.693 C80.889,310.134 78.739,309.934 73.37,304.548 C57.492,288.62 57.138,285.696 72.158,266.929 C75.677,262.531 76.852,257.565 76.859,252.112 C76.867,245.849 78.818,239.653 84.937,237.925 C92.04,235.919 91.598,244.605 96.284,248.723 C102.579,242.458 106.114,230.163 118.945,235.19 C129.918,235.455 133.795,244.193 138.406,251.697 C157.007,281.973 192.077,296.686 227.977,288.697 C225.046,283.133 222.104,277.694 219.299,272.186 C215.912,265.54 212.858,262.74 207.627,271.172 C201.326,281.326 192.504,279.332 184.453,273.578 C175.746,267.355 171.492,258.734 172.657,247.555 C173.657,237.958 170.616,229.911 159.327,230.565 C145.752,231.353 132.269,233.711 118.746,235.389 C121.542,231.905 118.942,229.854 116.898,227.329 C108.469,216.919 102.407,205.169 98.469,192.41 C94.113,178.301 91.414,164.274 106.059,153.984 C101.341,148.613 97.345,150.933 93.554,151.934 C79.747,155.579 65.657,158.447 52.239,163.202 C29.528,171.251 15.858,158.211 0,142.718 C26.816,135.339 52.476,133.924 77.882,131.308 C108.468,128.158 139.229,126.03 167.338,111.857 C177.967,106.499 189.068,101.403 195.689,88.379 C183.587,87.625 175.151,92.935 166.493,97.403 C152.395,104.677 139.75,114.622 124.554,119.911 C117.274,122.445 110.928,122.093 106.141,115.466 C101.462,108.99 102.53,102.326 106.825,96.244 C112.847,87.716 121.468,82.622 132.571,79.104 C124.775,71.865 114.963,68.242 109.61,59.761 C107.384,56.233 103.968,52.421 105.975,48.128 C108.391,42.96 113.542,45.815 117.191,46.433 C133.557,49.202 150.017,49.063 166.384,47.76 C173.667,47.18 182.389,46.963 187.043,37.329 C178.736,33.414 170.721,37.646 162.248,35.31 C162.234,29.167 171.213,24.523 166.654,17.502 C163.312,12.355 159.772,7.337 154.879,0.144 C178.468,3.101 203.205,-4.059 214.824,24.078 C216.546,28.246 222.023,28.018 226.107,28.899 C235.853,31.004 245.995,34.426 246.864,45.442 C247.725,56.342 236.868,59.072 228.845,62.871 C225.076,64.655 221.124,66.051 216.357,67.987 C223.291,74.948 234.757,76.225 236.161,87.095 C237.712,99.099 226.351,102.151 218.941,110.264 C232.816,113.271 244.333,108.346 255.862,105.278 C273.168,100.674 290.609,106.93 299.937,121.649 C305.527,130.472 297.77,130.168 293.284,131.029 C275.462,134.45 257.389,133.752 239.354,133.703 C233.814,133.687 227.968,131.785 221.809,135.598 C226.427,141.02 233.092,141.471 238.403,144.232 C253.11,151.877 256.222,160.453 249.106,175.339 C247.283,179.153 244.749,182.636 243.027,186.489 C231.546,212.189 220.765,238.818 181.782,224.146 C192.073,234.466 201.048,242.163 214.989,240.386 C231.488,238.284 246.743,232.456 261.929,226.131 C284.83,216.59 310.279,224.846 322.921,245.745 C328.607,255.145 330.539,264.289 321.494,273.092 C312.296,282.044 305.488,276.311 298.229,270.115 C291.499,264.369 282.896,263.274 274.509,262.021 C268.842,261.175 262.689,262.151 257.745,256.816 C262.358,249.644 270.411,250.751 277.086,248.821 C282.31,247.31 286.244,244.597 283.502,238.654 C280.983,233.197 275.569,229.569 270.867,234.677 C259.514,247.011 243.588,250.283 229.245,257.317 C244.732,272.771 260.578,286.688 281.743,293.014 C286.665,294.485 292.731,296.769 292.387,303.093 C292.081,308.681 285.761,309.158 281.642,311.188 C258.672,322.515 235.247,323.761 210.018,310.954 C211.933,322.329 213.296,330.421 214.912,340.021 C218.701,338.958 222.461,337.834 226.256,336.848 C244.946,331.989 257.639,336.328 264.641,349.924 C272.769,365.707 269.687,380.404 253.925,391.586 C244.405,398.339 235.039,402.198 247.558,415.263 C252.798,420.731 246.223,426.817 240.498,430.4 C226.579,439.112 210.923,443.959 193.813,450.134 C206.969,458.451 216.345,451.49 225.693,446.792 C252.566,433.288 266.496,438.797 276.827,468.281 C260.558,468.044 244.89,458.871 227.932,466.467 C229.957,472.109 235.074,474.902 239.202,478.312 C276.205,508.874 316.841,533.518 360.603,553.206 C366.487,555.854 377.535,556.498 374.24,567.047 C371.443,576.001 362.283,576.781 354.067,575.755 C315.024,570.877 280.062,558.497 255.599,524.76 C244.16,508.983 231.387,494.013 215.797,481.231 C213.23,486.662 217.718,488.41 219.51,491.068 C225.714,500.275 226.696,506.547 212.621,507.616 C207.896,507.976 200.618,508.226 200.991,515.497 C201.28,521.148 207.234,522.278 211.989,522.609 C223.481,523.409 235.155,524.666 239.015,537.642 C242.872,550.606 235.406,559.885 225.977,567.799 C224.926,568.681 224.534,570.348 223.448,572.377 C238.354,574.512 252.348,577.17 258.6,592.928 C262.768,603.435 260.201,608.646 248.44,606.494 C241.727,605.265 235.234,602.821 228.646,600.914 C213.436,596.511 206.067,601.18 203.195,616.948 C202.246,622.16 201.565,627.485 199.958,632.501 C194.358,649.974 178.692,656.254 163.534,646.189 C151.222,638.015 139.506,629.062 126.83,621.257 C111.743,611.967 111.119,582.47 124.203,568.555 C137.142,554.794 153.668,546.31 170.209,537.77 C174.152,535.735 182.904,536.066 180.204,528.459 C178.223,522.877 171.44,520.697 165.378,521.164 C147.062,522.573 147.077,522.769 149.989,503.928 C159.914,495.561 172.42,493.377 184.221,489.401 C188.312,488.023 195.123,487.527 193.938,481.302 C192.748,475.06 186.282,475.116 181.034,475.301 C167.898,475.765 155.213,487.835 150.332,504.216 L150.332,504.216 Z" id="Fill-1"></path>
        </g>
    </g>
</svg>
