
<svg width="237px" height="615px" viewBox="0 0 237 615" version="1.1" xmlns="http://www.w3.org/2000/svg" xmlns:xlink="http://www.w3.org/1999/xlink">
    <g id="Page-1" stroke="none" stroke-width="1" fill="none" fill-rule="evenodd">
        <g id="Kanzi_black">
            <path d="M120.621,573.509 C109.275,569.248 121.28,556.256 125.172,551.388 C122.948,550.531 121.225,549.147 117.891,549.464 C112.719,559.706 104.184,566.397 98.78,576.394 C103.909,582.196 109.928,587.055 118.802,588.898 C126.016,584.842 133.465,568.216 142.462,559.082 C147.315,554.154 157.938,550.297 157.022,542.733 C156.487,538.317 151.518,536.019 147.013,535.037 C144.78,549.603 136.489,579.466 120.621,573.509 Z M145.192,470.598 C142.992,477.25 140.039,483.106 138.821,490.795 C149.957,489.152 165.215,473.271 145.192,470.598 Z M125.172,341.721 C138.346,340.722 139.102,317.366 126.081,315.752 C122.058,322.609 126.076,332.361 125.172,341.721 Z M155.203,278.243 C145.061,277.988 139.254,290.093 133.362,297.479 C137.523,297.069 141.078,296.016 146.102,296.517 C159.994,306.213 155.932,331.248 147.922,344.606 C153.25,344.147 157.285,342.318 161.572,340.759 C159.922,319.421 158.478,297.864 155.203,278.243 Z M110.611,226.307 C117.067,224.474 118.565,217.402 119.711,209.956 C113.023,207.526 108.853,219.74 110.611,226.307 Z M144.283,118.589 C143.606,125.715 145.755,129.856 145.192,136.863 C151.148,134.464 153.76,126.179 157.022,120.511 C160.289,114.84 166.222,107.647 163.393,99.354 C154.679,99.447 150.488,112.64 144.283,118.589 Z M99.69,101.277 C87.596,116.597 74.081,135.295 72.39,157.06 C67.162,224.342 67.086,294.148 75.12,366.726 C84.993,363.698 94.077,359.832 104.241,357.11 C104.299,352.046 99.081,351.179 97.87,345.568 C95.109,332.773 102.81,328.225 105.15,320.561 C111.016,301.353 107.563,272.777 111.521,253.237 C104.681,254.022 101.982,259.185 95.141,259.97 C90.962,254.758 83.887,250.174 84.22,243.619 C84.395,240.174 88.892,237.002 90.59,234.001 C94.751,226.651 98.6,218.498 104.241,209.956 C109.798,201.545 114.964,192.263 116.981,184.951 C106.636,184.918 105.304,194.41 94.23,193.607 C89.737,186.537 79.687,171.826 89.68,163.792 C112.85,165.816 130.602,157.059 125.172,132.054 C110.083,129.539 120.324,156.739 106.06,158.983 C101.469,155.821 94.142,155.551 89.68,152.25 C89.318,145.26 86.239,141.139 85.13,134.939 C92.196,130.921 100.207,101.933 111.521,106.085 C116.3,107.839 114.55,114.619 116.981,120.511 C125.003,116.371 126.725,113.441 126.081,106.085 C125.5,99.434 118.881,96.055 118.802,90.698 C118.719,85.117 122.689,80.887 126.992,77.232 C131.077,76.625 133.593,81.095 136.092,79.156 C138.235,73.122 145.6,63.306 140.642,56.074 C126.946,69.942 113.475,83.819 99.69,101.277 Z M84.22,43.57 C91.313,39.205 98.028,34.44 102.421,27.22 C90.394,19.993 83.12,30.893 84.22,43.57 Z M47.819,460.981 C46.857,467.347 43.94,479.957 44.179,490.795 C71.912,472.658 90.29,444.635 110.611,418.663 C102.025,417.924 96.014,419.907 87.861,419.624 C91.335,411.435 105.554,414.599 114.252,411.93 C116.961,407.741 119.159,403.012 121.531,398.465 C119.625,391.504 115.336,387.061 114.252,379.231 C100.405,384.471 86.155,389.289 74.209,396.541 C73.849,412.831 72.274,427.838 70.57,442.706 C61.555,434.602 58.829,419.851 54.189,407.121 C47.602,410.408 40.376,413.038 33.259,417.701 C29.76,419.992 24.228,427.425 20.518,427.32 C13.335,427.113 8.914,412.33 9.598,404.235 C10.493,393.616 19.462,386.899 22.338,380.193 C30.098,379.042 33.395,382.612 35.988,386.924 C41.696,384.62 46.867,381.751 50.549,377.306 C48.551,309.631 53.474,241.381 54.189,173.41 C43.191,193.526 35.898,217.557 25.978,238.812 C19.074,235.415 16.245,231.007 14.147,220.536 C12.545,212.538 7.313,211.835 8.688,200.341 C10.049,188.949 18.596,178.854 24.158,167.639 C28.449,158.988 32.517,150.015 36.898,141.672 C46.333,123.709 59.772,107.568 61.469,89.736 C49.723,89.729 50.264,105.273 39.628,104.162 C27.511,102.895 26.103,69.95 22.338,57.996 C26.286,56.587 29.62,65.428 35.988,67.616 C48.162,71.795 57.471,64.545 65.109,57.996 C64.4,48.863 68.181,40.742 66.929,31.067 C66.331,26.444 62.14,22.016 62.38,18.564 C62.802,12.465 73.13,1.951 77.85,1.253 C93.159,-1.015 94.027,25.847 114.252,21.449 C140.14,37.4 95.522,62.534 82.4,70.5 C80.29,75.544 79.038,87.152 83.31,90.698 C96.593,84.215 106.031,71.062 117.891,59.92 C128.715,49.751 143.788,39.879 150.653,27.22 C154.009,21.03 153.444,13.179 159.753,8.947 C171.607,15.55 178.283,38.399 171.583,54.149 C166.254,66.679 147.795,75.001 142.462,84.927 C143.379,88.766 147.919,88.777 149.742,91.66 C160.032,86.949 162.143,70.934 174.314,70.5 C183.672,70.167 194.203,82.258 194.334,92.62 C194.547,109.475 173.593,117.812 171.583,132.054 C173.522,142.104 185.136,145.161 182.504,157.06 C163.123,164.468 145.886,174.143 126.992,182.065 C132.684,186.309 141.884,186.845 147.013,191.683 C151.076,205.097 135.846,204.33 132.451,212.843 C140.506,213.971 148.419,206.642 155.203,203.225 C155.94,197.958 152.163,197.462 152.472,192.645 C165.808,200.496 182.634,219.124 161.572,232.078 C132.916,223.092 129.654,254.014 127.901,273.435 C135.416,273.303 140.723,258.574 152.472,256.123 C172.77,251.89 190.905,274.297 175.223,287.861 C177.032,303.262 177.36,320.227 177.044,337.872 C193.886,336.417 217.714,332.424 226.185,344.606 C222.946,374.204 197.08,379.889 170.673,385.001 C177.079,374.62 198.037,370.983 193.424,355.186 C175.304,355.032 156.648,362.423 142.462,369.613 C143.76,380.742 163.385,372.506 166.123,382.116 C164.496,391.312 162.794,400.231 156.113,404.235 C150.334,407.701 140.735,403.41 137.002,410.968 C161.609,414.61 203.986,417.388 223.456,431.166 C232.225,437.372 242.73,458.245 229.825,470.598 C219.818,480.178 201.171,477.296 183.413,480.217 C185.449,469.888 203.935,466.607 203.434,453.286 C202.93,439.859 169.255,429.014 153.383,425.395 C145.736,423.651 135.175,420.658 131.541,421.548 C127.127,422.628 121.856,431.963 119.711,435.013 C116.36,439.774 111.31,445.42 114.252,452.324 C121.615,456.96 123.834,441.781 132.451,437.899 C145.105,432.199 174.59,437.536 164.304,453.286 C156.2,455.623 152.199,462.294 147.922,468.675 C161.15,469.297 178.091,467.657 180.683,477.33 C185.928,496.901 150.391,504.567 136.092,509.07 C150.077,517.051 169.159,519.646 181.594,529.266 C182.887,534.41 182.887,542.397 181.594,547.54 C169.51,553.756 164.206,562.691 153.383,574.471 C149.569,578.619 144.232,581.438 141.552,585.051 C135.869,592.71 136.225,606.844 130.632,611.98 C125.779,616.435 114.644,614.261 111.521,611.018 C108.46,607.838 110.337,603.711 107.881,599.476 C103.698,592.264 96.913,589.556 86.04,590.82 C76.974,587.46 73.486,571.795 81.491,561.968 C83.485,559.518 87.144,559.94 89.68,558.12 C99.391,551.148 103.019,537.92 107.881,530.228 C113.653,529.597 117.784,527.231 123.351,526.381 C112.498,505.17 92.413,539.839 76.029,527.343 C74.895,503 96.208,494.213 113.341,485.987 C116.637,489.374 104.861,492.889 105.15,499.452 C108.219,503.741 114.459,499.649 118.802,499.452 C119.097,493.032 121.235,488.561 121.531,482.14 C111.841,478.733 99.937,486.635 93.321,479.255 C92.341,474.052 95.788,473.528 95.141,468.675 C72.042,489.146 53.028,513.935 33.259,537.922 C32.853,541.021 31.515,543.132 31.438,546.579 C26.867,552.007 20.113,555.128 13.237,558.12 C2.021,555.448 -2.28,545.065 2.317,531.191 C10.243,507.272 37.334,479.742 47.819,460.981 L47.819,460.981 Z" id="Fill-1" fill="#1A1919"></path>
            <path d="M120.621,573.509 C109.275,569.248 121.28,556.256 125.172,551.388 C122.948,550.531 121.225,549.147 117.891,549.464 C112.719,559.706 104.184,566.397 98.78,576.394 C103.909,582.196 109.928,587.055 118.802,588.898 C126.016,584.842 133.465,568.216 142.462,559.082 C147.315,554.154 157.938,550.297 157.022,542.733 C156.487,538.317 151.518,536.019 147.013,535.037 C144.78,549.603 136.489,579.466 120.621,573.509 Z M145.192,470.598 C142.992,477.25 140.039,483.106 138.821,490.795 C149.957,489.152 165.215,473.271 145.192,470.598 Z M125.172,341.721 C138.346,340.722 139.102,317.366 126.081,315.752 C122.058,322.609 126.076,332.361 125.172,341.721 Z M155.203,278.243 C145.061,277.988 139.254,290.093 133.362,297.479 C137.523,297.069 141.078,296.016 146.102,296.517 C159.994,306.213 155.932,331.248 147.922,344.606 C153.25,344.147 157.285,342.318 161.572,340.759 C159.922,319.421 158.478,297.864 155.203,278.243 Z M110.611,226.307 C117.067,224.474 118.565,217.402 119.711,209.956 C113.023,207.526 108.853,219.74 110.611,226.307 Z M144.283,118.589 C143.606,125.715 145.755,129.856 145.192,136.863 C151.148,134.464 153.76,126.179 157.022,120.511 C160.289,114.84 166.222,107.647 163.393,99.354 C154.679,99.447 150.488,112.64 144.283,118.589 Z M99.69,101.277 C87.596,116.597 74.081,135.295 72.39,157.06 C67.162,224.342 67.086,294.148 75.12,366.726 C84.993,363.698 94.077,359.832 104.241,357.11 C104.299,352.046 99.081,351.179 97.87,345.568 C95.109,332.773 102.81,328.225 105.15,320.561 C111.016,301.353 107.563,272.777 111.521,253.237 C104.681,254.022 101.982,259.185 95.141,259.97 C90.962,254.758 83.887,250.174 84.22,243.619 C84.395,240.174 88.892,237.002 90.59,234.001 C94.751,226.651 98.6,218.498 104.241,209.956 C109.798,201.545 114.964,192.263 116.981,184.951 C106.636,184.918 105.304,194.41 94.23,193.607 C89.737,186.537 79.687,171.826 89.68,163.792 C112.85,165.816 130.602,157.059 125.172,132.054 C110.083,129.539 120.324,156.739 106.06,158.983 C101.469,155.821 94.142,155.551 89.68,152.25 C89.318,145.26 86.239,141.139 85.13,134.939 C92.196,130.921 100.207,101.933 111.521,106.085 C116.3,107.839 114.55,114.619 116.981,120.511 C125.003,116.371 126.725,113.441 126.081,106.085 C125.5,99.434 118.881,96.055 118.802,90.698 C118.719,85.117 122.689,80.887 126.992,77.232 C131.077,76.625 133.593,81.095 136.092,79.156 C138.235,73.122 145.6,63.306 140.642,56.074 C126.946,69.942 113.475,83.819 99.69,101.277 Z M84.22,43.57 C91.313,39.205 98.028,34.44 102.421,27.22 C90.394,19.993 83.12,30.893 84.22,43.57 Z M47.819,460.981 C46.857,467.347 43.94,479.957 44.179,490.795 C71.912,472.658 90.29,444.635 110.611,418.663 C102.025,417.924 96.014,419.907 87.861,419.624 C91.335,411.435 105.554,414.599 114.252,411.93 C116.961,407.741 119.159,403.012 121.531,398.465 C119.625,391.504 115.336,387.061 114.252,379.231 C100.405,384.471 86.155,389.289 74.209,396.541 C73.849,412.831 72.274,427.838 70.57,442.706 C61.555,434.602 58.829,419.851 54.189,407.121 C47.602,410.408 40.376,413.038 33.259,417.701 C29.76,419.992 24.228,427.425 20.518,427.32 C13.335,427.113 8.914,412.33 9.598,404.235 C10.493,393.616 19.462,386.899 22.338,380.193 C30.098,379.042 33.395,382.612 35.988,386.924 C41.696,384.62 46.867,381.751 50.549,377.306 C48.551,309.631 53.474,241.381 54.189,173.41 C43.191,193.526 35.898,217.557 25.978,238.812 C19.074,235.415 16.245,231.007 14.147,220.536 C12.545,212.538 7.313,211.835 8.688,200.341 C10.049,188.949 18.596,178.854 24.158,167.639 C28.449,158.988 32.517,150.015 36.898,141.672 C46.333,123.709 59.772,107.568 61.469,89.736 C49.723,89.729 50.264,105.273 39.628,104.162 C27.511,102.895 26.103,69.95 22.338,57.996 C26.286,56.587 29.62,65.428 35.988,67.616 C48.162,71.795 57.471,64.545 65.109,57.996 C64.4,48.863 68.181,40.742 66.929,31.067 C66.331,26.444 62.14,22.016 62.38,18.564 C62.802,12.465 73.13,1.951 77.85,1.253 C93.159,-1.015 94.027,25.847 114.252,21.449 C140.14,37.4 95.522,62.534 82.4,70.5 C80.29,75.544 79.038,87.152 83.31,90.698 C96.593,84.215 106.031,71.062 117.891,59.92 C128.715,49.751 143.788,39.879 150.653,27.22 C154.009,21.03 153.444,13.179 159.753,8.947 C171.607,15.55 178.283,38.399 171.583,54.149 C166.254,66.679 147.795,75.001 142.462,84.927 C143.379,88.766 147.919,88.777 149.742,91.66 C160.032,86.949 162.143,70.934 174.314,70.5 C183.672,70.167 194.203,82.258 194.334,92.62 C194.547,109.475 173.593,117.812 171.583,132.054 C173.522,142.104 185.136,145.161 182.504,157.06 C163.123,164.468 145.886,174.143 126.992,182.065 C132.684,186.309 141.884,186.845 147.013,191.683 C151.076,205.097 135.846,204.33 132.451,212.843 C140.506,213.971 148.419,206.642 155.203,203.225 C155.94,197.958 152.163,197.462 152.472,192.645 C165.808,200.496 182.634,219.124 161.572,232.078 C132.916,223.092 129.654,254.014 127.901,273.435 C135.416,273.303 140.723,258.574 152.472,256.123 C172.77,251.89 190.905,274.297 175.223,287.861 C177.032,303.262 177.36,320.227 177.044,337.872 C193.886,336.417 217.714,332.424 226.185,344.606 C222.946,374.204 197.08,379.889 170.673,385.001 C177.079,374.62 198.037,370.983 193.424,355.186 C175.304,355.032 156.648,362.423 142.462,369.613 C143.76,380.742 163.385,372.506 166.123,382.116 C164.496,391.312 162.794,400.231 156.113,404.235 C150.334,407.701 140.735,403.41 137.002,410.968 C161.609,414.61 203.986,417.388 223.456,431.166 C232.225,437.372 242.73,458.245 229.825,470.598 C219.818,480.178 201.171,477.296 183.413,480.217 C185.449,469.888 203.935,466.607 203.434,453.286 C202.93,439.859 169.255,429.014 153.383,425.395 C145.736,423.651 135.175,420.658 131.541,421.548 C127.127,422.628 121.856,431.963 119.711,435.013 C116.36,439.774 111.31,445.42 114.252,452.324 C121.615,456.96 123.834,441.781 132.451,437.899 C145.105,432.199 174.59,437.536 164.304,453.286 C156.2,455.623 152.199,462.294 147.922,468.675 C161.15,469.297 178.091,467.657 180.683,477.33 C185.928,496.901 150.391,504.567 136.092,509.07 C150.077,517.051 169.159,519.646 181.594,529.266 C182.887,534.41 182.887,542.397 181.594,547.54 C169.51,553.756 164.206,562.691 153.383,574.471 C149.569,578.619 144.232,581.438 141.552,585.051 C135.869,592.71 136.225,606.844 130.632,611.98 C125.779,616.435 114.644,614.261 111.521,611.018 C108.46,607.838 110.337,603.711 107.881,599.476 C103.698,592.264 96.913,589.556 86.04,590.82 C76.974,587.46 73.486,571.795 81.491,561.968 C83.485,559.518 87.144,559.94 89.68,558.12 C99.391,551.148 103.019,537.92 107.881,530.228 C113.653,529.597 117.784,527.231 123.351,526.381 C112.498,505.17 92.413,539.839 76.029,527.343 C74.895,503 96.208,494.213 113.341,485.987 C116.637,489.374 104.861,492.889 105.15,499.452 C108.219,503.741 114.459,499.649 118.802,499.452 C119.097,493.032 121.235,488.561 121.531,482.14 C111.841,478.733 99.937,486.635 93.321,479.255 C92.341,474.052 95.788,473.528 95.141,468.675 C72.042,489.146 53.028,513.935 33.259,537.922 C32.853,541.021 31.515,543.132 31.438,546.579 C26.867,552.007 20.113,555.128 13.237,558.12 C2.021,555.448 -2.28,545.065 2.317,531.191 C10.243,507.272 37.334,479.742 47.819,460.981 Z" id="Stroke-3" stroke="#1A1919"></path>
        </g>
    </g>
</svg>
