
<svg width="264px" height="623px" viewBox="0 0 264 623" version="1.1" xmlns="http://www.w3.org/2000/svg" xmlns:xlink="http://www.w3.org/1999/xlink">
    <defs>
        <polygon id="path-1" points="0.473990432 0.104983182 245.48567 0.104983182 245.48567 605.94 0.473990432 605.94"></polygon>
    </defs>
    <g id="Page-1" stroke="none" stroke-width="1" fill="none" fill-rule="evenodd">
        <g id="kobudo">
            <path d="M90.708,106.801 C96.087,109.273 98.477,111.894 100.605,114.819 C109.359,126.851 113.5,140.916 118.024,154.773 C120.342,161.872 123.499,163.577 130.154,161.385 C137.666,158.91 144.291,154.159 152.388,153.133 C154.885,152.817 156.202,150.423 157.24,147.94 C160.995,138.951 163.486,129.53 168.207,120.812 C171.375,114.961 174.514,106.819 172.835,101.126 C169.935,91.289 172.559,83.947 176.998,76.076 C178.337,73.704 179.269,71.021 179.919,68.367 C180.483,66.07 182.323,63.336 180.367,61.311 C177.895,58.752 175.157,61.241 172.783,62.228 C144.429,74.014 119.482,91.935 90.708,106.801 Z M84.662,104.939 C76.186,100.593 78.068,95.652 81.864,89.174 C86.859,80.647 90.368,71.242 94.417,62.171 C96.543,57.409 95.188,55.229 89.782,56.508 C82.55,58.22 75.131,59.387 68.131,61.779 C56.168,65.867 44.153,64.34 32.196,62.944 C18.154,61.305 7.924,53.348 0,41.49 C33.031,44.398 63.618,33.481 94.977,28.065 C102.372,26.788 104.353,21.151 100.353,14.158 C98.093,10.207 92.346,5.971 94.622,2.373 C97.091,-1.531 103.818,0.744 108.659,0.88 C120.325,1.208 122.877,3.774 122.342,16.254 C122.125,21.299 123.201,21.799 127.63,20.917 C141.689,18.119 155.784,15.454 169.94,13.213 C174.93,12.422 181.113,8.959 184.621,16.572 C178.848,17.813 173.028,18.02 167.262,21.279 C169.158,21.896 170.345,22.283 172.026,22.831 C162.263,25.065 152.912,27.204 141.87,29.731 C154.416,32.675 163.618,23.369 176.061,26.538 C169.938,27.222 164.952,26.852 161.998,31.754 C168.71,33.361 174.464,27.028 181.656,29.829 C176.091,33.31 170.121,33.968 164.264,35.143 C159.078,36.184 151.928,35.101 153.237,44.364 C153.474,46.037 150.733,46.261 149.358,46.529 C141.785,48.002 134.175,49.31 126.541,50.425 C121.481,51.164 118.093,53.071 116.692,58.589 C114.675,66.535 111.82,74.267 108.955,83.241 C115.678,80.981 120.584,77.101 125.778,73.864 C138.238,66.098 151.284,59.474 165.083,54.533 C171.73,52.153 178.404,50.537 186.043,51.434 C204.546,53.606 208.926,65.308 201.285,80.715 C190.629,102.205 180.734,124.08 168.966,145.023 C166.151,150.034 164.455,155.684 162.351,161.081 C159.553,168.254 155.713,169.894 148.751,166.179 C146.493,164.974 145.698,166.592 144.606,167.351 C139.66,170.786 134.888,174.468 130.006,177.995 C124.275,182.134 118.744,181.542 111.731,179.977 C98.301,176.979 97.195,166.951 95.956,157.058 C94.383,144.495 86.811,135.339 79.886,125.872 C76.846,121.716 73.511,117.432 69.706,113.958 C64.733,109.416 66.23,104.669 69.228,101.179 C72.917,96.885 76.433,101.011 79.465,103.657 C80.683,104.72 81.786,106.049 84.662,104.939 L84.662,104.939 Z" id="Fill-1" fill="#1A1919"></path>
            <path d="M134.251,301.792 C138.932,305.797 152.193,303.694 155.002,299.594 C155.769,298.476 155.581,297.502 154.942,296.641 C153.993,295.364 152.754,295.569 151.323,296.074 C145.968,297.963 140.558,299.695 134.251,301.792 Z M143.638,321.173 C149.861,318.417 154.184,313.654 159.316,310.032 C159.741,309.732 159.008,307.514 158.542,306.291 C157.8,304.344 156.317,304.961 155.281,305.864 C150.949,309.635 146.666,313.469 142.511,317.433 C141.92,317.998 141.932,319.423 142.061,320.398 C142.11,320.773 143.264,321.003 143.638,321.173 Z M97.9,318.668 C109.844,319.121 114.423,322.08 116.867,331.571 C117.824,335.285 119.043,335.228 121.92,334.011 C132.903,329.369 135.965,313.818 127.715,305.102 C124.981,302.212 122.422,304.107 120.151,304.932 C97.901,313.011 74.484,315.126 51.331,318.46 C34.955,320.819 20.942,315.777 8.327,304.019 C10.237,301.46 12.622,302.783 15.052,302.93 C27.62,303.689 38.946,301.929 50.922,295.646 C64.392,288.579 73.924,277.439 86.106,269.373 C87.546,268.418 88.837,267.16 88.194,265.331 C87.908,264.517 86.696,263.87 85.765,263.472 C83.191,262.372 81.671,263.786 80.367,265.868 C73.327,277.107 62.011,283.133 51.124,289.655 C50.582,289.98 49.614,289.595 48.73,289.532 C51.086,284.293 61.151,284.295 57.911,274.751 C54.044,277.815 50.756,280.421 47.469,283.026 C51.304,274.298 45.896,274.249 39.988,272.712 C33.42,271.003 27.155,267.594 21.975,262.826 C20.844,261.784 19.199,260.522 20.001,258.724 C20.925,256.657 22.665,257.577 24.284,258.089 C41.912,263.666 57.738,255.294 74.13,251.459 C75.522,251.133 76.838,249.527 77.733,248.207 C80.576,244.009 83.963,243.337 88.375,245.716 C94.353,248.939 101.536,249.958 106.335,255.245 C90.781,268.188 76.923,282.615 61.265,294.384 C62.047,296.802 63.327,296.767 64.258,296.485 C90.092,288.681 116.347,282.691 142.95,278.22 C146.901,277.556 146.875,275.825 145.826,272.437 C141.102,257.189 135.688,242.224 128.742,227.802 C139.76,225.408 149.927,232.204 153.315,244.129 C155.261,250.981 157.222,257.831 159.043,264.716 C160.687,270.93 163.029,275.67 170.817,272.03 C171.942,271.504 173.462,271.822 176.038,271.683 C173.646,273.454 172.209,274.518 169.565,276.476 C177.57,278.23 183.887,275.42 189.047,272.42 C192.738,270.275 187.366,267.616 185.728,267.022 C178.397,264.357 173.648,258.35 167.618,254.051 C166.66,253.369 166.14,252.073 165.852,250.268 C178.604,261.578 195.133,261.892 210.097,266.605 C211.661,267.098 213.189,267.771 214.647,268.528 C217.704,270.115 220.806,272.435 220.564,275.887 C220.336,279.112 216.197,278.936 213.793,279.564 C201.827,282.688 189.731,285.304 177.704,288.199 C167.153,290.74 167.514,290.66 171.389,300.321 C179.884,321.498 187.998,342.828 196.221,364.114 C196.493,364.817 196.255,365.716 195.618,366.808 C186.553,350.401 182.779,331.547 171.808,315.942 C174.292,322.519 176.817,329.082 179.252,335.677 C183.957,348.415 189.886,360.676 193.249,373.944 C195.678,383.525 202.886,386.924 211.468,383.872 C214.597,382.758 216.315,380.44 216.352,377.906 C216.562,363.696 228.611,355.646 232.879,343.608 C234.33,349.017 231.352,353.151 228.939,356.717 C224.829,362.79 226.359,369.965 223.557,376.175 C222.38,378.781 224.221,380.405 227.166,379.707 C229.179,379.23 231.122,378.463 233.379,377.735 C231.591,391.302 222.77,396.311 210.615,393.613 C194.865,390.117 187.037,379.951 181.746,365.873 C175.348,348.848 168.066,332.156 161.304,315.657 C144.485,332.099 127.583,348.678 105.491,358.631 C99.473,361.342 93.248,361.848 86.834,361.3 C84.823,361.128 82.79,360.407 82.572,358.146 C82.372,356.071 84.698,355.822 86.009,355.175 C92.5,351.976 99.771,350.3 99.859,340.355 C99.921,333.239 101.923,326.165 97.9,318.668 L97.9,318.668 Z" id="Fill-3" fill="#1A1919"></path>
            <g id="Group-9" transform="translate(18.000000, 17.000000)">
                <mask id="mask-2" fill="white">
                    <use xlink:href="#path-1"></use>
                </mask>
                <g id="Clip-5"></g>
                <path d="M123.15,554.65 C117.304,556.502 112.768,560.087 108.275,566.321 C117.031,565.658 119.716,559.698 123.15,554.65 Z M118.745,547.361 C111.038,548.089 105.725,550.94 103.192,557.968 C102.738,559.229 101.739,560.574 103.151,561.691 C104.368,562.654 105.943,562.277 106.944,561.363 C111.283,557.403 116.709,554.314 118.745,547.361 Z M135.172,564.648 C144.818,555.884 146.313,528.092 138.379,520.527 C141.185,535.281 137.585,549.252 135.172,564.648 Z M103.826,569.362 C107.166,574.92 110.954,576.453 116.599,574.744 C128.344,571.187 129.555,569.854 129.931,557.204 C125.95,560.03 122.053,562.506 118.494,565.398 C114.399,568.725 109.512,568.969 103.826,569.362 Z M132.001,536.886 C131.422,530.936 130.809,526.578 130.616,522.201 C130.308,515.263 126.423,514.682 121.022,516.421 C111.171,519.593 102.967,531.161 102.708,542.499 C111.45,536.785 120.358,532.128 132.001,536.886 Z M106.418,496.26 C102.694,503.836 97.077,510.311 95.003,521.043 C100.852,515.458 102.51,509.354 109.001,504.42 C106.028,510.588 103.951,514.895 100.882,521.26 C106.676,516.544 110.623,513.369 114.53,510.144 C120.607,505.127 127.76,505.127 135.021,505.755 C139.12,506.11 141.824,509.022 142.818,512.383 C148.993,533.28 151.047,554.168 139.073,573.883 C131.118,586.982 115.424,589.192 103.816,579.166 C100.067,575.926 97.379,572.383 92.982,578.755 C91.546,580.837 86.729,580.89 86.261,576.346 C85.779,571.678 83.742,567.791 86.313,561.916 C89.76,554.041 88.428,544.065 89.07,534.986 C89.121,534.254 88.801,533.12 88.268,532.786 C85.149,530.828 84.572,530.164 85.756,527.31 C90.606,515.616 95.821,504.123 106.418,496.26 L106.418,496.26 Z" id="Fill-4" fill="#1A1919" mask="url(#mask-2)"></path>
                <path d="M200.746,597.543 C194.43,596.007 189.352,598.857 184.1,600.191 C189.298,598.388 195.691,607.043 200.746,597.543 Z M135.729,601.57 C149.848,601.57 163.966,601.57 178.085,601.57 C164.026,600.705 150.034,597.553 135.729,601.57 Z M70.867,597.03 C74.118,593.546 77.567,596.352 80.404,594.614 C74.489,593.273 68.818,591.658 63.036,590.768 C57.027,589.844 50.91,589.818 44.381,590.771 C45.933,593.666 49.06,591.345 50.978,593.423 C41.588,595.79 32.472,598.262 23.262,600.31 C20.03,601.028 16.984,601.269 14.154,603.586 C10.809,606.325 6.136,606.768 2.506,604.735 C-0.898,602.828 0.907,598.575 1.334,595.54 C1.928,591.317 4.737,588.85 9.418,588.826 C18.742,588.777 24.845,584.593 25.736,574.123 C25.256,582.737 29.431,589.04 37.298,588.457 C54.031,587.215 70.436,592.173 86.676,591.352 C102.534,590.55 118.416,588.835 134.374,588.908 C156.782,589.011 179.21,589.235 201.167,583.799 C207.026,582.348 212.781,580.328 218.4,578.104 C226.071,575.069 231.401,569.822 232.115,560.697 C243.109,581.851 225.447,601.853 208.214,603.736 C174.728,607.395 141.361,604.737 108.117,601.22 C95.988,599.937 84.031,596.604 70.867,597.03 L70.867,597.03 Z" id="Fill-6" fill="#1A1919" mask="url(#mask-2)"></path>
                <path d="M91.986,465.574 C104.842,454.64 112.977,439.404 129.023,429.792 C120.425,428.404 115.73,432.554 110.354,434.27 C105.904,435.69 101.683,438.072 97.151,438.958 C80.713,442.17 69.241,434.607 64.299,417.556 C69.615,417.889 71.675,421.874 73.558,425.63 C76.9,432.294 82.378,433.211 88.873,432.114 C100.286,430.185 109.897,424.078 119.87,418.805 C122.305,417.518 124.639,415.938 127.209,415.031 C133.817,412.698 139.374,415.922 143.81,419.954 C148.561,424.27 142.445,427.475 140.678,430.289 C135.411,438.676 128.577,445.976 121.201,452.641 C115.379,457.901 106.482,455.925 100.474,461.253 C98.176,463.293 94.846,464.168 91.986,465.574" id="Fill-7" fill="#1A1919" mask="url(#mask-2)"></path>
                <path d="M217.32,15.951 C205.882,6.416 191.226,9.162 178.021,2.388 C186.729,1.092 196.392,-1.276 201.296,1.162 C210.6,5.786 220.186,2.286 228.813,6.007 C236.286,9.23 239.184,17.185 244.975,22.213 C246.359,23.415 244.643,25.157 243.231,26.202 C240.394,28.299 238.619,31.679 234.886,33.114 C234.747,30.374 239.081,28.333 236.363,25.75 C233.891,23.403 230.993,24.21 228.053,25.859 C222.052,29.226 217.467,25.433 213.937,21.522 C211.432,18.748 218.09,18.08 217.32,15.951" id="Fill-8" fill="#1A1919" mask="url(#mask-2)"></path>
            </g>
            <path d="M141.743,474.391 C132.643,489.715 118.439,498.465 102.453,504.948 C97.397,506.999 92.294,507.776 87.201,505.377 C84.29,504.006 82.043,501.428 82.721,498.226 C83.236,495.793 84.738,493.297 88.113,492.709 C94.669,491.564 100.284,488.08 106.92,484.092 C106.518,492.206 97.69,492.636 95.978,499.064 C109.518,495.966 119.871,487.087 131.174,480.062 C134.596,477.935 137.25,474.325 141.882,474.548 L141.743,474.391" id="Fill-10" fill="#1A1919"></path>
            <path d="M57.358,563.17 C57.954,556.441 61.809,552.723 62.451,547.675 C63.093,542.622 62.25,541.031 57.046,542.831 C51.057,544.901 45.14,547.118 39.937,550.73 C36.397,553.187 32.852,552.399 31.707,549.305 C30.845,546.976 29.568,542.589 34.955,540.803 C41.429,538.657 47.602,535.623 54.387,534.315 C60.066,533.221 65.253,534.227 68.071,539.449 C70.615,544.165 69.253,549.1 65.858,553.254 C63.428,556.227 60.865,559.091 57.358,563.17" id="Fill-11" fill="#1A1919"></path>
            <path d="M141.882,474.548 C147.576,469.829 154.073,470.051 160.066,475.444 C165.522,480.352 161.254,484.672 158.452,488.353 C153.873,494.371 149.09,500.41 141.743,503.82 C142.657,498.643 149.832,494.31 144.356,487.108 C144.297,487.162 145.728,485.88 147.118,484.556 C149.889,481.919 154.056,479.209 152.052,475.033 C149.645,470.019 145.237,474.828 141.745,474.391 C141.743,474.391 141.882,474.548 141.882,474.548" id="Fill-12" fill="#1A1919"></path>
            <path d="M38.695,525.86 C39.149,521.027 38.911,514.53 42.685,514.541983 C47.649,514.558 48.566,520.738 48.913,525.522 C49.218,529.729 46.712,531.747 43.062,531.957 C37.952,532.25 38.675,528.308 38.695,525.86" id="Fill-13" fill="#1A1919"></path>
        </g>
    </g>
</svg>
