<svg xmlns="http://www.w3.org/2000/svg" xmlns:xlink="http://www.w3.org/1999/xlink" viewBox="0 0 265.76 303.7"><defs><style>.cls-1,.cls-8{fill:#dadada;}.cls-1,.cls-10,.cls-11,.cls-12,.cls-2,.cls-3,.cls-4,.cls-7,.cls-9{stroke:#dadada;stroke-miterlimit:22.93;}.cls-2,.cls-3,.cls-6,.cls-9{fill:#0072bb;}.cls-10,.cls-12,.cls-2{stroke-width:0.35px;}.cls-10,.cls-11,.cls-12,.cls-2,.cls-5,.cls-7,.cls-8,.cls-9{fill-rule:evenodd;}.cls-3{stroke-width:2px;}.cls-11,.cls-4,.cls-9{stroke-width:0.5px;}.cls-4{fill:url(#GradientFill_1);}.cls-10,.cls-5{fill:#e30613;}.cls-7{stroke-width:0.22px;fill:url(#GradientFill_1-2);}.cls-11,.cls-12{fill:#fff;}.cls-13{fill:#ededed;}</style><linearGradient id="GradientFill_1" x1="133.57" y1="41.54" x2="133.57" y2="207.74" gradientTransform="translate(57.34 -41.39) rotate(22.32)" gradientUnits="userSpaceOnUse"><stop offset="0" stop-color="#9d9d9c"/><stop offset="0.52" stop-color="#fff"/><stop offset="1" stop-color="#9d9d9c"/></linearGradient><linearGradient id="GradientFill_1-2" x1="136.38" y1="190.28" x2="136.38" y2="324.93" gradientTransform="matrix(1, 0, 0, 1, 0, 0)" xlink:href="#GradientFill_1"/></defs><g id="Layer_2" data-name="Layer 2"><g id="Layer_1-2" data-name="Layer 1"><path class="cls-1" d="M29.21,212.29H238a12.24,12.24,0,0,1,12.2,12.19h0V291h0A12.22,12.22,0,0,1,238,303.19H29.2A12.22,12.22,0,0,1,17,291h0V224.5h0a12.24,12.24,0,0,1,12.18-12.2h0Zm208.73,4.17H29.18a8.08,8.08,0,0,0-8,8h0V291h0a8.09,8.09,0,0,0,8,8H238a8.09,8.09,0,0,0,8-8h0v-66.5h0a8.08,8.08,0,0,0-8-8h0Z"/><path class="cls-2" d="M263.63,148.9c-3.34-5.83-9.6-7.34-13-6.53l-1.6,7.22c2.13.59-6.69,18.43-4.1,23.9.59,1.24,18.18-8.75,17.45-8a14.85,14.85,0,0,0,2.45-5.34C266,155.93,266,152.93,263.63,148.9Z"/><path class="cls-2" d="M.57,156.45C-2,149.32,9.1,143,15.76,142.37l1.61,7.22c-2.14.59,6.68,18.43,4.09,23.9-.58,1.24-18.17-8.75-17.45-8C2.19,162.6,2.27,162.76.57,156.45Z"/><circle class="cls-3" cx="133.57" cy="124.64" r="123.64" transform="translate(-10.95 236.4) rotate(-80.73)"/><circle class="cls-4" cx="133.57" cy="124.64" r="83.1" transform="translate(-37.33 60.06) rotate(-22.32)"/><path class="cls-5" d="M133.13,96.65a24.88,24.88,0,1,1-24.88,24.88A24.93,24.93,0,0,1,133.13,96.65Z"/><path class="cls-5" d="M133.13,48.92a72.61,72.61,0,1,1-72.6,72.61,72.74,72.74,0,0,1,72.6-72.61Zm65,59.4C191.46,79,166.08,58.1,135.41,54.74c4,27.08,27.41,52.18,62.74,53.58Zm0,26.72c-35.33,1.4-58.71,26.5-62.74,53.58,30.67-3.36,56.05-24.25,62.74-53.58ZM68.09,108.32c35.33-1.4,58.71-26.5,62.74-53.58-30.66,3.36-56,24.25-62.74,53.58Zm0,26.72c6.7,29.33,32.08,50.22,62.74,53.58-4-27.08-27.41-52.18-62.74-53.58Zm65-44.5a31,31,0,1,0,31,31A31,31,0,0,0,133.13,90.54Z"/><rect class="cls-6" x="19.08" y="214.38" width="228.99" height="86.74" rx="10.13"/><path class="cls-7" d="M40.66,279.11A18.32,18.32,0,0,1,38,280.67v7H63.2V280.2l-1.9-.64,1.24-3.27H82.31l1.23,3.4-1.45.45v7.52h51.09V280l-2.59-.69v-8.41l6.17-5.48L146,280l-.66.23v7.42h55V280l-2.59-.69V268h9.67a52.59,52.59,0,0,0,13.42-1.31,24,24,0,0,0,4.88-2,19.54,19.54,0,0,0,3.36-2.59,29.53,29.53,0,0,0,2.25-2.72,27.78,27.78,0,0,0,1.72-3.12,31.05,31.05,0,0,0,1.16-3.45,32.65,32.65,0,0,0,.54-3.7c0-1.18,0-2.3-.06-3.48a25.5,25.5,0,0,0-1.14-5.18,26.92,26.92,0,0,0-1.32-2.83A21.32,21.32,0,0,0,229,233.6a24.67,24.67,0,0,0-3.41-2.53,28.8,28.8,0,0,0-4-1.84,36.61,36.61,0,0,0-4.61-1.17,46.64,46.64,0,0,0-6.47-.51H141.79v5.38l.26,1-11.46,10.14v-8.2l2.59-.7v-7.62H106.09v7.62l2.5.68v43.51l-1.54.42-1.14-.49c-.12-.24-.21-.5-.31-.76l-17-42.81,1-.12v-8H56.17v8l.92.13C52.47,249,47.23,262.12,42.6,275.43a8.89,8.89,0,0,1-1.94,3.68Zm35.27-18.62h-7.6l3.67-10,3.93,10Zm95.66,18.59-3.08-3.64L153,251.11l15.42-13.59A6.29,6.29,0,0,1,171,236.1l3.16-.69,1.62.44v43.51l-1.71.46a16.65,16.65,0,0,1-2.43-.74Zm42.26-31.39c0,.92-.15,1.15-.95,1.6-2.24,1-4.87,1-7.26,1h-7.91v-5c4.14,0,8.35-.17,12.49.22a7.75,7.75,0,0,1,3.27.92A1.68,1.68,0,0,1,213.85,247.69Z"/><path class="cls-5" d="M105,284.15v-1.42c-1.84-.67-2.17-1.59-2.67-2.93L85.44,237.25a17,17,0,0,1-.92-3.18c0-1.09.42-1.51,1.59-1.59v-1.42H59.69v1.42c1.08.08,1.5.5,1.5,1.59a15.28,15.28,0,0,1-.92,3.18l-14,38.21c-1.09,3.09-1.84,5.76-4.78,7.27v1.42H59.69v-1.42c-1.42-.42-2.18-1.09-2.18-2.43a5.79,5.79,0,0,1,.42-1.75l2.17-5.77H84.77l2.09,5.77a7.48,7.48,0,0,1,.58,2.34c0,.92-.58,1.5-1.83,1.84v1.42ZM81.09,264H63.28l8.61-23.33L81.09,264Zm90.3,20.15v-1.42c-2.76-.67-4.18-2.84-6.19-5.94l-16.81-26.33,17.14-15.05a9.35,9.35,0,0,1,5.52-2.93v-1.42H145.3v1.42c1.17,0,1.67.25,1.67,1.17,0,.5-.92,1.42-2.42,2.76l-17.47,15.47V235.41c0-1.93.5-2.43,2.59-2.93v-1.42H109.6v1.42c2.09.5,2.51,1,2.51,2.93V279.8c0,1.93-.42,2.43-2.51,2.93v1.42h20.07v-1.42c-2.09-.5-2.59-1-2.59-2.93V269.35l10.45-9.28L149,278.21c.75,1.09,1.59,1.93,1.59,2.76s-.67,1.42-1.76,1.76v1.42Zm59.86-36.29c0-10.28-7.19-16.8-20.82-16.8H176.74v1.42c2.09.5,2.51,1,2.51,2.93V279.8c0,1.93-.42,2.43-2.51,2.93v1.42H196.8v-1.42c-2.09-.5-2.59-1-2.59-2.93V264.5h12.46c7.77,0,13.29-.42,17.72-3.09a16,16,0,0,0,6.86-13.55Zm-13.88-.16c0,4.51-3.84,6.1-11.7,6.1H194.21v-12h11C213.53,241.76,217.37,242.85,217.37,247.7Z"/><path class="cls-8" d="M160.71,207.29a46.27,46.27,0,0,1,12,1.3c7.13,1.72,13.91,4.6,20.73,7.26a108.35,108.35,0,0,0,12.3,4.14l2.06.46a43.86,43.86,0,0,0,15.58.37,22.11,22.11,0,0,0,3.15-1,23.84,23.84,0,0,0,2.78-1.57,28.1,28.1,0,0,0,3.22-2.76,105.68,105.68,0,0,0,8.49-11,108.81,108.81,0,0,1,6.89-8.56c1-1,1.92-2.05,2.88-3.09a69.61,69.61,0,0,0,7.66-10.09,49.92,49.92,0,0,0,2.64-5.15,46.23,46.23,0,0,0,2.41-7.65c.91-4.41,1.52-8.89,2.25-13.33-6.39,7.16-11.13,13.65-21.06,16.37l-3.16.49c-1.66.12-3.26.16-4.92.14-2.31-.11-4.54-.33-6.83-.64-4.7-.73-9.33-1.73-14-2.66l-9.22-1.4a29.86,29.86,0,0,0-7.83.62,37.19,37.19,0,0,0-6.51,2.19,45.52,45.52,0,0,0-5.18,2.83,55.48,55.48,0,0,0-5.29,4c-4.53,3.92-9.13,7.71-14,11.28-3.27,2.36-6.58,4.57-10,6.64-2.51,1.47-5,2.84-7.64,4.15-8.68,4.24-4.68,2.53-12.75,8C148.26,206.21,149.76,207.84,160.71,207.29Z"/><path class="cls-8" d="M105.65,207.29a46.35,46.35,0,0,0-12,1.3c-7.12,1.72-13.91,4.6-20.72,7.26A108.51,108.51,0,0,1,60.6,220l-2.06.46a43.8,43.8,0,0,1-15.57.37,21.71,21.71,0,0,1-3.15-1A23.17,23.17,0,0,1,37,218.26a28,28,0,0,1-3.21-2.76,104.42,104.42,0,0,1-8.5-11c-2.18-3-4.42-5.82-6.88-8.56-1-1-1.93-2.05-2.88-3.09a70.4,70.4,0,0,1-7.67-10.09,48,48,0,0,1-2.63-5.15A46.23,46.23,0,0,1,2.85,170c-.92-4.41-1.53-8.89-2.26-13.33C7,163.78,11.72,170.27,21.65,173l3.16.49c1.66.12,3.26.16,4.92.14,2.31-.11,4.55-.33,6.83-.64,4.7-.73,9.33-1.73,14-2.66l9.23-1.4a29.75,29.75,0,0,1,7.82.62,37.57,37.57,0,0,1,6.52,2.19,46.25,46.25,0,0,1,5.17,2.83,55.48,55.48,0,0,1,5.29,4c4.54,3.92,9.14,7.71,14,11.28,3.27,2.36,6.58,4.57,10,6.64,2.52,1.47,5,2.84,7.65,4.15,3.52,1.72,5.31,4.31,7.13,5.22,2.67,1.34-.43-.12,4.37,3.11-4.24-.93-2.24-.4-5.53-.74C117.05,207.68,112.32,207.62,105.65,207.29Z"/><path class="cls-9" d="M143.33,207c6.2-1.57,13.77-2.85,20.27-2.58,9.07.37,16.94,3.31,25.4,6.61,12.28,4.78,20.71,8.66,32.9,7.13,10-1.26,13.35-13.16,24.93-25.29,10.08-10.55,13-17.8,14.44-26.79-15.36,18.35-37.25,7.5-54.34,5.85-5.8-.56-14.31,1.1-23.26,8.88-15.39,13.38-26.35,19.52-41.09,25.81C137.77,208.62,139.51,207.92,143.33,207Z"/><path class="cls-2" d="M118.84,206.47c-.12.37-.76-.18-1.13-.26a57,57,0,0,0-15-1.84c-9.07.37-16.93,3.31-25.4,6.61-12.27,4.78-20.7,8.66-32.9,7.13-10-1.26-13.34-13.16-24.93-25.29C9.45,182.27,6.48,175,5.08,166c15.36,18.35,37.25,7.5,54.35,5.85,5.79-.56,14.3,1.1,23.25,8.88,13.68,11.89,23.26,18.37,35.58,24.08.33.15,1.09.1,1,.44Z"/><path class="cls-10" d="M142.83,206.84c6.54-1.5,13.77-2.76,20.77-2.47,9.07.37,16.94,3.31,25.4,6.61,12.28,4.78,20.71,8.66,32.9,7.13,6.55-.82,10.24-6.21,15.27-13.25-9.26.53-19,0-26.67-2.87-15.59-5.9-27.47-10.41-43.55-8-7.93,5.53-15.22,8.7-24.47,12.48C139.34,207.79,140.07,207.47,142.83,206.84Z"/><path class="cls-10" d="M120.1,206.78c.05.36-.7-.17-1-.26-5.3-1.27-10.91-2.37-16.3-2.15-9.07.37-16.93,3.31-25.4,6.61-12.27,4.78-20.7,8.66-32.9,7.13-6.54-.82-10.24-6.21-15.27-13.25,9.26.53,19,0,26.67-2.87,15.6-5.9,27.47-10.41,43.56-8a120.27,120.27,0,0,0,19.48,11.09c.34.16,1,.1,1,.47Z"/><path class="cls-11" d="M249.53,189.88c7.93-9,10.47-15.72,11.74-23.85-15.36,18.35-37.25,7.5-54.35,5.85-5.79-.56-14.3,1.1-23.25,8.88q-1.66,1.45-3.25,2.79c10-1.44,21.2-.19,34.41,4.24C226.31,191.64,236.58,192.66,249.53,189.88Z"/><path class="cls-12" d="M16.83,189.88c-7.94-9-10.48-15.72-11.75-23.85,15.36,18.35,37.25,7.5,54.35,5.85,5.79-.56,14.3,1.1,23.25,8.88q1.66,1.45,3.26,2.79c-10-1.44-21.2-.19-34.42,4.24C40,191.64,29.77,192.66,16.83,189.88Z"/><path class="cls-13" d="M40.61,149.58l.89,2.75-2.49,2,1.63,5,3.18.11.87,2.68-14.11-.81-.87-2.67,10.9-9.08Zm-3.44,6.26-4.09,3.24,5.19.18-1.1-3.42ZM34.1,140.93a3.84,3.84,0,0,1,2.26.76,2.62,2.62,0,0,1,1,1.69,2.89,2.89,0,0,1-.69,2.47,5.5,5.5,0,0,1-3.37,1.45,5.16,5.16,0,0,1-3.5-.37,3,3,0,0,1-1.41-2.18,2.81,2.81,0,0,1,.3-1.87,2.84,2.84,0,0,1,1.45-1.22l-1-2.5a5.15,5.15,0,0,0-2.19,1.71,5.5,5.5,0,0,0-.79,4.1,5.81,5.81,0,0,0,2.49,4.12,7.21,7.21,0,0,0,5.31.88,6.82,6.82,0,0,0,4.57-2.43,6.2,6.2,0,0,0-.48-7.83,5.83,5.83,0,0,0-3.48-1.45l-.4,2.67Zm-1-13.75.73-2.61a5.84,5.84,0,0,1,3.27,1.86,6.2,6.2,0,0,1-.47,7.83,6.85,6.85,0,0,1-4.84,1.86,7.17,7.17,0,0,1-5.16-1.52,5.8,5.8,0,0,1-2-4.4,5.44,5.44,0,0,1,1.29-4,5.19,5.19,0,0,1,2.37-1.43l.72,2.61a2.77,2.77,0,0,0-1.58,1,2.82,2.82,0,0,0-.53,1.82A3,3,0,0,0,28,132.6a5.21,5.21,0,0,0,3.44.79,5.56,5.56,0,0,0,3.52-1A3,3,0,0,0,36,130a2.66,2.66,0,0,0-.74-1.8,3.94,3.94,0,0,0-2.16-1Zm-1.8-4.76a8.3,8.3,0,0,1-3.3-1,6.2,6.2,0,0,1-1.67-1.4,5.17,5.17,0,0,1-1-1.82,6.88,6.88,0,0,1-.22-2.87,6.22,6.22,0,0,1,2.27-4.45,7,7,0,0,1,5.18-1.21A6.87,6.87,0,0,1,37.31,112a6.14,6.14,0,0,1,1.31,4.79,6.24,6.24,0,0,1-2.27,4.46,6.82,6.82,0,0,1-5.09,1.21Zm.2-2.74a4.85,4.85,0,0,0,3.47-.67,3.34,3.34,0,0,0,1.42-2.49,3.3,3.3,0,0,0-.86-2.71,5.06,5.06,0,0,0-3.31-1.37,4.94,4.94,0,0,0-3.46.63,3.69,3.69,0,0,0-.54,5.26,5,5,0,0,0,3.28,1.35ZM26.71,105l.69-2.57L38,105.26l1.34-5L28.74,97.44l.68-2.56L40,97.71l.28-1.06L45.2,98l-.57,2.13-2.78-.74-2.42,9L26.71,105Zm3.91-14.91,12.12,5.15,1-2.45L38,84.52l7.91,3.36,1-2.29L34.72,80.45l-1,2.43,6,8.34L31.6,87.79l-1,2.29ZM54.15,73l-1.53,2.45-3.15-.61-2.79,4.46,2,2.51-1.49,2.39L38.7,72.85l1.49-2.39,14,2.51Zm-7,1.39-5.1-1,3.2,4.1,1.9-3ZM44.31,63.74l10.52,7.93,5.63-7.48,2.29,1.73,1.33-1.76L60,61.1l-.66.88-8.75-6.6L49,57.5l8.75,6.6-3.1,4.11-8.75-6.59-1.6,2.12ZM53.94,52l1.76-1.76,6.2,6.19-2.43-10,1.87-1.87,9.31,9.3-1.76,1.76-6.07-6.08,2.31,9.85-1.88,1.88L53.94,52Zm25.24-4.64,2.12-1.6L73.38,35.25l-4.47,3.37a10.28,10.28,0,0,0-2.18,2,3,3,0,0,0-.52,2A3.82,3.82,0,0,0,67,44.69a3.65,3.65,0,0,0,2.09,1.4A4.1,4.1,0,0,0,72,45.51a5.66,5.66,0,0,0-.47,1.74,15.51,15.51,0,0,0,.07,2.62l.27,3L74.39,51l-.19-3.45a10.54,10.54,0,0,1,0-2.86,3.11,3.11,0,0,1,1.19-1.37l.43-.32,3.31,4.39ZM72.6,38.63l2,2.67L73,42.48a14.64,14.64,0,0,1-1.79,1.23,1.43,1.43,0,0,1-1,.13,1.65,1.65,0,0,1-.94-.67,1.55,1.55,0,0,1-.36-1.08,1.33,1.33,0,0,1,.39-.9,20.4,20.4,0,0,1,1.62-1.31l1.66-1.25ZM87.34,27.38l2.44-1L92,31.5a1.81,1.81,0,0,0,.94-.89A10.12,10.12,0,0,0,93,28.35a5.5,5.5,0,0,1,.49-3.1,5.13,5.13,0,0,1,2.25-1.52l.35-.16.77,1.81-.35.14a2.67,2.67,0,0,0-1,.65,1.46,1.46,0,0,0-.32.8,12.74,12.74,0,0,0,0,1.84,6.25,6.25,0,0,1,0,1.25,2.74,2.74,0,0,1-.59,1.19,2.72,2.72,0,0,1,1.75.36,13.89,13.89,0,0,1,2,1.48l3.06,2.63-2.87,1.22-2.78-2.52-.25-.2-.55-.44A4.09,4.09,0,0,0,93.7,33a1.74,1.74,0,0,0-1,.16l2.25,5.31-2.45,1L87.34,27.38Zm12.32-5,3.19,12.77,2.58-.64,3.09-9.63,2.07,8.34,2.41-.6L109.82,19.8l-2.57.64-3,9.8-2.12-8.51-2.42.61Zm14.82,2.88a8.3,8.3,0,0,1,.25-3.43,6.26,6.26,0,0,1,1-1.92,5.16,5.16,0,0,1,1.57-1.36,7.2,7.2,0,0,1,2.76-.81A6.17,6.17,0,0,1,124.91,19a6.87,6.87,0,0,1,2.26,4.81A6.88,6.88,0,0,1,126,29a6.14,6.14,0,0,1-4.42,2.27,6.2,6.2,0,0,1-4.83-1.29,6.82,6.82,0,0,1-2.24-4.72Zm2.72-.38a4.87,4.87,0,0,0,1.38,3.26,3.53,3.53,0,0,0,5.2-.54,5.05,5.05,0,0,0,.65-3.52,5,5,0,0,0-1.33-3.25,3.34,3.34,0,0,0-2.74-.83,3.39,3.39,0,0,0-2.52,1.39,5,5,0,0,0-.64,3.49Zm12.67-7.71h2.66v5.6a1.77,1.77,0,0,0,1.2-.46,8.93,8.93,0,0,0,1-2,5.57,5.57,0,0,1,1.66-2.66,5.16,5.16,0,0,1,2.67-.52h.38v2H139a2.6,2.6,0,0,0-1.2.21,1.47,1.47,0,0,0-.6.61,12.93,12.93,0,0,0-.7,1.7,6.12,6.12,0,0,1-.52,1.14,2.83,2.83,0,0,1-1,.86,2.72,2.72,0,0,1,1.46,1,13,13,0,0,1,1.27,2.15l1.8,3.61h-3.13l-1.57-3.4a3,3,0,0,0-.15-.28c0-.05-.14-.25-.33-.62a3.81,3.81,0,0,0-.84-1.21,1.69,1.69,0,0,0-1-.25v5.76h-2.66V17.13ZM142,17.07l2.94.42L147,24.68l3.55-6.4,2.75.38L147.53,28a9.75,9.75,0,0,1-1.81,2.24,2.44,2.44,0,0,1-2,.57,8.16,8.16,0,0,1-1.8-.4l.27-2c.37.08.7.14,1,.18a2.14,2.14,0,0,0,1.36-.15,3.41,3.41,0,0,0,1-1.33l-3.48-10Zm20.25,12.36,2.3,1.41a5.76,5.76,0,0,1-2.69,2.63,6.19,6.19,0,0,1-7.39-2.61A6.87,6.87,0,0,1,154,25.7a7.14,7.14,0,0,1,2.89-4.54,5.81,5.81,0,0,1,4.77-.68,5.44,5.44,0,0,1,3.46,2.33,5.27,5.27,0,0,1,.72,2.68l-2.71,0a2.76,2.76,0,0,0-.55-1.8,2.84,2.84,0,0,0-1.6-1,3,3,0,0,0-2.56.45,5.14,5.14,0,0,0-1.71,3.08,5.55,5.55,0,0,0,0,3.67,2.91,2.91,0,0,0,2,1.59,2.67,2.67,0,0,0,1.93-.21,3.93,3.93,0,0,0,1.58-1.79Zm8.47-6.05-4.93,12.21,2.46,1,8.16-6-3.22,8,2.31.93,4.93-12.21-2.46-1-8.22,6.13L173,24.31l-2.31-.93ZM178,40.73l6.78-11.28L187,30.82l-2.67,4.44,4.47,2.68,2.66-4.44,2.28,1.37L187,46.15l-2.28-1.37,3-4.93-4.47-2.68-3,4.93L178,40.73Zm19-3.54-7.74,10.65,2.15,1.56,3.39-4.67a1.72,1.72,0,0,1,.66.8,4,4,0,0,1,0,1.47c-.06.41-.09.64-.1.7a2.16,2.16,0,0,1,0,.31l-.73,3.68L197,53.53l.67-4a14.44,14.44,0,0,0,.24-2.49,2.7,2.7,0,0,0-.59-1.68,2.85,2.85,0,0,0,1.32-.11,6.54,6.54,0,0,0,1.09-.61,12,12,0,0,1,1.56-1,1.51,1.51,0,0,1,.85-.14,2.64,2.64,0,0,1,1.09.54l.29.22,1.16-1.58-.32-.22a5.16,5.16,0,0,0-2.46-1.15A5.61,5.61,0,0,0,199,42.53a8.91,8.91,0,0,1-2,1.09,1.79,1.79,0,0,1-1.25-.34l3.3-4.53-2.15-1.56Zm9.48,25.63-2.08-2,1.25-3-3.79-3.65-2.86,1.39-2-2,12.83-5.91,2,1.95-5.35,13.13Zm.09-7.14-2.58-2.5,4.67-2.28-2.09,4.78Zm11,.32-10.37,8.11,1.63,2.09,10.06-1.09-6.78,5.29,1.53,2L224,64.25l-1.63-2.09-10.19,1.2,6.91-5.4-1.54-2Zm6.79,3.36.75,1a2.84,2.84,0,0,1-2,.51,3.08,3.08,0,0,1-2.4-3.07,2.85,2.85,0,0,1,1-1.85l.76,1a1.35,1.35,0,0,0-.48,1,2.07,2.07,0,0,0,1.38,1.76,1.39,1.39,0,0,0,1-.24Zm-4.14,24.38,12-5.35L234,82.28a15.36,15.36,0,0,1,1.11,3,3.46,3.46,0,0,1-.41,2.25,4,4,0,0,1-2,1.74,4.34,4.34,0,0,1-2,.43,3.63,3.63,0,0,1-1.64-.49,3.84,3.84,0,0,1-1.13-1,15.39,15.39,0,0,1-1.3-2.44l-.7-1.58-4.54,2-1.08-2.43Zm11.07-2-3.41,1.52.59,1.33a6.87,6.87,0,0,0,1.05,1.83,1.78,1.78,0,0,0,.93.5,1.85,1.85,0,0,0,1.05-.14,1.72,1.72,0,0,0,.91-.87,1.79,1.79,0,0,0,.1-1.21,11.86,11.86,0,0,0-.69-1.79l-.53-1.17Zm-.09,10.74a8.38,8.38,0,0,1,3.42-.3,6.4,6.4,0,0,1,2.06.72,5.3,5.3,0,0,1,1.58,1.33,7.28,7.28,0,0,1,1.24,2.61,6.2,6.2,0,0,1-.54,5,8.07,8.07,0,0,1-9.66,2.6,6.92,6.92,0,0,1-2.42-9,6.8,6.8,0,0,1,4.32-3Zm.79,2.62A4.89,4.89,0,0,0,229,97a3.36,3.36,0,0,0-.44,2.83,3.33,3.33,0,0,0,1.79,2.22,6.26,6.26,0,0,0,6.58-1.73,3.31,3.31,0,0,0,.39-2.83,3.36,3.36,0,0,0-1.77-2.27,5,5,0,0,0-3.55-.09Zm2.54,21.18-.5,2.65a5.87,5.87,0,0,1-3.42-1.56,6.22,6.22,0,0,1-.21-7.84,6.87,6.87,0,0,1,4.66-2.28,7.2,7.2,0,0,1,5.27,1.07,5.82,5.82,0,0,1,2.35,4.2,5.42,5.42,0,0,1-.94,4.07,5,5,0,0,1-2.24,1.63l-.94-2.53a2.72,2.72,0,0,0,1.85-3,3,3,0,0,0-1.33-2.23,5.14,5.14,0,0,0-3.49-.49,5.52,5.52,0,0,0-3.42,1.32,2.91,2.91,0,0,0-.77,2.45,2.65,2.65,0,0,0,.89,1.72,3.93,3.93,0,0,0,2.24.84Zm.34,13.81-.77,2.59a5.86,5.86,0,0,1-3.24-1.91,6.23,6.23,0,0,1,.61-7.82,6.83,6.83,0,0,1,4.87-1.77,7.22,7.22,0,0,1,5.14,1.6,5.82,5.82,0,0,1,1.89,4.43,5.44,5.44,0,0,1-1.36,3.95,5.18,5.18,0,0,1-2.4,1.39l-.67-2.62a2.82,2.82,0,0,0,1.6-1,2.85,2.85,0,0,0,.56-1.81,3,3,0,0,0-1.09-2.36,5.17,5.17,0,0,0-3.42-.85,5.51,5.51,0,0,0-3.54,1,2.88,2.88,0,0,0-1,2.35,2.64,2.64,0,0,0,.71,1.81,3.93,3.93,0,0,0,2.13,1.06Zm8,7.17-.39,2.46-8.65-1.38,7.82,6.64-.41,2.62-13-2.06.39-2.46,8.49,1.35-7.65-6.61.41-2.62,13,2.06Zm-2.55,14.58-.69,2.4-8.42-2.42,6.95,7.54-.73,2.55-12.65-3.63.68-2.39,8.26,2.37-6.79-7.49.73-2.55Z"/></g></g></svg>