<svg xmlns="http://www.w3.org/2000/svg" viewBox="0 0 197.56 197.56"><defs><style>.cls-1,.cls-2{fill:none;}.cls-1,.cls-2,.cls-7,.cls-8,.cls-9{stroke:#164194;stroke-miterlimit:22.93;}.cls-1{stroke-width:1.42px;}.cls-2,.cls-9{stroke-width:0.71px;}.cls-3{fill:#213a8f;}.cls-3,.cls-4,.cls-5,.cls-6,.cls-7,.cls-8,.cls-9{fill-rule:evenodd;}.cls-11,.cls-4{fill:#e30613;}.cls-5{fill:#d7b46a;}.cls-12,.cls-6,.cls-7,.cls-8{fill:#164194;}.cls-7{stroke-width:0.22px;}.cls-8{stroke-width:0px;}.cls-10,.cls-9{fill:#fff;}.cls-11{font-size:11px;font-family:Arial-BoldMT, Arial;font-weight:700;}.cls-12{font-size:9.21px;font-family:ArialMT, Arial;}</style></defs><g id="Layer_2" data-name="Layer 2"><g id="Layer_1-2" data-name="Layer 1"><path class="cls-1" d="M98.78.71A98.07,98.07,0,1,1,.71,98.78,98.09,98.09,0,0,1,98.78.71Z"/><path class="cls-2" d="M98.78,4.83a93.95,93.95,0,1,0,93.95,94A94,94,0,0,0,98.78,4.83Z"/><path class="cls-3" d="M114.29,112.54a11.48,11.48,0,0,0-.76,1,1.22,1.22,0,0,0,0,1.5c.25.24.31.13,1.14.26,1.52,0,3-.1,4.56-.06a15.05,15.05,0,0,1,2.41.26,14.27,14.27,0,0,1,2.22.51,8.05,8.05,0,0,1,2.41,1c1.11.65,4.12,3,5.14,3.19,1.89-.35.09,3.79,3.87,2.08a10.61,10.61,0,0,1,1.83-.67,1.51,1.51,0,0,0,.49-.64c.1-.19,0-.52.22-.62.51-.28,1.22-.34,1.56-.67s.16-.64.25-1,0-.47,0-.71a1.52,1.52,0,0,0,.81-.71c.13-.29.12-.32.06-1.15a2,2,0,0,0-.26-.84,5.3,5.3,0,0,0-1.07-1.41c-1.67-1.75-3.55-1.16-4.35-2.94a6.52,6.52,0,0,0-1.53,0c-.38.26-.38.26-.44.43h-.13c0,.14,0,.13-.12.13-.76,1.39-.91,2-2.54,2.85-2.81.74-4.92-.68-7.55-1.8-.13-.13-1.14-.64-1.9-1.16l-.22-.28c-1.29-1.74-3.28-2.52-5-1.21a7.24,7.24,0,0,0-1.14,2.56Z"/><path class="cls-4" d="M100.36,23.43a10.78,10.78,0,0,0,12.82,9.77,14.18,14.18,0,0,0-12.82-9.77Zm13,17.94a11.08,11.08,0,0,0-2.25-.23,10.79,10.79,0,0,0-10.78,10.6,14.16,14.16,0,0,0,13-10.37ZM99.49,51.75A10.77,10.77,0,0,0,88.72,41.14a10.91,10.91,0,0,0-2.64.32A14.16,14.16,0,0,0,99.49,51.75ZM86.26,33.11a10.49,10.49,0,0,0,2.46.29,10.79,10.79,0,0,0,10.75-10,14.19,14.19,0,0,0-13.21,9.69Zm13.45-11A15.48,15.48,0,1,1,84.23,37.59,15.48,15.48,0,0,1,99.71,22.11Zm0,10.37a5.11,5.11,0,1,1-5.1,5.11,5.1,5.1,0,0,1,5.1-5.11Z"/><path class="cls-5" d="M99.71,33.36a4.23,4.23,0,1,1-4.22,4.23,4.23,4.23,0,0,1,4.22-4.23Z"/><polygon class="cls-6" points="63.54 137.85 69.97 139.55 68.29 142.32 63.54 137.85 63.54 137.85"/><polygon class="cls-7" points="132.1 138.53 138.41 137.23 133.79 141.33 132.1 138.53 132.1 138.53"/><path class="cls-8" d="M116.22,81.4a7.3,7.3,0,0,0-.41-1.35,7.42,7.42,0,0,1-1.94,1.24,3.51,3.51,0,0,1-2.58-.45,2.09,2.09,0,0,1-1-1,6.29,6.29,0,0,0,1.06,0c1.17-.26,1.51-.6,1.88-1.84a5,5,0,0,0,.07-.79c-.46.1-1.39,1.52-3.54-.23-2.91-4.45.84-10.9,5.6-11.51,2.15-.11,4.14,1.12,4,3.14a1.33,1.33,0,0,0,1.08-1.09c.18-1.31-.53-1.72-1.2-2.21,1-.09,1.65.77,2.74,1.36a4.52,4.52,0,0,0,2.4.53,3.57,3.57,0,0,0,2.31-1.29c.41-.52.57-1.63-.25-1.12a3.46,3.46,0,0,1-2.47.43,6.33,6.33,0,0,1-1.56-.5,19.52,19.52,0,0,0-3.87-1.21c2.11-.8,5.19-.9,7.14.55,3.19-3.22-2-7.18-5-6.32-.41-.84-.34-.84-1.25-1,0-1.75-2.23-2.1-4.28-2.06-3.86.07-10.48,2-14.45,1.21.56,1.59,1.69,2.87,5.56,3.88l.45.2c-.64,1.63-4.42,2.15-5.92,2.27,0,.59,2.17,1.41,2.54,1.41-.62,1.21-1.14,1.87-1.73,3.12l-1.68,4.59a25.89,25.89,0,0,0-1.63-4.59c-.59-1.25-1.11-1.91-1.74-3.12.38,0,2.55-.82,2.55-1.41-1.5-.12-5.28-.64-5.92-2.27l.45-.2c3.87-1,5-2.29,5.55-3.88-4,.79-10.58-1.14-14.45-1.21-2,0-4.27.31-4.27,2.06-.91.15-.84.15-1.25,1-3-.86-8.18,3.1-5,6.32,2-1.45,5-1.35,7.13-.55a19.63,19.63,0,0,0-3.86,1.21,6.47,6.47,0,0,1-1.56.5,3.45,3.45,0,0,1-2.47-.43c-.83-.51-.66.6-.25,1.12a3.57,3.57,0,0,0,2.31,1.29,4.46,4.46,0,0,0,2.39-.53c1.1-.59,1.76-1.45,2.75-1.36-.67.49-1.38.9-1.21,2.21a1.34,1.34,0,0,0,1.09,1.09c-.15-2,1.84-3.25,4-3.14,3.62.44,4.66,1.34,6.28,5.11a7.43,7.43,0,0,1,.44,1.58,4.37,4.37,0,0,1,.06,1,6.94,6.94,0,0,1-.17,1.76,5.64,5.64,0,0,1-1,2c-2.15,1.75-3.08.33-3.55.23a6.6,6.6,0,0,0,.08.79c.37,1.24.71,1.58,1.88,1.84a6.26,6.26,0,0,0,1.06,0,2.09,2.09,0,0,1-1,1,3.51,3.51,0,0,1-2.58.45,7.42,7.42,0,0,1-1.94-1.24c-.53,1.32-.85,3,.13,4.25.52.69,1.1.5,1.65.9.1.07.07.26,0,.37a2.57,2.57,0,0,1-.29.44c-1.86,1.51-5.22,1.37-6.52-.55a2.45,2.45,0,0,1-.34-1.08,5.34,5.34,0,0,1,0-1.13,2.28,2.28,0,0,1,.81-1.19,4.56,4.56,0,0,0,1.69-3.39,6,6,0,0,0-1.36-3.52c-1.94-2.66-5-4.56-7.13-7.06a5.57,5.57,0,0,1-.39-.5,3.83,3.83,0,0,0-.42.68,1.7,1.7,0,0,1-.19-.18c-1.78-1.35-3.44-4-4.7-5.8a1.77,1.77,0,0,1-.23-.35c0,.06-.19.55-.21.62a1,1,0,0,1-.19-.27c-1.29-1.71-4.24-4.8-5.39-6.55-.42-.65-1.56-2.08-3.81-5.58a5.6,5.6,0,0,0-.32-.82,12.65,12.65,0,0,0-1.07,2.41,5.21,5.21,0,0,0-.22,1.19,6.87,6.87,0,0,0,0,1.36,10.07,10.07,0,0,0,.22,1.53,14.28,14.28,0,0,0,.56,2A18.08,18.08,0,0,0,57.5,60,47.46,47.46,0,0,0,62,66a2.76,2.76,0,0,1-1-.63c-.09-.07-1-.88-1-1-.68-.66-1.44-1.23-2.14-1.87s-1.4-1.35-1.54-1.49a17.75,17.75,0,0,1-1.48-1.68c-.24-.3-.94-1.14-1.17-1.34a9.67,9.67,0,0,0-.51.83,4.75,4.75,0,0,0-.33,1.07,2.3,2.3,0,0,0,0,.74A8,8,0,0,0,53,61.83c.13.49.29,1,.45,1.47a15.47,15.47,0,0,0,3,4.11c.46.41.7.85,2.06,2.07-.86-.26-3.4-1.47-4.13-1.79A19.31,19.31,0,0,0,52.1,67a2,2,0,0,0-.78-.06c-.25,0-.27.1-.31.26a.88.88,0,0,0,.06.51,4.4,4.4,0,0,0,.64,1.16c.07.09.44.69.74,1.13a13.63,13.63,0,0,1,1,1.23s1.44,1.48,1.62,1.64c.4.36.91.75,1.54,1.3-.95-.13-2-.28-3-.43-.71,0-1.41,0-2.13,0a4.88,4.88,0,0,0-1,.12c-.21,0-.49.06-.62.26-.37.55,0,.93.36,1.25.71.69.93.73,1,.87.81.6,1.48,1.26,2.35,1.87a16.79,16.79,0,0,0,2.17,1.33,27.56,27.56,0,0,0-3,.42,6,6,0,0,0-.83.23,6.18,6.18,0,0,0-1.51.66c-.22.15-.25.25-.14.45a2.38,2.38,0,0,0,.7.82c.94,1,3.11,1.86,4.16,2.51-.17.12-.45.06-1.76.6a4.89,4.89,0,0,0-1.51.91c-.21.15-.56.27-.58.54a1.51,1.51,0,0,0,.45,1.17A15.38,15.38,0,0,0,53,89a5.62,5.62,0,0,0,2.74.94c0,.27-1,.69-1.68,1.7a4.3,4.3,0,0,0-.69,1.19c-.13.49,1,1.26,1.53,1.49.32.15.34.12,1.18.23l1.62,0a5.81,5.81,0,0,0-1,1.59,3.37,3.37,0,0,0,.05,2.38c.72.09.87,0,1.31.13s.81.27,1.23.4H60c1.26-.46,3.68-2.55,4.8-3.36l.38-.21c0,.24-.32.48-.45.62s-.37.39-.48.49c-.65.6-1.11,1.08-1.68,1.67a7.46,7.46,0,0,0-1.29,1.39,2.64,2.64,0,0,0-.3,1.7c.09.42.35,1.18.53,1.78l1.95.06.9-.23a4.63,4.63,0,0,0,1.32-1.21c1.34-1.62,2.5-3.2,4-5-1,1.68-2.46,4-3,4.78a5.82,5.82,0,0,0-.91,1.73,1.18,1.18,0,0,0,0,.62c.14.78.44.88.67,1.53a3.65,3.65,0,0,1,.14.57,15.42,15.42,0,0,1,2.4-.09,3.07,3.07,0,0,0,1.17-.59c.18-.16.19-.17.31-.51a16.88,16.88,0,0,1,.9-2.09c.58-1.11,1.4-3.33,1.86-4.54h.51a12.11,12.11,0,0,1-.56,1.89c-.37,1.11-.84,2.22-1.26,3.33a10.52,10.52,0,0,0-.44,1.41,1.44,1.44,0,0,0-.06.68c.15.65.19.66.42.87.08.08.14,0,.53.66a4.31,4.31,0,0,0,.47.84c.11.11.49-.22.67-.25,1.4-.25,2.5-.11,2.83-1.49a58.3,58.3,0,0,0,1-6c0-.28.12-.55.19-.83.17,0,.17,0,.28.11a25.87,25.87,0,0,1-.42,3.78,8.4,8.4,0,0,0,0,1.13,4.27,4.27,0,0,0,.22,1.59,1.24,1.24,0,0,0,.34.5,12.18,12.18,0,0,0,1.19,1c.22.15.41.6.56.6a1.87,1.87,0,0,1,.2-.4,2.36,2.36,0,0,1,.59-.43c1-.54,1.54-.63,1.93-1.55a2,2,0,0,0,.11-.74c0-1.7-.28-4.13-.26-4.4.28,0,.41.21.67.32.51-.39,1-.6,1.4-.88l0,0,.12-.79a1.26,1.26,0,0,0,.26.23c1.39,2.29,1.19,4.84,0,7.48l-.25.17v.17l1.07-.15a2.46,2.46,0,0,0,0,.26l-.3.7c-.12,0-.12,0-.32.32l-.8.42-.84.17H81.89l-.84-.14a1.5,1.5,0,0,0,.06.29H81s0,.12,0,.19l.11,0c0,.28,0,.28-.11.36l-1.12.22c-.28.15-.56.3-.83.46-.56.45-1.07,1-1.18,1-.21.3-.42.6-.65.91l-.26.6c-2.61,1.12-4.72,2.53-7.52,1.79-1.63-.82-1.78-1.46-2.54-2.86-.14,0-.13,0-.13-.12H66.7c-.07-.17-.07-.17-.45-.43a6.44,6.44,0,0,0-1.52,0c-.81,1.78-2.69,1.19-4.35,2.94a5.55,5.55,0,0,0-1.08,1.41,2.1,2.1,0,0,0-.25.83c-.06.84-.07.87.06,1.16a1.5,1.5,0,0,0,.8.71c0,.24,0,.48,0,.71s0,.73.25,1,1.05.39,1.56.67c.19.1.11.43.21.62a1.68,1.68,0,0,0,.49.64,10.38,10.38,0,0,1,1.84.67c3.77,1.71,2-2.43,3.86-2.08,1-.15,4-2.54,5.14-3.19a8.17,8.17,0,0,1,2.41-1c.35-.11.69-.21,1-.29,0,.45,0,.72,0,1.5-.07.26-.15.52-.22.79s-.23.23-.34.34l-.3.08c-.34,0-.67,0-1-.08v-.11a1.91,1.91,0,0,1-.33-.06v-.11h-.11a6.27,6.27,0,0,0,.61,1.27,2.5,2.5,0,0,0,.5.37v.12l.73.25,1.06-.06,1.07-.45c.5-.34.5-.34.55-.48h.39a3.77,3.77,0,0,1,.08,1.19c0,.18-.06.37-.11.57s-.29.63-.45,1c-.13.11-.26.23-.41.34v.11c.26,0,.51,0,.78,0l.62-.23c.31-.28.62-.57,1-.85l.28,0a1.82,1.82,0,0,1,0,.73l.28-.09c.34-.42.47-.47.67-.73l.28,0c0,.13.09.26.14.4v.45c-.06.08-.13.16-.19.25l5.36,0a3.78,3.78,0,0,0,.56.08,2.87,2.87,0,0,0,.78-.06,5.25,5.25,0,0,0,1.12-.45,3.06,3.06,0,0,0,.8-.76,1.24,1.24,0,0,0,.23-.51,5.28,5.28,0,0,0,.09-.68,3.87,3.87,0,0,1-.84.36,2.16,2.16,0,0,1-1,0c-.83-.26-1.52-.69-1.65-1.61A3,3,0,0,1,88,117.3a3.51,3.51,0,0,1,.65-.82,2.5,2.5,0,0,1,.62-.46,4.5,4.5,0,0,1,1.17-.45,2.64,2.64,0,0,1,1,0,4.43,4.43,0,0,1,3.15,2.07,10.39,10.39,0,0,1,.44,1,3.61,3.61,0,0,1,.23.9,5.23,5.23,0,0,1,0,1.25,1.29,1.29,0,0,1-.3.76c-.77.69-1.76,1.1-2.52,1.79a3.54,3.54,0,0,0-.54.79,2.42,2.42,0,0,0-.33.8,4.49,4.49,0,0,0,0,.9c.14,0,.06-.12.67-.79a1.7,1.7,0,0,1,1.12-.49,5.25,5.25,0,0,1,1,0,.76.76,0,0,1-.52.64,30.47,30.47,0,0,0-8.66,5l-.56.22H84l-.73-.36c-.11-.25-.21-.5-.31-.74,0-.54.26-.74.31-1.3,0-.21-.42,0-.61,0-.35.08-.49-.1-1,.46a3.13,3.13,0,0,0-.91,1.67,2.21,2.21,0,0,0-.11,1.14c.1.4.35,1.25.76,1.41,0,.14.38.15.41.27s-.53.38-.63.49A4,4,0,0,0,80,135c-.08.27-.16.53-.23.79a4.36,4.36,0,0,0,0,1.25c.39,1.28.94,1.47,1.37,2.44a3.42,3.42,0,0,1,.06,1.3l.7-.45a3.11,3.11,0,0,0,.67-1c.07-.4.15-.8.22-1.19a.93.93,0,0,1,.65-.82c.07.45.11,1.16.19,1.61A4.27,4.27,0,0,0,85,141.27c.59.64.76.42,1.38.65l.78.06.89-.12a6.54,6.54,0,0,0,1.23-.56,2.06,2.06,0,0,1,.79-.5,4.34,4.34,0,0,0,.83,1.83,6.24,6.24,0,0,1,.84.59,5.52,5.52,0,0,0,1.34.45l1.4.12.67-.06c1.06-.34,1.45-.57,1.79-.64.52,1,1.51,2.46,2.68,2.85a2.44,2.44,0,0,0,1.08-.59,10.77,10.77,0,0,0,1.23-1.47c.15-.25.29-.75.43-1,.1,0,.63.52.84.62a5.39,5.39,0,0,0,2.79.34,3.13,3.13,0,0,0,1.17-.29,2.24,2.24,0,0,0,1.09-.64A4.28,4.28,0,0,0,109,142a6.28,6.28,0,0,1,.43-1c.39.12.69.49,1.06.7l1.45.45h1l.56-.17c.23-.15.47-.28.69-.42a7.42,7.42,0,0,0,1.61-2,5.1,5.1,0,0,0,.2-2.26c.48.33.74,1.66.86,2.57.45.74.83.85.89,1s.38.22.55.34c0-.42-.06-.84-.08-1.25.12-.22.24-.42.36-.62s.14-.06.81-.8c.11-.34.11-.34.22-.45a9.87,9.87,0,0,0,.23-1.08c0-.33,0-.64-.06-1s-.16-.45-.22-.68-.31-.53-.45-.79l-.41-.49-.73-.55a1.93,1.93,0,0,0,1-1.29,2.1,2.1,0,0,0,.11-1.3,2.21,2.21,0,0,0-.33-1.08c-.54-.71-.75-1.26-1.42-1.39a8,8,0,0,0-.84-.08,4.17,4.17,0,0,1,.36,1c-.06.59-.18.66-.56,1.13l-.53.2h-.89c-1.14-.5-2.54-2-3.8-2.84-1-.68-2.24-1.13-3.35-1.7a23.19,23.19,0,0,0-2.33-1.55l.93,0a3.92,3.92,0,0,1,1.31.65c.14.22.29.42.42.63a1.21,1.21,0,0,0,.14-1c-1-2.5-3.06-2-3.58-4.24v-.85c.11-.42.22-.84.34-1.25s.38-.65.55-1l.43-.49a7.57,7.57,0,0,1,1.17-.91,10.71,10.71,0,0,1,1.57-.45,6.77,6.77,0,0,1,.78,0,2.87,2.87,0,0,1,1.7.77c.5.44.48.44.56.57a1.82,1.82,0,0,1,.44,1,2.21,2.21,0,0,1-.11,1.3,1.66,1.66,0,0,1-1,1.1,1.85,1.85,0,0,1-1.28.23,7,7,0,0,1-1.12-.37c0,.2.06.39.08.57a1.31,1.31,0,0,0,.33.68,8.18,8.18,0,0,0,.76.7l1.07.46,1.28.09c-.05.22-.37.71-.14.68l5.36-.74a1.94,1.94,0,0,1,0-.68c.15-.28.14-.35.43-.45,0,.17.42.4.47.62s.22.23.36.28a3.87,3.87,0,0,1,.23-.76c.7.08,1,.76,1.51,1.13l1.11.14a17.06,17.06,0,0,1-1-1.81v-1c.07-.16.13-.31.2-.45.57.08,1,.75,1.62.93a4.34,4.34,0,0,0,1.06.17,2.13,2.13,0,0,0,.62-.12,1.71,1.71,0,0,0,.45-.22A4.69,4.69,0,0,0,125,120a5.15,5.15,0,0,0,.37-1l-.73.2a2.8,2.8,0,0,1-1.09-.32c-.09-.17-.21-.15-.32-1.13a13.72,13.72,0,0,1,.09-1.92,14.06,14.06,0,0,0,0-1.59,1.81,1.81,0,0,0-.28-1,6.45,6.45,0,0,0-.77-1.36,9.38,9.38,0,0,0-.65-.68,2.67,2.67,0,0,0-.72-.54,7.07,7.07,0,0,0-1.9-.65c0-.3.11-.61.16-.91a3.75,3.75,0,0,1-1.34.2,3.54,3.54,0,0,1-1.34-.12,2.87,2.87,0,0,1-1.82-1.49c0-.29,0-.29.09-.38.33.06.67.11,1,.15-.14-.27-.21-.33-.45-.77a5.74,5.74,0,0,1-.36-1.16,9.15,9.15,0,0,1-.23-1.81,17.38,17.38,0,0,1,.06-2,5.15,5.15,0,0,1,.22-1,1.9,1.9,0,0,1,.23-.45c.16-.25.19-.26.87-.8l-.94-2.63.57-1.17.68,4.25,0,0c.38.28.89.49,1.4.88.27-.11.39-.32.67-.32,0,.27-.24,2.7-.26,4.4a1.83,1.83,0,0,0,.12.74c.38.92.94,1,1.93,1.55a2.3,2.3,0,0,1,.58.43,1.5,1.5,0,0,1,.2.4c.15,0,.34-.45.56-.6a12.72,12.72,0,0,0,1.2-1,1.22,1.22,0,0,0,.33-.5,4.14,4.14,0,0,0,.23-1.59,8.38,8.38,0,0,0-.06-1.13,27.29,27.29,0,0,1-.41-3.78c.11-.11.11-.11.28-.11.06.28.13.55.19.83a55.65,55.65,0,0,0,1,6c.33,1.38,1.43,1.24,2.82,1.49.19,0,.57.36.67.25a3.85,3.85,0,0,0,.47-.84c.4-.64.45-.58.54-.66s.26-.22.41-.87a1.43,1.43,0,0,0-.05-.68,12.22,12.22,0,0,0-.45-1.41c-.42-1.11-.88-2.22-1.26-3.33a13.34,13.34,0,0,1-.55-1.89h.5c.47,1.21,1.28,3.43,1.87,4.54a15.35,15.35,0,0,1,.89,2.09c.13.34.13.35.32.51a3.07,3.07,0,0,0,1.17.59,15.5,15.5,0,0,1,2.4.09,3.65,3.65,0,0,1,.14-.57c.23-.65.53-.75.67-1.53a1.3,1.3,0,0,0,0-.62,5.62,5.62,0,0,0-.92-1.73c-.5-.82-2-3.1-3-4.78,1.49,1.84,2.65,3.42,4,5a4.38,4.38,0,0,0,1.32,1.21l.89.23,2-.06c.18-.6.44-1.36.52-1.78a2.64,2.64,0,0,0-.29-1.7,8.2,8.2,0,0,0-1.29-1.39c-.58-.59-1-1.07-1.68-1.67-.11-.1-.37-.36-.49-.49s-.44-.38-.44-.62l.37.21c1.13.81,3.54,2.9,4.81,3.36h.67c.41-.13.82-.3,1.23-.4s.59,0,1.31-.13a3.42,3.42,0,0,0,0-2.38,6.35,6.35,0,0,0-1-1.59l1.62,0c.84-.11.85-.08,1.17-.23.49-.23,1.66-1,1.53-1.49a4.07,4.07,0,0,0-.69-1.19c-.66-1-1.65-1.43-1.68-1.7a5.32,5.32,0,0,0,1.35-.26,5.5,5.5,0,0,0,1.39-.68A14.14,14.14,0,0,0,149,87.76a1.54,1.54,0,0,0,.45-1.17c0-.27-.37-.39-.58-.54a5,5,0,0,0-1.51-.91c-1.31-.54-1.59-.48-1.76-.6,1-.65,3.22-1.5,4.16-2.51a2.3,2.3,0,0,0,.69-.82c.11-.2.08-.3-.13-.45a6.35,6.35,0,0,0-1.51-.66,6.14,6.14,0,0,0-.84-.23,27.69,27.69,0,0,0-3-.42,16.6,16.6,0,0,0,2.16-1.33c.88-.61,1.55-1.27,2.35-1.87.06-.14.27-.18,1-.87.33-.32.72-.7.35-1.25-.13-.2-.4-.21-.61-.26a4.89,4.89,0,0,0-1-.12c-.71,0-1.42,0-2.12,0-.95.15-2,.3-3,.43.64-.55,1.15-.94,1.55-1.3.17-.16,1.62-1.64,1.62-1.64a13.63,13.63,0,0,1,1-1.23c.29-.44.67-1,.74-1.13a4.73,4.73,0,0,0,.64-1.16.88.88,0,0,0,.05-.51c0-.16-.05-.21-.3-.26a2,2,0,0,0-.78.06,18.77,18.77,0,0,0-2.29.68c-.73.32-3.27,1.53-4.14,1.79,1.36-1.22,1.6-1.66,2.07-2.07a15.91,15.91,0,0,0,3-4.11c.15-.49.32-1,.45-1.47a9.58,9.58,0,0,0,.22-1.19,3.05,3.05,0,0,0,0-.74,4.31,4.31,0,0,0-.34-1.07,7.61,7.61,0,0,0-.5-.83c-2.76,2.37-5,6.41-8.4,8,2-2.46,4.43-5.13,5.61-8.16a13,13,0,0,0,.55-2,10.1,10.1,0,0,0,.23-1.53,8.82,8.82,0,0,0,0-1.36,5.83,5.83,0,0,0-.23-1.19,12.61,12.61,0,0,0-1.06-2.41c-.11,0-3.5,5.43-4.13,6.4-1.16,1.75-4.11,4.84-5.39,6.55a1,1,0,0,1-.2.27c0-.07-.2-.56-.21-.62a1.77,1.77,0,0,1-.23.35c-1.26,1.85-2.92,4.45-4.69,5.8l-.19.18a4,4,0,0,0-.43-.68,4.16,4.16,0,0,1-.39.5c-2.09,2.5-5.19,4.4-7.13,7.06a6,6,0,0,0-1.35,3.52,4.52,4.52,0,0,0,1.69,3.39,2.32,2.32,0,0,1,.8,1.19c.4,2-1,3.26-2.87,3.47a6.56,6.56,0,0,1-4.32-1.51l0-.09a1.8,1.8,0,0,0,1-.32c.94-.61,1-.75,1.08-.87a2.55,2.55,0,0,0,.56-1.08,2,2,0,0,0,.11-.79,3.33,3.33,0,0,0-.3-1.36,5.35,5.35,0,0,1-.84.65l-.09.05Z"/><path class="cls-5" d="M132.55,70.58c1.67-2.1,2.27-5.15,1.32-7.22h-.17A16.66,16.66,0,0,1,129.54,69a10.22,10.22,0,0,1-.53,4.38,19.36,19.36,0,0,0,3.54-2.83Z"/><path class="cls-5" d="M128.11,97.08c0-.17.06-.34.09-.51.68-1.39.34-2.15-.47-3.3a30.41,30.41,0,0,0-1.8-2.46l-.19,0a2.2,2.2,0,0,0-.38,1.59,9.36,9.36,0,0,0-1.5-.23l.09.4c.55,1.13.87,1.8,1.1,2.26,1,2,1,1.72,3.06,2.22ZM89.38,135.29l-.56-.23c-.16-.13-.31-.27-.48-.42l-.23-.45c0-.32-.12-.63-.19-1H88c0,.22.12.45.19.68l.44.62a3,3,0,0,0,.76.42h.79l.39-.19-.17.3-.45.23Zm-7.83,2.13c-.06-.2-.13-.41-.2-.62s0-.49,0-.74a4.2,4.2,0,0,1,.11-.45c.22-.32.45-.64.67-1a2.68,2.68,0,0,1,.76-.43l1.17-.3A.69.69,0,0,1,84,134l-.67.23-1.12.68c-.1.12-.2.25-.31.37s-.12.3-.17.46a7.45,7.45,0,0,0,0,1.64Zm6.15,2.06a2.64,2.64,0,0,1-.89-.34l-.56-.45c-.2-.31-.2-.31-.34-.36-.18-.4-.35-.8-.53-1.19,0-.19-.07-.38-.12-.57v-1.81a16,16,0,0,1,.45-1.82c.15-.28.29-.56.45-.85l.89-1.3.9-.91a12.18,12.18,0,0,1,1.82-1.33c3.35-1.82,3.35-1.82,4.47-2.5l.22,0v.11c-.83.42-.83.42-5.31,3.14a16.61,16.61,0,0,0-1.5,1.36l-.88,1.23a14.77,14.77,0,0,0-.89,2c-.07.49-.15,1-.22,1.47v1.31c.06.31.14.63.22,1s.29.52.45.79l.44.46c.25.13.51.27.76.42l.84.14v.12l-.67,0Zm-1.12,1.31a14.5,14.5,0,0,1-1.56-.88v-.11l-.26-.17a3.62,3.62,0,0,1-.45-.91c-.06-.29-.14-.6-.22-.9V137c0-.26.09-.52.15-.8l-.56.08-1,.43a1.47,1.47,0,0,1,.06-.14l.67-.46.78-.22c.17,0,.34,0,.5,0a13.61,13.61,0,0,0-.31,1.76c0,.2,0,.41.06.62s.16.46.25.68h.12c.06.17.14.34.22.51s.13.06.33.4l.73.51v.11l.5.2c0,.06.07.13.12.2l-.12,0Zm7.55,2.49a8.61,8.61,0,0,1-1.73-.45l-.68-.46-.44-.45a6.71,6.71,0,0,1-.65-1.1c0-.13,0-.26-.08-.4l1,.08.5.15a4.84,4.84,0,0,0,.19-1.42c-.07-.2-.15-.41-.22-.62a3.53,3.53,0,0,0-.86-.66,3.58,3.58,0,0,0-1-.3,5.19,5.19,0,0,1,.19-1.36,4.83,4.83,0,0,0,.93-.43l.41-.42c.15-.35.29-.72.45-1.08s.09-.64.14-1l-.89.22.86-1.64,2.68-3.57,1.79-2.1c.45-.79.45-.79.56-.9.22-.57.45-1,.76-1.76h.11c-.42,2.1-.42,2.1-.87,3.8-.29.88-.59,1.76-.9,2.66-.89,2.15-.89,2.15-1.62,4.19a16,16,0,0,0-.5,2.33v1a12.63,12.63,0,0,0,.45,2,5,5,0,0,0,.67,1.19,3.7,3.7,0,0,0,1,.53l.89.12a.39.39,0,0,0,0,.14l-.56.74-.53.42-.67.34-.78.17Zm5.42.79c-.84-.56-.84-.56-1-.59a4.42,4.42,0,0,1-.65-1.13,3.47,3.47,0,0,0-.06-.45,7.7,7.7,0,0,0,.65-1.53c-.31.06-.62.14-1,.22l0-1.53c.08-.79.17-1.58.26-2.38H97.7c-.2,1.14-.2,1.14-.42,2.95v1c-.08.08-.08.08-.39.06,0-.92,0-1.85,0-2.78.23-1.54.45-3.09.67-4.65L99,127.05c.1-.68.2-1.36.31-2h.17c0,1.39.09,2.79.13,4.19l0,14.17h.12l.3-13.15c.1-1.65.2-3.32.31-5h.11c.19,1.53.19,1.53.92,5.44,0,0,.5,2.6,1,5.66,0,.66.11,1.32.17,2a12.46,12.46,0,0,1-.08,2.46l-.34,0c0-.24,0-.48,0-.73-.23-2.33-.23-2.33-.42-3.46h-.11c.06.4.12.79.19,1.19a16,16,0,0,1,0,2.66.5.5,0,0,1-.08.14,3,3,0,0,1-.84-.19,10.19,10.19,0,0,1,.58,1.75c-.06.18-.14.38-.22.57a6.24,6.24,0,0,1-.86,1c-.61.34-.61.34-.78.34Zm0,1.13a7.55,7.55,0,0,1-1.18-.9,4.91,4.91,0,0,1-.64-.82.55.55,0,0,0,0-.17h-.11c-.2-.51-.2-.51-.2-.68a.49.49,0,0,1,.31-.17c.14.32.27.64.42,1,.33.45.48.51.53.64l.12,0v.11c.72.42.72.42,1,.48l.67-.46a5.07,5.07,0,0,0,.86-1c.1-.23.2-.45.32-.68a1.52,1.52,0,0,1,.22.08c0,.15,0,.15-.09.54a7.82,7.82,0,0,1-.89,1.19,7,7,0,0,1-1.14.87Z"/><path class="cls-5" d="M130.12,76.87A23.83,23.83,0,0,0,133.79,75c1.67-1.12,3-2.61,2.76-4.63-3.06.4-4.65,1.69-7.27,3.63-.73.68-1.38,1.35-2.09,2a1.48,1.48,0,0,0,0,.19,5.46,5.46,0,0,1,2.9.74Z"/><path class="cls-5" d="M122.8,61.89c-.06-.14-.12-.29-.17-.43C122,61,122,61,121.85,61c0,.17,0,.34.05.51l-.22.08a1.56,1.56,0,0,1-.06.15l1.18.17Z"/><path class="cls-4" d="M170.6,108.79A70.68,70.68,0,0,1,143,156.6l-3.82-6.31a63.42,63.42,0,0,0,23.23-37.06,22,22,0,0,0,8.16-4.44ZM59.07,157.57a70.69,70.69,0,0,1-28.76-47.86,22.82,22.82,0,0,0,8.1,3.83,63.48,63.48,0,0,0,24.47,37.73l-3.81,6.3Z"/><path class="cls-8" d="M162.44,113.23a63.42,63.42,0,0,1-23.23,37.06l-3.43-5.67a56.88,56.88,0,0,0,19.6-30.08,35.77,35.77,0,0,0,7.06-1.31Zm-99.56,38a63.48,63.48,0,0,1-24.47-37.73,38.75,38.75,0,0,0,7,1.08,56.94,56.94,0,0,0,20.87,31l-3.42,5.65Z"/><path class="cls-9" d="M155.36,114.91a55.85,55.85,0,0,1-19.58,29.71l-3.68-6.09a49.1,49.1,0,0,0,15.78-23.44h0l.06-.17a65.48,65.48,0,0,0,7.42,0ZM66.3,145.62a56.94,56.94,0,0,1-20.87-31,68.46,68.46,0,0,0,7.35,0l.06.2-7.11.16,7.11-.16h0A49.87,49.87,0,0,0,70,139.55l-3.67,6.07Z"/><path class="cls-5" d="M137.4,81.15c-.73-1.07-1.83-1.29-3.21-1.18a33.24,33.24,0,0,0-4.93,1c0,.06,0,.14-.07.22a2,2,0,0,1,.91,2.12c1.18.4,7.3.38,7.3-2.12Zm-1.54,39.61,1.72-.77,1-.25c.51-.26.51-.26.64-.39a2.3,2.3,0,0,1,.1-.35c0-.25,0-.51-.07-.77l-.22,0-.26.13a3.24,3.24,0,0,0,.07.62h-.13v.13h-.13c0-.15,0-.3-.06-.45h-.26c0,.25,0,.51-.06.77h-.12l-.09-.26-.23,0a2.12,2.12,0,0,1-.76.39h-.7l-.57-.26c-.32,0-.32,0-.47.1s-.23.22-.32.39v.64c.25.32.25.32.41.41Zm.69-2.35c.23-.06.46-.14.7-.22v-.12c.16-.07.49.35,1-.2.19-.07.38-.17.57-.26l1.27-.12a1.17,1.17,0,0,0,.36-.48v-.58c-.08-.21-.17-.42-.26-.64s-.42-.64-.63-1l-.23,0a1.22,1.22,0,0,0-.28.56v.45l.79.47a3.18,3.18,0,0,0,.06.43h-.19c0-.09,0-.19-.06-.3l-.45.06c0,.1,0,.2-.08.3s0,.17.08.26c-.38-.23-.38-.23-.57-.23a1.18,1.18,0,0,0-.19.1c0,.14,0,.3-.06.45-.25-.1-.58-.52-1.09-.52a3,3,0,0,0-.25.25c-.16,0,.17.4,0,.21s-.35-.55-.36-.62l-.32-.17h-.44c-.32.26-.32.26-.45.49h-.12c0,.23-.06.46-.09.71a4.25,4.25,0,0,0,.25.39,2.38,2.38,0,0,0,.72.34Zm-2.33,4.15a5.78,5.78,0,0,0,.57-.12l.89-.52,1.71-.73c0-.15,0-.3.06-.45l-.7.19v.13l-.76.26c0,.08,0,.16-.06.25l-.22-.06,0-.13h-.26c-.09.19-.09.19-.25.26a2.06,2.06,0,0,0-.07-.32l-.25,0-.51-.39a4.61,4.61,0,0,0-.5.07l-.26.16c-.06.15-.14.3-.21.45v.58c.06.09.14.18.21.29l.64.12Zm-1.6-2.43c.25-.67.5-1.36.77-2,0-.11,0-.22,0-.34a7.23,7.23,0,0,1-1.91,0c-.27-.08-.53-.17-.8-.27l-.86-.53a.76.76,0,0,0-.06-.16l1.72.42a9.46,9.46,0,0,0,1.91-.2l.47-.26a.58.58,0,0,1,.06-.17h.13c.31-.47.31-.47.31-.6l-.14-.13a4.81,4.81,0,0,1-1.09.43l-.86,0a1.08,1.08,0,0,1,.07-.18l.85-.26c.35-.27.18-.65.53-.92,0-.16,0-.32,0-.5s-.13-.3-.19-.46c0-.54,0-.54.09-.65l.2,0,.23-.34.49-.27a4.6,4.6,0,0,0-.49.67v.47l.29.2a1.06,1.06,0,0,1,.38-.53l.35-.14c0,.07,0,.15.07.23l.37.11a.35.35,0,0,0,0,.13,1.35,1.35,0,0,0-.67.36,1.56,1.56,0,0,0-.09.78c0,.13.61.38.66.51,2.31-.42,2.13-1,2.46-1.7-.19-.17-1-.41-1.22-.58-.33-.43-1.36-.94-1.7-1.38l-.37-.24h-.79a3.51,3.51,0,0,0-.4.27c-.41.72-.38,1.47-.8,2.21a6.29,6.29,0,0,1-1.45,1.12,5.28,5.28,0,0,1-1.25.26h-1.06l-4.83-1.56a1.66,1.66,0,0,1-.06.16l-.2,0c0-.11,0-.22.06-.34l-.39-.24a.65.65,0,0,0-.47.11c0-.12,0-.24-.06-.38-1-1.24-.35,2.07-.27,1.18h.14c0,.28,0,.58,0,.87l.62.2a2.65,2.65,0,0,1,.2-.87h.2a1.21,1.21,0,0,1-.09.2c0,.18,0,.35.06.54l.23.29.59.18c0-.24.07-.48.11-.74l.16-.06c0,.14,0,.3,0,.46s.24.38.36.57a4.4,4.4,0,0,1,.47.1c.1-.53.1-.53.19-.64a.39.39,0,0,0,.14,0c0,.14,0,.27,0,.41s.17.4.26.6.35.22.53.34v-.68a2.53,2.53,0,0,0,.16-.33h.13c0,.21,0,.44,0,.67l.26.47.29.23.27-.1c0-.47,0-.47.13-.57l.13,0a2.69,2.69,0,0,1,0,.4c.08.24.18.49.27.74s.23.23,3.93,2.51ZM62.7,118.41c-.23-.06-.46-.14-.7-.22v-.12c-.16-.07-.49.35-1-.2-.19-.07-.38-.17-.57-.26l-1.27-.12a1.17,1.17,0,0,1-.36-.48v-.58c.08-.21.17-.42.26-.64s.42-.64.63-1l.23,0a1.22,1.22,0,0,1,.28.56v.45l-.79.47c0,.14,0,.29-.06.43h.19c0-.09,0-.19.06-.3l.45.06c0,.1,0,.2.08.3s-.05.17-.08.26c.38-.23.38-.23.57-.23a1.18,1.18,0,0,1,.19.1c0,.14,0,.3.06.45.25-.1.58-.52,1.09-.52.07.07.17.16.25.25s-.17.4,0,.21.35-.55.36-.62l.32-.17h.44c.32.26.32.26.45.49h.12c0,.23.06.46.09.71a4.25,4.25,0,0,1-.25.39,2.38,2.38,0,0,1-.72.34Zm.68,2.35L61.67,120l-1-.25c-.51-.26-.51-.26-.64-.39a2.3,2.3,0,0,0-.1-.35c0-.25,0-.51.06-.77l.23,0,.26.13a3.24,3.24,0,0,1-.07.62h.13v.13h.13c0-.15,0-.3.06-.45H61c0,.25,0,.51.07.77h.12c0-.08.05-.17.09-.26l.23,0a2.12,2.12,0,0,0,.76.39h.7l.57-.26c.32,0,.32,0,.47.1s.23.22.32.39v.64c-.26.33-.26.33-.41.41ZM65,122.57l-.57-.13-.89-.52-1.71-.73c0-.14,0-.3-.06-.45l.7.19v.13l.76.26a1.85,1.85,0,0,0,.06.26l.22-.07,0-.13h.26c.09.2.09.2.25.26a2.06,2.06,0,0,1,.07-.32l.25,0,.51-.39.5.07.26.16c.06.15.14.3.21.46v.57c-.06.09-.14.18-.21.29s-.42.07-.64.13Zm1.6-2.44c-.25-.67-.5-1.36-.77-2,0-.11,0-.22,0-.34a7.23,7.23,0,0,0,1.91,0c.27-.08.53-.17.79-.27l.87-.53a.76.76,0,0,1,.06-.16l-1.72.42a9.49,9.49,0,0,1-1.92-.2l-.46-.26a.61.61,0,0,0-.07-.17h-.12c-.31-.47-.31-.47-.31-.6l.13-.13a5.13,5.13,0,0,0,1.1.43l.86,0a1.08,1.08,0,0,0-.07-.18l-.85-.26c-.35-.27-.18-.65-.54-.92,0-.16,0-.32,0-.5a4.89,4.89,0,0,0,.2-.46c0-.54,0-.54-.09-.65l-.2,0-.24-.34-.49-.27c.21.3.34.34.49.67v.47a2.11,2.11,0,0,1-.29.2,1,1,0,0,0-.37-.53l-.35-.14c0,.07,0,.15-.07.23l-.37.11a.35.35,0,0,1,0,.13,1.28,1.28,0,0,1,.66.36c.1.24.1.24.1.78,0,.13-.61.38-.66.51-2.31-.42-2.13-1-2.46-1.7.19-.17,1-.41,1.22-.58.33-.43,1.35-.94,1.7-1.38l.37-.24h.79a4.68,4.68,0,0,1,.4.27c.41.72.38,1.47.8,2.21A6.29,6.29,0,0,0,68,115.17a5.28,5.28,0,0,0,1.25.26h1.06l4.83-1.56a1.66,1.66,0,0,0,.06.16l.2,0c0-.11,0-.22-.06-.34l.39-.24c.65.09,1,1.51.07,2a2.65,2.65,0,0,0-.2-.87c-.22,0-.24,0-.11.2a1.22,1.22,0,0,1-.29.83l-.59.18c0-.24-.07-.48-.11-.74l-.16-.06c0,.14,0,.3,0,.46L74,116c-.14,0-.3.06-.46.1-.1-.53-.1-.53-.2-.64l-.13,0a2.83,2.83,0,0,0,0,.41c-.08.2-.17.4-.26.6s-.35.22-.53.34v-.68a2.53,2.53,0,0,1-.16-.33h-.13c0,.21,0,.44,0,.67l-.26.47-.29.23-.27-.1c0-.47,0-.47-.13-.57l-.13,0a2.69,2.69,0,0,0,0,.4c-.08.24-.18.49-.27.74s-.23.23-3.93,2.51Zm31.84-7.61-.2-3.35q-2.31-.51-4.38-4l1.77,4.49a4.87,4.87,0,0,0,2.81,2.82Zm.83,7.24a8.34,8.34,0,0,1-1.09-1.49l-.89-1.48c-.18-.43-.37-.86-.56-1.3-.15-.6-.29-1.2-.45-1.81,0-.18,0-.38,0-.57a4.79,4.79,0,0,1,1.23.65c.22.22.22.22.28.37h.11a26.17,26.17,0,0,1,1.31,2.49c.06.21.13.41.2.63h.16c.06-.21.13-.41.19-.63l.9-1.75c.19-.29.39-.57.59-.85l.56-.43c.73-.34.73-.34,1-.37-.07.38-.14.75-.2,1.14a22.1,22.1,0,0,1-.9,2.43c-.29.46-.59.91-.89,1.36s-.82,1.06-1.23,1.59l-.25,0Zm.06,3.91-.11,0q-1.11-2.06-2.21-4.14a14.74,14.74,0,0,1-.67-2.26c-.14-1-.27-2-.42-3h.17c.28.81.57,1.62.86,2.44.45,1,.89,1.7,1,2a.42.42,0,0,1,.14.06,8.7,8.7,0,0,1,1,1.64,18.44,18.44,0,0,1,.26,2.27h.11l.3-2.44c.29-.4.6-.79.9-1.19s.59-1,.89-1.47a29.93,29.93,0,0,0,1.32-3.12H103c-.2,1.64-.2,1.64-.42,2.83a17.68,17.68,0,0,1-.9,2.55c-1.78,3.12-1.78,3.12-2.23,3.8l-.08,0ZM86.28,141.3l-.89-.23-.56-.34c0-.14-.54-.53-.56-.65h-.11a12,12,0,0,1-.54-1.19c-.11-.17-.11-.17-.28-.85v-.79c0-.26.09-.52.15-.79a2.38,2.38,0,0,0-.84.3l-.45.32c-.1.17-.2.34-.31.51a7.14,7.14,0,0,0-.28,1.7q-.15.19-.3.42l-.22.09c-.07-.2-.14-.41-.2-.62-.29-.46-.6-.91-.9-1.36a5,5,0,0,1-.33-1.36v-.63c.06-.22.14-.45.22-.68s.29-.45.45-.68a6.63,6.63,0,0,1,1.32-1c.5-.12,1.17-.12,1.25-.2l0-.28a4.51,4.51,0,0,0-1.28-.32l-.73-.45c-.06-.14-.06-.14-.2-.19l-.23-.57v-1.08a4.36,4.36,0,0,1,.68-1.13c.59-.43.59-.43.76-.45,0,.28,0,.56.07.85a2.57,2.57,0,0,0,.45.79l.2.11v.12l1.06.3.51,0a7.64,7.64,0,0,0,1.34-.68l2.62-2c.84-.46,1.23-.57,1.57-.8l3.07-1.36a21.11,21.11,0,0,0,1.87-1.32c0-.12.37-.32,1.23-1.31l.67-1q.27-.8.54-1.62l.16,0a1.43,1.43,0,0,1,.08.68,12.94,12.94,0,0,1-.67,2.21L95.81,125c-1.42,1.33-1.53,1.36-1.59,1.5-2.4,1.81-2.4,1.81-3.13,2.43l-.11,0a6.91,6.91,0,0,1-1.1,1.13c-.22.34-.44.68-.67,1a6.24,6.24,0,0,0-.45,1.42l.06.45a2.43,2.43,0,0,0,.45.74l.65.42.44.11.73,0-.2.45c-.15.17-.29.34-.45.51l-.47.31-.67.17h-.61l-.73-.31v-.11c-.48-.4-.59-.57-.73-.62a8.08,8.08,0,0,0-.42,1.36c0,.29,0,.6,0,.9l.23.57q.21.26.45.51l.42.19,1.79.23.78.23c.17.1.34.2.5.31s.06.14.17.17c0,.29,0,.57,0,.85l-.07.08a5.77,5.77,0,0,0-1.4-.11c-.67.45-1.18.91-1.73,1.25l-.79.17Zm18.13-25.62,3.31-4.86c1.54-.35,3-2.58,4.39-4.88.2,2.28-1.64,7.07-7.7,9.74Zm-2.82-3.16.2-3.35q2.31-.51,4.38-4l-1.77,4.49a4.87,4.87,0,0,1-2.81,2.82Zm2.4,1.4,1.57-3.59,2.11-2.32-.51,2.42c-.25.84-1.78,3.1-3.17,3.49Zm3.85-3.92a44.37,44.37,0,0,0,3-12.41,23.47,23.47,0,0,1,1.43,4.69c-.23,1.33-2.42,6.88-4.47,7.72Zm-3.13,0c2.46-4.31,2.23-5.49,3-8.65.19.77.39,1.62.54,2.4.62-.57,1.18-1.66,1.16-1.13-.38,1.29-2.53,6.79-4.66,7.38Zm18.85-11.13.21-.45c.91-.78,1-1,.72-2.27-.6-1.28-1.2-2.56-1.82-3.85-.56-.1-.73-.21-1-.23-.52.41-1,.46-1.25,1,.26,1.53.51,3.06.78,4.59.47.88,1.43,1,2.31,1.25Zm-10.11.63c.41-.93,1.77-.24,2.27-2.14.09-1.16.18-2.33.25-3.49-.44-.12-1.18-1.12-1.54-1.5-.08-.13-.08-.13-.31-.23-.22.09-.44.18-.66.29-.61,1.57-.61,1.57-1.31,3.78s-.37,2,1.3,3.29Zm.66,7.15-1-.53c0-.15-.16-.17-.59-.9l-.13-.4h-.11v-5c.22.08.22.08.61.42,0,.38-.09,1.28-.09,2.7.07.28.13.57.2.85h.11a13.07,13.07,0,0,1-.09-2c.07-.32.15-.64.23-1a1.64,1.64,0,0,1,.44-.68l.37-.21.34,0c-.21.69-.43,1.39-.65,2.1,0,.23-.07.48-.11.73,0,.49,0,1,0,1.48.17.8.34,1.62.51,2.43l-.14,0Zm.56,4.2a6,6,0,0,1-1.17-.34l-1-.65c0-.11,0-.11-.28-.28,0-.91.06-1.82.09-2.72a.38.38,0,0,1,.13.06c.19.46.39.94.6,1.41h.16c.06.14.06.14.79.68v-.17l-.34-.17v-.11c-.14-.06-.17-.17-.28-.17a8.21,8.21,0,0,1-.65-1.42c0-.24-.09-.49-.13-.74.17.08.17.08.22.23l.23,0a2.17,2.17,0,0,1,.47.49,4.57,4.57,0,0,0,.42,1.19H114c.06.11.11.23.17.34s.17.17,1.62,1l.39.15a1.33,1.33,0,0,1-.05.19,2.17,2.17,0,0,1-.62.34h-.89q-.62-.17-1.23-.36a.65.65,0,0,0,.08.17,3.84,3.84,0,0,0,1,.53h.9a5.89,5.89,0,0,0,1.28-.45l.06-.14h.33a3.79,3.79,0,0,1-.2.34l-.8.42a5.3,5.3,0,0,1-1.4.12Zm.34.79-.65-.31a1.11,1.11,0,0,0,0-.17l.33,0,1,.37a.52.52,0,0,1,0,.11l-.61,0Zm4.3,2c-.22-.06-.45-.14-.67-.22a10.85,10.85,0,0,1-2.07-.46,5.61,5.61,0,0,1-1.06-.68c-.06-.13-.06-.13-.2-.19a1,1,0,0,0,0-.17,9.51,9.51,0,0,1,1.56.19l1.18.55c-.06-.15-.17-.17-.56-.66a5.12,5.12,0,0,0-1.29-.62l-.22,0v-.17L117,111l.73.17c.21.1.42.2.63.32,0,.11.32.3.73.9.12.32.26.64.39,1,0,.1,0,.2,0,.3Zm-1.79.4c-.09-.08-.09-.08-.11-.25h.17v.11l.17.08c-.06.06-.06.06-.23.06Zm-3.35.23a7,7,0,0,0-1.34-.57,1.8,1.8,0,0,1-.2-.19c0-.09,0-.18-.08-.29a4.05,4.05,0,0,1,1.06.31l.73.6a.84.84,0,0,1-.06.14Zm3,3.34-.39-.34-.17,0v-.12a11.55,11.55,0,0,1-2.1-1.07,7.8,7.8,0,0,0-.67-1.31l-.14,0v-.23l.56.19,1.57,1.06v.11H116a4.26,4.26,0,0,0-.65-1.08l-.69-.65a1.94,1.94,0,0,0,0-.2,13.06,13.06,0,0,1,1.56.34v.12h.11c0,.09.07.18.11.28s.17.17.28.17l.06.23h.11a4.84,4.84,0,0,1,.47,1.24c0,.41,0,.83.06,1.25-.08.08-.08.08-.19.08Zm1.56.6c-.13-.41-.28-.83-.42-1.25-.9-1.64-1.34-2.32-1.37-2.43h-.11v-.23h.39v-.17l.23.08a8.2,8.2,0,0,1,1,1.39h.11a4.33,4.33,0,0,0-.32-1.19l-.27-.45a2.08,2.08,0,0,0,0-.23l1.29.31a5,5,0,0,1,.36,1v1.25c-.07.28-.15.57-.23.85s-.29.64-.44,1l-.14.06Zm3.41,2.18a3.67,3.67,0,0,1-1.12-.46c-.31-.36-.31-.36-.39-.59h-.11a3.23,3.23,0,0,0-.15-.34v-.45c0-.07.07-.15.12-.23l.14,0c.2.32.4.63.62,1l.72.46.45.14v-.11c-.15-.07-.29-.14-.45-.2l-.56-.46c-.17-.33-.35-.65-.53-1,0-.23,0-.46-.06-.68.15-.49.29-1,.45-1.48v-.62c-.07-.32-.15-.63-.22-1l-.56-1c-.14,0-.14,0-.53-.54l-.28-.14c-.07-.14-.13-.29-.2-.45l-.45-.57a5.58,5.58,0,0,0-1-.73c0-.12,0-.23,0-.34l.71,0A6.29,6.29,0,0,1,120,111l.89.65v.12c.17.13.34.27.5.42s.43.59.64.88a4.67,4.67,0,0,1,.34,1.19v1.08c-.12.75-.23,1.5-.34,2.26a4.11,4.11,0,0,0,.17.91c.21.28.42.58.65.87a3.5,3.5,0,0,0,.78.38,2.83,2.83,0,0,0-.2.28,2.9,2.9,0,0,1-.75.31Zm-4.58,1c-.17-.12-.23-.25-.34-.25l-.25-.51c0-.51.06-1,.11-1.53a2.73,2.73,0,0,1-.08-1l.17.06.16.26a.84.84,0,0,0,.14-.06l.22-.45c.17-.74.17-.74.23-.8.06.19.14.38.22.57V118a2.36,2.36,0,0,0-.45.85v.79a2.6,2.6,0,0,1,.11,1c0,.21-.06.41-.11.63a.46.46,0,0,0-.13.08Zm2,.79c-.28-.23-.28-.23-.39-.25s-.54-.68-.56-.79h-.11c-.16-.43-.32-.86-.48-1.31a3.44,3.44,0,0,1,.16-1.19.55.55,0,0,1,.32-.17c0,.15.11.3.17.46l.27-.21c.22-.3.43-.61.64-.93a5.48,5.48,0,0,0,.39-1.24v-1.19c0-.34-.09-.68-.13-1l.13-.06c0-.24,0-.49-.07-.74a1,1,0,0,1,.52.29,4.31,4.31,0,0,1,.45.85,3,3,0,0,1,.11,1.07,13.43,13.43,0,0,1-.67,2c-.15.32-.29.64-.45,1l-.33,1.13a11.51,11.51,0,0,0,0,1.7c.06.06.06.06.11.51l-.13.08Zm-6.09.09c-.07-.23-.14-.45-.2-.68s0-.6,0-.91.29-.9.45-1.36c0-.28.07-.56.11-.85a5.13,5.13,0,0,0-.17-1.19l-.74-1.41h.27V116l.23.08a1.28,1.28,0,0,0,.11.2l.22.08a4.24,4.24,0,0,1,.64,1.11c.09.41.18.83.28,1.25s0,.79-.06,1.19-.14.52-.22.79c-.22.46-.45.91-.67,1.36-.19.2-.19.2-.3.23Zm2.63.59c-.51-.45-.68-.68-.79-.7-.12-.29-.24-.57-.37-.85v-2.78l-.3-1.3h.23v.11H115c0-.23,0-.45-.06-.68l.19.06.34.73c.1.53.2,1.06.31,1.59h.11c0-.45-.05-.91-.09-1.36,0-.23-.12-.45-.19-.68l.34.08.28.23a4.81,4.81,0,0,1,.41,1,6.15,6.15,0,0,1,.11,1.47c-.11.85-.33,1.76-.52,3Zm-.51-9.35L114,113.3q-.67-.21-1.35-.45A12.78,12.78,0,0,1,111,112c0-.09,0-.18,0-.29s.23-.17.34-.26h.28l2.35,1.11-.06-.14-.56-.31V112l-.39-.17v-.12c-.22-.09-.78-.54-1.12-.73,0-.12,0-.23,0-.34l.21-.46.28.08c.23.19.48.37.72.55v.11l.22.06v.11c.23.08.23.08,1.4,1v.12c.53.39.53.39.56.51l.28.11a1.12,1.12,0,0,0,.06.23c.3.17.33.28.44.28.08.17.08.17.06.25ZM114,116l-.28-.13v-.12c-.89-.43-1.23-.65-2.23-1.11l-1.12-.34h-1.45a8.5,8.5,0,0,0-1.34.43c0-.09,0-.18.07-.28.25-.38.51-.77.76-1.17l2,.06.78.32v.11l.33.11c-.28-.37-.28-.37-.39-.39v-.12c-.17-.09-.17-.09-.22-.22l-1.18-.51.06-.21a3,3,0,0,1,1-.28c.41.32.41.32.45.43l.22.08c.73.68.73.68.78.83a.81.81,0,0,1,.45.3c.06.15.19.21.22.32H113c.52.74.52.74.55.91h.12c.41.85.41.85.41,1l-.08,0Zm-11.62,5.65c-.08-.69-.17-1.4-.26-2.1.45-1,.67-1.81,1-2.47.17-.15.34-.29.51-.45q.36-.47.75-.93l.2-.06a12.59,12.59,0,0,1-.32,1.93c-.36.62-.73,1.24-1.11,1.87-.15.37-.29.75-.45,1.13-.22,1-.22,1-.3,1.08Zm8.05.64a3.46,3.46,0,0,1-1.12-.45l-.48-.59c.09-.09.09-.09.37-.11v.11h.11v.17c.13.06.13.06.39.31l.45.17.72,0c0-.11.07-.22.11-.34l-.39.08-.5,0-.37-.2a1.11,1.11,0,0,0,0-.17,5.37,5.37,0,0,0,1.23-.43l.75-.93a6.75,6.75,0,0,0,.39-1.07,2.56,2.56,0,0,0-.11-.91l-.23-.57a6.69,6.69,0,0,0-.89-1.19l-.53-.43a8.1,8.1,0,0,0-1.23-.45l-1-.14s.05-.11.08-.17a2,2,0,0,1,.82-.26h1l1,.23,1,.49v.11l.34.19c0,.15.19.21.22.32h.11a5.84,5.84,0,0,1,.64,1.19,9.8,9.8,0,0,1,.17,1.7c-.07.37-.15.75-.23,1.13s-.29.6-.45.91l-.44.62a4.18,4.18,0,0,1-1,.65,3,3,0,0,1-.95.11Zm-3.69,2.1a4.78,4.78,0,0,0-1-.34l-1.68-.23-.78-.45c0-.14-.2-.19-.31-.42s-.07-.29-.11-.45v-1a7.11,7.11,0,0,1,.44-1.64c.11-.18.21-.37.32-.57h.17c0,.52,0,1.06,0,1.59.07.28.15.57.23.85l.33.51c.15.06.2.19.87.65l1.12.6c.06.13.19.22.22.34h.12c.18.39.18.39.18.51l-.07,0Zm4.47,17.17-.62-.11-.5-.23c-.56-.45-.56-.45-.67-.48v-.11l-.78-.55a4.87,4.87,0,0,0-1.51.06c0-.08-.06-.16-.09-.25s0-.34,0-.51l.21-.31a3.11,3.11,0,0,1,.89-.46c.61-.11,1.9-.22,2.35-.34a1.75,1.75,0,0,0,.61-.45l.3-.53a3.88,3.88,0,0,0,.12-1.31c-.12-.35-.23-.71-.34-1.07l-.19,0a3.6,3.6,0,0,1-.67.68l-.45.23-.61.06-1-.23-.56-.45c-.43-.59-.43-.59-.5-.82l.89,0a3.4,3.4,0,0,0,1.08-.53c.34-.51.34-.51.39-.74v-.85c-.14-.37-.29-.74-.44-1.13-.56-.79-.56-.79-.58-.91s-.56-.54-.67-.56c-.2-.29-.34-.34-.39-.49l-.12,0V129l-.33-.17a1.47,1.47,0,0,0-.06-.14c-2-1.59-2-1.59-2.12-1.61V127l-.34-.17v-.11a7.56,7.56,0,0,0-.67-.45v-.12h-.11V126a8.65,8.65,0,0,0-.89-.79l-.87-1.48c-.15-.37-.3-.74-.45-1.13s-.15-.71-.23-1.08V121c0-.05.07-.11.12-.17l.2-.05c0,.23,0,.48.05.73h.11a2.87,2.87,0,0,0,.31.91c.32.5.65,1,1,1.5.11,0,.11,0,.5.6l.45.3a.58.58,0,0,0,.06.15c.2.12.4.26.61.4v.11l.9.51v.11c.5.2.83.42,4.3,2,.39.27.78.54,1.17.83a.38.38,0,0,0,.06.13l1,.72a.75.75,0,0,0,.06.13l.22.09v.12l1.4.87.61.23h.62l.67-.23a2.49,2.49,0,0,0,.69-.76,4.06,4.06,0,0,0,.2-1.08l.23,0c.56.45.56.45.67.65h.11c.1.26.2.52.3.8s0,.6.06.9-.07.34-.11.51l-.23.4-.52.42c-.79.23-1.46.34-1.6.43s0,.23,0,.34c.34,0,.7,0,1.06.08l.5.23c.78.68.78.68.9.71s.14.26.22.4h.11a3.21,3.21,0,0,1,.36,1c0,.39,0,.79-.06,1.19-.07.23-.14.48-.22.73a8.73,8.73,0,0,1-.9,1.31c-.11.23-.22.48-.33.73l-.14,0a1.36,1.36,0,0,1-.36-.47c0-.45-.07-.91-.12-1.36-.06-.17-.14-.34-.22-.51-.41-.49-.41-.49-.52-.51v-.11a4.59,4.59,0,0,0-.95-.4c0,.4.08.79.13,1.19,0,.24-.07.49-.11.74s-.29.74-.45,1.13-.45.6-.67.91a3.8,3.8,0,0,1-1,.64l-.9.23Zm-7,1.81-1.07-.23a3.83,3.83,0,0,1-1-.67l-.59-.71c0-.09,0-.18,0-.28l1.23-.15a3.42,3.42,0,0,0,1-.68c.14-.25.27-.5.42-.76s.22-.63.33-1c.07-.52.15-1,.23-1.59l-.06-1.19c-.07-.39-.15-.79-.22-1.19-.45-1.47-1.34-3.85-2.24-6.46-.22-.86-.45-1.73-.67-2.6s-.27-1.54-.41-2.33l.19.06c.44,1.19.89,2.1.92,2.27h.12a6.46,6.46,0,0,0,.39.79h.11l.22.45c.14.06,1,1.14,1.09,1.19a1.36,1.36,0,0,0,.09.23h.11c1,1.3,1,1.3,1.06,1.53h.11a33.57,33.57,0,0,1,2.09,3.51.68.68,0,0,1,0,.14,3.17,3.17,0,0,1-.78-.19c0,.28,0,.56.07.85l.23.73c.14.24.29.49.45.74.14.08.14.08.2.23l1,.39a5.47,5.47,0,0,1,0,1.27,7.73,7.73,0,0,0-1.23.46l-.56.45a1.75,1.75,0,0,0-.31.77,5.62,5.62,0,0,0,.2,1.36l.73-.2.78,0-.42.91-.56.73a5.57,5.57,0,0,1-.92.65l-1,.34-1.28.11Zm-8.52-27.71-3.31-4.86c-1.54-.35-3-2.58-4.39-4.88-.2,2.28,1.64,7.07,7.7,9.74Zm.42-1.76-1.57-3.59L92.39,108l.51,2.42c.25.84,1.78,3.1,3.17,3.49Zm-11.18-7.5a10.5,10.5,0,0,0-.16-7.25c.5-.23,1.12-.21,1.61,1,.11,0,.56-.52.67-.54,0,2.78.72,5.38-2.12,6.74Zm-1.46,4.11a6,6,0,0,1-1.34-.59c0-.13-.11-.26-.16-.4l.39.06v.11h.16v.11l1.18.42a3.71,3.71,0,0,0,1.17,0c.26-.14.51-.29.78-.45l.11-.19-1.06.3-.78.06-.67-.23-.26-.19a1.55,1.55,0,0,0,0-.15,8.36,8.36,0,0,0,1.62-.9l.5-.46.41-.64c.08-.28.17-.57.26-.85.67-.43.67-.43.84-.45-.07.28-.13.56-.2.85a5.06,5.06,0,0,1-.67,1.18c-.25.17-.3.31-.58.46v.17l.78-.55c0-.13,0-.13.19-.19.24-.52.5-1,.76-1.56l.11,0,0,2.78-.45.45a5.92,5.92,0,0,1-1.14.65l-1,.23Zm.45.82a1.23,1.23,0,0,0-.06-.22l.79-.23v.19a1.48,1.48,0,0,1-.73.26Zm-.28.06s0-.09,0-.15c.16,0,.16,0,.22.06a1.4,1.4,0,0,0-.17.09Zm-.67,1.81v-.17c.7-.58,1.41-1.19,2.12-1.79L87,109.9l.19,0c.06.2.12.41.17.62a18.86,18.86,0,0,1-2.2,1.53v.17l2.24-1.11c.33,0,.33,0,.5.09s.13.23.13.4c-.19.19-.19.19-1,.64l-1,.46-1.39.34-1.68.14Zm-3.41.06c0-.11,0-.23,0-.34l.45-1,.43-.6a3.16,3.16,0,0,1,1-.57,4,4,0,0,0,.44-.11,6.44,6.44,0,0,1,1.23.2A.58.58,0,0,1,83,111a5.77,5.77,0,0,0-1.46.68,5.72,5.72,0,0,0-.5.66l1-.43,1-.23.78,0s0,.12,0,.19a5.41,5.41,0,0,1-1.18.79c-.83.23-1.78.34-3,.66Zm5.14.74v-.17c.28-.22.56-.43.84-.66l1-.25a1.8,1.8,0,0,1-.09.28l-.22.23a13.05,13.05,0,0,0-1.48.57Zm.34,1.61,0-.14.44-.79c.9-1.08,1.38-1.51,1.43-1.65,1.18-.88,1.18-.88,1.46-1a.78.78,0,0,1,0-.14,2.43,2.43,0,0,1,.9.34l-.06.14-.89.45c-.28.22-.56.43-.84.66v.11l1.23-.49,1.84,0a.7.7,0,0,1,.17.09c0,.17.11.34.17.51H91c.11.2.23.41.36.62s0,.17-.06.23c-.13-.09-.13-.09-.86-.32l-.67-.11H88.63l-.89.22c-2,.91-2.52,1.25-2.74,1.31Zm-3.47,1.67c0-.35,0-.71.08-1.07s.15-.6.23-.91a5.53,5.53,0,0,1,.89-1.25l.26-.2,1.34-.25c0,.07-.06.15-.09.23l-.9.85c-.33.62-.33.62-.35.85l1.17-.89c1-.45,1-.45,1.12-.47-.09.22-.54.85-.65,1.13-.11.11-.11.11-.3.53a17.13,17.13,0,0,0-1.9.91c-.62.45-.62.45-.9.54Zm-1.5.48a3.85,3.85,0,0,1-.43-1c-.07-.29-.15-.6-.22-.9V115a4.89,4.89,0,0,1,.42-1.4l1.34-.3c-.13.26-.28.52-.42.79s-.16.68-.25,1a.42.42,0,0,0,.14-.06,6.23,6.23,0,0,1,.87-1.16l.28-.08V114h.33c-.43.73-.87,1.47-1.32,2.21l-.63,1.55Zm-4,2.1a3,3,0,0,1-.76-.42.88.88,0,0,0,0-.17,2.94,2.94,0,0,0,.89-.43c.64-1,.64-1,.7-1.22v-.9c-.07-.57-.15-1.14-.23-1.7V114c.07-.32.15-.63.23-1a3.58,3.58,0,0,1,.67-1l.92-.89,1.07-.68c.31-.06.62-.14,1-.22s.48,0,.72,0v.12h.11l-.08.17a3.17,3.17,0,0,0-1,.64l-.44.46-.43.71a8,8,0,0,0-.95.85,5.34,5.34,0,0,0-.56,1.13c0,.19-.07.38-.11.57q0,.52.06,1.08a4.79,4.79,0,0,0,.33,1v.51a4.73,4.73,0,0,1-.67,1.24l-.58.42c-.12,0-.26.09-.39.15v.17l1.17-.54.64-.93a1.52,1.52,0,0,0,.2-.06c0,.23,0,.45,0,.68a3.92,3.92,0,0,1-.67.91,3.18,3.18,0,0,1-1,.42ZM81.09,121c0-.4,0-.82,0-1.24a5.09,5.09,0,0,0,.17-1.14c0-.12-.07-.26-.11-.39s-.26-.41-.39-.63c.08-.29.17-.6.26-.9h.16c0,.22,0,.45,0,.68s.14.37.22.56a1.38,1.38,0,0,1,.2,0,.42.42,0,0,1,.06-.14l.33-.11c0,.24-.09.48-.14.73v1.82a2.49,2.49,0,0,1-.53.7l-.22,0Zm15.25.4c-.06-.32-.13-.63-.2-1s-.29-.75-.45-1.14c-.78-1.41-.78-1.41-.8-1.58h-.11a3.49,3.49,0,0,0-.15-.34c-.06-.49-.14-1-.22-1.48,0-.13,0-.28,0-.43l.14,0L95.67,117l.23.06c.26.83.53,1.66.8,2.49a9.21,9.21,0,0,1-.25,1.9l-.11,0Zm-17.21.34c0-.4.13-.85.19-1.93,0-.28-.07-.56-.11-.85-.35-.91-.7-1.84-1.06-2.77-.06-.23-.11-.46-.17-.68a5.18,5.18,0,0,1,.17-1.48l.31-.56c.13-.06.17-.17.5-.38l.17,0c0,.26-.07.52-.11.79h.11c0,.36-.09.72-.14,1.08v1.42c.06.24.14.48.22.73s.29.57.45.85l.42.54a.35.35,0,0,0,.14,0l.2-.31.22,0c0,.15.09.3.13.46v1c-.06.23-.14.45-.22.68a7.82,7.82,0,0,1-.89,1.19l-.53.34Zm6,.25-.65-1.21-.34-1c0-.4,0-.8-.05-1.19s.14-.75.22-1.14.22-.56.34-.85.28-.36.42-.54.4-.26.61-.4a.21.21,0,0,1,.08.21c-.06.09-.14.18-.22.28a6.51,6.51,0,0,0-.56,1.47v1c.15.58.29,1.17.45,1.76,0,.28,0,.57,0,.85s-.14.49-.22.74l-.13,0Zm2.68.06-.67-.23-.71-.53a2.27,2.27,0,0,0-.19-.34h-.11a8.43,8.43,0,0,1-.65-1.53,11.68,11.68,0,0,1,0-1.7c.07-.34.14-.68.22-1a5.86,5.86,0,0,1,.9-1.25l.59-.43a8.38,8.38,0,0,1,1.51-.57l1.11,0c.21,0,.41.06.62.11l.45.23a1.47,1.47,0,0,1-.06.14,7.73,7.73,0,0,0-1.68.31c-.28.15-.56.29-.83.45A8.63,8.63,0,0,0,87.2,117c-.11.28-.22.57-.34.85s0,.34,0,.51.07.37.11.57a6.84,6.84,0,0,0,.78,1.36c.15,0,.2.19.54.42l1,.26c-.09.17-.09.17-.39.36a2.19,2.19,0,0,1-1,0l.17.25a2.24,2.24,0,0,1,.22.11h.5l.56-.23.34-.47H90l-.62.7a2.85,2.85,0,0,1-.84.34c-.23,0-.48,0-.72.06Zm-5.37.48a9.26,9.26,0,0,0-.31-2.38c0-.45,0-.9-.06-1.36s.15-.71.23-1.07.2-.49.31-.74l.67-.28c-.1.35-.2.71-.31,1.07s0,.6,0,.91a.38.38,0,0,0,.13-.06,10,10,0,0,1,.45-1.75c.06-.15.14-.3.22-.46l.2,0c0,.2-.06.41-.11.62l.34-.06c-.1.41-.2.83-.32,1.25,0,.91,0,1.81-.05,2.72l-.23.57-.52.7c-.45.34-.45.34-.62.37Zm9.45,1.7a2.72,2.72,0,0,1,.41-.68,12.52,12.52,0,0,1,1.49-.88l.8-.65.23-.39c.06-.29.14-.57.22-.85,0-.55,0-1.09,0-1.65h.17a9.58,9.58,0,0,1,.63,1.48c0,.31.07.63.11,1a5.05,5.05,0,0,1-.16,1.25c-.23.34-.36.39-.42.53a2.54,2.54,0,0,1-.72.34l-1.74.23-1,.31Zm23.35-42.34a5.1,5.1,0,0,0,.73-.3l.51-.25a4.66,4.66,0,0,1,0,.91,2.9,2.9,0,0,1-.44,1.19,2,2,0,0,1-.45.51,3.91,3.91,0,0,1-.75.42,2.11,2.11,0,0,1-.62.17h-.46l-.37.1c-2.27.53-4.61-2.85-5.83-4.47A12.15,12.15,0,0,1,106,73.75c.59,3.46,3.27,8.45,7.41,8a3,3,0,0,0,1.73-.76,5.9,5.9,0,0,1,.15.8v.15ZM99.47,77.15a12.91,12.91,0,0,0-.42-1.81c-.79-3.71-2.82-8.33-4.2-11.84,1.9,1,4.27,8,4.42,9.39.24,2.09.13,3.12.2,4.26Zm20.24,15.76c.13-.2.28-.39.42-.59,1.42-.89,1.17-1.36.51-2.95,0-.15,0-.3-.06-.45s.08-.09.3-.09.09.09.76,2c.75,1.14,1.32.77,2.65.8.07-.21.13-.41.2-.63.61-.91.91-1.21.17-2.15-.26-.2-.31-.34-.87-.77-.3-.42-.3-.42-.36-.65a.34.34,0,0,1,.25-.14l.5.31c.06.14.17.17.81,1l.59.42c1.44.48,1.54-.48,2.73-.82-.29-1.68-.24-2.05-1.73-2.7l-1-.22-.45-.23c0-.08,0-.16-.08-.25l.08-.09a2.56,2.56,0,0,1,1,.17,4.2,4.2,0,0,0,1.54,0,2.61,2.61,0,0,0,1.91-2.22A3.57,3.57,0,0,0,128,81.12a2.77,2.77,0,0,0-1.37-.06c-.56.18-1.12.38-1.67.57-.34,0-.34,0-.42-.08v-.17l.3-.2c.95-.38,1.9-.75,2.85-1.14a3.22,3.22,0,0,0,1.46-2.91,3.92,3.92,0,0,0-2.46-.37,7.15,7.15,0,0,0-2.46,1.58c-.17.21-.34.41-.5.63l-.19,0v-.28l.44-.79c.42-.48.87-.92,1.32-1.35a10.81,10.81,0,0,0,2.58-3.24c.27-.58.94-4.2.29-5a19.73,19.73,0,0,1-2.56,3L123.79,73c-1.29,1.27-2.93,2.88-3.41,4.7a3.13,3.13,0,0,0,.18,2.19A14.45,14.45,0,0,0,122.17,82a2.7,2.7,0,0,1,.47,2.17c-.42,2-1.92,2.82-3.83,3.34l-1.22.06-.9-.11L115.57,87l-1-.76-.65-.88a3.79,3.79,0,0,0-1.14-.08,6.67,6.67,0,0,1-.19,2c-1.92,1.07-2.48,2.61-1.82,3.52.34.47.3,1,.37,1a2.78,2.78,0,0,1,1.16-.1c1.38-.25,1.3-.76,1.71-1.86,0-.28.06-.56.11-.85l.3-.65.17-.12.17.06c0,.1,0,.2,0,.32-.45,1.19-.5,1.53-.56,1.58-.47,1.07-.2,1.79,1,2.44l.2.28a.31.31,0,0,1,.13,0l.28-.23c.62-.26,1.46-.48,1.77-1.1a15.37,15.37,0,0,0,0-2.21c.08-.09.08-.09.36-.11,0,.39-.08,1.24,0,2.09.11.51.11.51.19.65a1.82,1.82,0,0,0,.73.34c.59.43.67.57.78.57Zm-.84,6.83c.17-1,1.65-.69,1.65-2.66-.21-1.15-.42-2.29-.64-3.44-.47,0-1.43-.77-1.87-1s-.65.07-.93.31c-.19,1.67-.19,1.67-.3,4,0,2.15.15,2,2.09,2.83ZM142,52.66c-1.44,3.13-5.77,8.92-8.12,10.25.76,1.49.94,1.86.66,3.31,2-.9,6.76-7.16,7.46-13.56ZM146,59.23a42.8,42.8,0,0,1-9.67,9.41c.76,1.49.94,1.86.66,3.31,2-.9,8.31-6.32,9-12.72ZM147.15,68c-2.18.5-7.84,3.73-9.8,5.16.35,1.36,2.31.23,1.81,1.37,1.59-1.4,5.82-3.42,8-6.53Zm2,6.44c-2.22-.34-8.65.58-11,1.19-.17,1.4,2.07,1.08,1.19,1.95,2-.73,6.65-1,9.79-3.14Zm-1,6.37c-2.1-.8-8.58-1.24-11-1.13-.45,1.33,1.8,1.48.77,2.15,2.08-.29,6.71.37,10.21-1Zm-.82,5.5c-2-1.08-8.33-2.41-10.73-2.63-.62,1.26,1.59,1.72.48,2.24,2.1,0,6.6,1.29,10.25.39Zm-1.21,6.13c-1.57-1.42-7.09-4-9.22-4.78-.84,1,1.08,1.92,0,2.14,1.92.47,5.74,2.65,9.27,2.64Zm-2.78,4.46c-1.24-1.71-6.1-5.44-8.05-6.61-1,.82.67,2.11-.48,2.09,1.78.86,5.08,3.79,8.53,4.52Zm-5.64,3a31.89,31.89,0,0,0-5.37-5.81c-.86.5.28,1.65-.58,1.52,1.25.83,3.43,3.38,5.95,4.29Zm-25.62-37a11.5,11.5,0,0,0,1.29-1.15,3.82,3.82,0,0,1,1-.78,17,17,0,0,1-2.12,2.8c.06.06.06.06.34,0A18.69,18.69,0,0,0,115,62.42a15.3,15.3,0,0,1,1.43-1.27c.37-.58.64-1.17,1-1.76.37-.84.84-1.69,1.22-2.55.13-.34-.21-.77-.63-1a8.57,8.57,0,0,0-4-.47c-3.17.34-8.94,1.34-12.15,1.21.77,1.36,4.34,2.27,6.76,2.38a59.76,59.76,0,0,0,7.7-1.11h.53c.89,0,.63.54.33,1.14-.18.37-.39.74-.6,1.1l-.26,0a7.84,7.84,0,0,0-1.62-.91,4.22,4.22,0,0,0-4,.78,8.61,8.61,0,0,0-3,6.37,33,33,0,0,0,4.39-3.43Zm4.3-3.15.71-1.27a2,2,0,0,1,0-.23l-.36.06-.67,1.19a.27.27,0,0,0,.3.25Zm-1-.68a1.18,1.18,0,0,0,0-.68c-.24,0-.86,0-1.06.17.9.51.9.51,1,.51Zm-11.25,19a19.27,19.27,0,0,1,.31-4.65c0-.2-.09-3-.08-3.58a23.13,23.13,0,0,0-2.07,4.29,6.64,6.64,0,0,0,1.84,3.94ZM108.88,89c-2.47-2.1-3.81-6.17-4.86-9.23a23.62,23.62,0,0,0-.36,4.9,6,6,0,0,0,.93,1.41,47.49,47.49,0,0,1,2.62,11.85c1.36-1.77,1.25-7.57.79-8.84a4.8,4.8,0,0,0-.47-.57,4.39,4.39,0,0,0,1.35.48Zm3.33-10.81c-2.26.64-3-.73-4.21-2.61,0,0-.09-.36-.15-.38.11,1.19-.18,2.45.71,3.44s3.12,1.09,3.65-.45Zm-1.78-11.22c1.61-1.85,4.26-3.15,5.64-4.28a22.52,22.52,0,0,0,3.22-4c.85-1.13,0-2.17-.71-1-.43.7-1.3,2.53-1.75,3.21-.16.49-1.31,1.37-1.65,1.61s-.86.58-1.23.79c-.78.43-1.49,1-2.24,1.51a15.22,15.22,0,0,1-1.28,1c-.42.42-1,.83-1.35,1.22-1.3,1.52-1.29,2.9-1.36,4.93.16,0,.6-3.25,2.71-5Zm-.57-6.73-2.79-.07A6.79,6.79,0,0,1,104.33,62a7,7,0,0,1-1.78.55,6.6,6.6,0,0,0,7.31-2.37Zm15.26,3.23c1.61-2.89-1.25-5.69-4.77-5.3a13,13,0,0,1-2.92,4.17c-2.17,1.8-1.61,1.45.06.91,1.9-.62,5.22-1.49,7.63.22Zm.62,2.37a.89.89,0,0,0,.22-.51,4.16,4.16,0,0,1-3,.25c-2-.68-3-1.51-5.14-1.42-.38,0-.44.06-.29.14s1,.24,2.08.71a16.45,16.45,0,0,1,2.24,1.36,3.67,3.67,0,0,0,3.91-.53Zm-6.33,2c.27-.74.41-1.19-.23-1.77a4.74,4.74,0,0,0-3.11-.9v.17c1,.32,2.37.57,2.94,1.64.15.29.17.68.4.86ZM101.88,74a31,31,0,0,1-.09-3.72s-.47,1.74-.5,1.72a16.73,16.73,0,0,0-.84,8.79l-.18-.13A40.06,40.06,0,0,0,101.1,86,9.26,9.26,0,0,0,100,88.72,9.3,9.3,0,0,0,99,86.06a40.36,40.36,0,0,0,.84-5.37c-.79.44-1.46,2.71-2,3.59s-1,.38-1.34.72c-.66,1.17-2.22,7.44-1.18,9.42,1.49-1.59,2.7-4.36,3.52-7.59-.2,3.32.17,6.63,1.15,8.53v.33l.09-.16.09.16v-.33c1-1.93,1.35-5.3,1.14-8.66.82,3.28,2,6.11,3.55,7.72,1-2-.52-8.25-1.18-9.42-.33-.34-.77.16-1.33-.72-.4-.63-.86-2-1.38-2.83a22.3,22.3,0,0,1,1-7.42Zm-2.41,3.12a11.66,11.66,0,0,1,.43-1.81c.79-3.71,2.82-8.33,4.19-11.84-1.89,1-4.26,8-4.42,9.39-.23,2.09-.12,3.12-.2,4.26Zm2.88-5c.34-.58,2.31-4.05,2.65-4.57a24.51,24.51,0,0,1,2-2.46c0-.34,1-2.21,1-2.61a7.8,7.8,0,0,1-3,1.09c-.55.56-3.22,6.24-2.68,8.55Zm5.28,5.15c-.1-.83-.24-1.65-.3-2.49-.2-2.79-.32-5.33,1.08-7.64-.9.22-2.19,2.33-2.79,3,.42-1.43.82-2.82,1.17-4.25-.4,0-1.68,2.15-1.92,2.74,0,.3-.07.69-.11,1,0,.88-.05,1.77,0,2.66a28.61,28.61,0,0,0,.33,3.06c.17,1,.23,1,.28,1,0-.6,0-1.2.12-1.81.11-1,.25-1.94.44-2.89a5.59,5.59,0,0,1,.7-1.76c-.06.43-.16.86-.19,1.3a10,10,0,0,0,.16,3.06,12.46,12.46,0,0,0,.51,1.87,2.73,2.73,0,0,0,.52,1.08Zm3.8,7.71a19.11,19.11,0,0,1-5.17-5.79c1.61,6.17,3.57,6,5.17,5.79Zm-4.17-1.18a48.06,48.06,0,0,1-2.46-8.23c-1.18,4.88,1,6.42,2.46,8.23Zm3.87,3.31c-2.19-1.63-4.42-2.86-5.75-5.1,1.76,5.77,4.5,5.76,5.75,5.1Zm-9.21,18.55c.87-7.1.53-8.7,0-14.29.79.44,2,3.56,2.59,4.22s1-3.9,1.33-3.56c.66,1.17-.94,11.16-4,13.63Zm.1,2.89a29.11,29.11,0,0,0,4-12c.32.73.65,1.52.92,2.27.36,1,1.41-1.95,1.47-1.43.39,2.7-4,11.18-6.34,11.19Zm6.09-6.42A44.5,44.5,0,0,0,109,89.4a22.56,22.56,0,0,1,2.19,4.38c0,1.35-1.23,7.19-3.11,8.38Zm-4.94-17.58c.08-2.35.14-3.13.41-5.89A7.35,7.35,0,0,1,102,75.57a11,11,0,0,0,1.14,9ZM94.8,78.07a19.22,19.22,0,0,0-.32-4.65c0-.2.1-3,.09-3.58a23.63,23.63,0,0,1,2.06,4.29,6.63,6.63,0,0,1-1.83,3.94ZM57.3,52.66c1.44,3.13,5.77,8.92,8.13,10.25-.77,1.49-1,1.86-.67,3.31-2-.9-6.76-7.16-7.46-13.56ZM73.82,63.43c-1.61-2.89,1.25-5.69,4.77-5.3a13.31,13.31,0,0,0,2.92,4.17c2.17,1.8,1.62,1.45-.06.91-1.89-.62-5.22-1.49-7.63.22ZM93,73.75a12.05,12.05,0,0,1-1.58,6.47c-1.22,1.62-3.55,5-5.82,4.47-1.68-.4-2-1.36-1.88-2.91a5.9,5.9,0,0,1,.15-.8,3,3,0,0,0,1.73.76c4.14.46,6.81-4.53,7.4-8Zm-6.23,4.4c2.26.64,3-.73,4.21-2.61,0,0,.09-.36.15-.38-.11,1.19.18,2.45-.7,3.44s-3.13,1.09-3.66-.45Zm4.58-.85c.1-.83.25-1.65.3-2.49.2-2.79.32-5.33-1.07-7.64.9.22,2.18,2.33,2.78,3-.42-1.43-.81-2.82-1.17-4.25.4,0,1.68,2.15,1.92,2.74,0,.3.07.69.12,1,0,.88,0,1.77,0,2.66a28.63,28.63,0,0,1-.34,3.06c-.16,1-.22,1-.28,1,0-.6,0-1.2-.11-1.81-.12-1-.26-1.94-.45-2.89A5.58,5.58,0,0,0,92.32,70c.05.43.16.86.19,1.3a10,10,0,0,1-.17,3.06,12.18,12.18,0,0,1-.5,1.87,2.76,2.76,0,0,1-.53,1.08ZM88.52,66.93c-1.61-1.85-4.26-3.15-5.65-4.28a22.92,22.92,0,0,1-3.21-4c-.85-1.13,0-2.17.7-1,.43.7,1.31,2.53,1.75,3.21.17.49,1.32,1.37,1.66,1.61s.85.58,1.23.79c.78.43,1.49,1,2.23,1.51a14,14,0,0,0,1.29,1c.41.42,1,.83,1.34,1.22,1.3,1.52,1.29,2.9,1.36,4.93-.16,0-.59-3.25-2.7-5Zm8.08,5.22c-.34-.58-2.32-4.05-2.66-4.57a23.16,23.16,0,0,0-2-2.46c0-.34-1-2.21-1-2.61a7.93,7.93,0,0,0,3,1.09c.55.56,3.22,6.24,2.69,8.55ZM79.53,67.79c-.27-.74-.4-1.19.24-1.77a4.7,4.7,0,0,1,3.1-.9v.17c-1,.32-2.37.57-2.93,1.64-.16.29-.17.68-.41.86Zm-6.32-2a.91.91,0,0,1-.23-.51,4.17,4.17,0,0,0,3,.25c2-.68,3-1.51,5.14-1.42.39,0,.44.06.29.14s-1,.24-2.08.71a16.51,16.51,0,0,0-2.23,1.36,3.67,3.67,0,0,1-3.91-.53Zm13.63-2.89a11.36,11.36,0,0,1-1.28-1.15,3.86,3.86,0,0,0-1-.78,17,17,0,0,0,2.13,2.8c-.06.06-.06.06-.34,0A19.16,19.16,0,0,1,84,62.42a14.12,14.12,0,0,0-1.43-1.27c-.37-.58-.63-1.17-1-1.76-.37-.84-.84-1.69-1.22-2.55-.14-.34.21-.77.63-1a8.55,8.55,0,0,1,4-.47c3.16.34,8.93,1.34,12.14,1.21-.76,1.36-4.33,2.27-6.75,2.38a60.16,60.16,0,0,1-7.71-1.11h-.52c-.89,0-.63.54-.33,1.14.18.37.38.74.59,1.1l.26,0a7.84,7.84,0,0,1,1.62-.91,4.24,4.24,0,0,1,4,.78,8.6,8.6,0,0,1,3,6.37,33.67,33.67,0,0,1-4.39-3.43Zm2.24-2.71,2.79-.07a8.55,8.55,0,0,0,4.53,2.44,6.61,6.61,0,0,1-7.32-2.37Zm-6.54-.44c-.23-.42-.47-.84-.7-1.27a2.08,2.08,0,0,0,0-.23l.36.06.67,1.19a.27.27,0,0,1-.3.25Zm1-.68a1.26,1.26,0,0,1-.06-.68c.25,0,.87,0,1.06.17-.89.51-.89.51-1,.51Zm4,25.93a19.24,19.24,0,0,0,5.17-5.79c-1.62,6.17-3.58,6-5.17,5.79ZM53.22,59.23c1.62,2.6,7.32,8.08,9.67,9.41-.76,1.49-.94,1.86-.66,3.31-2-.9-8.3-6.32-9-12.72ZM52.11,68c2.18.5,7.85,3.73,9.8,5.16-.35,1.36-2.31.23-1.81,1.37-1.58-1.4-5.82-3.42-8-6.53Zm-2,6.44c2.21-.34,8.64.58,11,1.19.17,1.4-2.07,1.08-1.19,1.95-2-.73-6.65-1-9.78-3.14Zm1,6.37c2.1-.8,8.58-1.24,11-1.13.45,1.33-1.81,1.48-.77,2.15-2.09-.29-6.72.37-10.22-1Zm.82,5.5c2-1.08,8.34-2.41,10.73-2.63.63,1.26-1.59,1.72-.47,2.24-2.11,0-6.6,1.29-10.26.39Zm1.21,6.13c1.57-1.42,7.09-4,9.23-4.78.84,1-1.08,1.92,0,2.14-1.92.47-5.74,2.65-9.27,2.64Zm2.78,4.46C57.14,95.21,62,91.48,64,90.31c1,.82-.67,2.11.48,2.09-1.78.86-5.08,3.79-8.53,4.52Zm5.64,3a32,32,0,0,1,5.38-5.81c.85.5-.29,1.65.57,1.52-1.25.83-3.43,3.38-5.95,4.29ZM69,94.49l-.23,0c0-1.57.11-2.69.72-3.44a8.7,8.7,0,0,1,2.58-1.58,4.23,4.23,0,0,0,2.35.37c-.07.15-.14.3-.2.46-2,2.68-2.09,3.94-5.22,4.21ZM91.68,83.83a48.06,48.06,0,0,0,2.46-8.23c1.19,4.88-1,6.42-2.46,8.23ZM90.07,89c2.47-2.1,3.81-6.17,4.86-9.23a24.34,24.34,0,0,1,.36,4.9c-.52,1.25-3,4-5.22,4.33Zm-2.26-1.82c2.19-1.63,4.42-2.86,5.75-5.1-1.76,5.77-4.5,5.76-5.75,5.1Zm5.06,10.75A46.18,46.18,0,0,1,95.63,85.7a23.33,23.33,0,0,0-3.55,3.35c-.46,1.27-.56,7.07.79,8.84Zm-.9,4.27a44.5,44.5,0,0,1-.92-12.76,22.56,22.56,0,0,0-2.19,4.38c0,1.35,1.23,7.19,3.11,8.38Zm6.19,3.53c-.86-7.1-.53-8.7,0-14.29-.79.44-2,3.56-2.59,4.22s-1-3.9-1.33-3.56c-.66,1.17.94,11.16,4,13.63Zm-.09,2.89a29,29,0,0,1-4-12c-.32.73-.64,1.52-.92,2.27-.36,1-1.41-1.95-1.47-1.43-.39,2.7,4,11.18,6.35,11.19ZM95.37,110c-2.46-4.31-2.22-5.49-3-8.65-.2.77-.4,1.62-.55,2.4-.62-.57-1.18-1.66-1.16-1.13.38,1.29,2.53,6.79,4.66,7.38Zm-3.13,0a44.37,44.37,0,0,1-3-12.41,23.47,23.47,0,0,0-1.43,4.69c.23,1.33,2.42,6.88,4.47,7.72Zm4.82-36a32.68,32.68,0,0,0,.1-3.72s.47,1.74.49,1.72c1.12,3.08,1.71,7.44.27,10.51A21.39,21.39,0,0,0,97.06,74Zm4.55,20.42A20.7,20.7,0,0,0,100,100a20.7,20.7,0,0,0-1.58-5.55c-.78,12.67.92,15.65,1.58,19,1-2.79,2.36-6.32,1.58-19Zm-5.83-9.87c-.09-2.35-.14-3.13-.41-5.89a7.58,7.58,0,0,0,1.55-3.12,11.05,11.05,0,0,1-1.14,9ZM70.41,76.87A24.29,24.29,0,0,1,66.74,75c-1.66-1.12-3-2.61-2.75-4.63,3.06.4,4.64,1.69,7.26,3.63.74.68,1.39,1.35,2.09,2a1.37,1.37,0,0,1,0,.19,5.52,5.52,0,0,0-2.91.74Zm2,20.21-.09-.51c-.69-1.39-.35-2.15.47-3.3,1.26-1.81,1.32-1.88,1.79-2.46l.19,0a2.21,2.21,0,0,1,.39,1.59,9.42,9.42,0,0,1,1.49-.23,3.24,3.24,0,0,1-.09.4c-.54,1.13-.87,1.8-1.09,2.26-1,2-1,1.72-3.06,2.22ZM62.61,81.15c.73-1.07,1.83-1.29,3.21-1.18a33,33,0,0,1,4.93,1,1.52,1.52,0,0,0,.08.22,2,2,0,0,0-.92,2.12c-1.18.4-7.3.38-7.3-2.12Zm2.63,8.73c.37-1.12.53-1.56,1.65-2,.84-.22.84-.22,4.36-.87,0,.17-.17,1-.16,1.2l.44.67a.53.53,0,0,1-.06.14c-1,.54-5.75,3.07-6.23.88Zm11.21,9c-.07-.15-.14-.3-.2-.45-.92-.78-1-1-.73-2.27.6-1.28,1.21-2.56,1.82-3.85.56-.1.73-.21,1-.23.52.41,1,.46,1.25,1q-.37,2.3-.78,4.59c-.47.88-1.42,1-2.31,1.25Zm10.12.63c-.42-.93-1.78-.24-2.28-2.14-.09-1.16-.17-2.33-.25-3.49.45-.12,1.19-1.12,1.54-1.5.08-.13.08-.13.32-.23.21.09.43.18.65.29.61,1.57.61,1.57,1.31,3.78.55,2.08.38,2-1.29,3.29ZM63.62,86c0-1.1,1.05-1.65,2-1.88A21.48,21.48,0,0,1,70.47,84c.24.62,1.31,1.26,1.45,1.42a4.44,4.44,0,0,0-.65.91c-2.64.42-3.65.64-4.54.76A4.22,4.22,0,0,1,63.62,86ZM68,70.58c-1.67-2.1-2.28-5.15-1.32-7.22h.17A16.61,16.61,0,0,0,71,69a10.23,10.23,0,0,0,.54,4.38A19,19,0,0,1,68,70.58Zm-1.15,8.78c-1.66-.51-4.51-1.28-4.51-3.53,1.35-1.17,2.51-.81,4.12-.32a42.43,42.43,0,0,0,3.85,1.85c-.24.76,1,2.82,1.4,2.9a41.69,41.69,0,0,1-4.86-.9Zm14.3,20.38c-.16-1-1.65-.69-1.65-2.66.21-1.15.42-2.29.65-3.44.46,0,1.43-.77,1.86-1s.65.07.93.31c.19,1.67.19,1.67.3,4,0,2.15-.15,2-2.09,2.83Zm-.84-6.83c-.13-.2-.27-.39-.42-.59-1.41-.89-1.17-1.36-.5-2.95,0-.15,0-.3.05-.45s-.08-.09-.3-.09-.09.09-.76,2c-.75,1.14-1.32.77-2.65.8-.06-.21-.13-.41-.2-.63-.6-.91-.91-1.21-.17-2.15.26-.2.32-.34.88-.77.3-.42.3-.42.35-.65a.34.34,0,0,0-.24-.14l-.51.31a10.23,10.23,0,0,1-.81,1l-.58.42c-1.45.48-1.54-.48-2.74-.82.29-1.68.25-2.05,1.73-2.7l1-.22.44-.23c0-.08.05-.16.08-.25a.57.57,0,0,0-.08-.09,2.56,2.56,0,0,0-1,.17,4.2,4.2,0,0,1-1.54,0,2.6,2.6,0,0,1-1.9-2.22,3.57,3.57,0,0,1,1.63-1.51,2.72,2.72,0,0,1,1.36-.06c.56.18,1.12.38,1.68.57.33,0,.33,0,.41-.08v-.17l-.3-.2c-1-.38-1.9-.75-2.85-1.14a3.24,3.24,0,0,1-1.45-2.91,3.9,3.9,0,0,1,2.46-.37,7.11,7.11,0,0,1,2.45,1.58c.17.21.34.41.51.63l.19,0v-.28c-.15-.26-.29-.52-.45-.79-.42-.48-.87-.92-1.32-1.35a10.81,10.81,0,0,1-2.58-3.24c-.26-.58-.94-4.2-.29-5a20.94,20.94,0,0,0,2.56,3c.6.59,1.2,1.15,1.78,1.72,1.28,1.27,2.92,2.88,3.4,4.7a3.07,3.07,0,0,1-.18,2.19A14.45,14.45,0,0,1,77.84,82a2.7,2.7,0,0,0-.47,2.17c.43,2,1.93,2.82,3.83,3.34l1.23.06.89-.11L84.44,87l1-.76c.21-.29.42-.59.65-.88a3.78,3.78,0,0,1,1.14-.08,6.67,6.67,0,0,0,.19,2c1.92,1.07,2.48,2.61,1.82,3.52-.35.47-.31,1-.38,1a2.78,2.78,0,0,0-1.16-.1c-1.37-.25-1.3-.76-1.7-1.86,0-.28-.07-.56-.11-.85s-.21-.43-.31-.65a1.67,1.67,0,0,1-.16-.12.85.85,0,0,0-.17.06c0,.1,0,.2,0,.32.45,1.19.51,1.53.56,1.58.48,1.07.21,1.79-1,2.44l-.21.28a.31.31,0,0,0-.13,0l-.28-.23c-.62-.26-1.46-.48-1.77-1.1a15.37,15.37,0,0,1,0-2.21c-.08-.09-.08-.09-.36-.11,0,.39.08,1.24,0,2.09-.11.51-.11.51-.19.65a1.84,1.84,0,0,1-.72.34c-.6.43-.67.57-.79.57Z"/><path class="cls-5" d="M88.72,22.38S77,21.78,70.15,31.71c0,0,15.42-2.27,18.52-9.16l0-.17Zm86.87,65.13s.61,14.15-10.35,21.11c-8.35,4.26-19,1.82-21.68,3-2.89,1.77-8.62,2.13-12.83,19.94,0,0-1.15,1.8-2.7.81,0,0,3.92-13,9.28-19.52,6.41-8.21,16-6.28,23.53-9.06,8.68-3.2,12.53-11.6,14.75-16.28Zm-18.53,16.24s2.06-4.29-1-11.45c-2.16-5.2-1.08-10.68-1.19-14.4a29.41,29.41,0,0,1,6.18,9.88,18.91,18.91,0,0,1,.55,7.92,12.22,12.22,0,0,0,2.45-3.1,76.69,76.69,0,0,0,8.57-17.44,13.48,13.48,0,0,1,1,4.53c.27,3,0,7.55-4.12,14.31-1.12,1.78-5.37,5.44-7.42,6.61a55.89,55.89,0,0,0-5.1,3.14Zm6.33-15.45s-3.27-7.25-6.52-11.34c-3.47-4.28-2.93-10.85-4.15-14,0,0,9,7.11,11.14,16.74,0,0,1.13-3.58.56-5.42-1.36-4.35-.5-17-2.11-19.61a47.13,47.13,0,0,0,3.1,4.56,28.54,28.54,0,0,1,4.13,8.43c1.51,5.06-1.91,13.52-6.15,20.67Zm-2.65-21.38c-3.17-2.21-6.73-4.29-8.78-7.41a20.53,20.53,0,0,1-4.76-9.28c3.86,2.12,7.82,6.83,10.8,10.52-.46-1.51-2-4.52-2.44-6A66.52,66.52,0,0,1,153,43l5.65,5.82.57.9a27.73,27.73,0,0,1,1.55,17.19Zm-8.67-18.53c-3.3-.61-7-.89-9.72-2.6-2.78-1-5.4-3.64-6.93-5.67,3.8.28,8.61,2.57,12.27,4.4-.9-1-3.18-2.84-4.08-3.86a37.64,37.64,0,0,1-6.16-9.29c2.18.85,4.28,2.7,6.45,3.55l.78.51a24,24,0,0,1,7.39,13Zm-13.17-9c-2.71-.5-5.93-.49-8.18-1.9-2.29-.85-4.25-3.24-5.51-4.91,3.12.24,7.08,2.12,10.09,3.62-.74-.84-2.62-2.33-3.36-3.17a47.67,47.67,0,0,1-5.13-6.82l5.37,2.1.64.41a19.79,19.79,0,0,1,6.08,10.67Zm-28.37-17s11.72-.6,18.57,9.33c0,0-15.42-2.27-18.52-9.16l0-.17ZM24.09,87.51s-.62,14.15,10.35,21.11c8.35,4.26,19,1.82,21.67,3,2.89,1.77,8.62,2.13,12.84,19.94,0,0,1.14,1.8,2.7.81,0,0-3.93-13-9.28-19.52-6.41-8.21-16-6.28-23.54-9.06-8.67-3.2-12.52-11.6-14.74-16.28Zm18.1,16.24s-2.06-4.29,1-11.45c2.16-5.2,1.08-10.68,1.19-14.4a29.41,29.41,0,0,0-6.18,9.88,18.91,18.91,0,0,0-.55,7.92,12.22,12.22,0,0,1-2.45-3.1,76.69,76.69,0,0,1-8.57-17.44,13.48,13.48,0,0,0-1,4.53c-.27,3,0,7.55,4.12,14.31,1.12,1.78,5.37,5.44,7.41,6.61a54.44,54.44,0,0,1,5.11,3.14ZM35.86,88.3S39.13,81.05,42.38,77c3.46-4.28,2.93-10.85,4.15-14,0,0-9,7.11-11.15,16.74,0,0-1.12-3.58-.55-5.42,1.36-4.35.5-17,2.11-19.61a47.13,47.13,0,0,1-3.1,4.56,28.78,28.78,0,0,0-4.14,8.43c-1.5,5.07,1.92,13.52,6.16,20.67ZM38.5,66.92c3.18-2.21,6.74-4.29,8.79-7.41a20.53,20.53,0,0,0,4.76-9.28c-3.86,2.12-7.82,6.83-10.8,10.52.45-1.51,2-4.52,2.44-6A65.63,65.63,0,0,0,46.27,43l-5.64,5.82-.57.9A27.74,27.74,0,0,0,38.5,66.92Zm8.68-18.53c3.29-.61,7-.89,9.72-2.6,2.78-1,5.39-3.64,6.93-5.67-3.8.28-8.61,2.57-12.27,4.4.89-1,3.18-2.84,4.08-3.86a37.93,37.93,0,0,0,6.16-9.29c-2.18.85-4.28,2.7-6.45,3.55l-.78.51a24,24,0,0,0-7.39,13Zm13.17-9c2.71-.49,5.93-.48,8.18-1.89,2.29-.85,4.25-3.24,5.51-4.91C70.92,32.79,67,34.67,64,36.17c.74-.84,2.62-2.33,3.36-3.17a47.67,47.67,0,0,0,5.13-6.82l-5.37,2.1-.64.42a19.74,19.74,0,0,0-6.08,10.65Z"/><path class="cls-7" d="M63,116.65c.3-.29.6-.55.92-.26s.57.32.57.71a3,3,0,0,1-.09.72c-.06.16-.27.42-.14.61.29.45.63-.37.71-.57a3.89,3.89,0,0,0,0-.76c0-.09-.16-.18-.24-.24-.39-.27-.56-.63-1.05-.76s-1.08.48-.73.55Z"/><path class="cls-3" d="M62.62,113.39c-.42.43-.57.62-.19,1.09.64.81.77.61,1.67.67a2,2,0,0,1,.61.1c.48.51-.95.23-1,.23s-.34.09-.48,0c-.44-.11-1.23-.44-1.23-1a1.34,1.34,0,0,1,.14-.81c.08-.14.74-.65.47-.33Z"/><path class="cls-5" d="M133.7,79.36c1.66-.51,4.5-1.28,4.5-3.53-1.35-1.17-2.5-.81-4.11-.32a42.79,42.79,0,0,1-3.86,1.85c.25.76-1,2.82-1.39,2.9a42.1,42.1,0,0,0,4.86-.9Z"/><path class="cls-5" d="M136.92,86c0-1.1-1-1.65-2-1.88a21.48,21.48,0,0,0-4.81-.11c-.25.62-1.32,1.26-1.46,1.42a3.79,3.79,0,0,1,.65.91c2.65.42,3.66.64,4.55.76a4.22,4.22,0,0,0,3.11-1.1Z"/><path class="cls-5" d="M135.3,89.88c-.37-1.12-.54-1.56-1.66-2-.83-.22-.83-.22-4.36-.87,0,.17.18,1,.16,1.2l-.43.67a1.21,1.21,0,0,0,.05.14c1.06.54,5.76,3.07,6.24.88Z"/><path class="cls-5" d="M131.52,94.49l.22,0c0-1.57-.11-2.69-.72-3.44a8.63,8.63,0,0,0-2.57-1.58,4.25,4.25,0,0,1-2.35.37c.07.15.13.3.2.46,2,2.68,2.09,3.94,5.22,4.21Z"/><path class="cls-3" d="M137.67,113.39c.43.43.57.62.19,1.09-.64.81-.77.61-1.66.67a2.06,2.06,0,0,0-.62.1c-.47.51,1,.23,1,.23s.33.09.47,0c.44-.11,1.24-.44,1.24-1a1.41,1.41,0,0,0-.14-.81c-.08-.14-.74-.65-.48-.33Z"/><path class="cls-7" d="M137.27,116.65c-.3-.29-.6-.55-.93-.26s-.57.32-.57.71a2.55,2.55,0,0,0,.1.72c.06.16.27.42.14.61-.3.45-.64-.37-.71-.57a3.89,3.89,0,0,1-.05-.76c0-.09.16-.18.24-.24.38-.27.56-.63,1-.76s1.08.48.74.55Z"/><path class="cls-6" d="M100.55,72A22.14,22.14,0,1,1,78.72,94.16,22,22,0,0,1,100.55,72Z"/><path class="cls-5" d="M100.55,72.84a21.32,21.32,0,1,1-21,21.32,21.17,21.17,0,0,1,21-21.32Z"/><path class="cls-4" d="M100.55,76.15a18,18,0,1,1-17.76,18,17.88,17.88,0,0,1,17.76-18Z"/><path class="cls-10" d="M90.55,83.78v.83A2.63,2.63,0,0,0,85.85,86c0,.83.38,1.67,1.28,1.67a1.18,1.18,0,0,0,1.26-1.29,1,1,0,0,0-1.09-1.18.74.74,0,0,0-.76.56l-.1-.07a1.93,1.93,0,0,1,2-1.5,2,2,0,0,1,2.09,2v.21c0,2.74-4.63,1.46-4.63,5v10c0,1.11.41,2.5,2,2.5a2.72,2.72,0,0,0,2.6-1.67v3.94l-.75.27v.35h4v-.38l-.76-.28v-3.9a2.72,2.72,0,0,0,2.61,1.67c1.61,0,2-1.39,2-2.5v-10c0-3.55-4.63-2.26-4.63-5v-.21a2,2,0,0,1,2.1-2,1.94,1.94,0,0,1,2,1.5L97,85.8a.73.73,0,0,0-.75-.56,1,1,0,0,0-1.1,1.15,1.2,1.2,0,0,0,1.27,1.32c.89,0,1.27-.84,1.27-1.67A2.63,2.63,0,0,0,93,84.61v-.83ZM93,88.16c.07.14.24.31.82.7a2.39,2.39,0,0,1,1.34,2.29v10.33c0,1.11-.48,1.29-.82,1.29-.62,0-1.34-1-1.34-1.81V88.16Zm-2.47,0V101c0,.76-.72,1.81-1.34,1.81-.34,0-.82-.18-.82-1.29V91.15a2.34,2.34,0,0,1,1.34-2.29,2.77,2.77,0,0,0,.82-.7Zm11.11-3.75.48-.25v-.38h-3.7v.38l.76.24v21.92l-.76.24v.38h3.7v-.38l-.48-.24V96a4.3,4.3,0,0,0,2.16,1.82v8.52l-.47.24v.38h3.7v-.38l-.75-.24V98a4.9,4.9,0,0,0,.61-.21l-.24-.49a4,4,0,0,1-1.3.21,3.59,3.59,0,0,1-3.71-3.41,3.63,3.63,0,0,1,3.71-3.68,3.72,3.72,0,0,1,1.3.24l.25-.45a2,2,0,0,0-.62-.21V84.4l.75-.24v-.38h-3.71v.38l.48.24v5.71a4.26,4.26,0,0,0-2.16,1.77V84.41ZM111,96c.07.39.65.94,1.68.94a2.34,2.34,0,0,0,2.34-2.5,1.45,1.45,0,0,0-1.37-1.56,1.19,1.19,0,0,0-1.27,1.25,1.11,1.11,0,0,0,1.16,1.21.73.73,0,0,0,.76-.55l.1,0a1.74,1.74,0,0,1-1.78,1.57c-.86,0-1.62-.87-1.62-2.3a3.57,3.57,0,0,1,2.2-3.37c1.16-.52,2.43-.56,2.43-3.06V86.56c0-1.91-1.37-3-3.5-3-2.5,0-3.6,1.29-3.6,3.13v19.59l-.75.24v.38h4v-.38l-.76-.24V96Zm0-4.1V85.66c0-1.4.62-1.43,1-1.43s1.14,0,1.14,1.43v3c0,1.64-1.52,2-2.17,3.27Z"/><path class="cls-6" d="M100.55,73.86a.71.71,0,1,1-.69.71.7.7,0,0,1,.69-.71Z"/><path class="cls-6" d="M110.56,76.58a.71.71,0,0,1,.25,1,.68.68,0,0,1-.94.26.71.71,0,0,1-.26-1,.69.69,0,0,1,1-.26Z"/><path class="cls-6" d="M117.89,84a.71.71,0,0,1-.26,1,.68.68,0,0,1-.94-.26.69.69,0,1,1,1.2-.7Z"/><path class="cls-6" d="M120.57,94.16a.7.7,0,1,1-.69-.7.69.69,0,0,1,.69.7Z"/><path class="cls-6" d="M117.89,104.31a.69.69,0,0,1-1,.26.71.71,0,0,1-.25-1,.68.68,0,0,1,.94-.26.71.71,0,0,1,.26,1Z"/><path class="cls-6" d="M110.56,111.74a.69.69,0,0,1-1-.26.71.71,0,0,1,.26-1,.68.68,0,0,1,.94.26.71.71,0,0,1-.25,1Z"/><path class="cls-6" d="M100.55,114.46a.71.71,0,1,1,.69-.7.7.7,0,0,1-.69.7Z"/><path class="cls-6" d="M90.54,111.74a.71.71,0,0,1-.25-1,.68.68,0,0,1,.94-.26.71.71,0,0,1,.26,1,.69.69,0,0,1-.95.26Z"/><path class="cls-6" d="M83.21,104.31a.71.71,0,0,1,.26-1,.7.7,0,0,1,1,.26.73.73,0,0,1-.26,1,.69.69,0,0,1-1-.26Z"/><path class="cls-6" d="M80.53,94.16a.7.7,0,1,1,.69.7.69.69,0,0,1-.69-.7Z"/><path class="cls-6" d="M83.21,84a.69.69,0,0,1,1-.25.71.71,0,0,1,.26.95.7.7,0,0,1-1,.26.71.71,0,0,1-.26-1Z"/><path class="cls-6" d="M90.54,76.58a.69.69,0,0,1,.95.26.72.72,0,0,1-.26,1,.68.68,0,0,1-.94-.26.71.71,0,0,1,.25-1Z"/><path class="cls-4" d="M151.72,155.84A76.48,76.48,0,0,1,50.32,157L55,150.46a68.56,68.56,0,0,0,92.11-1.12l4.65,6.5Z"/><path class="cls-8" d="M147.07,149.34A68.56,68.56,0,0,1,55,150.46l4.16-5.81a61.46,61.46,0,0,0,83.78-1.15l4.17,5.84Z"/><path class="cls-9" d="M142.9,143.5a61.46,61.46,0,0,1-83.78,1.15l4.48-6.25a53.8,53.8,0,0,0,74.8-1.17l4.5,6.27Z"/><text class="cls-11" transform="translate(18.63 136.88) rotate(62.27) scale(0.97 1.2)"></text><text class="cls-11" transform="translate(23.19 145.39) rotate(56.71) scale(0.97 1.2)"></text><text class="cls-11" transform="matrix(0.6, 0.76, -0.94, 0.74, 27.37, 151.74)"></text><text class="cls-11" transform="translate(32.41 158.07) rotate(46.69) scale(0.97 1.2)"></text><text class="cls-11" transform="translate(37.64 163.59) rotate(41.84) scale(0.97 1.2)"></text><text class="cls-11" transform="translate(42.55 168.02) rotate(37.43) scale(0.97 1.2)"></text><text class="cls-11" transform="matrix(0.82, 0.52, -0.64, 1.02, 49.08, 173)"></text><text class="cls-11" transform="matrix(0.87, 0.44, -0.54, 1.07, 56.12, 177.39)"></text><text class="cls-11" transform="translate(63.46 181.08) rotate(21.56) scale(0.97 1.2)"></text><text class="cls-11" transform="translate(70.95 183.95) rotate(17.9) scale(0.97 1.2)"> </text><text class="cls-11" transform="translate(74.06 185) rotate(14.63) scale(0.97 1.2)"></text><text class="cls-11" transform="translate(80.79 186.75) rotate(9.95) scale(0.97 1.2)"></text><text class="cls-11" transform="translate(88.26 188.02) rotate(5.28) scale(0.97 1.2)"></text><text class="cls-11" transform="translate(95.42 188.65) rotate(0.93) scale(0.97 1.2)"></text><text class="cls-11" transform="translate(102.53 188.75) rotate(-4.15) scale(0.97 1.2)"></text><text class="cls-11" transform="translate(110.74 188.13) rotate(-9.41) scale(0.97 1.2)"></text><text class="cls-11" transform="translate(118.81 186.77) rotate(-14.7) scale(0.97 1.2)"></text><text class="cls-11" transform="translate(126.71 184.65) rotate(-19.6) scale(0.97 1.2)"></text><text class="cls-11" transform="matrix(0.88, -0.4, 0.5, 1.09, 133.3, 182.31)"></text><text class="cls-11" transform="translate(140.79 178.87) rotate(-29.79) scale(0.97 1.2)"></text><text class="cls-11" transform="translate(147.7 174.81) rotate(-33.43) scale(0.97 1.2)"> </text><text class="cls-11" transform="translate(150.5 173.03) rotate(-36.88) scale(0.97 1.2)"></text><text class="cls-11" transform="matrix(0.72, -0.65, 0.8, 0.89, 156.47, 168.56)"></text><text class="cls-11" transform="translate(163.01 162.62) rotate(-47.45) scale(0.97 1.2)"></text><text class="cls-11" transform="translate(168.56 156.53) rotate(-52.72) scale(0.97 1.2)"></text><text class="cls-11" transform="translate(173.52 149.98) rotate(-57.96) scale(0.97 1.2)"></text><text class="cls-11" transform="translate(177.85 143.02) rotate(-63.23) scale(0.97 1.2)"></text><text class="cls-12" transform="translate(18.52 89.89) rotate(-82.1) scale(1 1.22)"></text><text class="cls-12" transform="translate(19.5 82.95) rotate(-77.54) scale(1 1.22)"></text><text class="cls-12" transform="translate(20.7 77.21) rotate(-72.46) scale(1 1.22)"></text><text class="cls-12" transform="translate(23.29 69.16) rotate(-67.34) scale(1 1.22)"></text><text class="cls-12" transform="translate(25.59 63.63) rotate(-63.1) scale(1 1.22)"></text><text class="cls-12" transform="translate(28.18 58.46) rotate(-58.65) scale(1 1.22)"></text><text class="cls-12" transform="translate(31.84 52.47) rotate(-53.9) scale(1 1.22)"></text><text class="cls-12" transform="translate(35.66 47.21) rotate(-49.34) scale(1 1.22)"></text><text class="cls-12" transform="translate(39.88 42.3) rotate(-44.81) scale(1 1.22)"></text><text class="cls-12" transform="translate(44.46 37.74) rotate(-40.28) scale(1 1.22)"></text><text class="cls-12" transform="translate(49.38 33.56) rotate(-35.74) scale(1 1.22)"></text><text class="cls-12" transform="translate(54.68 29.77) rotate(-31.61) scale(1 1.22)"></text><text class="cls-12" transform="matrix(0.89, -0.46, 0.57, 1.08, 59.12, 27.01)"></text><text class="cls-12" transform="translate(64.43 24.21) rotate(-23.21) scale(1 1.22)"></text><text class="cls-12" transform="matrix(0.94, -0.34, 0.42, 1.15, 70.46, 21.68)"> </text><text class="cls-12" transform="matrix(0.96, -0.29, 0.35, 1.17, 72.73, 20.78)"></text><text class="cls-12" transform="translate(79.44 18.79) rotate(-12.08) scale(1 1.22)"></text><text class="cls-12" transform="translate(85.17 17.5) rotate(-7.02) scale(1 1.22)"></text><text class="cls-12" transform="matrix(1, -0.03, 0.04, 1.22, 93.57, 16.51)"></text><text class="cls-12" transform="translate(99.56 16.29) rotate(2.36) scale(1 1.22)"></text><text class="cls-12" transform="translate(105.76 16.55) rotate(6.34) scale(1 1.22)"></text><text class="cls-12" transform="translate(111.22 17.14) rotate(10.4) scale(1 1.22)"></text><text class="cls-12" transform="matrix(0.97, 0.25, -0.31, 1.18, 117.12, 18.22)"></text><text class="cls-12" transform="translate(122.9 19.71) rotate(19.07) scale(1 1.22)"></text><text class="cls-12" transform="translate(129.06 21.84) rotate(23.69) scale(1 1.22)"></text><text class="cls-12" transform="translate(134.99 24.44) rotate(28.1) scale(1 1.22)"></text><text class="cls-12" transform="translate(140.29 27.26) rotate(32.51) scale(1 1.22)"></text><text class="cls-12" transform="translate(145.78 30.82) rotate(35.68) scale(1 1.22)"> </text><text class="cls-12" transform="translate(147.79 32.18) rotate(39) scale(1 1.22)"></text><text class="cls-12" transform="translate(153.23 36.6) rotate(43.55) scale(1 1.22)"></text><text class="cls-12" transform="translate(157.59 40.76) rotate(47.37) scale(1 1.22)"></text><text class="cls-12" transform="matrix(0.63, 0.77, -0.94, 0.77, 160.49, 43.85)"></text><text class="cls-12" transform="matrix(0.57, 0.82, -1, 0.7, 164.3, 48.5)"></text><text class="cls-12" transform="matrix(0.5, 0.86, -1.05, 0.62, 168.01, 53.81)"></text><text class="cls-12" transform="translate(171.27 59.42) rotate(63.9) scale(1 1.22)"></text><text class="cls-12" transform="matrix(0.38, 0.93, -1.13, 0.46, 173.66, 64.25)"></text><text class="cls-12" transform="matrix(0.3, 0.95, -1.16, 0.37, 175.93, 69.81)"></text><text class="cls-12" transform="matrix(0.22, 0.97, -1.19, 0.27, 177.94, 76.16)"></text><text class="cls-12" transform="translate(179.39 82.45) rotate(81.67) scale(1 1.22)"></text></g></g></svg>
