
<svg width="188px" height="188px" viewBox="0 0 188 188" version="1.1" xmlns="http://www.w3.org/2000/svg" xmlns:xlink="http://www.w3.org/1999/xlink">
    <defs>
        <polygon id="path-1" points="0.06 0.913 187.087 0.913 187.087 188 0.06 188"></polygon>
    </defs>
    <g id="Page-1" stroke="none" stroke-width="1" fill="none" fill-rule="evenodd">
        <g id="IFK_white_text">
            <g id="Group-4">
                <mask id="mask-2" fill="white">
                    <use xlink:href="#path-1"></use>
                </mask>
                <g id="Clip-2"></g>
                <path d="M93.544,171.047 C135.843,171.047 170.134,136.756 170.134,94.456 C170.134,52.158 135.843,17.866 93.544,17.866 C51.244,17.866 16.953,52.158 16.953,94.456 C16.953,136.756 51.244,171.047 93.544,171.047" id="Fill-1" fill="#71C8E6" mask="url(#mask-2)"></path>
                <path d="M93.544,169.836 C51.913,169.836 18.164,136.086 18.164,94.456 C18.164,52.826 51.913,19.077 93.544,19.077 C135.173,19.077 168.923,52.826 168.923,94.456 C168.923,136.086 135.173,169.836 93.544,169.836 Z M93.544,0.913 C41.882,0.913 0,42.795 0,94.456 C0,146.118 41.882,188 93.544,188 C145.204,188 187.087,146.118 187.087,94.456 C187.087,42.795 145.204,0.913 93.544,0.913 L93.544,0.913 Z" id="Fill-3" fill="#1A1919" mask="url(#mask-2)"></path>
            </g>
            <polyline id="Fill-5" fill="#FFFFFE" points="27.698 50.752 18.434 44.394 19.742 42.488 29.006 48.846 27.698 50.752"></polyline>
            <polyline id="Fill-6" fill="#FFFFFE" points="33.742 37.536 28.003 32.371 29.549 30.653 37.9 38.168 36.375 39.863 27.514 38.006 33.333 43.243 31.787 44.961 23.436 37.446 24.962 35.75 33.742 37.536"></polyline>
            <polyline id="Fill-7" fill="#FFFFFE" points="41.845 22.699 39.284 24.752 45.108 32.015 43.304 33.461 37.481 26.199 34.823 28.329 33.618 26.827 40.64 21.196 41.845 22.699"></polyline>
            <polyline id="Fill-8" fill="#FFFFFE" points="53.498 15.608 48.437 18.494 49.705 20.716 54.376 18.051 55.331 19.724 50.659 22.389 52.094 24.905 57.381 21.89 58.335 23.563 51.041 27.723 45.476 17.965 52.544 13.935 53.498 15.608"></polyline>
            <path d="M65.373,13.827 C65.88,13.642 66.597,12.774 66.086,11.778 C65.812,11.025 65.306,10.718 64.335,11.072 L61.396,12.143 L62.404,14.91 L65.373,13.827 Z M64.428,8.986 C65.485,8.601 66.738,8.751 67.474,9.779 C67.773,10.195 68.28,10.864 68.352,11.871 C68.424,12.879 68.081,13.381 67.525,14.059 C67.978,14.174 68.768,14.181 69.232,15.095 C69.448,15.508 69.998,16.882 70.194,17.418 C70.425,18.007 70.632,18.079 70.916,18.14 L71.06,18.53 L68.728,19.381 C68.437,19.125 68.234,18.838 68.079,18.501 C67.86,17.991 67.582,17.14 67.302,16.372 C67.044,15.663 66.366,15.516 65.613,15.791 L63.064,16.721 L64.585,20.891 L62.413,21.684 L58.563,11.126 L64.428,8.986 L64.428,8.986 Z" id="Fill-9" fill="#FFFFFE"></path>
            <polyline id="Fill-10" fill="#FFFFFE" points="81.341 12.795 79.996 5.19 82.272 4.788 84.23 15.853 81.983 16.25 76.142 9.331 77.506 17.042 75.229 17.445 73.271 6.38 75.518 5.982 81.341 12.795"></polyline>
            <path d="M94.879,11.262 L93.371,6.904 L91.997,11.27 L94.879,11.262 Z M96.218,15.434 L95.44,13.186 L91.278,13.2 L90.499,15.453 L88.141,15.46 L92.021,4.211 L94.687,4.203 L98.577,15.427 L96.218,15.434 L96.218,15.434 Z" id="Fill-11" fill="#FFFFFE"></path>
            <polyline id="Fill-12" fill="#FFFFFE" points="112.056 7.965 108.815 7.445 107.341 16.637 105.06 16.271 106.532 7.079 103.169 6.54 103.474 4.638 112.362 6.063 112.056 7.965"></polyline>
            <polyline id="Fill-13" fill="#FFFFFE" points="114.345 18.203 117.46 7.409 119.681 8.05 116.565 18.844 114.345 18.203"></polyline>
            <path d="M130.841,18.496 C131.337,17.383 131.479,16.114 131.079,15.193 C130.765,14.462 130.177,13.964 129.501,13.663 C128.825,13.362 128.062,13.258 127.306,13.513 C126.354,13.831 125.507,14.787 125.011,15.899 C124.517,17.012 124.372,18.281 124.772,19.202 C125.089,19.932 125.677,20.431 126.353,20.732 C127.028,21.033 127.792,21.137 128.546,20.882 C129.499,20.564 130.347,19.608 130.841,18.496 Z M125.53,22.577 C124.222,21.993 123.144,21.041 122.679,19.771 C122.167,18.345 122.294,16.545 122.983,14.996 C123.673,13.447 124.927,12.149 126.329,11.576 C127.583,11.071 129.013,11.235 130.321,11.818 C131.632,12.402 132.71,13.354 133.173,14.624 C133.685,16.05 133.56,17.849 132.868,19.399 C132.179,20.948 130.925,22.245 129.522,22.819 C128.269,23.324 126.841,23.16 125.53,22.577 L125.53,22.577 Z" id="Fill-14" fill="#FFFFFE"></path>
            <polyline id="Fill-15" fill="#FFFFFE" points="141.831 27.488 146.177 21.106 148.087 22.407 141.765 31.693 139.88 30.41 140.526 21.38 136.122 27.852 134.21 26.55 140.532 17.264 142.419 18.547 141.831 27.488"></polyline>
            <path d="M152.589,35.837 L154.554,31.665 L150.521,33.83 L152.589,35.837 Z M150.634,39.758 L151.647,37.606 L148.659,34.709 L146.528,35.777 L144.837,34.135 L155.468,28.796 L157.382,30.652 L152.327,41.4 L150.634,39.758 L150.634,39.758 Z" id="Fill-16" fill="#FFFFFE"></path>
            <polyline id="Fill-17" fill="#FFFFFE" points="157.868 45.309 161.075 49.629 159.528 50.778 154.942 44.602 163.964 37.901 165.343 39.758 157.868 45.309"></polyline>
            <polyline id="Fill-18" fill="#FFFFFE" points="181.894 85.409 181.06 79.892 178.53 80.275 179.265 85.136 177.36 85.423 176.626 80.562 171.856 81.284 171.511 78.998 182.618 77.319 183.798 85.12 181.894 85.409"></polyline>
            <polyline id="Fill-19" fill="#FFFFFE" points="182.126 100.467 182.257 94.645 179.7 94.588 179.579 99.963 177.653 99.92 177.774 94.545 174.878 94.48 174.743 100.565 172.817 100.522 173.003 92.127 184.233 92.377 184.052 100.51 182.126 100.467"></polyline>
            <path d="M173.118,110.383 C172.888,111.42 173.099,112.321 174.067,113.073 C174.542,113.43 175.409,113.78 176.31,113.996 C177.229,114.184 178.185,114.223 178.829,113.955 C179.798,113.571 180.093,113.022 180.272,112.209 L180.724,110.178 L173.521,108.579 L173.118,110.383 Z M181.974,113.438 C181.722,114.567 180.866,115.86 178.638,116.375 C178.136,116.5 177.222,116.567 176.095,116.315 C174.183,115.891 172.94,115.094 172.272,114.409 C171.265,113.397 170.788,111.995 171.042,110.852 L172.142,105.905 L183.106,108.34 L181.974,113.438 L181.974,113.438 Z" id="Fill-20" fill="#FFFFFE"></path>
            <polyline id="Fill-21" fill="#FFFFFE" points="173.71 131.282 175.999 125.926 173.646 124.92 171.532 129.866 169.761 129.108 171.876 124.164 169.212 123.026 166.819 128.621 165.048 127.866 168.349 120.143 178.679 124.557 175.479 132.039 173.71 131.282"></polyline>
            <path d="M164.753,140.799 C164.458,141.252 164.403,142.377 165.409,142.868 C166.081,143.305 166.669,143.248 167.233,142.383 L168.944,139.764 L166.479,138.155 L164.753,140.799 Z M168.409,144.108 C167.794,145.051 166.702,145.68 165.497,145.299 C165.007,145.145 164.202,144.914 163.54,144.151 C162.88,143.387 162.853,142.78 162.89,141.903 C162.46,142.082 161.823,142.551 160.905,142.098 C160.483,141.897 159.22,141.125 158.741,140.815 C158.204,140.483 157.995,140.547 157.731,140.67 L157.384,140.444 L158.739,138.366 C159.124,138.395 159.46,138.504 159.786,138.68 C160.267,138.957 160.999,139.471 161.683,139.918 C162.315,140.33 162.944,140.043 163.384,139.371 L164.866,137.102 L161.149,134.674 L162.413,132.739 L171.821,138.881 L168.409,144.108 L168.409,144.108 Z" id="Fill-22" fill="#FFFFFE"></path>
            <path d="M152.915,151.967 L157.122,153.852 L154.882,149.862 L152.915,151.967 Z M148.958,150.082 L151.128,151.057 L153.97,148.016 L152.862,145.907 L154.472,144.184 L160.007,154.715 L158.187,156.663 L147.349,151.805 L148.958,150.082 L148.958,150.082 Z" id="Fill-23" fill="#FFFFFE"></path>
            <polyline id="Fill-24" fill="#FFFFFE" points="142.761 167.446 145.36 165.442 139.679 158.067 141.511 156.657 147.192 164.03 149.892 161.952 151.067 163.477 143.937 168.971 142.761 167.446"></polyline>
            <polyline id="Fill-25" fill="#FFFFFE" points="132.854 162.664 138.526 172.366 136.53 173.532 130.858 163.83 132.854 162.664"></polyline>
            <path d="M120.257,174.821 C120.712,175.952 121.522,176.938 122.462,177.291 C123.206,177.575 123.974,177.498 124.661,177.223 C125.347,176.948 125.954,176.471 126.296,175.752 C126.729,174.848 126.634,173.573 126.181,172.444 C125.728,171.313 124.915,170.327 123.976,169.973 C123.231,169.69 122.464,169.766 121.778,170.041 C121.091,170.317 120.485,170.793 120.142,171.512 C119.708,172.416 119.804,173.69 120.257,174.821 Z M121.026,168.166 C122.356,167.633 123.79,167.522 125.024,168.073 C126.405,168.698 127.608,170.043 128.241,171.616 C128.872,173.19 128.933,174.993 128.366,176.399 C127.856,177.651 126.743,178.563 125.413,179.098 C124.083,179.631 122.647,179.741 121.413,179.19 C120.032,178.565 118.829,177.221 118.198,175.647 C117.565,174.073 117.507,172.27 118.071,170.864 C118.583,169.612 119.694,168.702 121.026,168.166 L121.026,168.166 Z" id="Fill-26" fill="#FFFFFE"></path>
            <polyline id="Fill-27" fill="#FFFFFE" points="105.091 176.571 106.495 184.164 104.222 184.584 102.179 173.534 104.421 173.12 110.317 179.993 108.894 172.293 111.167 171.873 113.21 182.924 110.966 183.338 105.091 176.571"></polyline>
            <path d="M71.18,176.307 C70.887,177.489 70.969,178.762 71.524,179.6 C71.963,180.264 72.629,180.651 73.347,180.829 C74.066,181.006 74.836,180.975 75.534,180.592 C76.415,180.112 77.082,179.022 77.374,177.84 C77.667,176.659 77.585,175.383 77.031,174.547 C76.591,173.883 75.925,173.495 75.207,173.317 C74.489,173.139 73.719,173.17 73.021,173.553 C72.139,174.034 71.473,175.123 71.18,176.307 Z M75.692,171.358 C77.084,171.702 78.312,172.45 78.991,173.62 C79.746,174.934 79.937,176.727 79.529,178.373 C79.122,180.02 78.116,181.516 76.835,182.327 C75.689,183.043 74.254,183.133 72.863,182.789 C71.471,182.444 70.243,181.696 69.563,180.528 C68.809,179.213 68.618,177.418 69.025,175.772 C69.432,174.127 70.438,172.629 71.719,171.819 C72.865,171.102 74.301,171.012 75.692,171.358 L75.692,171.358 Z" id="Fill-28" fill="#FFFFFE"></path>
            <polyline id="Fill-29" fill="#FFFFFE" points="54.386 173.725 59.47 176.024 60.523 173.694 56.044 171.666 56.838 169.913 61.317 171.938 63.305 167.543 65.411 168.495 60.782 178.731 53.593 175.481 54.386 173.725"></polyline>
            <polyline id="Fill-30" fill="#FFFFFE" points="30.968 159.246 34.471 155.772 27.864 156.116 25.931 154.166 32.527 153.899 33.595 145.934 35.561 147.916 34.642 153.93 36.397 153.86 38.948 151.33 40.577 152.973 32.597 160.887 30.968 159.246"></polyline>
            <path d="M23.721,139.571 L20.979,143.278 L25.357,141.944 L23.721,139.571 Z M26.407,136.108 L24.992,138.02 L27.355,141.446 L29.654,140.817 L30.993,142.758 L19.52,145.914 L18.005,143.719 L25.068,134.166 L26.407,136.108 L26.407,136.108 Z" id="Fill-31" fill="#FFFFFE"></path>
            <path d="M14.579,127.256 C14.359,126.762 13.442,126.11 12.485,126.69 C11.753,127.016 11.482,127.543 11.904,128.485 L13.181,131.342 L15.869,130.141 L14.579,127.256 Z M9.818,128.539 C9.358,127.512 9.42,126.252 10.393,125.446 C10.787,125.118 11.418,124.567 12.418,124.422 C13.418,124.28 13.942,124.586 14.659,125.092 C14.741,124.633 14.692,123.846 15.57,123.317 C15.968,123.073 17.299,122.426 17.82,122.194 C18.391,121.922 18.448,121.709 18.488,121.422 L18.868,121.252 L19.881,123.518 C19.647,123.825 19.375,124.047 19.05,124.227 C18.556,124.481 17.727,124.819 16.981,125.151 C16.292,125.459 16.193,126.145 16.521,126.877 L17.627,129.354 L21.68,127.541 L22.624,129.653 L12.366,134.239 L9.818,128.539 L9.818,128.539 Z" id="Fill-32" fill="#FFFFFE"></path>
            <path d="M11.734,111.213 L7.83,113.663 L12.392,114.018 L11.734,111.213 Z M15.498,108.969 L13.483,110.233 L14.433,114.284 L16.803,114.536 L17.341,116.83 L5.511,115.584 L4.902,112.989 L14.959,106.674 L15.498,108.969 L15.498,108.969 Z" id="Fill-33" fill="#FFFFFE"></path>
            <polyline id="Fill-34" fill="#FFFFFE" points="4.729 94.047 4.885 97.325 14.183 96.881 14.294 99.19 4.996 99.635 5.158 103.038 3.233 103.129 2.805 94.139 4.729 94.047"></polyline>
            <polyline id="Fill-35" fill="#FFFFFE" points="6.034 79.309 5.32 85.091 7.859 85.405 8.519 80.067 10.431 80.303 9.771 85.641 12.647 85.997 13.394 79.955 15.306 80.191 14.275 88.528 3.124 87.149 4.123 79.073 6.034 79.309"></polyline>
            <path d="M36.175,81.399 C36.175,81.399 51.801,77.92 61.006,70.696 C69.506,64.024 73.85,60.849 81.556,58.708 C81.556,58.708 77.168,61.705 72.833,66.843 C69.71,70.545 65.715,75.833 58.437,78.83 C51.159,81.827 36.175,81.399 36.175,81.399 Z M142.778,75.405 C135.927,74.549 123.94,71.98 123.94,57.424 C123.94,46.721 136.784,45.436 136.784,45.436 C129.505,37.302 114.093,38.587 111.524,38.587 C108.956,38.587 89.095,40.139 79.843,48.861 C49.875,77.118 20.335,75.833 20.335,75.833 C19.05,80.971 18.167,88.035 18.167,94.456 C18.167,130.205 46.021,169.995 93.544,169.995 C142.778,169.995 168.866,127.635 168.866,94.456 C168.866,77.118 164.612,70.268 164.612,70.268 C159.474,73.693 149.628,76.261 142.778,75.405 L142.778,75.405 Z" id="Fill-36" fill="#292D78"></path>
            <polygon id="Fill-37" fill="#FFFFFE" points="41.74 136.198 54.745 136.198 54.745 89.333 41.74 89.333"></polygon>
            <polyline id="Fill-38" fill="#FFFFFE" points="66.304 136.198 80.38 136.198 80.38 119.235 99.056 119.075 99.056 109.442 80.38 109.442 80.38 101.252 100.661 101.252 100.661 89.333 66.304 89.333 66.304 136.198"></polyline>
            <polyline id="Fill-39" fill="#FFFFFE" points="147.38 89.333 134.216 89.333 121.692 108.799 121.894 89.324 109.169 89.324 109.009 136.198 121.692 136.198 121.692 118.377 123.167 116.801 133.733 136.198 147.38 136.198 132.288 110.03 147.38 89.333"></polyline>
        </g>
    </g>
</svg>
