
<svg width="952px" height="1011px" viewBox="0 0 952 1011" version="1.1" xmlns="http://www.w3.org/2000/svg" xmlns:xlink="http://www.w3.org/1999/xlink">
    <defs>
        <polygon id="path-1" points="0.06 0.768 820.751651 0.768 820.751651 246.983 0.06 246.983"></polygon>
    </defs>
    <g id="Page-1" stroke="none" stroke-width="1" fill="none" fill-rule="evenodd">
        <g id="MFK_2016">
            <path d="M436.123,585.782 C434.063,586.96 430.978,587.657 428.066,587.613 L428.066,582.052 L438.681,582.052 C438.303,583.642 437.625,584.929 436.123,585.782 Z M487.372,600.201 C487.316,600.117 486.334,600.999 486.951,598.638 C487.316,597.273 487.344,597.869 488.382,597.729 C489.252,599.519 489.084,599.833 487.372,600.201 Z M497.639,666.015 C499.266,667.55 499.995,667.863 500.696,670.309 C499.266,671.561 495.423,672.158 493.318,672.47 L493.824,662.687 C495.479,663.398 496.209,664.677 497.639,666.015 Z M837.692,479.494 L837.692,461.096 L624.812,461.096 L624.812,302.639 L568.069,302.639 L568.069,211.824 L524.494,211.824 C525.039,193.665 525.402,180.525 525.402,180.525 L490.42,54.121 C490.616,53.978 490.733,53.836 490.733,53.697 C490.733,51.863 488.233,33.53 486.399,25.363 C485.322,20.567 482.694,19.279 480.708,19.031 L479.371,14.199 L460.736,58.855 C460.736,58.855 424.736,199.532 424.736,201.532 C424.736,201.904 425.081,205.769 425.666,211.824 L387.402,211.824 L387.402,302.639 L345.399,302.639 L345.399,479.494 L9.402,479.494 L9.402,604.863 L412.235,604.863 C412.664,605.835 413.059,606.722 413.373,607.454 C415.365,612.063 419.012,615.219 425.407,613.086 C427.791,612.29 429.783,610.839 431.494,609.587 C434.383,607.484 434.552,606.516 436.712,604.525 C440.695,607.569 443.051,625.317 448.24,629.696 C451.326,627.249 452.617,618.945 453.29,615.389 C454.216,610.27 454.805,603.842 456.151,599.008 C457.862,592.779 462.042,593.376 467.54,591.157 C472.168,589.28 476.348,586.863 481.93,586.181 C480.752,590.277 476.965,593.29 477.162,598.07 C477.387,603.19 481.313,605.662 483.08,608.763 C481.397,611.522 478.564,614.422 476.517,617.095 C473.795,620.623 466.783,618.006 464.848,620.055 C462.743,623.609 469.139,625.116 460.752,633.649 C458.957,635.469 457.47,636.891 455.674,638.684 L432.168,663.142 C430.625,664.479 431.859,663.626 430.457,664.279 L430.736,647.727 C425.744,648.922 427.314,654.354 419.993,664.052 L406.641,677.447 C403.611,684.245 399.432,688.967 407.875,700.059 C410.063,702.959 412.392,705.207 414.664,708.42 C416.57,711.093 418.086,715.445 420.133,717.947 C424.089,715.048 428.885,692.949 431.129,685.981 C436.291,670.111 439.686,669.143 447.623,658.988 C450.709,655.035 454.104,651.281 457.273,647.415 L468.297,636.72 C471.383,633.677 474.132,626.425 480.695,627.705 C483.08,628.159 493.965,633.251 495.199,634.53 C493.768,635.411 491.889,636.037 490.879,637.234 C488.803,639.678 491.159,639.622 487.344,641.271 C484.314,642.608 479.098,644.229 475.619,644.883 C476.348,641.897 478.732,640.502 476.909,637.317 C476.152,636.863 478.088,636.321 475.282,637.147 C472.252,638.058 468.27,644.2 466.502,646.617 C448.24,671.703 474.581,660.412 481.902,660.014 C481.257,669.57 482.295,677.334 467.988,678.841 C469.111,676.196 471.889,673.494 468.942,671.134 C466.334,669.684 456.375,678.813 453.738,680.975 C452.141,682.254 450.008,683.591 448.633,685.07 L448.802,691.156 C467.709,699.204 468.83,692.123 477.835,690.189 C479.49,692.067 479.938,695.196 481.565,696.531 C483.586,698.182 485.437,698.353 487.597,700.627 C498.424,711.834 498.088,717.664 490.346,727.731 C487.063,731.97 485.016,735.696 482.352,740.445 C479.237,739.506 478.312,737.657 476.461,735.81 C474.469,733.788 472.617,733.249 469.84,732.026 C470.262,728.756 471.635,725.313 472.729,722.613 C474.272,718.829 474.693,716.781 479.602,716.895 C478.732,724.489 471.439,722.925 471.832,729.41 C474.496,731.883 476.854,733.447 481.762,731.258 C485.016,729.808 488.045,727.021 489.785,724.632 C492.562,720.821 494.133,719.654 491.271,714.705 C489.393,711.435 487.793,708.363 485.914,705.348 C484.174,702.533 482.268,699.234 480.135,696.987 C476.854,693.46 473.795,697.243 471.495,699.489 C465.744,705.12 457.693,716.298 452,723.465 C449.335,726.85 449.699,730.519 451.579,735.097 C454.412,741.923 462.126,743.887 467.147,748.835 C472.112,753.755 476.18,758.988 481.313,763.453 C487.008,768.488 487.625,763.112 492.982,765.33 C496.488,766.81 497.92,771.133 501.566,770.705 C503.334,759.956 491.776,754.921 489.925,748.665 L503.221,732.652 C504.652,731.287 505.887,730.633 507.176,729.552 C538.537,703.33 496.349,699.404 493.348,684.557 C496.966,682.396 503.081,683.705 507.289,682.34 C518.902,678.557 508.523,669.315 503.922,664.735 C502.717,663.539 496.377,657.851 495.956,656.571 C502.127,650.201 508.719,656.174 505.998,642.948 L522.66,655.406 C525.072,657.908 525.803,662.858 523.67,666.412 C521.314,670.366 517.387,669.968 516.152,673.666 C527.43,674.888 562.662,670.537 556.603,653.528 C555.088,649.291 550.15,643.946 547.262,641.669 C529.926,628.018 511.385,623.638 486.193,619.115 C486.446,617.352 488.943,615.247 490.121,614.08 C492.702,611.55 493.712,612.033 497.695,613.058 C502.379,614.309 509.673,616.925 513.992,613.284 C518.004,606.913 511.833,599.861 508.467,597.529 C504.455,594.741 497.611,592.011 492.786,590.106 C493.375,585.498 496.209,585.071 500.781,584.161 C509.897,582.312 532.002,580.066 532.113,592.665 C527.148,595.082 519.743,594.798 519.968,601.141 C527.541,605.179 532.197,600.429 541.006,601.254 C548.215,601.937 553.404,606.346 561.175,605.804 C562.034,598.046 557.147,588.462 551.359,582.052 L576.069,582.052 L576.069,622.863 L837.692,622.863 L837.692,618.195 L949.883,618.195 L949.883,479.494 L837.692,479.494 L837.692,479.494 Z" id="Fill-1" fill="#FFFEFE"></path>
            <path d="M120.435,325.746 C126.27,315.706 131.964,306.89 137.994,297.732 C144.193,288.318 150.814,280.012 157.378,271.623 C164.728,262.209 171.404,255.724 178.613,247.362 C189.553,234.706 211.377,215.167 225.683,204.047 C280.551,161.471 345.209,132.148 415.084,121.853 C431.045,119.52 429.193,121.625 431.69,115.795 C433.795,110.931 436.656,105.726 438.563,100.72 C432.785,100.607 423.443,102.284 417.637,103.11 C373.035,109.509 333.483,122.108 292.781,140.822 C268.04,152.17 228.6,177.256 207.338,195.6 L197.688,203.649 C197.043,204.161 196.678,204.587 196.089,205.071 C191.488,208.825 187.421,213.234 185.569,214.741 C177.351,221.368 171.881,228.136 164.924,235.019 C162.146,237.75 162.708,238.119 160.66,239.854 L133.143,273.472 C122.707,287.18 109.074,308.937 101.22,323.044 L85.455,354.358 C76.143,374.579 66.857,401.854 61.275,423.47 C59.984,428.532 53.195,456.262 53,461.61 L71.485,459.277 C78.078,415.876 98.947,362.918 120.435,325.746" id="Fill-2" fill="#FFFEFE"></path>
            <path d="M660.841,161.186 C689.817,175.89 703.17,185.901 726.901,203.109 C732.988,207.488 739.496,213.659 744.91,217.926 C746.256,219.007 746.396,219.234 747.799,220.571 C748.949,221.68 749.398,221.738 750.576,222.847 L782.667,255.44 C789.68,262.692 795.627,270.656 802.162,278.904 C837.339,323.13 865.727,384.79 878.462,440.648 C879.191,443.889 881.268,456.176 882.333,458.026 C882.922,458.451 882.053,458.053 883.343,458.509 L891.562,459.874 C894.283,460.244 898.687,460.556 900.791,461.096 C898.182,447.986 895.686,436.04 892.348,422.957 C889.402,411.297 885.531,398.47 881.436,387.264 C860.873,330.837 838.545,294.831 802.724,250.861 C801.602,249.496 801.574,249.012 800.311,247.704 L789.119,235.673 C787.633,234.166 787.717,233.683 786.482,232.232 L747.547,196.425 C734.11,184.906 707.854,166.818 693.1,158.029 C665.329,141.477 628.049,124.753 596.66,116.363 C584.569,113.12 572.255,109.651 559.576,107.205 C553.068,105.925 525.072,100.72 520.191,101.204 C521.201,104.133 527.654,118.411 529.281,120.572 C572.451,124.81 623.141,142.073 660.841,161.186" id="Fill-3" fill="#FFFEFE"></path>
            <path d="M170.422,886.176 L111.486,886.063 L111.654,798.067 L170.479,798.322 L170.449,815.216 L133.619,815.302 L133.675,830.118 L167.589,830.289 L167.504,847.297 L133.591,847.384 L133.844,868.998 L170.422,869.056 L170.422,886.176 Z M118.724,773.265 L135.61,773.352 L135.526,788.766 L118.499,788.709 L118.724,773.265 Z M141.445,790.985 C141.754,792.833 142.707,792.265 140.322,792.237 C140.463,791.127 140.996,791.184 141.445,790.985 Z M146.467,773.38 C148.879,772.64 160.717,772.867 163.857,773.21 L163.914,787.317 C163.605,789.988 163.971,788.083 162.848,788.795 L147.168,788.681 C145.736,787.715 146.326,784.954 146.326,781.23 C146.326,778.613 146.158,775.94 146.467,773.38 Z M169.777,863.112 C161.053,862.344 148.738,863.054 139.51,863.054 L139.481,853.271 C174.405,853.214 173.451,856.114 173.451,838.709 C173.451,821.387 174.602,824.232 139.453,824.176 L139.453,821.929 C140.771,820.904 142.203,821.133 144.166,821.16 C180.127,821.73 176.285,823.293 176.369,802.588 C176.396,795.479 175.752,792.349 168.57,792.121 C169.861,787.003 169.469,783.504 169.496,778.157 C169.553,765.473 165.85,767.351 151.684,767.293 C145.597,767.293 144.587,766.781 141.164,770.621 L140.604,770.109 C140.52,770.023 140.183,769.711 140.07,769.597 C139.004,768.602 140.379,769.597 138.977,768.658 C135.441,766.297 118.359,767.094 116.143,768.09 C112.3,769.796 112.608,773.464 112.608,778.669 C112.637,783.902 112.271,787.373 113.534,792.036 C108.232,792.492 105.848,793.715 105.623,799.545 C105.428,804.465 105.623,809.813 105.623,814.789 L105.623,876.364 C105.623,891.439 104.838,892.121 120.098,892.121 L165.737,892.121 C171.012,892.15 174.938,892.15 176.061,887.342 C176.762,884.328 176.396,875.341 176.369,871.757 C176.341,866.239 175.246,863.566 169.777,863.112 L169.777,863.112 Z" id="Fill-4" fill="#FFFEFE"></path>
            <path d="M67.391,886.176 C64.36,884.413 48.23,856.086 43.434,850.767 L38.553,850.825 L38.301,886.205 L16.337,886.149 L16.449,798.095 L38.525,798.322 L38.609,833.732 C50.643,832.679 50.531,822.554 57.74,810.096 C64.276,798.778 71.598,797.44 88.064,798.123 L87.979,817.264 C71.794,817.777 75.217,821.786 68.512,834.215 C65.595,839.59 64.5,838.992 63.351,841.239 C67.754,848.635 73.365,856.456 78.302,863.765 C80.742,867.349 91.963,883.531 92.973,886.176 L67.391,886.176 Z M86.745,865.87 L70.784,841.752 C73.337,837.315 75.104,833.617 77.516,828.583 C82.117,818.942 83.8,825.738 90.588,822.526 C95.217,820.307 93.955,812.429 93.955,806.655 C93.955,800.37 95.133,793.828 89.018,792.406 C78.049,789.848 64.697,793.801 58.582,799.233 C51.484,805.546 47.754,819.596 44.473,823.293 C43.967,817.292 45.482,799.147 43.49,795.309 C41.583,791.667 37.318,792.121 32.775,792.121 C28.09,792.121 23.377,792.066 18.721,792.121 C13.784,792.151 11.147,793.628 10.53,798.208 L10.418,869.738 C10.418,894.425 8.23,892.121 30.783,892.121 C35.047,892.121 40.488,892.775 42.762,890.045 C45.734,886.489 44.191,869.311 44.443,863.168 C46.239,864.562 58.161,883.616 60.574,887.342 C62.061,889.618 62.678,891.238 66.127,891.922 C68.624,892.404 73.196,892.121 75.918,892.121 C89.522,892.121 106.83,895.107 94.852,878.014 C91.963,873.918 89.635,870.05 86.745,865.87 L86.745,865.87 Z" id="Fill-5" fill="#FFFEFE"></path>
            <g id="Group-9" transform="translate(185.000000, 767.000000)" fill="#FFFEFE">
                <path d="M57.008,119.176 C54.176,117.555 37.653,89.029 33.053,83.767 L28.172,83.825 L27.891,119.205 L6.208,119.149 C4.974,114.256 5.928,82.858 5.928,75.264 C5.928,67.358 5.535,36.385 6.067,31.095 L28.145,31.322 L28.229,66.703 C35.857,66.105 37.541,62.863 40.374,57.374 C49.912,38.915 49.266,29.616 77.654,31.153 L77.57,50.264 C67.527,50.691 65.76,50.832 61.861,58.824 C59.337,64.029 57.262,71.112 52.857,73.585 C53.614,76.232 65.312,92.983 67.695,96.481 C70.192,100.15 81.497,116.417 82.563,119.176 L57.008,119.176 Z M60.375,74.752 C61.496,72.647 62.787,71.054 63.993,68.58 C65.088,66.304 65.732,64.37 66.91,61.897 C71.707,51.971 72.324,58.683 79.87,55.696 C84.779,53.734 83.545,45.941 83.545,40.167 C83.545,33.994 84.779,27.113 79.029,25.52 C74.961,24.383 65.62,24.922 61.525,25.805 C40.683,30.326 40.459,48.387 34.146,56.265 C33.502,50.036 35.129,32.887 33.277,28.677 C31.566,24.81 27.471,25.121 22.898,25.121 C-2.039,25.178 0.064,22.819 0.064,44.747 L0.064,116.475 C0.177,127.481 7.387,125.121 19.896,125.121 C23.936,125.121 29.658,125.889 32.127,123.301 C35.493,119.802 33.727,102.653 34.091,96.224 C35.605,97.562 48.004,116.958 50.191,120.342 C51.65,122.59 52.352,124.296 55.719,124.922 C58.551,125.463 82.535,125.404 84.92,124.439 C92.016,121.651 86.631,114.256 84.863,111.639 L60.375,74.752 L60.375,74.752 Z" id="Fill-6"></path>
                <path d="M756.465,119.092 C752.986,119.319 737.222,119.575 734.613,118.863 L734.529,62.919 L709.76,105.24 C707.936,108.397 703.588,116.873 701.484,119.205 L681.568,119.149 C680.839,116.39 680.727,37.493 681.428,31.095 L703.14,31.208 L703.14,81.635 C705.047,80.297 717.613,57.999 718.652,56.237 C723.561,47.904 728.357,39.058 733.463,31.095 L756.465,31.123 L756.465,119.092 Z M726.17,31.664 C724.852,34.309 709.984,59.735 709.03,60.389 L709.03,31.436 L726.17,31.664 Z M688.553,6.294 L707.74,6.265 C710.265,11.925 710.377,14.343 718.848,14.37 C726.197,14.429 728.133,12.268 730.097,6.265 L749.312,6.322 C749.873,12.522 743.141,19.291 739.521,21.453 C733.799,24.838 726.674,25.947 718.848,25.919 C711.246,25.89 703.841,24.611 698.343,21.282 C694.725,19.065 688.385,12.381 688.553,6.294 Z M762.383,55.923 C762.383,21.34 765.133,25.919 745.328,25.066 C746.563,23.217 750.49,20.884 753.238,14.514 C760.756,-2.891 746.197,0.351 734.389,0.293 C721.484,0.236 726.395,5.242 722.887,7.717 C720.896,8.854 715.678,8.94 714.332,7.091 C712.396,4.417 713.827,2.283 710.012,0.862 C707.543,-0.076 693.153,0.151 689.703,0.293 C678.37,0.832 683.251,12.978 687.739,19.32 C688.609,20.516 688.89,21.113 689.928,22.164 C691.021,23.273 692.088,23.785 692.9,25.095 C672.732,25.691 675.425,20.543 675.425,59.991 C675.425,77.794 675.453,95.627 675.425,113.432 C675.396,126.06 678.062,125.121 689.73,125.121 C704.711,125.121 704.149,126.656 709.227,117.925 C712.508,112.322 715.707,106.861 718.848,101.23 L728.639,84.62 C729.256,91.646 728.75,101.059 728.75,108.341 C728.75,116.817 726.898,124.637 735.903,125.121 C766.956,126.77 762.383,124.211 762.383,103.762 C762.383,87.806 762.383,71.879 762.383,55.923 L762.383,55.923 Z" id="Fill-8"></path>
            </g>
            <path d="M544.063,886.063 C540.557,886.319 524.904,886.575 522.184,885.863 L522.1,829.948 C519.49,832.309 491.973,883.077 489.084,886.205 L469.167,886.149 C468.438,883.475 468.326,804.38 469.027,798.095 L490.738,798.237 L490.738,848.635 C491.832,847.895 490.906,848.635 491.691,847.781 C491.805,847.638 492.113,847.269 492.197,847.155 C495.367,842.776 516.545,805.205 521.062,798.095 L544.092,798.153 L544.063,886.063 Z M542.1,792.121 C513.797,792.121 519.631,788.851 508.158,808.39 C506.699,810.894 497.751,826.592 496.657,827.389 C495.731,787.884 503.081,792.121 470.822,792.121 C465.24,792.121 463.023,794.426 463.023,800.029 L463.023,883.988 C463.023,889.532 465.324,892.121 470.822,892.121 L487.372,892.121 C494.021,892.121 494.609,888.707 497.219,884.299 C500.191,879.293 514.357,853.84 516.266,851.62 C516.854,858.874 516.35,868.344 516.35,875.852 C516.35,894.368 515.002,892.121 542.072,892.121 C547.795,892.121 549.955,889.647 549.955,883.988 L549.955,800.029 C549.955,794.398 547.626,792.121 542.1,792.121 L542.1,792.121 Z" id="Fill-10" fill="#FFFEFE"></path>
            <path d="M624.346,886.176 L624.29,847.439 L595.229,847.326 L595.173,886.005 L573.068,886.176 L573.012,798.153 L595.061,798.153 L595.033,829.807 C597.529,830.518 620.615,830.376 624.234,830.006 L624.318,798.123 L646.366,798.095 L646.451,886.063 L624.346,886.176 Z M652.426,800.512 C652.342,789.648 644.375,792.121 631.387,792.121 C626.281,792.121 621.514,791.496 619.493,795.08 C617.529,798.606 618.512,818.402 618.428,824.148 L601.119,824.176 C600.979,793.089 604.094,792.121 588.749,792.121 C564.877,792.151 567.15,789.392 567.15,815.302 L567.15,875.341 C567.15,889.874 565.158,892.121 580.193,892.121 C605.805,892.121 600.755,896.529 601.119,853.299 L618.428,853.271 C618.596,863.339 618.371,873.435 618.428,883.504 C618.512,894.653 626.17,892.121 639.41,892.121 C654.305,892.121 652.426,889.618 652.426,875.341 L652.426,800.512 L652.426,800.512 Z" id="Fill-11" fill="#FFFEFE"></path>
            <path d="M723.703,886.149 C722.329,883.332 719.776,879.834 717.953,877.076 C715.26,872.981 701.6,851.137 700.141,850.796 L695.624,850.853 L695.596,886.063 L673.52,886.176 L673.492,798.153 L695.512,798.095 L695.596,833.561 C702.777,833.788 705.189,829.408 707.742,824.574 C716.383,808.22 716.859,795.534 745.106,798.18 L745.219,817.179 C737.729,817.974 734.223,815.842 729.454,825.711 C728.107,828.527 727.07,831.37 725.667,834.072 C723.059,839.108 721.712,839.078 720.506,841.239 C724.797,848.834 748.922,882.593 750.1,886.205 L723.703,886.149 Z M727.939,841.752 C731.165,835.551 730.633,837.257 734.363,829.181 C738.795,819.568 739.439,825.427 747.098,822.696 C752.26,820.847 751.082,814.278 751.082,807.68 C751.082,801.053 752.344,794.426 747.098,792.662 C743.115,791.326 733.633,791.895 729.594,792.719 C723.592,793.971 720.225,795.421 716.41,798.748 C707.518,806.485 705.723,818.743 701.627,822.951 C701.262,817.207 702.553,799.147 700.701,795.392 C698.963,791.895 694.502,792.121 690.098,792.121 C685.414,792.121 680.701,792.095 676.017,792.121 C665.301,792.178 667.629,799.545 667.629,811.747 L667.629,883.504 C667.657,894.481 675.035,892.121 687.068,892.121 C704.488,892.121 701.318,891.893 701.543,863.424 C702.665,864.135 701.627,863.196 702.749,864.504 C703.227,865.073 703.479,865.557 703.787,866.041 C704.572,867.292 705.049,867.975 705.779,869.112 L717.756,887.457 C721.74,893.514 725.162,892.121 733.24,892.121 C742.862,892.121 757.785,894.794 755.794,884.584 C755.121,881.114 731.697,848.606 727.939,841.752 L727.939,841.752 Z" id="Fill-12" fill="#FFFEFE"></path>
            <path d="M444.622,880.318 C408.885,898.35 372.979,884.754 372.587,842.776 C372.391,822.042 380.891,808.419 393.709,801.223 C400.918,797.156 410.54,795.65 420.162,796.36 C430.877,797.156 436.487,799.715 444.65,803.64 L444.707,824.886 C437.582,824.944 430.652,809.499 412.756,813.908 C390.091,819.511 389.193,862.741 411.494,869.823 C418.254,871.955 424.65,870.932 430.148,868.201 C437.891,864.363 440.639,859.329 444.229,859.329 C444.285,859.471 444.369,859.527 444.369,859.754 C444.398,859.983 444.482,860.068 444.51,860.182 C444.65,860.863 444.678,860.75 444.734,861.575 L444.622,880.318 Z M450.598,865.159 C450.598,859.527 450.766,854.607 445.66,853.583 C439.91,852.416 437.16,856.143 434.468,858.333 C428.745,862.998 420.218,867.918 410.988,863.253 C397.664,856.511 397.047,825.142 413.766,819.795 C430.288,814.533 439.096,837.856 448.493,829.295 C451.467,826.592 450.598,820.052 450.598,815.302 C450.598,799.516 452.111,799.858 439.068,794.596 C414.832,784.813 383.947,790.671 371.998,816.355 C364.592,832.337 365.068,854.863 372.896,870.335 C385.125,894.51 416.711,899.173 441.48,888.281 C445.744,886.404 449.419,885.552 450.345,881.143 C451.018,877.843 450.568,869.027 450.598,865.159 L450.598,865.159 Z" id="Fill-13" fill="#FFFEFE"></path>
            <path d="M334.465,855.603 C323.891,881.256 321.422,889.675 285.544,886.092 L285.824,866.922 C293.37,866.667 303.721,870.82 309.078,864.135 C307.873,859.214 278.194,802.588 277.549,798.067 L301.141,798.123 L319.205,838.253 C320.412,837.145 320.776,835.296 321.562,833.362 L327.396,817.947 C328.715,814.363 330.033,811.178 331.379,807.707 C332.221,805.49 333.932,798.947 335.84,798.067 L357.859,798.123 C357.607,800.228 335.84,852.19 334.465,855.603 Z M346.893,792.121 C328.322,792.121 331.66,790.529 324.619,808.988 C323.693,811.434 322.796,813.709 321.955,815.955 L319.486,822.155 C319.01,822.867 319.262,822.554 318.701,823.068 C316.961,818.089 314.156,812.686 311.855,807.566 C303.609,789.363 308.209,792.151 283.16,792.121 C278.867,792.121 268.012,791.611 272.389,801.763 C275.613,809.243 301.393,859.102 301.028,861.831 C295.839,862.399 286.525,860.209 283.3,861.69 C278.475,863.879 279.709,871.445 279.709,877.871 C279.709,891.267 278.363,893.599 304.254,892.576 C329.921,891.58 334.185,871.672 342.319,851.876 L359.57,809.869 C361.143,806.115 365.068,799.233 363.078,795.309 C360.777,790.785 352.391,792.121 346.893,792.121 L346.893,792.121 Z" id="Fill-14" fill="#FFFEFE"></path>
            <path d="M824.52,886.063 L819.049,868.286 L792.4,868.316 L786.931,886.034 L764.715,886.149 L794.084,798.153 L818.123,798.067 L847.324,886.176 L824.52,886.063 Z M824.379,798.208 C823.201,794.54 821.967,792.635 817.899,792.207 C814.393,791.81 809.203,792.121 805.5,792.121 C792.345,792.121 790.438,790.613 787.379,799.488 C785.22,805.774 783.199,812.201 781.068,818.488 L761.797,875.852 C759.637,882.309 755.57,890.926 764.938,892.035 C768.501,892.463 786.734,892.49 789.26,891.466 C794.953,889.107 793.775,876.394 797.479,874.203 L814.982,874.317 C815.824,877.73 817.058,881.171 818.012,884.527 C819.133,888.338 819.639,890.783 823.453,891.751 C825.895,892.376 845.081,892.434 847.914,891.922 C856.862,890.244 851.758,880.403 849.822,874.602 L824.379,798.208 L824.379,798.208 Z" id="Fill-15" fill="#FFFEFE"></path>
            <path d="M802.584,847.554 L805.809,836.661 L808.727,847.638 L802.584,847.554 Z M801.461,838.196 C800.396,841.667 797.898,848.576 797.479,851.849 L814.028,851.934 L806.006,824.944 L801.461,838.196 L801.461,838.196 Z" id="Fill-16" fill="#FFFEFE"></path>
            <path d="M838.669,593.571 C838.641,588.48 838.696,583.417 838.696,578.355 C838.696,570.077 837.8,571.7 841.53,566.638 C843.634,563.821 845.485,560.978 847.729,558.191 C849.861,555.488 852.498,553.383 857.603,553.383 C866.411,553.383 869.356,561.205 873.564,566.722 C875.22,568.884 876.146,568.571 876.37,571.671 L876.397,593.798 L838.669,593.571 Z M775.245,593.798 L737.46,593.827 C737.46,588.679 737.517,583.501 737.517,578.355 C737.517,567.831 736.815,571.472 740.518,566.495 C744.726,560.807 747.559,553.298 756.731,553.383 C765.483,553.441 768.429,561.631 772.524,566.921 C776.171,571.614 775.188,569.88 775.188,578.838 C775.188,583.787 775.245,588.736 775.245,593.798 Z M673.812,593.771 L636.083,593.827 C636.056,588.679 636.11,583.501 636.11,578.355 C636.11,567.917 635.438,571.444 639.112,566.438 C643.376,560.693 646.097,553.326 655.382,553.382671 C663.63,553.441 667.163,561.603 671.147,566.921 C674.766,571.813 673.784,570.818 673.784,578.838 C673.784,583.759 673.812,588.679 673.812,593.771 Z M562.084,606.425 C554.313,606.967 549.124,602.558 541.915,601.875 C533.106,601.05 528.45,605.8 520.877,601.762 C520.652,595.419 528.058,595.703 533.022,593.286 C532.911,580.687 510.807,582.933 501.69,584.782 C497.118,585.693 494.284,586.119 493.695,590.727 C498.521,592.632 505.364,595.363 509.376,598.15 C512.742,600.482 518.913,607.534 514.901,613.905 C510.582,617.546 503.288,614.93 498.604,613.679 C494.621,612.654 493.611,612.171 491.03,614.701 C489.853,615.868 487.355,617.973 487.103,619.737 C512.294,624.259 530.835,628.639 548.171,642.29 C551.06,644.567 555.997,649.912 557.512,654.149 C563.571,671.158 528.339,675.509 517.062,674.287 C518.296,670.589 522.224,670.988 524.579,667.033 C526.712,663.479 525.981,658.529 523.569,656.028 L506.907,643.57 C509.628,656.795 503.036,650.822 496.865,657.193 C497.286,658.472 503.626,664.16 504.831,665.356 C509.433,669.936 519.812,679.178 508.198,682.961 C503.99,684.326 497.875,683.017 494.257,685.178 C497.258,700.025 539.446,703.951 508.085,730.173 C506.796,731.254 505.562,731.908 504.13,733.273 L490.834,749.286 C492.686,755.542 504.243,760.577 502.476,771.326 C498.829,771.754 497.397,767.431 493.892,765.951 C488.534,763.733 487.917,769.109 482.222,764.074 C477.089,759.61 473.021,754.376 468.057,749.456 C463.035,744.508 455.321,742.544 452.488,735.718 C450.608,731.14 450.244,727.471 452.909,724.086 C458.603,716.919 466.653,705.741 472.404,700.111 C474.704,697.864 477.763,694.081 481.044,697.608 C483.177,699.855 485.083,703.154 486.823,705.969 C488.702,708.985 490.302,712.056 492.181,715.326 C495.042,720.275 493.471,721.442 490.694,725.253 C488.954,727.642 485.925,730.429 482.671,731.879 C477.763,734.069 475.405,732.504 472.741,730.031 C472.349,723.546 479.642,725.111 480.511,717.516 C475.603,717.403 475.182,719.45 473.639,723.234 C472.544,725.934 471.171,729.377 470.749,732.647 C473.526,733.87 475.378,734.409 477.37,736.431 C479.221,738.279 480.146,740.127 483.261,741.066 C485.925,736.317 487.973,732.591 491.255,728.352 C498.997,718.285 499.333,712.455 488.506,701.248 C486.346,698.974 484.495,698.803 482.475,697.153 C480.848,695.817 480.399,692.688 478.744,690.81 C469.739,692.744 468.618,699.825 449.711,691.778 L449.542,685.691 C450.917,684.212 453.05,682.875 454.647,681.596 C457.284,679.434 467.243,670.305 469.852,671.755 C472.798,674.115 470.021,676.818 468.897,679.462 C483.204,677.955 482.166,670.191 482.812,660.635 C475.49,661.033 449.149,672.324 467.411,647.238 C469.179,644.821 473.161,638.679 476.191,637.768 C478.997,636.943 477.062,637.484 477.818,637.938 C479.642,641.123 477.257,642.518 476.528,645.504 C480.007,644.85 485.224,643.229 488.253,641.892 C492.068,640.243 489.712,640.299 491.788,637.855 C492.798,636.658 494.677,636.032 496.108,635.152 C494.874,633.872 483.989,628.78 481.604,628.326 C475.041,627.046 472.292,634.298 469.206,637.341 L458.183,648.036 C455.013,651.903 451.618,655.656 448.532,659.61 C440.595,669.764 437.2,670.732 432.038,686.602 C429.794,693.571 424.998,715.669 421.042,718.569 C418.995,716.066 417.479,711.714 415.573,709.041 C413.301,705.828 410.972,703.58 408.784,700.68 C400.341,689.588 404.521,684.866 407.55,678.069 L420.902,664.673 C428.224,654.975 426.653,649.543 431.646,648.348 L431.366,664.901 C432.769,664.247 431.534,665.1 433.077,663.763 L456.583,639.305 C458.379,637.512 459.866,636.09 461.661,634.27 C470.048,625.738 463.652,624.23 465.757,620.676 C467.692,618.627 474.704,621.244 477.426,617.716 C479.474,615.043 482.307,612.143 483.989,609.384 C482.222,606.283 478.296,603.811 478.071,598.691 C477.874,593.911 481.661,590.898 482.839,586.802 C477.257,587.484 473.077,589.902 468.449,591.779 C462.951,593.997 458.771,593.401 457.061,599.629 C455.714,604.463 455.125,610.891 454.199,616.01 C453.526,619.566 452.235,627.87 449.149,630.317 C443.96,625.938 441.604,608.19 437.621,605.146 C435.461,607.137 435.292,608.105 432.403,610.208 C430.692,611.46 428.7,612.911 426.316,613.707 C419.921,615.84 416.274,612.684 414.282,608.075 C412.768,604.549 409.43,597.552 409.065,593.571 C408.728,589.647 410.972,581.029 412.515,577.816 C417.593,578.838 419.584,586.744 426.597,588.025 C430.075,588.65 434.396,587.91 437.032,586.404 C439.837,584.81 439.78,581.711 440.229,577.928 C442.024,562.257 441.772,547.894 441.856,532.053 C441.94,516.894 443.399,501.421 444.382,486.32 C444.858,478.84 445.363,471.388 445.756,463.88 C445.952,459.698 446.766,445.905 445.868,441.696 L445.644,440.927 C444.774,441.383 445.447,440.927 444.718,441.582 C444.353,441.894 444.298,441.98 443.989,442.35 L440.454,447.896 C435.405,459.158 448.813,461.689 436.948,475.91 C435.377,477.758 433.133,480.062 430.103,481.257 C426.737,482.622 424.128,480.033 421.8,478.384 C416.33,474.431 417.452,469.369 416.555,459.784 C415.124,444.654 415.544,448.947 421.183,441.099 C423.063,438.51 424.072,436.349 425.924,433.732 C430.608,427.077 449.487,403.642 449.88,398.522 C427.915,396.73 436.106,386.889 427.915,379.58 C425.251,377.248 422.081,377.077 422.698,371.958 C432.123,371.446 434.62,377.732 440.342,380.746 C447.13,384.301 456.106,379.552 456.443,372.84 C456.752,366.441 449.739,356.06 451.618,351.935 C453.358,348.125 460.202,339.592 464.915,339.336 C466.345,342.92 466.121,346.844 467.663,350.485 C468.981,353.613 471.339,355.462 474.087,357.197 C497.005,371.702 483.456,375.257 472.993,384.244 C467.327,389.136 462.503,389.194 462.643,400.399 C467.72,398.693 472.825,389.677 480.315,383.562 C483.709,380.803 486.009,377.874 489.011,375.058 C491.815,372.442 494.985,369.711 498.128,367.009 C506.599,359.672 511.985,351.196 518.521,355.889 C522.279,358.563 532.21,368.887 532.126,376.367 C530.947,379.609 523.653,377.561 517.679,387.344 C515.884,390.331 514.593,392.208 512.405,394.739 C510.582,396.844 507.861,399.261 506.458,401.224 C514.284,399.091 512.826,392.919 524.3,398.863 C529.938,401.764 535.575,405.035 538.241,410.183 C542.336,418.146 534.706,422.64 530.583,425.854 C528.058,427.817 525.954,429.579 523.514,431.4 C521.13,433.22 517.96,434.784 516.249,436.918 C518.437,441.24 544.132,453.897 523.71,458.134 C513.135,460.325 511.312,454.466 505.729,458.163 C503.261,459.784 496.332,467.178 495.21,470.079 C503.204,472.838 514.678,478.185 517.876,483.732 C523.542,493.6 506.122,497.042 498.492,498.663 C496.388,504.522 492.966,515.273 492.237,521.501 C496.612,519.311 499.95,511.234 506.149,512.969 C509.741,513.993 516.136,520.734 518.604,523.179 C525.365,529.892 523.598,529.038 520.176,537.911 C518.38,542.547 518.296,553.383 518.212,559.015 C517.903,578.583 522.784,563.851 545.702,577.103 C553.641,581.711 563.263,595.789 562.084,606.425 Z M324.687,593.798 L286.931,593.827 C286.931,588.679 286.958,583.501 286.958,578.355 C286.958,568.286 286.229,571.387 289.932,566.467 C294.195,560.807 296.972,553.298 306.146,553.383 C311.167,553.412 313.888,555.659 315.851,558.332 C317.646,560.779 324.491,569.141 324.687,571.7 L324.687,593.798 Z M223.058,593.827 L185.272,593.685 C185.272,588.566 185.329,583.446 185.329,578.355 C185.329,570.107 184.29,571.813 188.218,566.638 C192.538,560.921 195.063,553.383 204.291,553.383 C213.015,553.383 216.044,561.319 220.224,566.779 C223.786,571.444 223.001,568.116 223.001,578.838 C223.001,583.844 223.058,588.849 223.058,593.827 Z M83.839,593.798 C83.839,588.65 83.896,583.501 83.896,578.355 C83.896,568.827 83.026,571.529 86.784,566.552 C92.282,559.242 94.022,553.355 102.942,553.355 C111.442,553.383 114.921,561.29 118.847,566.779 C120.446,568.969 121.429,568.599 121.624,571.7 L121.652,593.827 L83.839,593.798 Z M950.761,553.099 C942.178,553.099 893.593,554.066 889.441,552.73 L889.441,493.146 C882.036,494.341 874.321,499.488 869.777,503.185 C861.782,509.755 859.903,517.349 857.575,519.709 C855.499,516.581 854.462,513.481 852.273,510.494 C846.495,502.616 835.864,494.681 825.989,493.203 C825.989,500.654 826.495,550.141 825.709,553.127 L788.009,553.042 L788.009,493.146 C780.406,494.454 773.028,499.403 768.372,503.156 C760.743,509.214 758.302,517.548 756.226,519.709 C754.095,516.581 753.112,513.481 750.896,510.494 C744.305,501.649 736.31,496.246 724.557,493.117 L724.304,553.127 L686.688,553.042 L686.659,493.174 C679.45,494.283 671.372,499.602 667.023,503.156 C659.001,509.669 657.262,517.093 654.878,519.738 C652.802,516.751 651.651,513.481 649.548,510.494 C643.993,502.673 632.829,494.653 623.235,493.203 L623.235,552.644 L598.157,552.7 L598.157,315.645 C595.241,316.47 562.562,345.223 558.073,347.414 L558.073,231.232 C557.399,231.687 557.287,231.715 556.839,232.199 C556.024,233.024 556.417,232.569 555.885,233.62 C554.595,234.076 535.94,255.719 533.415,258.307 C532.294,259.473 531.677,260.327 530.61,261.578 C526.628,266.357 513.358,280.236 511.479,283.393 C510.666,282.283 510.61,281.06 510.47,279.638 C510.302,278.217 510.161,276.994 510.021,275.6 L483.372,43.066 C481.886,30.211 483.288,29.898 478.772,30.068 L449.88,283.109 C448.196,282.71 439.78,272.216 437.845,270.31 L420.285,250.458 C418.153,248.069 416.47,246.022 414.255,243.86 C410.411,240.049 406.877,234.787 402.585,231.146 L402.558,347.414 C398.657,345.451 365.306,316.384 362.584,315.588 L362.584,552.615 L337.534,552.644 L337.423,493.203 C331.671,493.714 321.63,499.914 318.151,503.015 C308.306,511.775 308.529,516.864 305.612,519.908 C302.835,512.542 297.981,506.996 293.354,502.816 C290.044,499.828 280.423,493.799 274.083,493.259 L274.083,553.099 L236.214,553.099 L236.073,493.174 C230.294,493.799 220.309,499.857 216.746,502.958 C212.735,506.512 209.425,510.437 206.844,515.301 C206.003,516.837 205.329,518.771 204.235,519.851 C201.29,512.486 196.745,507.025 191.977,502.816 C188.61,499.828 179.046,493.998 172.733,493.231 L172.733,553.099 L134.78,553.099 L134.696,493.231 C128.862,493.544 119.044,500.029 115.397,502.987 C106.954,509.868 104.653,518.031 102.942,519.709 C97.977,511.204 98.735,510.353 90.571,502.844 C87.009,499.573 78.117,494.254 71.329,493.203 L71.3,553.099 L9.784,553.213 L9.896,658.928 C21.51,660.066 32.59,660.265 43.782,661.573 C65.522,664.106 84.54,667.403 105.888,672.011 C110.796,673.064 132.396,678.979 135.313,678.809 C136.632,680.287 147.769,682.789 150.573,683.672 C155.735,685.293 160.868,686.772 165.945,688.45 C197.783,699.144 220.757,709.325 250.828,724.486 C255.513,726.845 259.44,729.348 263.815,731.68 C278.149,739.246 299.693,753.693 312.821,763.363 C316.664,766.208 343.846,787.339 345.781,790.411 C351.56,790.411 360.509,789.472 364.296,792.572 C365.978,793.938 367.212,796.981 366.819,800.11 C366.399,803.322 364.548,805.456 364.407,808.187 L371.027,814.785 C375.993,809.097 380.06,797.834 395.685,792.232 C408.364,787.681 424.212,787.624 437.341,791.805 C442.362,793.398 450.356,796.497 452.544,800.28 C454.479,803.664 453.722,818.112 453.694,823.062 C453.666,831.081 449.179,835.604 440.987,833.413 C436.751,832.277 435.152,828.466 426.372,823.772 C420.117,820.446 412.319,822.606 409.065,826.674 C405.334,831.365 404.044,838.504 404.577,845.957 C405.727,861.855 417.593,868.424 431.169,859.238 C435.714,856.168 438.911,850.621 446.766,851.901 C454.704,853.209 453.694,861.002 453.694,868.822 C453.694,877.241 455.265,884.637 449.206,888.248 C444.353,891.15 437.425,893.594 431.562,894.932 C432.207,896.779 434.227,899.768 435.321,901.673 C444.269,917.258 451.591,933.385 458.911,949.993 C463.26,959.834 466.626,969.789 470.385,980.084 C471.787,983.895 479.782,1010.43 480.259,1011 L484.747,994.988 C495.238,960.005 507.553,933.156 524.495,901.474 C525.646,899.311 527.272,897.236 528.002,895.017 C521.101,894.874 515.183,894.989 515.042,884.637 C514.931,876.757 515.21,868.851 515.015,860.973 C513.274,862.423 509.993,868.965 508.899,870.9 L497.033,891.434 C494.536,895.074 489.88,894.989 484.271,894.989 C473.218,894.989 462.11,897.691 461.521,885.148 C461.044,874.738 461.521,863.077 461.521,852.555 L461.521,804.234 C461.521,798.402 461.717,794.449 465.588,791.861 C469.038,789.558 491.143,789.644 495.294,791.549 C502.363,794.734 499.642,810.974 499.979,819.507 C502.055,816.946 504.972,811.543 506.88,808.328 C515.099,794.506 514.537,790.354 525.927,790.411 C540.288,790.469 552.603,787.227 553.079,800.137 C553.416,809.61 552.322,853.351 553.36,856.11 C554.763,855.001 555.66,853.464 556.586,852.1 L562.729,844.079 C563.823,842.714 564.86,841.634 565.815,840.467 C566.067,832.589 565.871,824.37 565.871,816.435 C565.871,810.434 564.524,797.834 567.47,793.938 C571.229,788.988 580.233,790.411 587.639,790.411 C596.952,790.411 601.917,789.245 604.272,798.147 L637.205,770.02 C640.347,767.801 643.096,765.526 646.069,763.222 L672.942,744.707 C676.056,742.858 679.001,740.667 682.508,738.62 C685.762,736.715 688.847,734.809 692.017,733.046 C715.411,719.905 726.437,714.502 753.028,702.784 C793.927,684.752 851.601,669.593 896.118,663.109 C907.366,661.459 941.056,657.138 950.958,658.019 L950.761,553.099 L950.761,553.099 Z" id="Fill-17" fill="#D8232A"></path>
            <path d="M125.112,394.284 C135.716,366.668 143.515,354.752 156.446,331.941 L171.453,309.502 L196.503,278.444 C199.953,274.946 202.421,271.959 205.535,268.774 C212.745,261.436 228.565,245.68 237.036,239.167 C238.019,238.428 238.692,237.801 239.533,237.091 C272.886,209.815 310.952,187.859 352.552,173.127 C367.952,167.666 395.021,159.304 411.206,157.598 C412.356,155.977 420.744,139.851 420.968,137.917 C399.257,140.334 374.964,146.99 355.076,153.303 C241.946,189.366 148.675,280.833 106.431,393.118 C102.194,404.352 88.31,446.36 88.3936205,456.598 C93.19,455.433 103.429,453.556 107.216,451.679 C110.694,432.48 118.717,410.923 125.112,394.284" id="Fill-18" fill="#D8232A"></path>
            <path d="M631.044,185.385 C645.995,192.41 665.294,202.25 678.702,211.295 C686.417,216.499 693.261,221.078 700.442,226.397 C722.911,243.063 734.749,255.264 753.487,274.348 C754.581,275.458 754.638,275.77 755.507,276.88 C756.32,277.875 757.106,278.444 758.06,279.411 L774.722,299.632 C788.187,317.807 793.067,325.059 804.231,344.001 C813.376,359.472 821.259,376.309 828.3,393.857 C832.535,404.466 845.271,439.989 845.915,450.285 L864.878,455.604 C865.187,451.053 858.847,428.783 857.333,423.465 C854.443,413.397 851.021,402.788 847.179,393.062 C823.896,334.388 795.199,289.934 751.411,246.447 C722.378,217.609 693.906,198.297 658.253,178.587 C633.989,165.192 599.093,152.194 571.042,145.397 C563.132,143.463 545.263,138.884 537.634,138.826 C538.896,142.297 545.46,155.607 547.535,158.508 C572.08,162.177 608.267,174.663 631.044,185.385" id="Fill-19" fill="#D8232A"></path>
            <path d="M464.784,503.555 C463.382,497.013 472.021,487.656 474.771,484.243 C486.3,469.852 480.465,474.488 479.399,464.249 C472.526,462.742 465.065,460.695 464.392,454.21 C466.327,451.934 467.478,452.362 469.469,450.37 C470.787,449.061 472.274,447.071 473.733,446.217 C477.099,447.213 477.323,450.569 481.222,448.094 C482.709,439.563 465.485,447.014 465.345,427.759 C465.317,421.502 467.533,417.606 470.815,415.132 C472.667,413.738 474.35,412.856 476.146,411.378 C478.474,409.471 477.52,408.05 480.269,406.997 C482.008,410.097 482.231,416.838 484.083,419.37 C486.468,414.477 481.278,408.107 481.503,404.296 C481.615,402.532 484.476,400.371 485.823,399.319 C488.6,397.186 489.329,397.469 493.313,397.64 C496.481,394.284 498.895,387.999 500.073,383.506 C495.894,384.273 483.466,393.431 481.251,395.706 C476.062,400.968 471.376,405.291 466.411,411.178 C452.526,427.617 457.519,438.425 456.537,462.286 C455.472,488.367 454.546,558.105 457.463,582.052 L470.563,574.772 C467.169,567.262 469.722,565.613 471.124,557.365 C472.161,551.193 473.031,545.363 474.35,539.306 C476.117,531.284 481.53,509.812 482.372,503.896 C476.847,504.294 468.684,506.939 464.784,503.555" id="Fill-20" fill="#D8232A"></path>
            <path d="M501.84,428.158 C502.12,430.745 502.288,430.745 503.019,431.571 C504.14,428.783 508.18,424.033 510.228,420.479 C512.388,416.78 514.996,412.003 514.154,406.571 C510.563,406.685 505.094,415.046 500.718,416.924 L501.84,428.158" id="Fill-21" fill="#D8232A"></path>
            <path d="M488.291,540.13 C489.049,539.788 493.621,535.238 496.679,539.306 C500.83,544.879 497.492,545.163 501.812,546.757 C504.813,537.626 504.477,534.47 501.812,525.484 C498.249,526.99 489.918,536.091 488.291,540.13" id="Fill-22" fill="#D8232A"></path>
            <path d="M486.271,479.494 L484.981,480.859 C482.934,483.76 480.465,487.685 479.988,491.154 C489.862,489.79 489.188,481.712 486.271,479.494" id="Fill-23" fill="#D8232A"></path>
            <path d="M500.493,556.029 C500.382,556.142 500.073,556.484 499.96,556.626 C499.483,557.251 499.343,557.65 499.063,558.246 C497.043,562.485 496.427,565.472 496.735,570.335 C500.858,570.107 500.466,568.769 500.942,564.675 C501.335,561.29 501.644,558.845 501.476,555.261 C500.382,555.943 501.278,555.261 500.493,556.029" id="Fill-24" fill="#D8232A"></path>
            <path d="M493.228,673.091 C495.332,672.779 499.175,672.182 500.605,670.93 C499.904,668.484 499.175,668.171 497.548,666.636 C496.118,665.298 495.388,664.019 493.733,663.308 L493.228,673.091" id="Fill-25" fill="#D8232A"></path>
            <path d="M466.72,360.809 L464.251,370.535 C469.021,369.882 467.981,368.915 470.675,367.237 C470.647,362.999 470.619,361.577 466.72,360.809" id="Fill-26" fill="#D8232A"></path>
            <path d="M487.226,466.808 C491.068,460.409 493.565,461.291 494.322,457.224 L482.4,463.481 C483.466,464.761 485.626,466.127 487.226,466.808" id="Fill-27" fill="#D8232A"></path>
            <path d="M488.432,554.265 C486.524,554.294 484.813,557.138 484.252,559.015 C483.438,561.631 483.69,564.59 484.083,567.376 C486.636,566.495 488.908,558.105 488.432,554.265" id="Fill-28" fill="#D8232A"></path>
            <path d="M484.784,441.724 C485.346,441.154 485.149,441.611 485.57,440.785 C486.411,439.136 487.085,431.628 485.29,428.812 C484.027,430.404 483.298,436.434 483.41,438.966 C483.551,441.98 484.308,441.411 484.784,441.724" id="Fill-29" fill="#D8232A"></path>
            <path d="M495.36,407.452 C498.054,408.988 498.53,408.363 500.466,406.514 C501.728,405.291 503.606,403.499 504.448,401.793 C500.157,402.304 496.679,404.296 495.36,407.452" id="Fill-30" fill="#D8232A"></path>
            <path d="M504.364,483.219 C503.354,481.115 502.261,480.688 499.007,480.432 L500.325,485.751 C503.13,485.409 503.354,485.467 504.364,483.219" id="Fill-31" fill="#D8232A"></path>
            <path d="M486.86,599.259 C486.243,601.62 487.226,600.738 487.281,600.822 C488.993,600.454 489.161,600.14 488.291,598.35 C487.253,598.49 487.226,597.894 486.86,599.259" id="Fill-32" fill="#D8232A"></path>
            <path d="M714.688,89.94 L722.515,94.576 L709.724,117.983 C707.395,117.5 697.437,111.669 696.118,110.191 C705.459,104.275 711.967,92.557 714.688,89.94 Z M683.72,125.264 L688.544,116.646 L709.386,128.364 L704.533,137.636 L713.594,142.698 C714.884,141.276 722.401,127.823 722.795,126.003 L719.653,124.041 L736.904,92.529 L709.667,76.743 C708.404,77.938 705.487,83.313 704.337,85.02 C699.737,91.817 694.463,98.302 688.235,103.336 C685.907,105.185 686.104,104.588 683.522,103.62 C682.345,104.872 674.771,118.608 674.294,120.6 C677.437,121.709 680.409,124.467 683.72,125.264 L683.72,125.264 Z" id="Fill-33" fill="#2F5595"></path>
            <path d="M601.81,47.108 L596.228,66.704 C587.757,63.547 590.28,46.198 601.81,47.108 Z M612.862,50.322 C617.099,51.829 619.174,56.465 617.378,62.495 C615.864,67.529 613.507,69.946 607.421,70.06 L612.862,50.322 Z M594.067,74.668 L593.058,79.19 L604.026,82.404 L605.316,77.823 C618.052,79.048 626.13,75.834 628.964,65.14 C631.993,53.536 623.661,44.691 615.163,42.614 L616.116,38.177 C613.815,37.239 607.505,35.362 605.261,35.305 L603.998,39.23 C591.263,37.722 582.763,41.249 580.183,52.284 C577.181,65.026 586.073,70.714 594.067,74.668 L594.067,74.668 Z" id="Fill-34" fill="#2F5595"></path>
            <path d="M850.091,262.378 C852.11,265.393 857.553,272.702 858.618,275.575 L850.708,281.206 L856.206,289.881 C858.45,289.312 869.054,281.689 871.747,279.642 C871.409,277.765 870.849,277.708 870.091,276.087 L884.594,265.763 C888.577,263.146 895.646,257.487 899.321,255.809 C898.647,253.817 894.44,247.845 893.317,246.053 C891.103,246.707 881.031,254.073 878.339,255.865 C875.169,258.027 865.94,265.109 862.995,266.076 C861.396,262.321 856.458,257.344 855.364,253.476 C859.376,251.912 878.171,237.549 884.622,233.795 C883.864,231.633 879.853,225.689 878.226,224.182 C874.075,226.201 845.21,247.276 841.536,249.011 C842.405,251.542 848.323,259.79 850.091,262.378" id="Fill-35" fill="#2F5595"></path>
            <path d="M878.002,308.31 C882.63,308.509 908.101,309.647 910.233,310.529 L885.38,323.241 L890.316,333.452 C896.909,331.433 925.24,314.482 930.065,313.6 C929.167,309.448 926.39,306.234 925.044,302.452 L895.45,300.347 L917.807,288.515 L912.897,278.561 C907.849,279.556 879.938,296.223 873.093,298.413 C873.542,300.29 876.796,307.059 878.002,308.31" id="Fill-36" fill="#2F5595"></path>
            <path d="M930.71,352.195 C936.349,350.545 938.985,356.831 939.63,361.752 L928.803,365.392 C927.737,360.272 924.034,354.157 930.71,352.195 Z M918.06,352.65 C914.776,352.877 901.257,347.673 896.376,346.877 C896.88,349.408 898.367,352.935 899.265,355.466 C901.06,360.528 900.218,359.647 905.38,360.983 C908.493,361.808 911.327,362.604 914.524,363.43 C918.9,364.538 920.274,363.884 920.976,368.691 C918.339,369.288 907.849,373.013 906.138,374.293 L909.7,384.817 L951.58,369.771 C951.019,366.132 948.157,359.447 946.784,355.608 C945.101,350.915 943.222,345.54 940.22,342.951 C933.235,336.894 919.826,339.368 918.06,352.65 L918.06,352.65 Z" id="Fill-37" fill="#2F5595"></path>
            <path d="M841.647,200.575 L834.157,212.293 C832.615,210.502 830.034,208.141 829.024,205.923 L841.647,200.575 Z M811.997,213.431 C815.167,212.92 817.692,210.502 821.058,209.961 C822.012,211.668 823.778,213.318 825.126,214.967 C826.724,216.958 828.015,218.124 829.417,220.143 L824.788,228.221 L831.325,236.128 C832.446,237.151 831.465,236.497 832.56,236.951 C834.69,234.136 855.757,197.277 856.094,195.684 C853.148,192.982 850.904,189.455 848.128,186.696 L804.788,204.672 C805.657,206.406 810.427,212.037 811.997,213.431 L811.997,213.431 Z" id="Fill-38" fill="#2F5595"></path>
            <path d="M669.834,97.022 L652.694,89.969 L656.538,79.873 L672.442,86.414 L676.005,78.28 L660.409,71.653 C660.493,69.349 661.755,66.704 662.962,64.884 L679.989,71.823 C681.447,70.031 682.794,66.249 683.438,63.945 C682.288,62.864 657.744,52.427 655.388,52.085 L638.558,93.382 C640.464,94.832 663.579,104.559 666.665,105.327 L669.834,97.022" id="Fill-39" fill="#2F5595"></path>
            <path d="M756.933,161.099 L761.927,153.961 L746.946,142.812 C747.452,141.446 748.882,139.712 749.892,138.347 C751.154,136.697 751.94,135.105 753.286,134.223 C756.231,135.986 764.843,143.352 767.34,143.893 C768.911,142.044 770.902,139.286 772.053,137.209 C771.043,135.816 760.187,128.194 758.476,126.856 C759.261,124.894 761.169,122.078 762.823,120.969 L777.747,131.863 C779.374,129.928 782.067,126.543 782.853,124.44 L758.896,106.749 C757.241,107.801 735.418,138.688 732.36,142.869 C733.37,144.291 754.772,160.218 756.933,161.099" id="Fill-40" fill="#2F5595"></path>
            <g id="Group-44" transform="translate(0.000000, 139.000000)">
                <mask id="mask-2" fill="white">
                    <use xlink:href="#path-1"></use>
                </mask>
                <g id="Clip-42"></g>
                <path d="M803.442,15.189 C806.499,16.696 811.717,22.213 807.762,26.991 C803.161,32.537 797.972,27.39 795.11,24.574 C796.093,23.01 801.759,16.61 803.442,15.189 Z M779.374,41.525 C782.319,39.164 786.556,32.708 789.585,31.201 C795.194,40.444 813.26,45.364 819.796,30.063 C823.892,20.45 813.877,12.004 807.622,6.713 C805.294,4.75 803.302,2.334 800.945,0.768 C799.065,2.021 795.139,6.912 793.399,8.874 L770.987,33.817 C772.306,35.637 777.382,40.33 779.374,41.525 L779.374,41.525 Z" id="Fill-41" fill="#2F5595" mask="url(#mask-2)"></path>
                <path d="M45.471,236.858 L19.468,226.904 L38.599,225.652 L41.067,218.485 L27.435,204.976 L53.298,214.446 C54.56,212.996 56.915,206.113 57.309,203.724 L15.792,188.053 C14.698,190.3 11.669,198.235 11.22,200.738 C13.521,202.9 26.845,215.101 27.546,217.234 L4.292,218.912 L0,231.169 L41.74,246.983 L45.471,236.858" id="Fill-43" fill="#2F5595" mask="url(#mask-2)"></path>
            </g>
            <path d="M178.854,134.592 C181.519,138.688 175.937,142.783 173.749,143.665 C172.402,142.443 169.177,138.148 168.419,136.783 C170.888,134.877 175.628,129.587 178.854,134.592 Z M190.917,154.103 C189.683,155.383 186.933,157.914 185.278,158.511 C184.016,157.345 179.499,151.401 178.938,150.093 C180.538,148.756 183.202,146.509 184.97,145.542 C190.552,142.414 195.825,149.041 190.917,154.103 Z M181.042,172.561 C183.763,171.737 199.5,159.194 202.081,154.758 C207.046,146.196 202.333,131.947 187.858,136.072 C189.036,130.383 189.036,127.767 185.306,123.956 C178.321,116.818 169.597,124.553 163.622,129.502 C160.452,132.118 157.143,134.365 154.197,137.209 C155.095,139.172 159.134,144.007 160.649,145.912 C163.79,149.865 179.667,169.717 181.042,172.561 L181.042,172.561 Z" id="Fill-45" fill="#2F5595"></path>
            <path d="M357.905,41.562 L360.598,52.881 C355.353,53.706 348.816,56.323 347.667,49.411 C346.769,43.866 353.165,42.045 357.905,41.562 Z M340.766,59.935 C343.122,61.812 345.058,61.584 347.161,62.921 L339.363,83.91 C342.646,83.456 345.675,82.404 348.732,81.664 C354.427,80.27 353.024,79.161 357.344,66.988 C358.915,62.58 357.989,61.812 362.813,61.015 L366.966,76.658 L377.878,73.956 C377.765,70.06 373.726,56.949 372.491,52.142 C370.696,45.231 368.256,37.154 366.909,30.242 C360.738,31.01 342.646,35.817 338.858,40.083 C333.81,45.8 335.044,55.299 340.766,59.935 L340.766,59.935 Z" id="Fill-46" fill="#2F5595"></path>
            <path d="M52.231,291.928 C73.13,298.47 67.659,318.265 51.782,313.203 C46.481,311.524 39.384,306.775 38.374,301.541 C36.831,293.55 44.461,289.51 52.231,291.928 Z M58.907,325.034 C65.163,323.583 69.175,319.744 71.782,315.193 C74.727,310.074 76.944,303.219 74.532,296.28 C70.856,285.643 56.243,277.793 45.583,280.211 C38.683,281.775 35.513,284.988 32.399,289.994 C19.215,311.127 42.946,328.646 58.907,325.034 L58.907,325.034 Z" id="Fill-47" fill="#2F5595"></path>
            <path d="M135.599,166.531 C142.247,164.512 149.231,172.22 151.589,175.434 C155.908,181.321 155.769,189.853 148.362,191.873 C137.255,194.916 119.694,171.424 135.599,166.531 Z M146.034,202.566 C156.441,201.173 168.026,188.886 164.521,175.576 C162.052,166.248 150.326,153.989 138.096,155.809 C127.185,157.43 115.823,169.376 119.329,182.658 C121.91,192.384 133.327,204.273 146.034,202.566 L146.034,202.566 Z" id="Fill-48" fill="#2F5595"></path>
            <path d="M113.522,245.427 C115.065,244.062 119.862,238.033 120.536,236.355 C119.245,235.615 108.024,226.372 107.184,225.206 L108.502,223.3 L130.186,225.49 C131.981,221.906 136.021,218.493 138.096,215.052 C136.44,214 113.663,212.464 111.335,212.152 L107.969,203.391 C105.276,197.22 108.558,197.845 109.681,194.006 C107.212,192.697 104.715,190.081 102.387,188.289 C99.161,190.792 94.814,196.395 96.496,202.822 C98.179,209.165 102.864,212.237 100.563,219.261 C98.655,218.835 99.694,219.347 96.749,216.787 L86.285,208.141 C84.911,209.364 79.749,215.592 79.104,217.071 C81.685,220.058 112.85,245.228 113.522,245.427" id="Fill-49" fill="#2F5595"></path>
            <path d="M247.579,99.468 C250.301,105.042 255.658,114.4 257.341,119.633 L267.665,114.712 C266.963,110.191 260.988,102.568 260.202,98.216 C263.429,96.795 265.392,99.127 268.31,100.833 C270.919,102.312 273.667,103.962 276.304,105.441 C280.567,107.886 279.895,108.541 284.552,106.094 C285.87,105.383 287.216,104.729 288.563,104.047 C290.329,103.165 291.647,102.796 292.714,101.459 C290.273,100.435 270.245,89.115 269.207,87.864 C270.161,84.223 269.544,81.493 269.769,77.711 C270.049,73.7 271.899,73.445 274.705,71.568 C274.313,69.121 271.76,65.111 270.89,62.722 C251.114,67.984 264.858,86.158 256.079,90.225 L248.057,74.213 L237.846,79.132 C238.463,81.806 241.155,86.385 242.559,89.314 C244.27,92.869 245.841,95.969 247.579,99.468" id="Fill-50" fill="#2F5595"></path>
            <path d="M313.304,75.122 L305.618,77.853 L304.86,64.002 C306.263,64.969 312.799,73.729 313.304,75.122 Z M306.739,96.567 L306.235,86.954 L318.718,82.176 C320.709,83.655 322.757,87.295 324.776,89.428 L335.521,85.589 C334.482,83.143 323.458,70.003 320.878,66.874 C318.465,63.888 307.385,50.606 306.375,48.558 L294.369,52.824 L295.968,100.264 C297.932,100.321 304.3,97.307 306.739,96.567 L306.739,96.567 Z" id="Fill-51" fill="#2F5595"></path>
            <path d="M67.07,273.328 C88.838,287.947 103.509,268.152 104.014,253.191 C102.751,252.054 101.181,251.059 99.61,250.007 L95.991,247.675 C91.979,246.537 98.544,258.538 90.185,264.625 C80.086,271.963 62.667,258.823 67.435,247.702 C70.941,239.54 77.758,241.104 80.759,237.89 C79.722,236.326 73.999,232.714 71.867,231.662 C60.759,235.729 45.779,259.022 67.07,273.328" id="Fill-52" fill="#2F5595"></path>
            <path d="M244.718,125.206 C246.794,122.221 246.036,122.078 244.13,119.263 C242.951,117.471 242.054,114.428 239.978,113.859 C238.688,115.424 237.986,119.149 236.499,121.481 C225.363,139.058 204.577,115.224 213.919,103.649 C219.81,96.367 224.915,100.805 231.142,99.269 C230.553,96.738 226.99,91.618 225.419,89.741 C208.813,89.286 188.419,109.394 208.532,131.436 C219.669,143.637 235.826,138.005 244.718,125.206" id="Fill-53" fill="#2F5595"></path>
            <path d="M892.027,459.93 L883.809,458.565 C882.519,458.109 883.388,458.507 882.799,458.082 C881.733,456.232 879.657,443.945 878.928,440.704 C866.192,384.845 837.805,323.185 802.628,278.96 C796.093,270.712 790.146,262.748 783.133,255.495 L751.042,222.903 C749.864,221.793 749.415,221.736 748.265,220.627 C746.862,219.29 746.722,219.062 745.376,217.982 C739.962,213.715 733.454,207.544 727.367,203.164 C703.636,185.957 690.283,175.946 661.307,161.242 C623.606,142.129 572.917,124.865 529.747,120.628 C528.12,118.467 521.667,104.189 520.657,101.259 C525.538,100.776 553.534,105.981 560.042,107.261 C572.721,109.707 585.035,113.176 597.126,116.419 C628.515,124.809 665.795,141.532 693.565,158.085 C708.32,166.873 734.576,184.962 748.013,196.48 L786.948,232.287 C788.183,233.738 788.099,234.221 789.585,235.729 L800.776,247.759 C802.04,249.068 802.067,249.551 803.189,250.916 C839.011,294.887 861.339,330.892 881.901,387.32 C885.997,398.526 889.868,411.353 892.813,423.013 C896.151,436.096 898.647,448.041 901.257,461.152 C899.152,460.612 894.749,460.3 892.027,459.93 Z M865.435,455.038 L846.472,449.719 C826.753,443.007 813.597,438.628 794.69,428.957 C786.556,424.805 778.532,420.34 770.874,415.96 C758.588,408.935 738.11,394.913 727.059,386.097 C713.341,375.147 699.961,364.396 687.618,351.825 C684.589,348.725 681.503,345.226 678.333,342.411 C677.155,341.33 676.763,341.444 675.837,340.363 C675.108,339.51 674.911,338.941 673.845,337.804 L660.241,323.64 C658.866,322.076 657.491,320.483 655.893,318.863 L645.093,306.462 C644.335,305.524 644.111,304.926 643.186,303.788 C629.02,286.753 619.847,274.381 607.336,256.69 C593.45,237.122 581.333,217.242 569.299,196.622 C569.243,196.537 569.158,196.395 569.103,196.31 C569.046,196.224 568.962,196.082 568.905,195.997 L561.163,182.43 C556.731,174.212 552.327,166.191 548.092,157.943 C546.017,155.042 539.452,141.732 538.19,138.261 C545.819,138.319 563.688,142.897 571.599,144.832 C599.649,151.629 634.546,164.626 658.81,178.022 C694.463,197.732 722.935,217.044 751.968,245.882 C795.756,289.369 824.452,333.822 847.735,392.496 C851.577,402.223 855,412.831 857.89,422.9 C859.403,428.218 865.743,450.488 865.435,455.038 Z M432.156,115.85 C429.659,121.68 431.511,119.575 415.55,121.908 C345.675,132.203 281.017,161.527 226.148,204.102 C211.843,215.222 190.019,234.762 179.079,247.418 C171.87,255.78 165.193,262.264 157.844,271.678 C151.28,280.068 144.659,288.373 138.46,297.787 C132.43,306.946 126.735,315.761 120.9,325.801 C99.413,362.974 78.544,415.931 71.951,459.332 L53.466,461.665 C53.661,456.318 60.45,428.588 61.741,423.526 C67.323,401.91 76.608,374.635 85.921,354.413 L101.686,323.1 C109.54,308.993 123.173,287.236 133.608,273.528 L161.126,239.91 C163.174,238.175 162.612,237.805 165.39,235.074 C172.347,228.192 177.816,221.424 186.035,214.797 C187.887,213.289 191.954,208.881 196.555,205.126 C197.144,204.643 197.509,204.217 198.153,203.704 L207.804,195.655 C229.065,177.311 268.506,152.226 293.247,140.878 C333.949,122.164 373.501,109.565 418.103,103.165 C423.909,102.34 433.251,100.662 439.028,100.776 C437.122,105.782 434.261,110.987 432.156,115.85 Z M411.763,157.032 C410.753,160.019 401.075,177.311 398.888,181.35 C394.512,189.37 390.136,196.964 385.228,205.126 C380.515,212.947 376.026,220.456 371.032,228.363 C362.505,241.901 350.079,260.189 340.626,272.845 L307.497,314.511 C304.411,318.008 301.522,320.625 298.633,324.408 C295.099,329.015 271.198,353.048 266.401,357.343 L254.003,368.151 C253.077,368.89 252.265,369.715 251.339,370.539 C244.971,376.142 238.015,381.688 230.776,387.32 C212.685,401.398 181.743,421.506 161.827,430.407 C153.048,434.332 145.192,438.144 135.907,441.756 C130.214,443.974 112.85,450.402 107.772,451.113 C103.985,452.991 93.747,454.867 88.9496205,456.033 C88.866,445.795 102.751,403.787 106.987,392.553 C149.231,280.267 242.503,188.801 355.633,152.738 C375.521,146.425 399.813,139.768 421.524,137.351 C421.301,139.286 412.913,155.412 411.763,157.032 Z M902.884,461.209 C893.795,406.517 868.829,339.084 837.132,293.805 C834.046,289.397 831.241,284.562 827.706,280.04 C825.967,277.821 824.509,275.632 822.853,273.186 C816.233,263.345 805.153,250.603 796.905,241.019 C787.79,230.439 777.522,221.508 767.761,211.553 C763.385,207.061 754.016,199.524 749.106,195.371 C740.72,188.232 731.687,182.032 722.683,175.349 C705.235,162.351 685.655,151.457 664.532,140.707 C635.359,125.833 593.928,111.925 560.462,105.725 C548.232,103.478 531.962,99.723 519.788,99.611 C517.011,91.903 512.579,83.427 509.382,75.691 C504.837,64.741 479.675,3.935 480.32,0.55 C478.497,1.716 479.45,0.635 477.88,4.987 C467.501,33.684 454.626,67.586 441.862,94.661 C438.833,101.089 438.917,99.212 427.107,100.378 C382.786,104.758 326.095,122.306 288.058,141.703 C262.615,154.672 242.194,167.926 219.696,184.308 C214.423,188.147 197.901,201.116 192.964,206.065 C191.589,207.43 190.552,208.226 189.261,209.393 C187.046,211.383 184.464,213.858 182.305,216.076 C180.649,217.811 180.2,217.925 178.489,219.347 C174.759,222.389 171.562,226.344 168.167,229.728 L161.519,237.236 C158.377,240.763 154.45,244.318 151.645,248.1 C150.495,249.665 149.821,250.519 148.503,252.026 C141.013,260.387 130.438,274.437 124.491,283.624 C112.036,302.822 104.603,312.576 93.157,335.842 C79.188,364.283 70.97,385.357 62.161,416.273 C58.402,429.441 55.345,442.78 52.792,456.09 L51.95,460.413 C51.446,461.522 51.755,461.01 51.024,461.636 C48.921,463.115 15.681,462.261 9.425,463.087 L9.313,545.025 L63.62,545.167 C64.013,535.526 63.677,525.259 63.677,515.702 C63.677,509.247 62.302,491.385 65.752,487.603 C70.464,482.455 81.909,488.342 86.706,491.044 C95.963,496.248 101.265,503.928 103.228,504.81 C106.427,497.443 132.29,479.071 139.583,487.745 C142.978,491.783 141.603,508.507 141.603,515.191 C141.603,524.661 141.042,535.924 141.687,545.167 L164.969,545.167 C165.39,535.554 165.024,525.259 165.024,515.702 C165.024,493.063 160.79,476.568 188.026,491.044 C195.124,494.798 199.584,499.49 203.903,504.838 C205.335,503.558 205.728,502.675 207.157,501.255 C210.776,497.613 214.676,494.173 219.472,491.357 C224.157,488.627 235.742,482.398 240.735,487.461 C244.382,491.101 242.979,508.592 242.979,515.191 C242.979,524.831 242.53,535.64 243.035,545.111 L266.374,545.167 C266.599,535.383 266.401,525.43 266.401,515.702 C266.401,493.831 262.167,475.771 289.403,491.044 C295.856,494.656 301.663,499.69 305.253,504.924 C311.593,498.95 311.003,497.045 320.794,491.328 C325.506,488.57 337.119,482.455 342.112,487.461 C346.067,491.443 344.328,508.364 344.328,515.191 C344.328,525.003 343.991,535.441 344.384,545.14 L354.37,545.111 L354.847,540.645 C354.175,466.898 355.1,393.093 354.847,319.345 C354.819,313.004 355.38,308.083 362.394,308.14 C366.853,308.168 370.612,312.491 373.978,315.25 C378.719,319.118 389.687,328.987 394.876,331.974 C395.83,308.481 394.933,280.552 394.933,256.264 C394.933,248.812 394.287,237.834 394.989,230.837 C395.802,222.931 403.433,221.508 409.042,227.282 L432.998,253.874 C435.466,256.462 442.282,265.621 444.976,266.787 C451.849,205.838 460.403,145.002 468.006,84.081 C469.1,75.236 474.29,27.711 476.225,23.189 L483.126,23.104 C486.239,34.168 490.026,69.064 491.878,82.802 C494.599,103.109 497.292,123.358 500.068,143.694 C502.817,163.916 505.511,184.308 508.231,204.529 C510.979,225.064 513.926,245.655 515.776,266.104 C516.675,265.534 516.085,265.99 516.786,265.307 C520.687,261.611 524.08,256.747 527.755,252.964 L551.038,226.713 C555.834,222.134 564.39,222.561 564.866,231.406 C565.708,247.049 564.866,265.251 564.866,281.178 C564.866,298.072 564.866,314.937 564.895,331.802 C567.251,330.864 568.597,329.186 570.421,327.792 L575.47,323.725 C578.78,320.967 582.034,318.208 585.737,315.336 C589.075,312.776 592.385,308.282 597.266,308.14 C604.362,307.941 605.008,312.691 604.979,319.345 C604.952,333.083 604.362,541.328 605.261,544.741 C607.645,545.793 612.554,545.167 615.442,545.195 C616.06,536.095 615.526,525.003 615.526,515.702 C615.526,493.746 610.954,476.055 638.276,490.902 C641.334,492.551 644.757,495.026 646.888,496.903 L654.435,504.725 C655.191,504.212 654.658,504.639 655.331,503.928 C660.156,498.779 663.747,495.111 670.312,491.101 C674.939,488.285 686.917,482.341 691.573,487.717 C694.771,491.414 693.453,508.82 693.453,515.191 C693.453,524.861 693.005,535.668 693.538,545.195 L716.764,545.195 C717.745,533.648 714.94,492.466 718.755,487.83 C724.646,480.663 742.767,492.011 748.265,496.874 C751.463,499.69 752.866,501.852 755.782,504.725 C756.624,504.156 755.979,504.667 756.681,503.928 L759.317,500.97 C760.663,499.49 761.478,498.667 763.104,497.188 C765.096,495.311 768.714,492.808 771.659,491.13 C799.487,475.117 794.83,495.026 794.83,515.191 C794.83,524.575 794.241,536.067 794.942,545.167 L818.226,545.167 C818.589,535.441 818.253,525.287 818.253,515.702 C818.253,509.276 816.906,491.812 820.161,487.887 C824.845,482.171 835.981,488.258 840.974,490.873 C848.801,494.997 852.139,499.32 857.132,504.696 C860.946,502.108 862.069,497.585 873.065,491.157 C877.777,488.37 889.699,482.284 894.271,487.717 C898.228,492.409 895.253,533.792 896.319,545.111 L950.431,545.195 L950.542,462.66 C937.33,461.038 918.536,463.713 902.884,461.209 L902.884,461.209 Z" id="Fill-54" fill="#2F5595"></path>
            <path d="M904.118,823.292 C903.079,825.055 890.513,847.353 888.605,848.691 L888.605,798.264 L866.894,798.151 C866.192,804.549 866.305,883.446 867.034,886.204 L886.95,886.261 C889.054,883.929 893.401,875.452 895.226,872.296 L919.995,829.975 L920.079,885.919 C922.688,886.631 938.452,886.374 941.931,886.148 L941.931,798.179 L918.929,798.151 C913.823,806.113 909.026,814.959 904.118,823.292" id="Fill-55" fill="#2F5595"></path>
            <path d="M492.663,847.211 C492.579,847.324 492.271,847.694 492.157,847.837 C491.372,848.691 492.298,847.95 491.204,848.691 L491.204,798.292 L469.493,798.151 C468.792,804.436 468.903,883.53 469.633,886.204 L489.55,886.261 C492.438,883.133 519.956,832.364 522.565,830.004 L522.649,885.919 C525.37,886.631 541.022,886.374 544.529,886.118 L544.558,798.208 L521.527,798.151 C517.011,805.261 495.833,842.831 492.663,847.211" id="Fill-56" fill="#2F5595"></path>
            <path d="M624.784,798.179 L624.7,830.062 C621.081,830.432 597.995,830.573 595.499,829.863 L595.526,798.208 L573.478,798.208 L573.534,886.232 L595.639,886.061 L595.694,847.382 L624.756,847.494 L624.812,886.232 L646.917,886.118 L646.832,798.151 L624.784,798.179" id="Fill-57" fill="#2F5595"></path>
            <path d="M225.84,824.43 C223.007,829.919 221.323,833.16 213.694,833.759 L213.61,798.378 L191.533,798.151 C191.001,803.441 191.394,834.413 191.394,842.32 C191.394,849.913 190.439,881.312 191.674,886.204 L213.356,886.261 L213.638,850.881 L218.519,850.822 C223.119,856.085 239.642,884.611 242.474,886.232 L268.028,886.232 C266.963,883.473 255.658,867.205 253.161,863.536 C250.777,860.038 239.08,843.287 238.323,840.641 C242.728,838.167 244.803,831.084 247.327,825.88 C251.226,817.888 252.993,817.746 263.036,817.32 L263.12,798.208 C234.731,796.672 235.378,805.971 225.84,824.43" id="Fill-58" fill="#2F5595"></path>
            <path d="M726.133,834.128 C727.536,831.426 728.573,828.582 729.92,825.767 C734.688,815.898 738.194,818.029 745.685,817.235 L745.572,798.236 C717.325,795.59 716.849,808.276 708.208,824.63 C705.655,829.464 703.243,833.844 696.062,833.616 L695.978,798.151 L673.958,798.208 L673.985,886.232 L696.062,886.118 L696.09,850.908 L700.606,850.852 C702.065,851.193 715.726,873.036 718.419,877.132 C720.242,879.89 722.795,883.388 724.169,886.204 L750.565,886.261 C749.388,882.649 725.263,848.89 720.972,841.295 C722.178,839.134 723.524,839.163 726.133,834.128" id="Fill-59" fill="#2F5595"></path>
            <path d="M63.816,841.295 C64.966,839.048 66.06,839.646 68.978,834.271 C75.683,821.842 72.26,817.832 88.445,817.32 L88.529,798.179 C72.063,797.495 64.742,798.833 58.206,810.152 C50.997,822.61 51.108,832.735 39.075,833.787 L38.991,798.378 L16.915,798.151 L16.803,886.204 L38.767,886.261 L39.019,850.881 L43.899,850.822 C48.696,856.142 64.826,884.469 67.856,886.232 L93.438,886.232 C92.429,883.587 81.208,867.404 78.768,863.821 C73.831,856.512 68.22,848.691 63.816,841.295" id="Fill-60" fill="#2F5595"></path>
            <path d="M797.944,851.904 C798.364,848.632 800.861,841.723 801.927,838.251 L806.472,824.999 L814.494,851.989 L797.944,851.904 Z M794.55,798.208 L765.181,886.204 L787.396,886.09 L792.866,868.371 L819.515,868.342 L824.985,886.118 L847.79,886.232 L818.589,798.122 L794.55,798.208 L794.55,798.208 Z" id="Fill-61" fill="#2F5595"></path>
            <polyline id="Fill-62" fill="#2F5595" points="111.952 886.118 170.888 886.232 170.888 869.112 134.31 869.054 134.057 847.44 167.97 847.353 168.055 830.345 134.141 830.174 134.085 815.358 170.915 815.272 170.944 798.378 112.12 798.122 111.952 886.118"></polyline>
            <path d="M331.845,807.763 C330.499,811.234 329.181,814.419 327.862,818.003 L322.027,833.417 C321.242,835.352 320.878,837.2 319.671,838.309 L301.606,798.179 L278.015,798.122 C278.66,802.644 308.339,859.27 309.544,864.191 C304.187,870.875 293.836,866.723 286.29,866.978 L286.01,886.148 C321.888,889.731 324.356,881.312 334.931,855.658 C336.306,852.245 358.073,800.283 358.325,798.179 L336.306,798.122 C334.397,799.003 332.687,805.546 331.845,807.763" id="Fill-63" fill="#2F5595"></path>
            <path d="M444.835,859.81 C444.835,859.582 444.751,859.527 444.695,859.385 C441.104,859.385 438.356,864.418 430.614,868.257 C425.116,870.988 418.72,872.011 411.96,869.879 C389.659,862.797 390.557,819.567 413.222,813.964 C431.118,809.555 438.048,824.999 445.173,824.942 L445.116,803.696 C436.953,799.771 431.343,797.212 420.628,796.415 C411.006,795.705 401.384,797.212 394.175,801.279 C381.356,808.475 372.856,822.098 373.053,842.831 C373.445,884.81 409.351,898.405 445.088,880.373 L445.2,861.631 C445.144,860.806 445.116,860.919 444.976,860.238 C444.948,860.123 444.864,860.038 444.835,859.81" id="Fill-64" fill="#2F5595"></path>
            <path d="M360.036,809.925 L342.785,851.932 C334.65,871.728 330.387,891.636 304.72,892.632 C278.829,893.654 280.175,891.322 280.175,877.927 C280.175,871.5 278.94,863.935 283.766,861.745 C286.991,860.265 296.305,862.454 301.494,861.887 C301.858,859.157 276.079,809.299 272.854,801.819 C268.478,791.666 279.333,792.177 283.626,792.177 C308.675,792.206 304.075,789.419 312.321,807.621 C314.622,812.741 317.427,818.145 319.167,823.123 C319.728,822.61 319.476,822.923 319.952,822.211 L322.421,816.011 C323.262,813.765 324.159,811.489 325.085,809.044 C332.126,790.585 328.788,792.177 347.358,792.177 C352.856,792.177 361.243,790.841 363.544,795.364 C365.534,799.288 361.608,806.171 360.036,809.925 Z M265.336,822.752 C257.79,825.738 257.173,819.027 252.376,828.952 C251.198,831.426 250.554,833.36 249.459,835.636 C248.253,838.11 246.962,839.702 245.841,841.808 L270.329,878.695 C272.097,881.312 277.481,888.706 270.386,891.494 C268.001,892.46 244.017,892.519 241.185,891.978 C237.817,891.352 237.116,889.646 235.657,887.398 C233.47,884.014 221.071,864.617 219.557,863.279 C219.192,869.708 220.959,886.858 217.593,890.357 C215.124,892.945 209.401,892.177 205.362,892.177 C192.853,892.177 185.643,894.536 185.53,883.53 L185.53,811.803 C185.53,789.874 183.427,792.234 208.364,792.177 C212.937,792.177 217.032,791.865 218.743,795.733 C220.595,799.943 218.968,817.092 219.612,823.321 C225.925,815.443 226.148,797.382 246.991,792.861 C251.086,791.978 260.427,791.439 264.495,792.575 C270.245,794.168 269.011,801.05 269.011,807.223 C269.011,812.996 270.245,820.789 265.336,822.752 Z M363.853,792.007 C360.065,788.906 351.116,789.846 345.338,789.846 C334.313,790.557 330.892,787.513 326.796,798.094 C325.534,801.364 320.653,815.243 319.251,816.779 C315.042,810.493 310.61,793.145 304.86,790.727 C301.017,789.107 290.61,789.846 285.646,789.846 C276.472,789.846 275.575,788.936 270.272,794.367 C266.683,789.078 263.008,789.76 255.519,789.76 C244.409,789.788 235.687,792.691 228.981,801.165 L221.716,813.111 C221.548,803.498 224.017,792.746 215.489,790.301 C212.151,789.362 191.533,789.477 188.504,790.614 C181.154,793.401 183.229,805.745 183.229,813.822 L183.229,870.818 C183.229,879.491 181.21,891.294 188.784,893.77 C191.87,894.792 212.908,894.85 215.994,893.855 C223.849,891.352 221.521,881.283 221.716,871.046 L223.651,873.15 C238.911,896.472 234.06,894.424 253.526,894.424 C261.072,894.424 273.415,896.214 275.743,889.276 C277.397,884.384 275.183,881.824 273.163,878.865 L256.809,854.236 C247.663,840.156 247.72,843.97 250.917,837.655 C252.433,834.613 253.723,831.198 255.237,828.298 C257.902,823.321 260.343,826.648 265.645,825.084 C273.499,822.808 270.413,812.257 271.423,804.009 C271.647,805.488 297.398,856.255 298.408,859.839 C294.145,859.781 288.591,858.247 284.888,858.901 C275.8,860.493 277.987,872.494 277.959,880.999 C277.959,885.379 277.819,889.958 280.876,892.404 C284.663,895.475 300.989,895.248 307.216,894.736 C324.58,893.315 332.631,883.075 338.438,868.429 C341.187,861.546 344.384,854.862 346.965,848.036 C349.657,840.898 352.463,834.298 355.296,827.473 C356.698,824.032 358.101,821.102 359.504,817.49 L363.29,808.561 C363.768,807.792 363.628,808.019 363.964,807.621 C364.104,804.891 365.956,802.757 366.376,799.544 C366.769,796.415 365.534,793.372 363.853,792.007 L363.853,792.007 Z" id="Fill-65" fill="#2F5595"></path>
            <g id="Group-69" transform="translate(665.000000, 764.000000)" fill="#2F5595">
                <path d="M183.38,127.978 C180.547,128.489 161.36,128.432 158.919,127.807 C155.104,126.839 154.599,124.394 153.478,120.582 C152.523,117.227 151.29,113.785 150.448,110.372 L132.944,110.259 C129.241,112.449 130.419,125.162 124.726,127.522 C122.2,128.546 103.967,128.519 100.404,128.091 C91.036,126.982 95.103,118.364 97.263,111.907 L116.534,54.543 C118.665,48.257 120.686,41.829 122.845,35.544 C125.903,26.669 127.811,28.177 140.966,28.177 C144.669,28.177 149.858,27.865 153.365,28.263 C157.433,28.691 158.667,30.596 159.845,34.264 L185.288,110.657 C187.224,116.458 192.328,126.3 183.38,127.978 Z M68.706,128.177 C60.628,128.177 57.206,129.57 53.222,123.513 L41.245,105.167 C40.515,104.03 40.038,103.348 39.253,102.097 C38.944,101.613 38.692,101.129 38.215,100.56 C37.093,99.252 38.131,100.191 37.009,99.48 C36.784,127.948 39.954,128.177 22.534,128.177 C10.501,128.177 3.123,130.536 3.095,119.56 L3.095,47.803 C3.095,35.601 0.767,28.234 11.482,28.177 C16.167,28.151 20.88,28.177 25.563,28.177 C29.968,28.177 34.429,27.95 36.167,31.447 C38.019,35.202 36.728,53.263 37.093,59.007 C41.188,54.799 42.983,42.54 51.876,34.804 C55.69,31.477 59.058,30.027 65.06,28.775 C69.099,27.95 78.581,27.382 82.563,28.718 C87.81,30.482 86.548,37.109 86.548,43.736 C86.548,50.333 87.726,56.903 82.563,58.752 C74.905,61.483 74.261,55.623 69.829,65.237 C66.099,73.313 66.631,71.607 63.405,77.808 C67.163,84.661 90.587,117.17 91.26,120.64 C93.251,130.85 78.328,128.177 68.706,128.177 Z M163.968,39.696 C158.526,23.23 160.658,25.96 133.421,25.846 C125.146,25.818 122.565,28.121 120.546,35.202 C117.123,47.176 108.315,72.175 104.079,84.691 C102.48,89.469 94.233,114.895 92.803,117.397 C91.624,116.516 87.501,109.832 85.846,107.755 L66.238,77.808 C67.248,75.732 68.482,74.251 69.604,71.607 C70.53,69.446 71.288,67.398 72.382,65.265 C73.896,62.221 74.064,61.511 78.244,61.511 C89.772,61.539 88.819,54.742 88.819,44.246 C88.819,38.815 89.745,31.618 86.351,28.376 C82.06,24.225 56.757,22.205 45.452,38.474 C44.358,40.038 39.28,48.428 39.449,49.992 C38.243,41.403 42.03,29.316 33.923,26.614 C30.276,25.39 10.612,25.333 6.938,26.358 C-1.394,28.661 0.739,39.299 0.739,49.31 L0.739,106.818 C0.739,116.628 -1.31,127.294 6.433,129.825 C9.575,130.85 30.474,130.879 33.643,129.825 C41.665,127.153 38.888,115.491 39.31,106.875 C45.116,112.904 50.838,128.062 57.038,129.883 C60.685,130.963 72.073,130.395 76.729,130.424 C94.317,130.509 86.8,129.542 93.476,126.47 C95.804,130.395 99.395,130.651 105.341,130.481 C110.53,130.309 115.749,130.566 120.909,130.424 C132.074,130.111 130.251,121.094 134.094,112.591 L148.456,112.591 C150.813,116.999 151.121,125.617 154.823,128.376 C158.919,131.418 169.157,130.424 175.077,130.424 C182.174,130.424 189.888,130.85 190.701,123.597 C191.29,118.421 187.672,110.97 186.213,106.192 C179.817,85.429 170.981,60.742 163.968,39.696 L163.968,39.696 Z" id="Fill-66"></path>
                <path d="M256.369,128.177 C247.364,127.693 249.216,119.872 249.216,111.397 C249.216,104.114 249.722,94.701 249.104,87.676 L239.313,104.285 C236.173,109.916 232.974,115.378 229.692,120.981 C224.615,129.712 225.177,128.177 210.196,128.177 C198.527,128.177 195.862,129.115 195.891,116.488 C195.919,98.683 195.891,80.85 195.891,63.047 C195.891,23.599 193.198,28.746 213.366,28.151 C212.554,26.841 211.487,26.328 210.394,25.22 C209.355,24.168 209.075,23.571 208.205,22.375 C203.717,16.033 198.836,3.888 210.169,3.349 C213.619,3.206 228.009,2.98 230.478,3.917 C234.293,5.339 232.862,7.473 234.798,10.147 C236.144,11.995 241.362,11.909 243.353,10.773 C246.86,8.298 241.95,3.291 254.854,3.349 C266.663,3.406 281.222,0.164 273.704,17.57 C270.956,23.94 267.028,26.273 265.794,28.121 C285.599,28.975 282.849,24.396 282.849,58.979 C282.849,74.935 282.849,90.862 282.849,106.818 C282.849,127.267 287.422,129.825 256.369,128.177 Z M285.038,35.571 C284.729,26.585 279.708,25.904 271.404,25.846 C273.985,20.782 275.893,20.528 277.575,12.82 C280.802,-1.941 264.279,0.874 252.329,1.131 C248.907,1.187 247.112,1.415 245.093,3.291 C242.82,5.425 243.241,6.335 241.979,9.179 L236.845,9.066 C235.808,5.88 235.583,4.771 233.423,2.894 C229.974,-0.036 211.628,0.761 207.532,1.357 C202.118,2.124 200.07,7.019 201.528,13.39 C202.987,19.902 205.176,21.665 207.673,25.818 C197.938,26.158 193.394,26.669 193.422862,37.62 L193.45,114.951 C193.422862,124.593 193.983,130.337 204.194,130.451 C210.618,130.481 223.269,131.617 227.476,128.376 C230.759,125.872 244.308,98.571 247,96.351 C247.309,124.196 243.157,130.451 260.886,130.424 C285.626,130.395 285.065,132.756 285.065,107.329 C285.065,91.374 285.065,75.446 285.065,59.491 C285.065,51.67 285.347,43.337 285.038,35.571 L285.038,35.571 Z" id="Fill-68"></path>
            </g>
            <path d="M144.632,821.216 C142.669,821.189 141.237,820.96 139.919,821.985 L139.919,824.232 C175.067,824.287 173.917,821.443 173.917,838.765 C173.917,856.17 174.871,853.27 139.947,853.326 L139.976,863.11 C149.204,863.11 161.519,862.4 170.243,863.167 C175.712,863.621 176.807,866.295 176.835,871.813 C176.862,875.397 177.228,884.384 176.526,887.398 C175.403,892.205 171.478,892.205 166.203,892.177 L120.563,892.177 C105.304,892.177 106.089,891.494 106.089,876.42 L106.089,814.845 C106.089,809.868 105.894,804.521 106.089,799.601 C106.313,793.771 108.698,792.548 114,792.092 C112.737,787.429 113.103,783.957 113.074,778.725 C113.074,773.52 112.766,769.852 116.608,768.146 C118.825,767.15 135.907,766.353 139.442,768.714 C140.845,769.653 139.47,768.657 140.536,769.653 C140.648,769.767 140.985,770.078 141.069,770.164 L141.63,770.677 C145.053,766.837 146.063,767.349 152.149,767.349 C166.315,767.406 170.019,765.529 169.962,778.213 C169.935,783.56 170.327,787.059 169.036,792.177 C176.218,792.404 176.862,795.534 176.835,802.644 C176.751,823.349 180.593,821.785 144.632,821.216 Z M179.135,806.711 C179.135,793.629 179.499,793.771 172.179,789.931 C172.263,779.891 174.085,768.799 167.298,765.926 C164.688,764.818 150.858,764.846 146.792,765.216 C143.146,765.557 144.071,765.756 141.63,767.121 C139.134,766.24 139.499,765.557 135.907,765.216 C133.692,765.017 131.335,765.131 129.091,765.131 C119.218,765.131 110.858,763.452 110.774,775.681 C110.718,780.09 110.521,785.608 110.942,789.931 C108.558,791.269 104.238,791.41 103.817,799.062 C103.284,809.128 103.817,836.659 103.817,847.922 C103.817,895.106 100.171,894.424 122.051,894.424 C132.767,894.424 143.454,894.424 154.169,894.424 C179.892,894.424 179.388,896.613 179.135,871.301 C178.995,854.491 161.153,862.825 142.22,860.692 L142.304,855.658 C147.604,855.233 154.226,855.573 159.695,855.573 C176.386,855.573 176.189,854.293 176.189,836.717 C176.189,829.919 176.807,827.218 172.431,823.405 C173.833,822.468 174.563,822.696 176.161,821.387 C180.089,818.174 179.135,812.115 179.135,806.711 L179.135,806.711 Z" id="Fill-70" fill="#2F5595"></path>
            <path d="M639.876,892.177 C626.636,892.177 618.978,894.708 618.894,883.56 C618.837,873.49 619.062,863.395 618.894,853.326 L601.585,853.355 C601.221,896.584 606.271,892.177 580.659,892.177 C565.624,892.177 567.616,889.93 567.616,875.397 L567.616,815.358 C567.616,789.447 565.343,792.206 589.215,792.177 C604.56,792.177 601.445,793.145 601.585,824.232 L618.894,824.203 C618.978,818.457 617.995,798.661 619.959,795.136 C621.979,791.552 626.747,792.177 631.853,792.177 C644.841,792.177 652.808,789.703 652.892,800.568 L652.892,875.397 C652.892,889.674 654.771,892.177 639.876,892.177 Z M647.365,789.988 C643.354,789.419 636.2,789.846 631.853,789.846 C611.824,789.846 617.603,796.018 616.677,821.985 L603.913,821.842 L603.829,797.581 C601.474,788.68 596.509,789.846 587.195,789.846 C579.79,789.846 570.785,788.423 567.026,793.372 C564.081,797.269 565.428,809.868 565.428,815.869 C565.428,823.805 565.624,832.024 565.372,839.902 C565.736,850.681 565.428,862 565.428,872.835 C565.428,885.948 562.595,894.481 577.153,894.424 C582.651,894.424 588.261,894.536 593.731,894.424 C609.271,894.111 602.876,878.07 603.942,855.573 L616.649,855.687 C617.099,864.817 615.667,878.723 616.93,886.999 C618.444,896.926 629.44,894.424 640.886,894.424 C655.753,894.451 655.107,891.124 655.107,876.904 L655.107,813.822 C655.107,803.326 657.632,791.382 647.365,789.988 L647.365,789.988 Z" id="Fill-71" fill="#2F5595"></path>
            <path d="M550.421,884.043 C550.421,889.702 548.261,892.177 542.538,892.177 C515.468,892.177 516.815,894.424 516.815,875.907 C516.815,868.4 517.319,858.93 516.731,851.676 C514.823,853.896 500.657,879.349 497.685,884.355 C495.075,888.763 494.486,892.177 487.838,892.177 L471.288,892.177 C465.79,892.177 463.489,889.588 463.489,884.043 L463.489,800.085 C463.489,794.482 465.706,792.177 471.288,792.177 C503.547,792.177 496.197,787.94 497.123,827.445 C498.217,826.648 507.165,810.949 508.624,808.446 C520.097,788.906 514.263,792.177 542.565,792.177 C548.092,792.177 550.421,794.453 550.421,800.085 L550.421,884.043 Z M552.636,799.571 C552.159,786.661 539.845,789.904 525.483,789.846 C514.094,789.788 514.655,793.941 506.437,807.763 C504.528,810.978 501.611,816.381 499.535,818.942 C499.198,810.408 501.92,794.168 494.851,790.984 C490.699,789.078 468.595,788.992 465.145,791.295 C461.273,793.884 461.077,797.836 461.077,803.668 L461.077,851.989 C461.077,862.512 460.601,874.173 461.077,884.582 C461.667,897.125 472.774,894.424 483.827,894.424 C489.437,894.424 494.093,894.509 496.59,890.868 L508.456,870.334 C509.55,868.4 512.831,861.858 514.571,860.407 C514.767,868.285 514.487,876.192 514.599,884.071 C514.739,894.424 520.657,894.309 527.559,894.451 C532.804,894.366 538.415,894.68 543.575,894.424 C548.962,894.139 551.654,892.035 552.44,886.944 C553.759,878.212 551.262,863.365 552.917,855.544 C551.879,852.785 552.973,809.044 552.636,799.571 L552.636,799.571 Z" id="Fill-72" fill="#2F5595"></path>
            <path d="M76.384,892.177 C73.662,892.177 69.09,892.46 66.593,891.978 C63.144,891.294 62.526,889.674 61.04,887.398 C58.627,883.672 46.705,864.617 44.909,863.224 C44.657,869.366 46.2,886.545 43.228,890.101 C40.954,892.83 35.513,892.177 31.249,892.177 C8.696,892.177 10.884,894.481 10.884,869.793 L10.996,798.264 C11.613,793.684 14.25,792.206 19.186,792.177 C23.843,792.121 28.556,792.177 33.241,792.177 C37.784,792.177 42.049,791.723 43.956,795.364 C45.948,799.202 44.433,817.348 44.939,823.349 C48.22,819.652 51.95,805.602 59.048,799.288 C65.163,793.857 78.515,789.904 89.483,792.462 C95.599,793.884 94.421,800.426 94.421,806.711 C94.421,812.485 95.683,820.363 91.054,822.581 C84.266,825.794 82.583,818.997 77.981,828.639 C75.569,833.673 73.803,837.37 71.25,841.808 L87.211,865.926 C90.101,870.106 92.429,873.974 95.317,878.07 C107.296,895.162 89.988,892.177 76.384,892.177 Z M74.167,841.808 C76.327,837.313 78.263,833.56 80.31,829.009 C81.657,825.966 82.106,825.511 85.921,825.511 C97.898,825.539 96.665,818.799 96.665,808.731 C96.665,803.214 97.534,796.189 94.364,792.548 C89.624,787.144 69.763,790.073 63.677,793.316 C57.645,796.529 53.55,801.45 50.323,807.252 L47.153,813.423 C46.565,803.895 49.65,793.088 41.263,790.444 C37.869,789.362 17.504,789.447 14.334,790.499 C6.592,793.059 8.696,804.607 8.696,813.822 C8.696,823.321 8.696,832.821 8.696,842.32 C8.696,851.932 8.247,876.988 8.724,885.492 C8.976,889.987 10.743,892.689 14.559,893.855 C17.673,894.821 38.767,894.821 41.769,893.77 C49.258,891.181 46.874,879.065 47.069,870.476 C50.997,874.998 59.3,891.409 63.62,893.456 C67.239,895.162 77.702,894.424 82.415,894.424 C88.585,894.424 95.599,895.532 99.47,891.665 C104.294,886.858 100.255,881.255 97.786,877.614 L74.167,841.808 L74.167,841.808 Z" id="Fill-73" fill="#2F5595"></path>
            <path d="M450.811,881.198 C449.885,885.608 446.21,886.46 441.946,888.337 C417.177,899.229 385.591,894.566 373.361,870.391 C365.534,854.919 365.058,832.393 372.464,816.41 C384.413,790.727 415.298,784.868 439.534,794.652 C452.577,799.913 451.063,799.571 451.063,815.358 C451.063,820.108 451.933,826.648 448.959,829.351 C439.562,837.911 430.754,814.589 414.231,819.851 C397.513,825.197 398.13,856.567 411.454,863.309 C420.684,867.974 429.211,863.054 434.934,858.389 C437.626,856.198 440.376,852.472 446.126,853.639 C451.231,854.662 451.063,859.582 451.063,865.215 C451.034,869.082 451.483,877.899 450.811,881.198 Z M446.322,851.335 C438.468,850.056 435.271,855.603 430.726,858.673 C417.149,867.859 405.283,861.289 404.134,845.392 C403.601,837.939 404.891,830.8 408.622,826.109 C411.876,822.04 419.674,819.88 425.929,823.206 C434.709,827.901 436.308,831.711 440.544,832.848 C448.735,835.038 453.223,830.516 453.251,822.496 C453.278,817.546 454.036,803.099 452.101,799.715 C449.913,795.932 441.919,792.832 436.897,791.239 C423.769,787.059 407.921,787.115 395.241,791.666 C379.616,797.269 375.55,808.531 370.584,814.22 C369.967,816.949 368.733,818.942 367.863,821.869 C365.45,830.091 364.554,839.305 365.142,847.866 C366.601,869.139 377.345,887.314 397.317,893.401 C409.015,896.955 419.112,896.983 431.118,894.366 C436.981,893.029 443.909,890.584 448.763,887.683 C454.821,884.071 453.251,876.676 453.251,868.257 C453.251,860.437 454.261,852.644 446.322,851.335 L446.322,851.335 Z" id="Fill-74" fill="#2F5595"></path>
            <path d="M883.809,788.338 C889.307,791.666 896.712,792.946 904.313,792.975 C912.14,793.003 919.265,791.894 924.987,788.509 C928.606,786.347 935.339,779.577 934.777,773.378 L915.563,773.321 C913.599,779.323 911.663,781.485 904.313,781.426 C895.843,781.399 895.73,778.981 893.206,773.321 L874.019,773.35 C873.851,779.437 880.19,786.12 883.809,788.338" id="Fill-75" fill="#2F5595"></path>
            <polyline id="Fill-76" fill="#2F5595" points="136.076 773.407 119.189 773.321 118.965 788.765 135.992 788.821 136.076 773.407"></polyline>
            <path d="M907.343,801.251 C906.755,803.042 897.919,817.974 896.853,818.97 L896.796,800.909 L907.343,801.251 Z M894.496,827.445 C895.45,826.79 910.317,801.364 911.636,798.72 L894.496,798.491 L894.496,827.445 L894.496,827.445 Z" id="Fill-77" fill="#2F5595"></path>
            <polyline id="Fill-78" fill="#2F5595" points="803.05 847.61 809.192 847.694 806.274 836.717 803.05 847.61"></polyline>
            <path d="M147.634,788.737 L163.313,788.851 C164.437,788.139 164.071,790.044 164.38,787.372 L164.323,773.266 C161.183,772.923 149.345,772.696 146.933,773.436 C146.624,775.995 146.792,778.669 146.792,781.285 C146.792,785.01 146.202,787.771 147.634,788.737" id="Fill-79" fill="#2F5595"></path>
            <path d="M141.911,791.04 C141.462,791.239 140.929,791.183 140.788,792.292 C143.173,792.321 142.22,792.889 141.911,791.04" id="Fill-80" fill="#2F5595"></path>
        </g>
    </g>
</svg>
