<svg xmlns="http://www.w3.org/2000/svg" viewBox="0 0 4666.667 4666.667" fill="#b12025">
  <defs>
    <clipPath id="a" clipPathUnits="userSpaceOnUse">
      <path d="M0 3500h3500V0H0z"/>
    </clipPath>
  </defs>
  <g clip-path="url(#a)" transform="matrix(1.33333 0 0 -1.33333 0 4666.667)">
    <path d="M2698.835 2357.8c2.956 10.257 9.521 17.007 16.215 23.444 13.663 13.138 29.071 20.86 48.864 15.07 8.124-2.377 13.033.367 17.608 7.649 5.779 9.202 9.615 18.83 8.917 30.08-.324 5.24.779 10.6 1.506 15.869.784 5.668-.398 10.73-4.5 14.704-9.925 9.612-15.111 21.726-19.113 34.603-2.27 7.306-4.925 14.503-7.671 21.647-1.745 4.539-5.092 6.878-10.228 5.836-10.41-2.111-19.852-.087-28.126 6.729-3.598 2.964-7.275 2.584-11.16.57-4.258-2.208-7.837-5.063-9.911-9.494-1.269-2.713-2.522-5.441-3.623-8.226-5.875-14.864-16.801-23.52-32.329-26.798-12.647-2.671-16.745-7.834-16.872-20.662-.01-.997.155-1.994.171-2.993.158-10.473-4.228-15.285-14.699-15.914-3.654-.22-7.344.106-10.99-.172-4.605-.35-6.81-2.083-7.624-6.456a25.668 25.668 0 01-.062-8.885c1.819-10.552 7.026-19.265 14.97-26.443 10.196-9.212 19.325-19.285 25.474-31.786 1.459-2.964 3.462-5.701 5.473-8.346 6.332-8.327 15.035-11.895 25.261-11.717 3.949.068 7.882 1.04 12.449 1.69m167.484 112.405c-16.171-14.282-34.393-14.831-54.782-14.631 2.651 2.208 3.815 3.816 5.348 4.336 4.712 1.599 9.487 3.388 14.378 4.019 18.374 2.373 31.078 12.869 40.561 27.857 4.446 7.024 7.911 14.66 12.071 21.874 3.492 6.056 7.261 11.956 11.081 17.812 1.386 2.127 3.058 4.292 7.004 3.93-1.739-9.012-7.677-15.581-11.122-23.26-3.505-7.815-7.343-15.481-11.413-24.002 10.018-1.815 18.664 2.266 28.773.637-4.574-5.843-10.356-5.894-15.548-7.058-5.109-1.145-10.267-2.08-16.367-3.3 4.877-9.176 8.448-17.6 15.626-24.603 2.008 1.745 3.861 3.067 5.364 4.709 11.597 12.68 25.802 20.874 42.431 25.012 4.2 1.045 8.444 2.033 12.505 3.499 6.441 2.327 8.542 7.35 5.601 13.527-1.262 2.653-3.262 5.009-5.181 7.285-4.94 5.86-10.03 11.594-15.044 17.39-13.819 15.973-20.966 34.574-21.947 55.62-.108 2.318-.215 4.706-.836 6.916-2.248 7.99-10.38 13.094-18.535 11.54-3.582-.681-7.076-1.903-10.549-3.064-28.495-9.53-56.377-20.442-82.132-36.206-11.085-6.785-22.298-13.361-33.433-20.065-1.66-1-3.206-2.19-5.425-3.718 9.042-9.994 12.41-22.296 16.897-34.022 3.972-10.382 8.771-20.123 16.66-28.164 7.32-7.461 9.416-16.466 7.891-26.718-1.024-6.893-1.108-13.92-1.874-20.858-.508-4.607-.892-9.367-2.397-13.688-1.622-4.655-1.72-9.021-.782-13.698 2.581-12.882 7.296-25.012 13.887-36.257 11.619-19.827 23.193-39.726 35.873-58.874 13.751-20.766 22.648-43.124 24.848-67.79 2.444-27.398 1.065-54.663-7.592-81.085-7.259-22.16-14.692-44.263-22.387-66.272-1.788-5.114-2.197-9.538.699-14.258.916-1.494.89-3.567 1.659-6.985-7.784 3.65-13.962 7.282-20.615 9.466-6.786 2.228-14.04 3.034-21.329 4.51 4.81 7.667 8.02 8.033 26.943 3.689.499.4 1.315.718 1.448 1.217 4.892 18.324 9.567 36.708 14.594 54.994 7.09 25.793 12.425 51.889 12.813 78.709.161 10.942-.607 21.973-1.943 32.84-1.856 15.09-7.859 28.774-15.738 41.778a1451.926 1451.926 0 00-27.583 47.54c-9.07 16.33-17.404 33.037-21.222 52.746-2.284-1.997-3.945-3.272-5.399-4.751-8.413-8.564-18.288-12.196-29.99-8.26-12.346 4.154-22.931-.171-33.126-6.337-3.383-2.047-6.496-4.737-9.246-7.6-5.837-6.074-12.573-10.686-19.966-14.7-13.959-7.576-30.571-5.852-42.267 5.375-3.577 3.434-6.907 7.33-9.51 11.536-8.374 13.529-20.549 23.448-31.646 34.803-17.934-14.721-35.788-29.025-53.242-43.802-17.524-14.836-34.647-30.146-52.285-45.543 1.185-3.946 2.071-7.448 3.279-10.834 5.371-15.064 10.976-30.045 16.226-45.15 7.439-21.395 14.619-42.881 21.961-64.31 1.172-3.418 2.615-6.743 4.331-11.131 2.085 2.626 3.751 4.2 4.788 6.116 8.238 15.224 16.438 30.469 24.481 45.796 4.796 9.14 8.799 18.728 14.01 27.615 15.363 26.194 32.359 51.29 52.363 74.226 2.773 3.18 6.061 5.912 9.803 9.518 2.151-4.864-.465-7.29-2.022-9.808-9.286-15.024-18.578-30.045-28.028-44.965-13.051-20.606-24.518-42.014-33.402-64.761-3.541-9.066-8.334-17.403-14.269-25.121-6.297-8.19-12.165-16.727-18.782-24.643-3.494-4.178-3.894-7.697-1.926-12.655 6.882-17.341 13.701-34.725 19.832-52.341 7.222-20.752 14.649-41.512 20.276-62.722 7.829-29.51 8.752-59.91 8.227-90.318-.301-17.356-1.61-34.606-5.399-51.597-.29-1.301-.653-2.591-.85-3.907-1.349-8.992-6.235-13.146-15.525-15.07-43.845-9.076-86.103-23.387-127.254-40.944-49.044-20.925-97.903-42.273-145.175-67.031-15.35-8.04-30.485-16.484-45.741-24.701-6.81-3.67-12.713-8.38-18.095-13.98-20.56-21.39-41.358-42.548-63.953-61.836-3.548-3.028-7.038-6.138-10.758-8.941-1.405-1.06-3.385-1.356-6.472-2.512.721 2.773.672 4.552 1.532 5.542 3.053 3.518 6.377 6.807 9.668 10.112 43.781 43.984 85.353 89.938 123.285 139.086 9.968 12.914 18.976 26.57 28.374 39.92 11.126 15.808 22.076 31.742 33.361 47.434 3.875 5.388 8.435 10.299 12.883 15.248 1.523 1.695 3.493 3.187 5.547 4.167 4.972 2.373 9.689-.752 9.393-6.308-.137-2.583-.938-5.291-2.073-7.634-5.533-11.412-7.169-23.451-6.635-35.983.344-8.07.145-8.078-2.6-13.354-6.089 3.015-6.147 9.162-7.113 14.41-.988 5.372-.791 10.96-1.249 18.779-16.374-24.046-30.874-46.72-46.8-68.341-15.968-21.68-33.358-42.313-51.101-64.633 2.729 1.283 4.4 1.927 5.935 2.809 57.86 33.253 117.909 62.122 178.881 89.113 37.85 16.755 77.349 28.963 116.713 41.506 1.269.404 2.561.793 3.871.995 5.866.907 8.483 4.525 8.911 10.214.853 11.29 2.313 22.559 2.615 33.86.854 32.027.072 63.97-6.27 95.563-5.266 26.23-13.42 51.607-22.961 76.5-22.435 58.53-40.473 118.536-60.168 177.983-3.54 10.686-5.59 21.866-8.428 33.214.265-.06-.543.398-.906.165-17.077-10.997-34.369-21.685-51.107-33.18-35.51-24.387-68.26-52.291-100.373-80.896-52.265-46.553-104.758-92.873-154.67-141.988-13.302-13.09-26.192-26.597-39.234-39.948-.83-.85-1.349-2.003-2.495-3.747 45.791 7.069 85.842 25.706 125.91 50.44-10.476 1.305-18.403-2.632-26.575-2.742 0 1-.128 1.548.019 1.636 9.537 5.706 20.112 6.37 30.775 5.802 3.996-.213 5.137-4.171 2.339-7.413-1.934-2.241-4.282-4.21-6.71-5.925-29.308-20.705-60.346-37.726-95.33-47.208-33.436-9.062-66.647-18.976-99.831-28.935-37.181-11.157-72.697-26.313-105.851-46.608-21.024-12.871-41.648-26.396-62.485-39.576-4.92-3.112-9.459-7.53-16.601-5.677-1.664 4.917.897 8.576 3.698 11.677 3.553 3.935 7.463 7.667 11.695 10.852 46.687 35.127 96.619 64.05 153.466 79.62 17.673 4.84 35.276 9.95 53.046 14.406 6.566 1.647 10.126 4.803 12.134 11.373 2.522 8.245 5.915 16.319 9.784 24.04 22.988 45.88 45.994 91.764 71.787 136.163 6.524 11.232 13.468 22.244 20.685 33.044 45.289 67.769 94.696 132.226 153.312 189.196 3.832 3.725 6.152 7.256 4.669 13.079-9.213 36.144-17.421 72.562-27.442 108.476-5.711 20.463-14.275 40.127-21.431 60.194-1.255 3.518-4.146 6.863-2.145 11.582 4.367-1.002 6.224-4.353 7.875-7.407 4.906-9.072 9.913-18.136 14.069-27.561 10.266-23.291 16.115-47.974 21.588-72.703 4.39-19.827 8.137-39.796 12.218-59.692.788-3.844 1.8-7.643 2.983-12.615 2.997 2.057 5.208 3.285 7.08 4.905 12.853 11.123 25.592 22.379 38.48 33.46 2.492 2.144 5.386 3.89 8.304 5.42.792.415 2.789-.287 3.428-1.105.593-.76.575-2.657.011-3.526-1.25-1.931-2.896-3.651-4.581-5.246-8.955-8.475-17.702-17.194-27.009-25.264-46.78-40.554-88.326-86.013-126-135-27.635-35.931-54.958-72.198-77.757-111.461-18.57-31.976-35.862-64.7-53.491-97.215-9.845-18.158-19.273-36.545-28.768-54.891-1.766-3.412-3.832-6.854-4.058-12 1.97.927 3.251 1.192 4.033 1.963 1.892 1.866 3.608 3.923 5.298 5.982 22.883 27.86 47.935 53.69 73.581 78.98 3.284 3.236 6.367 6.87 8.741 10.805 31.919 52.896 70.351 100.529 116.816 141.226 30.315 26.553 62.068 51.466 93.313 76.949 2.9 2.366 3.899 4.52 3.973 8.292.569 29.008 2.871 57.89 7.961 86.48.877 4.926 1.385 10.372 6.57 14.798 2.267-6.082 1.229-11.31.831-16.413-1.291-16.604-3.086-33.176-4.049-49.796-.731-12.611-.641-25.278-.6-37.92.016-4.773-1.608-7.976-5.418-10.976-37.173-29.272-74.893-57.9-109.551-90.214-32.525-30.33-61.119-64.163-87.842-99.624-1.001-1.33-1.907-2.737-2.757-4.166-.274-.46-.228-1.107-.547-2.893 3.396 2.898 6.128 5.117 8.738 7.473 34.144 30.815 67.994 61.963 102.481 92.39 33.272 29.355 68.258 56.609 105.682 80.532 10.905 6.97 22.698 12.566 34.179 18.613 2.509 1.322 5.418 1.882 8.779 3.005l5.744-17.214c1.95 1.623 3.315 2.532 4.403 3.7 17.986 19.295 37.739 36.715 57.649 53.939 9.316 8.059 19.171 15.505 28.955 23.002 3.398 2.603 7.32 4.52 11.754 7.206-.849 2.429-1.695 5.176-2.761 7.834-2.914 7.268-3.97 14.78-3.093 22.547 1.339 11.876 7.737 17.816 19.674 18.249 2.995.108 6.01-.212 8.995-.011 4.685.315 5.657 1.373 6.16 6.099.387 3.639.444 7.329 1.069 10.924 1.956 11.264 8.287 18.662 19.606 21.428 1.943.474 3.919.84 5.818 1.45 10.606 3.42 19.071 9.29 23.405 20.11 1.482 3.696 3.411 7.23 5.356 10.719 4.55 8.166 12.153 12.117 20.79 14.308 5.136 1.303 9.922-.193 14.213-3.156 11.705-8.081 23-6.862 34.168 1.207 6.212 4.488 12.731 8.555 18.906 13.09 27.358 20.092 57.56 34.766 89.102 46.86 6.518 2.5 13.197 4.777 19.992 6.315 18.058 4.084 32.64-5.927 35.722-24.077.669-3.943 1.57-7.873 1.88-11.846 1.273-16.356 8.968-29.803 18.911-42.215 5.415-6.76 11.138-13.273 16.661-19.947 4.415-5.334 6.653-11.35 6.273-18.441-.418-7.788-3.893-13.304-10.941-16.49-2.72-1.23-5.577-2.19-8.431-3.08-3.179-.991-6.417-1.792-9.643-2.624-12.575-3.242-23.481-9.291-32.259-18.997-2.458-2.718-4.953-5.42-7.621-7.926-7.095-6.663-13.631-6.441-19.622 1.072-3.509 4.4-6.348 9.345-9.374 14.118-1.926 3.037-3.64 6.207-6.177 10.568M2785.177 535.85c-3.981 1.352-8.202 2.233-11.908 4.125-42.152 21.51-84.417 42.81-123.247 70.19-13.492 9.516-25.512 20.393-35.014 33.894-9.395 13.353-18.758 26.738-27.756 40.359-19.255 29.149-30.116 61.474-35.521 95.795-4.325 27.46-5.12 55.018-2.578 82.7.416 4.542.058 9.156.058 13.898-18.71-6.988-36.88-14.26-55.385-20.55-18.351-6.235-37.732-7.14-57.497-8.243.656-2.638.912-4.26 1.457-5.776 6.706-18.663 9.75-38.04 11.106-57.713.766-11.132-1.13-21.887-5.564-32.2-1.967-4.577-3.818-9.25-5.147-14.04-1.531-5.513-.36-10.566 4.254-14.466 1.525-1.29 2.905-2.75 4.4-4.076 13.557-12.012 16.884-26.497 10.723-43.418-5.357-14.714-10.568-29.481-15.788-44.245-4.22-11.933-8.605-23.816-12.414-35.88-1.685-5.336-2.871-11.047-3.004-16.62-.502-21.066 14.679-38.58 35.564-41.65 3.625-.532 7.263-1.127 10.912-1.297 16.626-.777 33.253-1.673 49.89-2.035 20.406-.443 40.429-4.002 60.528-6.883 11.664-1.672 22.299-6.625 32.738-11.928 11.025-5.601 22.293-10.25 34.767-11.998 9.805-1.375 19.239-.692 28.717 1.577 9.716 2.326 19.386 4.869 29.163 6.9 15.24 3.17 30.546 1.406 45.81-.09 17.26-1.693 34.46-3.872 51.03-9.26 5.35-1.74 10.543-4.105 15.57-6.65 3.489-1.764 6.67-4.238 8.39-9.531-3.011.367-5.235.206-7.115.934-19.13 7.419-39.09 10.874-59.39 12.9-23.388 2.334-46.596 2.065-69.403-4.427-17.925-5.103-36.04-7.092-54.271-2.232-8.32 2.219-16.77 4.769-24.37 8.7-17.821 9.222-36.664 13.709-56.497 15.309-19.582 1.58-39.11 3.816-58.678 5.596-5.297.48-10.66.198-15.972.544-8.954.582-17.997.763-26.816 2.233-16.16 2.695-38.516 18.96-41.121 46.093-1.003 10.457.47 20.53 4 30.45 8.6 24.163 16.95 48.412 25.385 72.632.547 1.572.905 3.209 1.413 4.795 3.294 10.284.93 19.055-7.083 26.264-2.476 2.226-5.09 4.299-7.646 6.433-10.402 8.688-13.256 19.55-9.214 32.328.902 2.854 1.838 5.769 3.282 8.365 7.42 13.349 9.302 27.762 7.726 42.604-1.72 16.21-4.158 32.346-6.35 48.504-.172 1.273-.865 2.474-1.578 4.427-11.338 1.483-22.835 2.886-34.301 4.508-42.606 6.025-83.547 17.536-120.835 39.478-23.821 14.018-47.203 28.872-70.055 44.42-26.046 17.722-48.588 39.592-68.342 64.087-12.33 15.287-23.854 31.266-35.061 47.406-15.094 21.739-25.37 46.056-35.918 70.182-.4.914-.686 1.879-1.082 2.796-3.502 8.105-2.263 15.207 3.163 22.364 7.434 9.807 14.14 20.174 20.966 30.43 8.426 12.657 12.65 27.12 17.124 41.425.85 2.724 1.1 6.13.263 8.793-2.385 7.575-5.475 14.927-8.6 23.19-3.277-1.49-5.96-2.572-8.52-3.892-20.161-10.391-40.655-20.038-62.151-27.377-19.024-6.495-38.66-9.691-58.675-11.505-22.87-2.074-45.638-5.251-68.452-7.954-3.526-.417-7.052-.85-11.095.492 1.572.809 3.06 1.908 4.728 2.386 21.809 6.264 43.975 11.122 66.505 13.534 28.09 3.004 54.932 9.903 80.902 21.015 37.723 16.143 71.866 38.05 103.378 63.986 42.776 35.207 83.083 73.106 119.398 115.04 15.05 17.378 28.956 35.752 44.118 53.027 28.826 32.843 59.659 63.763 92.05 93.1 20.264 18.353 43.116 32.274 69.318 40.63 10.457 3.337 20.585 7.705 30.869 11.589 3.114 1.176 6.172 2.614 9.386 3.393 9.1 2.203 17.37.407 23.769-6.675 7.867-8.707 14.052-18.594 18.724-29.372 1.342-3.096 1.834-6.358-.256-10.514-1.594 1.652-2.965 2.772-3.967 4.159-5.64 7.805-10.666 16.123-16.904 23.409-7.575 8.845-13.371 9.516-24.031 4.978-12.871-5.478-25.775-10.885-38.668-16.312-16.415-6.91-31.47-16.103-44.854-27.806-9.777-8.55-19.19-17.538-28.464-26.638-38.565-37.832-75.304-77.3-110.192-118.623-50.127-59.373-107.102-111.437-172.251-154.201-2.476-1.625-4.847-3.406-6.927-4.874 16.588-40.388 35.675-78.761 64.886-111.073 10.492-11.607 21.567-22.738 32.949-33.478 20.603-19.44 41.628-38.434 62.495-57.594 9.662-8.873 17.554-19.127 24.014-30.512.822-1.448 1.752-2.862 2.363-4.4 1.77-4.456-.39-7.312-5.25-6.482-3.23.552-6.631 1.48-9.395 3.16-15.082 9.167-30.003 18.599-44.935 28.012-1.012.638-1.65 1.866-2.057 3.459 6.31-1.116 11.323-4.913 16.729-7.77 5.893-3.111 11.624-6.526 17.488-9.692 5.54-2.991 11.162-5.831 18.422-9.608-1.103 3.219-1.25 5.13-2.252 6.324-5.775 6.877-11.235 14.138-17.762 20.243-17.525 16.388-35.203 32.643-53.428 48.24-27.775 23.77-52.178 50.519-73.107 80.414-7.44 10.629-13.99 21.883-20.935 32.858-1.017 1.606-1.981 3.247-3.703 6.079-.855-2.348-1.382-3.402-1.623-4.517-4.95-22.89-15.631-43.042-28.987-62.048-9.523-13.551-10.63-9.143-2.386-27.551 19.53-43.615 46.348-82.441 78.266-117.767 24.76-27.402 53.596-49.924 85.457-68.58 8.052-4.716 16.212-9.267 24.085-14.266 41.48-26.343 87.205-41.056 135.235-49.315 21.098-3.627 42.337-4.828 63.707-1.888 13.183 1.815 26.733 1.848 39.605 4.866 21.19 4.97 41.292 13.349 58.34 27.34 24.746 20.31 48.812 41.398 69.417 66.084 1.684 2.018 3.249 4.133 4.372 5.568-5.045 13.82-10.61 26.685-14.443 40.047-9.08 31.649-12.84 64.029-9.774 96.92 1.823 19.554 4.565 39.023 6.852 58.534.258 2.203.246 4.435-.335 6.829-7.302-13.503-11.54-28.11-16.314-42.496-4.771-14.378-7.568-29.498-16.193-44.628-1.36 3.503-2.623 5.159-2.493 6.695.702 8.273.902 16.72 2.819 24.739 10.83 45.319 26.812 88.6 52.049 128.113 7.354 11.515 14.365 23.193 17.4 36.858 3.58 16.107 3.383 31.93-3.66 46.956-5.215 11.124-10.713 22.318-17.68 32.377-17.64 25.47-36.251 50.268-54.315 75.449-5.82 8.114-11.69 16.277-16.577 24.958-9.316 16.544-18.158 33.365-26.797 50.275-10.905 21.347-15.733 44.498-19.155 67.994-.333 2.289-.266 4.655-.171 6.977.035.846.692 1.666 1.624 3.74 1.136-2.15 2.064-3.334 2.415-4.67 1.436-5.476 2.65-11.01 4.03-16.5 5.965-23.731 15.003-46.111 27.384-67.336 15.142-25.958 31.12-51.138 50.555-74.241 15.638-18.59 29.81-38.456 43.97-58.231 6.56-9.16 12.183-19.138 17.112-29.288 13.854-28.534 11.777-56.883-3.058-84.411-5.364-9.955-11.645-19.441-17.875-28.9-7.998-12.143-13.173-25.018-15.222-39.652-5.234-37.386-8.38-74.887-6.62-112.582 1.314-28.078 6.914-55.514 17.649-81.694 1.769-4.316 3.26-8.804 5.542-12.838 3.699-6.541 2.383-12.074-2.214-17.395-8.277-9.58-16.03-19.673-24.898-28.671-17.307-17.564-35.028-34.762-55.37-48.922-2.975-2.072-4.568-4.288-4.58-8.13-.12-43.85 3.5-87.215 16.232-129.446 4.34-14.4 9.89-28.298 17.37-41.39a446.221 446.221 0 0139.306-57.817c9.27-11.57 19.896-21.625 32.609-29.196 24.905-14.83 49.984-29.37 75.058-43.914 11.817-6.856 23.919-13.226 35.62-20.265 4.792-2.881 9.026-6.776 13.179-10.575 1.51-1.381 2.05-3.822 3.033-5.78l-1.69-2.014M928.617 989.48c-8.3 9.17-15.932 17.509-23.453 25.945-6.431 7.214-12.95 14.368-19.035 21.868-6.167 7.604-6.17 10.89-.015 18.543 5.632 7.003 11.39 13.991 17.786 20.283 21.218 20.88 39.26 44.425 57.885 67.512 21.134 26.197 42.694 52.048 64.104 78.021 2.04 2.475 3.744 5.495 8.479 6.502-.417-2.78-.192-5.12-1.127-6.825-3.198-5.837-6.728-11.498-10.267-17.142-24.705-39.407-54.183-75.119-85.443-109.385-14.84-16.267-28.262-33.572-41.436-52.214 2.913-3.31 5.932-6.78 8.99-10.213 32.07-36.004 69.125-66.406 106.724-96.355 50.936-40.573 105.223-76.243 159.49-112.01 49.282-32.48 103.025-54.22 160.333-67.648 14.904-3.49 29.68-7.536 44.924-11.43 1.819 2.31 3.556 4.255 5.003 6.395 36.414 53.846 74.103 106.783 113.51 158.481 18.588 24.385 36.952 48.973 56.42 72.645 29.24 35.553 61.106 68.747 94.187 100.76 2.156 2.085 4.312 4.171 6.498 6.226 12.589 11.836 25.189 23.662 38.172 35.855-.576.414-1.464 1.264-2.515 1.78-61.85 30.354-126.67 52.762-192.972 70.877-39.187 10.706-78.545 21.162-118.942 26.418-14.483 1.884-29.237 1.677-43.866 2.452-3.323.176-6.662.3-9.954.743-2.762.372-5.605 1.644-5.56 4.726.03 1.971 1.414 4.543 3.017 5.745 3.436 2.576 7.376 4.495 11.166 6.583 4.277 2.356 8.616 4.603 14.238 5.618-.708-1.506-1.063-3.389-2.191-4.446-3.36-3.152-7.025-5.98-11.461-9.674 2.339-.64 3.762-1.367 5.186-1.367 44.462 0 86.94-11.939 129.894-21.23 57.133-12.356 112.494-30.467 167.46-50.027 23.346-8.309 45.033-20.047 66.896-31.41 5.529-2.874 9.977-3.655 15.816-.983 11.806 5.402 23.964 10.04 36.019 14.89 2.332.938 4.856 1.401 7.723 2.205.537-4.122-1.847-5.583-3.994-6.789a500.074 500.074 0 00-19.393-10.349c-6.84-3.457-13.917-6.457-20.66-10.085-5.045-2.716-9.862-3.884-15.324-.198-48.847-52.763-94.964-107.488-140.482-162.685-36.892-44.735-72.472-90.55-108.682-135.849-20.812-26.034-41.721-51.99-62.59-77.98-1.042-1.299-2.174-2.532-3.157-3.875-2.6-3.552-5.875-5.09-10.373-4.274-7.533 1.366-15.255 1.91-22.648 3.786-29.378 7.452-58.817 14.742-87.937 23.12-34.848 10.027-66.738 26.787-97.358 45.917a1596.717 1596.717 0 00-56.057 36.657c-5.875 4.023-10.147 3.831-16.112.345-46.894-27.406-94.112-54.258-140.967-81.727-34.49-20.218-62.091-47.968-84.895-80.59-10.258-14.677-15.4-30.878-13.618-49.015 2.403-24.475-3.922-46.74-16.556-67.699-6.17-10.236-11.401-21.13-16.097-32.137-7.99-18.725-11.095-38.38-8.023-58.668.788-5.204 2.658-10.283 4.377-15.302 6.144-17.944 13.894-35.343 17.267-54.204 3.592-20.076-.67-37.472-15.21-52.385-9.363-9.6-19.072-18.373-30.766-25.228-7.944-4.656-14.817-11.226-21.873-17.284-5.046-4.332-9.701-9.139-14.347-13.91-5.72-5.876-12.766-8.614-20.727-8.305-14.481.561-28.508-2.304-42.623-4.734-5.12-.882-10.456-2.562-14.962 1.55-.06 3.735 2.53 4.99 4.99 5.762 16.174 5.085 32.143 11.368 49.644 9.573 7.476-.767 13.75 1.427 18.75 7.194 2.618 3.017 5.567 5.746 8.213 8.741 8.882 10.05 18.719 18.928 30.238 25.931 11.653 7.085 19.928 17.727 27.667 28.517 5.817 8.112 6.91 18.116 5.168 27.872-1.75 9.8-4.046 19.571-7.032 29.062-3.294 10.468-7.526 20.65-11.571 30.868-3.008 7.597-3.727 15.528-3.963 23.53-.65 22.142 4.934 42.95 14.392 62.732 5.169 10.81 10.872 21.401 16.92 31.747 9 15.39 14.037 31.586 12.323 49.572-.316 3.313-.163 6.67-.427 9.988-1.493 18.768 3.958 35.652 14.405 50.938 5.818 8.51 11.946 16.928 18.854 24.555 24.068 26.57 50.564 50.082 82.776 66.806 34.597 17.962 68.575 37.112 103.017 55.38 12.027 6.378 24.628 11.675 38.238 18.061-8.412 6.871-16.981 11.772-24.938 17.486-8.393 6.026-16.865 11.945-25.144 18.123-8.013 5.978-15.868 12.171-23.713 18.37-7.846 6.198-15.613 12.497-23.38 18.796-7.765 6.3-15.538 12.591-23.215 18.997-7.931 6.621-15.832 13.285-23.595 20.102-7.461 6.55-14.728 13.32-22.53 20.4-1.503-2.075-2.76-3.568-3.753-5.22-7.217-11.993-14.311-24.06-21.576-36.024A63760.842 63760.842 0 00840.217 834c-5.033-8.25-10.592-16.192-15.367-24.584-16.72-29.39-37.286-56.005-58.655-82.054-13.564-16.535-28.548-31.662-44.886-45.485-6.348-5.372-12.6-10.946-18.27-17.013-11.274-12.063-15.618-26.063-10.422-42.37 1.716-5.389 2.834-10.965 4.337-16.424 3.336-12.113 2.277-23.956-3.304-35.047-7.933-15.768-16.501-31.215-24.782-46.809-4.687-8.825-10.123-17.357-13.793-26.589-3.662-9.208-6.167-19.002-8.062-28.756-3.527-18.16-10.791-34.207-23.832-47.48-7.872-8.014-13.425-17.54-16.543-28.198-3.36-11.486-5.676-23.275-8.616-34.889-1.186-4.685-.95-9.969-4.981-13.987-4.38 1.702-3.924 5.442-3.72 8.41.595 8.63 1.245 17.298 2.689 25.813 1.949 11.491 4.22 23.043 10.052 33.34 3.59 6.34 7.418 12.701 12.102 18.237 9.496 11.223 16.425 23.81 18.743 38.131 3.645 22.521 13.1 42.502 23.957 62.12 7.098 12.825 13.657 25.946 20.687 38.811 6.905 12.636 8.883 25.64 4.276 39.506-1.255 3.777-1.81 7.782-2.772 11.661-4.326 17.423-.493 33.18 10.535 46.98a137.303 137.303 0 0018.044 18.62c23.96 20.44 44.692 43.774 64.183 68.431 15.12 19.126 29.016 39 41.995 59.62 26.985 42.867 54.238 85.568 81.66 128.157 8.474 13.157 17.85 25.733 26.829 38.564 1.898 2.711 3.868 5.371 6.316 8.763"/>
    <path d="M2022.358 1788.694c3.412 4.444.36 6.689-1.626 9.24-15.55 19.96-31.118 39.908-46.575 59.94-1.746 2.265-3.599 3.694-6.469 4.07a453.6 453.6 0 00-17.778 2.689c-47.035 8.086-93.097 19.827-137.904 36.413-25.605 9.478-51.349 18.584-77.087 27.7-4.898 1.736-9.8 4.332-15.676 2.649-2.13-5.171-4.3-10.343-6.394-15.547-2.036-5.06-5.843-9.404-6.86-15.348 11.5-1.88 22.397-3.253 33.115-5.49 35.021-7.31 68.476-19.53 101.397-33.266 42.477-17.724 83.244-38.92 123.291-61.523 4.53-2.558 9.005-3.902 14.208-3.557 11.44.758 22.566-1.05 33.425-4.68 3.69-1.232 7.45-2.248 10.933-3.29m-353.356 23.164c-9.197 16.503-11.427 32.799-15.692 48.484-2.367 8.702-7.689 13.94-15.728 18.046-39.152 19.994-79.129 38.414-116.724 61.41-19.45 11.897-35.185 27.347-47.654 46.242-2.73 4.138-4.915 8.699-6.823 13.285-.626 1.505-.213 4.668.845 5.36 1.591 1.04 4.867 1.556 6.217.595 11.89-8.457 23.513-17.288 35.192-26.04.15-.111-.009-.632-.069-1.981-10.33 2.054-17.896 9.442-27.83 12.646 1.73-2.67 3.347-5.423 5.21-7.997 11.97-16.526 27.43-29.148 45.33-38.523 21.828-11.431 44.032-22.152 66.181-32.96 9.788-4.776 19.841-9.01 30.924-14.007-.648 2.709-.86 4.28-1.394 5.736-14.009 38.158-27.49 76.493-38.854 115.54-1.21 4.159-2.485 8.3-3.583 12.487-.59 2.25-1.263 4.963 1.57 6.083 3.523 1.392 4.47-1.755 5.704-4.037.472-.872.742-1.854 1.112-2.783 6.34-15.937 15.241-30.326 26.18-43.503 1.688-2.035 3.364-4.21 4.406-6.598.504-1.157-.099-3.235-.923-4.372-.515-.71-2.679-.997-3.583-.51-3.149 1.696-6.072 3.813-10.283 6.553.764-3.036 1.13-4.892 1.698-6.683 8.06-25.401 16.21-50.773 24.166-76.206 1.291-4.126 3.222-7.108 7.52-8.445 14.694-4.57 21.731-15.647 25.06-29.813 1.045-4.451 2.126-8.893 3.603-15.063 5.282 8.488 8.968 15.8 11.071 23.876 3.873 14.87 9.02 29.225 15.798 43.072 3.482 7.115 5.83 14.833 8.193 22.433 1.816 5.839 5.417 9.207 11.334 9.59 3.587.23 7.37-.05 10.833-.972 6.101-1.624 12.06-3.816 18.017-5.941 31.063-11.082 61.871-22.942 93.216-33.16 42.838-13.963 86.767-23.596 131.53-29.116 5.591-.69 9.978-2.143 13.378-7.195 7.247-10.766 15.052-21.16 22.74-31.624 6.495-8.843 13.148-17.571 20.408-27.252 1.526 2.539 2.743 4.619 4.012 6.666 4.197 6.77 9.567 6.71 13.668-.284 2.817-4.804 5.36-9.77 7.807-14.26 1.74.143 2.5-.015 2.99.278 10.224 6.104 12.42 5.48 20.186-3.29 11.475-12.957 23.368-25.502 37.257-36.037 24.621-18.678 42.055-42.198 49.953-72.66 8.286-31.95 15.526-64.077 20.973-96.63 3.518-21.024 7.58-41.958 11.202-62.966 2.957-17.15 4.353-34.376 1.332-51.705-3.792-21.751-14.098-40.087-29.675-55.435-7.609-7.497-16.242-13.867-25.992-18.442-22.916-10.754-45.767-21.658-68.914-31.894-5.93-2.623-12.847-4.125-19.334-4.2-27.692-.314-52.456 8.286-73.222 26.9-4.1 3.676-6.936 8.81-10.095 13.448-.779 1.146-.542 2.983-.938 5.59 2.787-.79 4.802-.895 6.236-1.861 3.581-2.416 6.933-5.18 10.312-7.884 12.198-9.761 25.862-16.064 41.298-19.041 17.311-3.34 33.33-1.9 49.272 6.702 13.72 7.404 28.73 12.399 43.066 18.69 9.442 4.144 19.233 7.842 27.95 13.227 25.514 15.76 37.668 39.54 39.168 69.132.75 14.776-1.64 29.26-4.449 43.654-8.678 44.46-17.525 88.889-26.358 133.319-.91 4.57-2.325 9.039-3.237 13.61-5.83 29.219-22.774 51.33-44.63 70.406-6.262 5.466-12.08 11.439-18.215 17.056-3.668 3.358-7.523 6.515-11.355 9.69-4.09 3.39-8.25 6.694-12.409 10.058-.565-.121-1.339-.061-1.774-.416-8.452-6.9-11.179-6.801-18.323.823-1.767 1.886-3.447 3.855-6 6.72-.915-3.535-1.559-5.944-2.16-8.364-2.936-11.823-9.096-15.807-20.458-12.044-17.029 5.64-34.376 7.374-52.214 6.75-12.593-.44-24.377-3.008-35.457-9.056-2.409-1.314-5.669-4.15-7.983-.821-2.24 3.22 1.351 5.218 3.394 7.29 8.054 8.17 18.472 11.537 30.42 14.486-1.429 1.32-2.103 2.268-3.023 2.749-42.245 22.102-85.224 42.656-129.706 59.879-26.718 10.345-53.7 20.068-81.763 26.22-10.066 2.209-20.35 3.46-30.568 4.927-2.917.419-5.945.065-10.016.065-2.045-5.231-4.573-10.63-6.279-16.276-3.902-12.918-9.29-24.923-18.512-35.037-1.337-1.467-2.335-4.347-1.872-6.161 2.044-8.005 4.308-16.004 8.674-23.837 3.853.364 7.445.66 11.027 1.049 23.07 2.492 45.237-.248 65.896-11.48 2.748-1.494 6.295-2.421 7.058-7.495-2.639.234-4.87-.002-6.766.686-4.692 1.7-9.285 3.707-13.82 5.8-18.2 8.398-37.292 8.896-57.925 6.762 1.945-2.69 3.326-4.748 4.854-6.69 7.797-9.905 9.217-20.453 3.084-31.657-1.913-3.495-3.937-7.008-6.426-10.095-19.504-24.196-36.308-50.206-52.14-76.887-2.204-3.711-4.669-7.316-7.428-10.624-1.333-1.597-3.63-2.39-5.84-3.763-2.796 5.69.058 9.747 2.083 13.71 11.851 23.18 24.836 45.67 41.21 66.037 3.34 4.156 6.652 8.335 9.943 12.53 2.056 2.623 3.957 5.372 6.086 7.93 11.64 13.994 3.36 25.958-9.542 33.154-9.387 5.235-20.19 6.645-30.722 8.388-18.12 2.997-36.358 4.488-54.74 4.309-13.997-.136-27.997-.001-41.995-.052-3.279-.011-6.556-.285-10.854-.486-.212-3.956-.705-7.5-.537-11.013.76-15.971 1.633-31.937 2.603-47.896 1.8-29.598 3.683-59.19 5.555-88.784.63-9.94 1.33-19.874 2.057-30.696 1.763-1.21 4.225-2.84 6.63-4.554 15.734-11.22 31.494-22.401 47.148-33.732 2.947-2.132 5.55-4.78 8.135-7.364 5.54-5.537 7.77-12.218 6.813-20.05-.918-7.512-1.592-15.055-2.458-23.395-6.405 1.957-11.24 4.144-15.035 9.549 1.96 1.162 3.568 2.064 5.12 3.056.827.53 2.077 1.094 2.25 1.847 1.69 7.347 5.197 14.969-.278 21.974-3.016 3.857-6.733 7.457-10.812 10.143-20.592 13.559-41.427 26.748-62.129 40.14-5.312 3.436-10.878 6.662-15.552 10.849-4.38 3.925-8.146 8.719-11.456 13.62-6.43 9.52-14.739 12.125-24.862 6.438-11.356-6.38-17.712-16.776-21.452-28.923-.879-2.852-1.017-5.941-1.963-8.765-1.597-4.77-5.71-5.647-9.179-2.075-2.305 2.375-4.098 5.35-6.675 7.338-7.27 5.604-15.729 8.79-24.753 10.039-11.349 1.569-19.349-5.516-19.629-16.943-.122-4.997.162-10.012-.134-14.994-.45-7.578-3.445-9.354-10.456-6.717-4.968 1.869-9.93 3.798-15.009 5.312-2.505.748-5.275.882-7.917.832-6.103-.115-8.867-1.89-9.544-7.974-.766-6.888-.248-13.925-.167-20.896.034-2.978.688-5.973.491-8.923-.19-2.854-1.829-5.06-5.018-5.261-3.28-.207-4.782 1.793-5.292 4.774-.056.328-.058.666-.12.992-2.063 10.97-2.06 10.986-13.717 12.682-2.93.427-6.339.205-6.926 4.178-.422 2.858 2.897 4.506 7.812 3.708 3.243-.528 6.406-1.548 10.392-2.544.423 2.539.765 4.657 1.131 6.772.62 3.59.91 7.28 1.954 10.742 2.277 7.546 7.598 11.749 15.501 11.75 4.943 0 9.915-.784 14.82-1.561 3.234-.513 6.372-1.642 10.267-2.686 2.142 5.449.065 10.95 1.542 15.82 1.51 4.982 3.926 9.69 6.18 15.077-8.72 3.5-17.907 7.162-27.073 10.873-36.988 14.974-67.43 38.662-92.383 69.597-5.118 6.343-4.983 6.452-6.892 14.176 9.272-6.502 14.7-15.387 22.36-21.857 7.634-6.446 15.214-12.983 23.183-18.997 8.231-6.213 16.626-12.305 25.46-17.6 8.547-5.122 17.567-9.567 26.706-13.564 9.28-4.06 18.522-8.395 29.33-12.235-.47 3.582-.543 5.523-.992 7.373-8.319 34.3-16.72 68.583-24.969 102.9-.678 2.82-.71 5.906-.399 8.799.133 1.23 1.927 2.28 2.876 3.314 4.201-1.5 3.982-4.947 4.705-7.614 6.796-25.073 13.42-50.193 20.187-75.275 1.995-7.393 4.467-14.658 6.39-22.068 1.247-4.804 1.823-9.778 2.84-14.647.526-2.52 1.356-4.976 2.163-7.867 15.703.887 29.053-4.823 42.316-12.742 1.424 2.18 2.96 3.898 3.785 5.908 3.501 8.529 9.456 15.28 15.797 21.65 2.763 2.774 6.257 5.04 9.79 6.786 13.818 6.829 27.607 2.963 35.143-10.521 5.18-9.268 12.902-14.676 23.276-19.745.818 12.492-1.892 23.535-2.152 34.664-.265 11.315-1.42 22.606-1.994 33.917-.557 10.982-.94 21.973-1.27 32.963-.34 11.325-.352 22.662-.827 33.979-.474 11.298-1.345 22.578-2.04 33.852-2.875 2.804-6.309 1.746-9.513 1.34-18.502-2.336-37.028-4.533-55.475-7.261a957.045 957.045 0 01-133.547-29.642c-14.3-4.264-28.266-9.656-43.855-15.041 2.041 1.898 3.093 3.227 4.445 4.08 15.057 9.495 31.536 15.777 48.356 21.288 46.996 15.399 95.22 25.134 144.047 32.67 44.436 6.858 89.01 6.685 133.632 5.044 15.548-.571 30.985-4.191 46.471-6.431 2.234-.323 4.46-.71 9.214-1.47"/>
    <path d="M572.15 1580.198c-5.322 2.54-8.456 4.382-11.82 5.58-13.793 4.906-27.483 10.223-41.54 14.232-13.874 3.955-25.925 10-35.244 21.35-8.628 10.511-19.982 16.384-33.66 17.5-4.329.354-8.53.135-13.285-2.264 1.361-2.109 2.134-3.886 3.403-5.174 5.613-5.694 11.263-11.36 17.094-16.828 13.272-12.446 23.386-27.286 32.726-42.72 4.485-7.414 8.63-15.042 13.321-22.319 3.782-5.865 7.842-11.613 12.333-16.946 8.37-9.939 16.883-19.783 25.81-29.218 11.796-12.465 24.908-23.215 42.133-27.4 4.177-1.016 8.473-1.776 12.754-2.074 11.298-.784 22.631-1.067 33.925-1.896 11.414-.838 22.265-4.242 32.702-8.724 10.097-4.337 19.943-9.257 29.906-13.907 29.302-13.675 58.814-26.902 89.941-35.928 39.692-11.509 79.63-22.116 120.862-26.634 27.818-3.049 55.713-5.414 83.508-8.652 15.61-1.818 31.211-2.146 46.874-2.34 23.357-.29 43.473-8.633 60.708-25.6 28.691 10.155 57.883 11.278 87.731-2.449 0 3.291.167 5.485-.027 7.648-1.524 16.983-4.936 33.59-9.882 49.907-13.76 45.404-32.322 88.888-52.49 131.735-.54 1.148-1.38 2.155-2.532 3.921-9.28-5.719-18.275-11.246-27.25-16.803-1.984-1.226-3.954-2.486-5.845-3.85-7.14-5.146-14.693-5.642-22.73-2.343-6.78 2.782-13.802 5.021-20.433 8.11-19.653 9.151-40.58 12.714-61.889 14.841-28.85 2.88-57.68 5.99-86.756 4.864-33.29-1.29-66.643-1.698-99.85-4.108-17.156-1.245-34.148-5.582-51.042-9.299-12.992-2.858-25.73-6.88-38.554-10.483-7.868-2.208-9.245-1.906-14.325 4.925-4.375 5.882-8.57 11.898-12.77 17.907-18.364 26.274-38.656 50.96-60.786 74.148-3.444 3.608-6.629 7.482-9.736 11.391-1.644 2.068-3.74 4.338-4.118 6.754-1.525 9.734-6.917 17.028-13.549 23.745-.597.603-.657 1.736-.974 2.646 10.911 2.603 16.445.1 18.354-10.104 2.333-12.48 9.487-21.588 17.336-30.85 18.522-21.857 36.572-44.116 54.711-66.296 5.271-6.445 10.137-13.22 15.297-19.759 3.918-4.964 3.921-4.65 11.024-2.605 28.836 8.301 57.913 15.654 87.85 18.624 11.241 1.115 22.621.797 33.937 1.183 21.303.728 42.605 1.484 63.907 2.273.961.035 1.906.504 2.766.745.453.648 1.15 1.18 1.162 1.73.324 12.964.698 25.932.794 38.902.061 8.206-4.136 14.113-11.558 17.121-5.493 2.227-11.332 4.105-17.18 4.835-10.074 1.255-15.366 6.891-17.918 16.168-2.084 7.576-1.814 15.211-.792 22.817 3.617 26.9 10.313 52.978 21.9 77.614 2.641 5.618 3.382 11.245 3.573 17.341.558 17.807-1.265 35.232-6.209 52.376a95.064 95.064 0 00-3.232 16.661c-1.87 18.492-8.495 35.603-15.139 52.664-2.64 6.78-6.504 13.121-10.182 19.447-8.09 13.917-7.523 21.411 3.863 32.985 11.271 11.458 24.045 21.116 38.018 29.066 17.957 10.215 35.736 20.813 54.151 30.141 50.86 25.763 100.602 53.494 149.826 82.245 68.077 39.761 140.552 68.731 217.504 86.311 41.815 9.553 84.255 12.824 127.01 12.955 5.291.016 10.607-.945 15.872-1.729 3.264-.486 6.604-1.266 7.902-5.32-2.318-3.986-6.276-2.978-9.724-3.125-15.642-.667-31.29-1.18-46.934-1.846-47.578-2.02-93.716-11.745-139.29-25.16-62.427-18.377-121.024-45.293-176.885-78.275-43.643-25.767-88.067-50.02-133.178-73.104-20.744-10.614-40.805-22.592-60.949-34.34-12.128-7.074-23.148-15.755-32.704-26.128-6.765-7.344-6.909-8.884-2.093-17.514 13.671-24.5 21.491-50.827 24.68-78.612.114-.994.171-1.995.324-2.982 2.651-17.058 7.672-33.76 6.887-52.068 1.735 1.014 2.811 1.266 3.197 1.923 12.327 20.964 24.497 42.021 36.91 62.933 3.73 6.281 6.57 12.401 1.601 20.384 2.928 0 5.046.65 6.322-.113 5.32-3.176 7.41-8.55 5.776-14.586a45.68 45.68 0 00-3.642-9.28c-3.41-6.482-7.129-12.803-10.709-19.197-11.554-20.634-23.26-41.186-34.547-61.966-2.98-5.488-4.66-11.683-6.94-17.552-.724-1.862-1.144-3.934-2.239-5.543-10.025-14.727-13.166-31.85-16.856-48.72-1.632-7.456-2.159-15.156-3.127-22.754-.209-1.646-.249-3.328-.21-4.989.317-13.538 2.58-15.996 15.926-17.699 2.962-.378 5.957-.827 8.814-1.662 16.164-4.728 24.114-14.424 24.083-31.3-.025-13.276-1.483-26.549-2.354-40.627 1.697-.348 3.794-1.008 5.93-1.178 20.914-1.665 41.845-3.148 62.754-4.895 10.95-.915 21.862-2.287 32.797-3.392 17.772-1.796 34.097-8.915 51.027-13.807 1.917-.553 3.825-1.194 5.66-1.978 6.61-2.826 12.585-2.479 18.875 1.672 7.208 4.756 15.11 8.455 22.693 12.642 2.884 1.593 5.721 3.27 8.303 4.747 1.126 4.936-1.518 8.302-3.006 11.87-14.142 33.914-24.952 68.893-33.52 104.581-4.53 18.866-6.087 38.134-7.048 57.46-.59 11.907 2.45 23.11 6.651 34.076.341.891 1.09 1.627 2.19 3.215 1.367-2.029 2.362-3.126 2.883-4.416.34-.844.144-1.998-.064-2.959-6.505-30.009-.382-59.153 7.478-87.746 12.2-44.379 27.422-87.734 48.602-128.83 19.566-37.962 36.298-77.133 49.576-117.799 11.902-36.448 15.31-73.498 10.808-111.488-2.62-22.115-12.263-40.64-27.414-56.515-9.206-9.646-21.22-14.899-33.292-19.71-17.44-6.953-35.746-10.624-54.369-12.54-4.905-.504-9.946.07-14.9.45-1.377.104-2.67 1.29-4.878 2.435 4.446 2.786 8.44 2.784 12.334 3.255 16.226 1.961 32.576 3.862 47.648 10.512 10.917 4.816 22.285 9.7 31.51 17.005 14.026 11.108 24.072 25.803 27.758 43.925 2.8 13.762 3.741 27.664 2.72 42.1-10.235 4.686-21.05 7.088-31.942 7.04-12.93-.055-25.906-1.512-38.753-3.194-5.127-.67-9.967-3.555-14.93-5.45-6.353-2.427-8.528-1.982-11.129 4.02-3.115 7.188-8.545 11.666-15.049 15.39-11.233 6.43-23.213 10.282-36.203 9.797-28.116-1.049-55.845 2.96-83.666 5.878-19.877 2.085-39.769 4.03-59.647 6.112-27.936 2.927-54.936 10.291-82.129 16.931-43.937 10.727-85.743 26.965-126.342 46.606-2.999 1.451-6.072 2.768-8.99 4.366-22.845 12.51-47.535 16.738-73.254 16.611-17.949-.088-34.038 5.552-48.313 16.373-3.45 2.615-7.063 5.132-10.05 8.226-18.283 18.93-37.217 37.49-50.31 60.564-15.076 26.564-33.795 50.258-53.85 73.061-2.413 2.742-4.714 5.65-6.619 8.754-4.668 7.612-1.92 14.208 6.997 15.084 7.185.706 14.707.487 21.788-.857 9.59-1.823 18.544-6.113 25.127-13.576 11.731-13.302 26.741-20.156 43.38-25.144 11.077-3.32 21.554-8.772 32.078-13.74 4.337-2.048 8.72-4.745 10.77-12.428M1014.497 2418.962c37.73-1.535 73.926-8.578 106.369-29.911 2.424 2.257 4.674 4.203 6.757 6.313 50.768 51.42 106.972 96.23 166.502 136.997 2.744 1.879 5.544 3.75 8.53 5.183 3.957 1.897 7.378 1.157 8.886-1.582 1.705-3.097.687-5.84-1.581-8.162-3.954-4.05-8.17-7.855-11.986-12.027-5.171-5.653-10.006-11.612-15.114-17.324-2.115-2.365-3.88-5.484-8.531-5.282l.517 8.678c-46.672-33.6-90.37-68.925-131.597-107.352-41.145-38.35-79.445-79.446-117.835-120.646 1.043 5.715 4.345 10.194 7.796 14.42 15.383 18.84 30.709 37.737 46.514 56.22 9.955 11.642 20.722 22.588 31.12 33.85 1.778 1.927 3.532 3.874 5.925 6.5-17.713 6.78-35.184 11.468-53.145 14.424-6.242 1.028-12.541 1.784-18.724 3.088-12.661 2.669-25.144 2.175-37.568-1.283-2.236-.622-4.502-1.405-6.787-1.528-6.073-.33-9.383 4.023-7.467 9.696.63 1.87 1.739 3.586 2.674 5.349 16.557 31.19 33.808 62.036 49.458 93.675 11.95 24.159 22.116 49.219 32.63 74.066 10.008 23.65 20.802 46.896 33.108 69.436 22.547 41.294 50.899 78.292 85.189 110.33 41.113 38.416 87.052 70.28 137.415 95.599 6.845 3.44 13.624 7.015 20.45 10.493 1.778.905 3.559 1.87 5.444 2.479 5.473 1.763 9.594-.052 10.598-5.64 4.82-26.832 20.735-47.22 38.198-66.732 19.189-21.44 40.349-40.724 64.096-57.015 30.496-20.92 61.123-41.65 91.79-62.318 9.687-6.528 19.369-12.968 27.493-21.498 13.417-14.09 18.626-30.458 17.662-50.105-1.83-37.307-9.274-73.287-21.54-108.4-6.152-17.61-12.241-35.25-18.871-52.682-21.794-57.302-42.772-114.891-61.295-173.342-7.65-24.138-14.616-48.478-17.997-73.692-.478-3.566-1.714-7.14-3.217-10.43-1.604-3.511-5.341-3.794-6.847-.403-1.845 4.156-3.723 8.837-3.582 13.226.32 9.94 1.137 19.986 3.045 29.736 8.474 43.292 22.338 85.023 37.948 126.174 18.43 48.587 37.455 96.949 55.843 145.552 8.847 23.382 16.53 47.19 19.944 72.097 1.763 12.867 3.567 25.776 4.298 38.725.838 14.854-5.03 27.606-16.367 37.057-8.401 7.005-17.555 13.268-26.961 18.878-35.825 21.368-70.041 45.089-103.487 69.943-25.022 18.594-46.857 40.552-66.114 65.004-10.745 13.643-20.385 28.054-25.17 45.109-.341 1.22-1.257 2.28-2.113 3.774-2.313-.917-4.505-1.598-6.526-2.617-49.05-24.723-94.171-55.333-135.934-90.942-5.066-4.32-10.072-8.767-14.663-13.578-30.722-32.195-58.578-66.587-78.684-106.568-10.92-21.713-21.623-43.586-31.19-65.915-21.413-49.976-45.275-98.702-71.86-146.114a100.456 100.456 0 01-3.596-7.108c-.234-.508.088-1.272.15-1.875"/>
    <path d="M920.139 1575.424c-.848 6.962 1.43 12.204 3.364 17.38 6.293 16.849 12.325 33.822 19.364 50.36 13.85 32.54 29.982 63.919 49.362 93.59 10.865 16.635 24.46 30.814 39.245 43.78 5.613 4.922 12.822 8.623 19.925 11.09 8.445 2.934 17.12 1.22 24.886-3.691 9.405-5.95 17.183-13.687 24.236-22.184 16.626-20.03 31.656-41.22 45.497-63.253 5.67-9.03 11.308-18.083 16.76-27.244 2.359-3.961 5.24-6.2 10.007-7.198 5.449-1.141 10.635-3.714 15.806-5.963 5.132-2.232 10.103-4.835 16.048-7.712.45 2.415.925 3.883.97 5.362.647 21.187 7.669 40.517 17.965 58.64 3.365 5.924 8.705 10.813 13.563 15.762 2.353 2.396 2.794 1.965 7.947.437.556-4.09-2.445-6.704-4.235-9.766-10.47-17.93-19.233-36.546-23.45-57.038-.335-1.631-.71-3.262-.911-4.911-1.676-13.683-1.274-14.375 10.866-21.147 22.515-12.561 42.863-28.204 62.389-44.874 12.148-10.371 23.547-21.625 35.189-32.581 2.042-1.922 3.624-4.33 6.56-7.901-6.336 1.174-9.307 4.358-12.554 6.92-14.644 11.56-29.15 23.297-43.843 34.79-28.033 21.929-59.154 38.444-91.921 52.029-.905.374-1.88.579-2.758.844-.346-.296-.69-.468-.826-.744-.131-.262-.174-.707-.037-.945 22.567-39.186 45.153-78.36 68.232-118.39-2.192 1.516-4.264 2.387-5.537 3.92-6.8 8.195-13.94 16.183-19.956 24.935-11.697 17.015-22.708 34.504-34.034 51.775-30.152 45.979-60.735 91.664-93.333 135.96-4.338 5.894-9.255 11.364-13.96 16.983-3.926 4.688-8.966 7.769-14.414 10.495-6.901 3.453-13.445 3.523-19.895-.623-3.626-2.331-7.292-4.71-10.5-7.563-16.266-14.473-30.815-30.6-42.315-49.058-16.546-26.56-33.92-52.707-46.262-81.662-7.185-16.854-14.206-33.778-21.41-50.624-1.37-3.203-2.316-6.785-6.03-9.98M2313.339 2608.907c3.966-3.053 4.306-7.242 4.404-11.048.266-10.312.447-20.664-.171-30.95-.613-10.192-4.871-19.358-10.65-27.668-3.412-4.906-7.105-9.72-11.291-13.966-9.41-9.547-17.815-19.883-24.812-31.253-15.703-25.526-32.092-50.708-46.254-77.076-10.682-19.888-25.842-33.552-45.705-42.82-10.925-5.098-22.36-8.575-34.5-9.498-11.131-.847-22.023.013-32.344 4.475-15.281 6.606-30.453 13.464-45.676 20.206-5.782 2.56-11.436 5.497-17.39 7.574-31.49 10.982-59.2 28.782-86.296 47.651-11.867 8.265-19.415 20.173-24.551 33.371-6.638 17.054-12.287 34.491-18.687 51.642-7.333 19.652-14.352 39.464-22.766 58.655-6.701 15.281-16.704 28.761-27.792 41.33-3.518 3.986-7.054 8.07-9.837 12.57-5.68 9.182-1.9 16.652 8.959 17.202 6.242.316 12.618-.66 18.83-1.678 2.826-.463 5.514-2.258 8.034-3.822.843-.523 1.545-2.379 1.26-3.305-.29-.95-1.827-2.047-2.885-2.12-1.94-.137-3.93.42-5.897.71-7.674 1.135-12.662.913-20.06-1.054.97-1.787 1.646-3.61 2.8-5.053 3.54-4.419 7.295-8.666 10.91-13.026 13.252-15.983 24.946-32.913 32.187-52.587 6.784-18.433 13.652-36.835 20.497-55.244 4.758-12.794 9.408-25.63 14.354-38.353 5.48-14.102 14.508-25.428 27.64-33.152 25.254-14.853 50.215-30.229 77.56-41.216 8.299-3.336 15.988-8.169 24.03-12.166 12.217-6.073 24.396-12.238 36.78-17.953 13.875-6.403 28.392-6.53 43.029-3.05 12.44 2.956 23.985 8.064 34.487 15.371 9.447 6.574 17.075 14.806 22.263 25.197 15.348 30.747 32.98 60.177 52.114 88.677 7.215 10.746 15.279 21.031 23.859 30.726 11.066 12.507 17.482 26.55 18.257 43.237.325 6.985.962 13.957 1.589 20.923.26 2.885-.207 6.135 3.72 8.541M1128.24 2722.293c-2.622 5.278-5.644 10.402-7.762 15.875-2.526 6.525-6.672 11.333-12.381 15.186-6.067 4.095-11.923 8.508-17.825 12.844-17.531 12.877-36.903 21.077-58.644 23.481-12.038 1.331-23.563 4.573-34.051 10.762-14.822 8.747-23.493 22.279-28.525 38.298-2.83 9.004-.547 17.874 2.358 26.443 6.778 19.992 18.08 37.2 34.132 50.815 12.166 10.318 24.796 20.252 38.085 29.048 25.28 16.734 47.475 36.267 64.71 61.522 15.585 22.837 32.768 44.46 52.35 64.178 23.062 23.219 50.92 38.333 80.929 50.069 10.646 4.163 21.875 6.228 33.307 5.316 18.902-1.507 37.767-3.502 56.633-5.433 3.909-.4 7.872-1.188 10.8-5.508-1.711-1.296-3.026-3.049-4.606-3.334-3.565-.643-7.265-.796-10.903-.733-16.651.291-33.304.572-49.947 1.153-16.357.57-31.424-3.881-46.492-9.828-37.558-14.824-65.896-40.888-90.152-72.13-8.372-10.784-16.683-21.651-24.364-32.929-16.627-24.412-38.22-43.426-63.018-58.971-14.447-9.057-27.914-19.352-40.774-30.475-13.365-11.559-22.711-25.911-29.38-42.23-8.954-21.915-.584-39.224 18.398-53.669 7.505-5.71 16.742-8.063 25.997-9.718a309.848 309.848 0 0113.815-2.177c15.82-2.096 30.415-7.806 43.536-16.547 11.333-7.55 22.084-16.073 32.506-24.86 9.778-8.242 15.064-23.988 11.268-36.448M1162.729 2329.22c-34.438-23.04-68.61-45.615-101.092-70.654-22.984-17.716-45.327-36.14-65.659-56.894-25.258-25.783-47.903-53.694-67.466-84.032-29.403-45.595-46.113-95.752-52.91-149.806-2.357 7.671-3.042 16.751-1.246 26.806 2.986 16.715 6.107 33.416 9.723 50.003 1.622 7.442 4.127 14.777 7 21.848 16.664 41.012 38.983 78.54 67.078 112.946 30.79 37.71 66.772 69.58 104.585 99.845 34.243 27.41 71.325 50.183 109.807 70.893 3.172 1.707 6.658 2.974 10.145 3.872 1.202.31 3.459-.768 4.13-1.879.659-1.094.449-3.368-.296-4.543-3.722-5.874-7.703-11.588-11.677-17.3-3.644-5.237-4.632-5.335-12.122-1.106M2683.67 2308.555c-23.378-9.712-37.378-25.884-49.194-45.282.28 1.935.08 4.118.928 5.76 2.893 5.597 5.73 11.305 9.363 16.42 7.817 11.006 17.904 19.7 29.585 26.439 3.14 1.812 6.642 3.097 10.11 4.215 2.883.93 6.073 1.254 8.354-1.41 2.555-2.983 1.647-6.237.022-9.315-1.086-2.06-2.2-4.14-3.586-5.996-3.98-5.337-7.93-10.714-12.211-15.806-9.647-11.476-19.602-22.694-29.228-34.188-26.582-31.737-40.403-68.585-43.271-109.67-1.171-16.782 1.8-33.197 5.327-49.515 5.014-23.193 11.913-45.733 22.55-67.056 10.085-20.213 24.655-36.006 43.863-48.04 28.269-17.708 59.022-27.586 91.976-30.923 11.91-1.207 23.933-1.287 35.892-2.051 7.3-.466 14.59-1.163 21.863-1.953 2.288-.248 4.736-.733 6.689-1.848 1.81-1.033 3.99-2.872 4.34-4.68.587-3.03-2.046-4.698-4.804-5.33-1.922-.441-3.985-.636-5.946-.474-24.211 2-48.636 1.146-72.66 5.674-35.29 6.65-67.413 20.488-96.295 41.863-13.653 10.104-24.041 22.898-32.025 37.809-11.6 21.66-18.114 45.038-23.54 68.796-4.092 17.912-7.032 35.957-6.251 54.432 1.347 31.872 10.059 61.607 25.593 89.443 11.789 21.125 27.622 39.144 43.275 57.33 5.213 6.058 10.24 12.276 15.254 18.5 1.156 1.437 1.906 3.2 4.027 6.856M1318.476 1945.452c7.131-10.918 11.628-22.66 15.613-34.673 1.401-4.221 1.126-7.68-1.186-11.31-5.366-8.422-10.449-17.028-15.959-25.353-8.849-13.37-16.209-27.48-23.1-41.96-13.343-28.04-24.968-56.674-33.39-86.582-.398-1.41-1.31-2.674-2.914-5.851-.945 3.307-1.82 4.748-1.647 6.05.617 4.61 1.11 9.325 2.518 13.723 4.967 15.528 9.484 31.272 15.657 46.326 12.012 29.29 26.07 57.66 41.678 85.23 1.64 2.899 2.98 6.119 5.191 8.513 5.87 6.352 5.38 12.81 1.98 20.116-3.084 6.627-4.992 13.8-8.073 20.429-1.992 4.287-1.318 7.604 1.226 11.108 2.937 4.043 5.65 8.253 8.656 12.24 36.31 48.148 72.43 96.44 109.101 144.31 14.751 19.256 8.522 14.326 32.456 22.599 1.89.653 3.771 1.333 5.686 1.9 3.74 1.109 6.245 2.958 7.128 7.276.63 3.08 2.4 6.239 4.475 8.664 15.376 17.959 30.983 35.719 46.463 53.589 12.65 14.603 24.792 29.673 37.931 43.819 21.533 23.185 43.663 45.816 65.613 68.61 4.17 4.33 4.323 4.184 9.93 6.073-.333-4.2-3.34-6.597-5.579-9.194-13.702-15.898-27.396-31.81-41.425-47.417-27.626-30.736-54.622-61.996-80.492-94.234-6.454-8.041-13.725-15.432-20.738-23.013-6.338-6.853-6.332-6.748-1.917-15.395 2.265-4.438 4.39-8.97 6.225-13.6 1.658-4.181.52-6.188-3.76-7.393-1.915-.538-3.935-.691-5.896-1.077-3.65-.718-5.76 1.083-6.768 4.323-.974 3.133-1.682 6.348-2.474 9.4-4.405.185-25.177-3.09-27.514-4.703-2.14-1.475-4.082-3.393-5.704-5.44-9.314-11.745-18.606-23.513-27.724-35.412-29.792-38.874-59.493-77.817-89.265-116.706-3.828-5.001-7.87-9.837-12.002-14.985M1795.182 1801.019c-3.973-4.039-3.221-7.942-3.704-11.45-1.86-13.518-3.49-27.067-5.39-40.579-.545-3.883-1.424-7.812-5.293-11.559-.926 2.368-2.091 3.968-2.065 5.55.066 4.125.655 8.241-.417 12.756-5.196-6.808-10.58-13.482-15.547-20.453-9.531-13.377-21.01-24.945-32.842-36.214-2.412-2.297-4.752-4.672-7.21-6.918-4.685-4.285-5.776-9.534-4.284-15.488.648-2.582 1.299-5.176 2.17-7.687 5.593-16.11 8.752-32.79 11.699-49.519 2.853-16.196 8.074-31.475 15.984-45.994 14.22-26.107 32.35-48.788 55.96-66.988 5.54-4.27 10.943-8.719 16.333-13.178 2.743-2.27 5.955-4.278 6.579-9.107-2.094-.277-4-1.001-5.674-.643-2.555.545-5.206 1.446-7.373 2.87-25.764 16.935-49.754 35.622-66.13 62.65-12.873 21.251-24.113 42.971-27.806 67.914-.974 6.581-2.064 13.184-3.728 19.615-2.833 10.949-5.53 22.004-9.443 32.586-5.071 13.713-2.281 24.876 8.64 34.092 23.039 19.439 41.95 42.76 61.862 65.152 2.818 3.169 4.406 6.491 4.254 10.745-.118 3.325-.24 6.701.186 9.982.639 4.929.987 10.111 2.833 14.622 3.815 9.323 7.806 12.677 18.599 8.878 16.953-5.968 33.904-11.959 50.98-17.56 9.784-3.209 19.82-5.646 29.728-8.481 2.413-.691 4.77-1.579 7.947-2.642-4.53-5.445-9.941-5.899-15.007-6.129-16.526-.751-32.403 1.89-47.582 9.038-11.1 5.227-22.69 9.41-34.26 14.139M1093.452 1203.155c2.565 3.942 6.547 3.181 10.02 3.312 17.643.664 35.29 1.338 52.942 1.64 16.988.288 33.992-.185 50.972.29 8.604.241 17.265 1.333 25.732 2.932 13.65 2.578 25.894 8.535 36.523 17.576 21.308 18.123 42.57 36.302 63.868 54.436a5625.61 5625.61 0 0029.752 25.181c22.955 19.274 45.501 39.073 69.083 57.548 13.468 10.551 25.44 22.451 37.524 34.367 3.077 3.035 6.211 6.06 9.62 8.7 3.938 3.052 8.386 4.206 12.957 1.17 4.613-3.065 4.865-7.698 3.881-12.477-.532-2.58-1.395-5.185-2.618-7.51-3.095-5.89-6.11-11.877-9.822-17.376-8.014-11.87-16.37-23.512-24.748-35.132-2.592-3.594-5.126-7.406-10.79-10.982 12.555 23.448 28.835 42.43 36.654 66.048.39 1.173.262 2.516.477 4.904-2.47-1.239-4.26-1.802-5.639-2.887-4.972-3.914-9.913-7.882-14.676-12.046-45.395-39.694-90.858-79.309-133.266-122.267-18.325-18.562-39.195-34.085-60.456-49.055-10.008-7.046-21.289-10.893-33.56-11.627-34.265-2.047-68.548-2.91-102.865-1.672-10.65.384-21.306.71-31.948 1.274-3.435.181-7.409-.39-9.617 3.653M2361.877 2614.515c18.506-46.381 47.936-84.736 81.231-121.222-3.68-1.62-5.627.52-7.286 2.165-9.209 9.136-18.406 18.292-27.31 27.723-3.871 4.1-6.78 9.096-10.555 13.299-18.496 20.59-31.151 44.732-42.74 69.548-1.69 3.619-3.445 7.209-5.199 10.799-1.451 2.968-3.667 5.95-1.45 9.308 2.251 3.408 5.914 2.764 9.106 2.012 10.351-2.437 20.654-5.09 30.94-7.793 2.235-.588 4.5-1.446 6.451-2.663 11.889-7.415 25.009-9.443 38.759-10.912 28.109-3.003 55.098-.61 81.05 11.167 9.797 4.445 12.554 3.725 18.084-5.46 6.687-11.106 13.017-22.473 18.695-34.12 2.729-5.595 6.085-10 10.966-13.774 20.891-16.16 43.281-29.891 66.594-42.216a119.923 119.923 0 0016.666-10.636c-4.946-1.233-8.99.897-12.98 2.809-22.83 10.942-45.819 21.612-66.027 37.219-.991.766-2.273 1.153-3.503 1.757-2.242-3.296-.467-6.011.302-8.718 6.743-23.728 12.742-47.627 15.611-72.175.809-6.916.902-13.951.812-20.926-.076-5.806-.639-6.335-4.807-11.257-3.58 1.835-3.298 5.469-3.849 8.599-2.598 14.75-4.716 29.597-7.685 44.272-5.288 26.136-12.171 51.855-21.564 76.867-5.18 13.795-12.119 26.62-20.666 39.723-2.705-.785-5.577-1.31-8.192-2.43-12.708-5.447-26.049-7.962-39.734-9.187-11.068-.991-21.929.063-32.752 2.339-5.488 1.154-11.053 1.94-18.931 3.299 6.913-6.772 12.416-11.765 17.443-17.2 5.131-5.546 9.618-11.616 11.291-21.083-3.126 1.486-5.009 1.922-6.259 3.056-4.19 3.804-8.085 7.928-12.215 11.8-17.849 16.733-38.479 28.44-62.33 34.26-1.605.392-3.258.632-4.904.78-.583.052-1.21-.382-3.063-1.03M1880.791 2545.151c.616-1.333 2.005-2.878 1.708-3.96-1.05-3.83-2.406-7.63-4.13-11.209-8.671-18.007-17.519-35.929-26.259-53.903-11.662-23.984-22.711-48.23-30.409-73.838-2.297-7.64-3.974-15.465-6.223-23.12-1.06-3.613-.419-6.53 2.002-9.215 1.785-1.979 3.508-4.022 5.404-5.889 33.028-32.516 67.566-63.298 103.862-92.169 45.637-36.3 91.14-72.757 138.783-106.43 20.135-14.233 40.33-28.378 60.477-42.592 2.252-1.59 4.366-3.376 6.135-5.668-4.925.343-8.681 3.056-12.526 5.393-39.297 23.896-78.288 48.28-115.157 75.841-52.304 39.103-104.461 78.42-152.999 122.224-13.839 12.49-26.923 25.817-40.287 38.83-1.896 1.844-3.496 4.015-5.09 6.142-3.407 4.544-4.101 9.3-2.594 15.021 5.873 22.305 13.967 43.77 23.51 64.712 13.281 29.144 29.088 56.944 45.247 84.555 2.334 3.988 4.157 8.275 6.218 12.423l2.328 2.852M1980.15 1359.475c-1.725-1.402-3.325-3.001-5.193-4.174-7.338-4.606-14.495-9.597-22.198-13.505-24.65-12.506-49.412-24.81-74.337-36.76-15.616-7.485-31.548-14.325-47.446-21.207-10.386-4.497-20.869-8.801-31.477-12.738-12.667-4.7-24.483-2.454-34.425 6.593-6.122 5.57-12.038 11.637-16.803 18.36-6.138 8.663-11.182 18.122-16.428 27.39-8.528 15.068-16.819 30.27-25.244 45.398-19.003 34.122-41.883 65.748-63.674 98.053-11.163 16.548-23.645 32.248-36.132 47.85-12.055 15.059-28.44 24.994-44.449 35.25-2.675 1.717-5.277 3.549-7.312 6.949 1.668 0 3.631.58 4.955-.096 7.704-3.93 15.395-7.921 22.832-12.328 13.583-8.05 25.753-17.912 35.417-30.478 12.792-16.635 25.3-33.49 37.827-50.326 3.777-5.077 6.967-10.6 10.856-15.585 20.77-26.621 38.005-55.537 54.862-84.667 7.165-12.383 13.306-25.364 19.76-38.151 5.604-11.108 12.552-21.194 21.625-29.76 7.262-6.855 15.651-11.033 25.805-11.787 5.453-.404 10.532.004 15.626 2.094 29.895 12.266 60.031 23.964 89.704 36.738 23.242 10.005 45.935 21.285 68.866 32.01 5.295 2.478 10.531 5.117 16.982 4.877"/>
    <path d="M1899.807 2559.498c-.875-3.816-1.212-6.66-2.18-9.27-3.823-10.306-7.663-20.611-11.828-30.781-8.858-21.624-16.775-43.498-20.221-66.77-.61-4.12-.7-7.584 1.899-11.282 25.103-35.742 50.422-71.352 80.409-103.235 31.303-33.283 64.65-64.498 99.648-93.864 40.072-33.625 80.6-66.705 120.92-100.035 1.49-1.23 2.868-2.594 3.54-5.227-2.201.955-4.612 1.599-6.567 2.918-10.772 7.266-21.708 14.332-32.085 22.135-37.017 27.837-74.204 55.494-109.247 85.82-35.537 30.754-70.703 61.974-101.304 97.835-23.826 27.923-45.502 57.436-64.251 89.066-3.18 5.367-3.64 10.656-2.191 16.268 2.664 10.315 4.832 20.86 8.653 30.752 8.759 22.666 18.34 45.015 27.725 67.435 1.212 2.896 2.184 6.304 7.08 8.235M2842.46 1928.891c-1.026 5.071 1.528 8.41 4.181 11.078 5.141 5.174 10.36 10.538 16.423 14.475 11.997 7.793 24.569 14.704 36.943 21.913 8.922 5.2 18.069 10.026 26.831 15.48 23.56 14.666 37.08 36.79 45.404 62.544 2.836 8.773 2.258 17.82.543 26.725-4.887 25.382-13.162 49.634-26.074 72.053-7.805 13.551-16.461 26.635-25.164 39.641-10.934 16.341-22.309 32.385-33.488 48.561-8.203 11.87-14.342 24.787-19.25 38.305-1.195 3.292-2.955 6.664-.704 11.96 1.3-2.4 2.028-3.576 2.6-4.823 7.262-15.837 16.852-30.247 27.174-44.193 12.891-17.412 25.933-34.71 38.805-52.136 18.566-25.132 32.906-52.484 42.371-82.29 2.515-7.922 4.769-15.993 6.262-24.157 2.429-13.283 1.69-26.462-2.513-39.484-10.335-32.018-29.198-56.459-60.443-70.674-13.029-5.928-25.785-12.55-38.244-19.602-10.408-5.89-20.219-12.84-30.26-19.375-3.482-2.266-6.427-5.58-11.397-6M1560.176 1634.886c.533 1.155.676 2.11 1.071 2.229 14.547 4.362 29.39 6.364 44.272 2.664 5.272-1.311 10.601-4.35 14.7-7.966 6.19-5.465 12.046-11.62 16.782-18.37 19.898-28.353 39.558-56.882 58.872-85.638 27.111-40.365 53.575-81.167 80.926-121.368 6.294-9.25 14.564-17.354 22.821-25.02 9.995-9.276 22.807-13.602 35.861-16.721 11.67-2.79 23.482-4.31 35.593-4.372 20.303-.105 40.602-1.068 60.897-1.787 3.852-.136 8.004-.204 9.872-4.75-2.537-3.672-6.084-2.957-9.255-2.871-30.292.818-60.579 1.854-90.874 2.576-21.836.52-40.216 8.53-54.802 24.748-6.002 6.673-11.788 13.627-16.932 20.973-14.704 21-29.229 42.13-43.454 63.457-21.81 32.698-42.687 66.039-65.173 98.26-14.074 20.169-30.173 38.949-45.817 57.979-3.939 4.79-9.404 8.454-14.552 12.09-6.35 4.485-13.918 3.92-21.225 3.825-4.988-.066-9.969-.562-14.957-.701-1.48-.042-2.975.474-4.626.763M1880.791 2545.151c-.776-.95-1.553-1.9-2.328-2.852-16.406-14.593-33.31-28.672-49.081-43.92-16.279-15.74-31.67-32.42-47.019-49.087-6.523-7.083-14.076-10.78-23.476-11.587-5.302-.455-10.573-1.362-15.826-2.252-10.019-1.698-19.168-5.57-27.403-11.518-2.697-1.947-5.467-3.899-7.772-6.268-21.935-22.548-41.715-46.7-55.405-75.324-2.049-4.285-3.206-8.214-1.227-13.272 18.647-47.658 42.219-92.727 70.136-135.583 3.759-5.772 7.357-11.098 15.63-9.229 1.928-5.938-.77-10.905-1.559-15.92-.17-1.075-4.135-2.699-5.693-2.162-3.01 1.037-5.854 3.11-8.232 5.326-8.864 8.266-15.518 18.253-21.388 28.768-12.525 22.44-23.164 45.76-32.456 69.715-7.829 20.186-15.69 40.365-23.927 60.386-1.995 4.848-1.688 8.57.779 13.086 11.215 20.524 23.887 40.067 38.317 58.46 4.521 5.76 9.3 11.333 14.179 16.798 15.832 17.736 35.582 27.884 59.378 29.17 8.944.483 15.764 3.796 21.972 10.04 18.088 18.193 36.23 36.35 54.868 53.975 11.358 10.742 23.615 20.542 35.588 30.624 3.735 3.145 7.912 5.716 14.076 6.963l-2.131-4.337M1894.116 2670.105c-.634 7.222-1.42 14.085-1.794 20.971-.499 9.19-3.527 17.538-7.534 25.687a477.122 477.122 0 00-9.614 20.86c-7.777 17.947-9.378 36.534-5.995 55.763 7.851 44.624 30.252 80.587 64.765 109.334 12.434 10.356 26.55 17.632 42.247 21.913 38.768 10.574 77.965 14.116 117.667 6.694 20.267-3.788 40.343-8.607 60.47-13.118 2.055-.46 3.864-2.008 6.052-3.194-1.865-4.579-5.378-4.67-8.53-4.401-5.959.508-11.958 1.156-17.79 2.431-21.8 4.77-43.617 9.428-65.882 11.467-7.284.668-14.636 1.478-21.91 1.16-23.002-1.005-45.757-3.89-68.024-10.109-16.357-4.569-30.897-12.329-43.348-23.856-27.26-25.239-47.136-54.927-55.698-91.628-5.42-23.244-3.704-45.594 6.418-67.261 2.536-5.429 4.95-10.917 7.371-16.4 5.406-12.239 6.224-25.106 5.04-38.209-.26-2.871-.157-6.054-3.91-8.104M2494.558 2269.438c.93-4.833 1.646-9.718 2.823-14.49 7.182-29.1 14.47-58.174 21.719-87.258 7.732-31.028 15.35-62.056 19.665-93.831 5.712-42.066 7.526-84.264 5.786-126.637-.506-12.309-1.392-24.609-2.39-36.889-.261-3.242-1.123-6.621-2.534-9.538-1.85-3.823-6.553-3.98-8.943-.476-1.28 1.877-2.257 4.145-2.713 6.371a5652.146 5652.146 0 00-11.898 59.774c-.465 2.404-.064 4.974-.064 8.251 6.61-5.287 7.037-6.102 10.513-19.357 1.736-6.627 3.439-13.261 6.654-19.715.176 3.151.46 6.3.509 9.453.564 37.669.128 75.292-3.953 112.812-3.465 31.862-9.892 63.161-16.915 94.37-5.997 26.644-12.12 53.262-17.816 79.971-1.8 8.438-2.598 17.11-3.47 25.715-.384 3.802.194 7.701.335 11.555l2.692-.081M1773.327 1145.185l-1.398-23.983c1.942.873 3.014 1.027 3.561 1.646 29.858 33.779 62.473 64.765 96.988 93.656 41.897 35.07 84.403 69.415 126.795 103.89 22.574 18.357 47.563 33.075 72.964 47.098 2.498 1.38 5.28 2.243 8.946 1.996-1.052-1.294-1.876-2.92-3.193-3.83-9.047-6.245-18.088-12.514-27.337-18.451-21.636-13.887-41.877-29.544-61.437-46.232-37.26-31.787-75.14-62.848-112.399-94.636-30.436-25.968-59.2-53.752-86.499-83.02-4.766-5.11-9.119-10.606-13.695-15.898-2.269-2.624-4.838-4.822-8.623-3.393-3.197 1.208-4.363 4.102-4.622 7.166-.942 11.127.434 21.937 5.198 32.143.483 1.035 1.773 1.69 2.688 2.523l2.063-.675M589.513 1689.1c-1.342.643-2.804 1.114-4.008 1.955-7.92 5.524-16.076 10.759-23.602 16.78-14.306 11.448-28.152 23.465-42.35 35.049-17.328 14.138-35.183 27.63-55.765 36.728-27.623 12.209-56.728 16.735-86.817 14.859-3.833-.24-8.724.316-10.617-4-1.888-4.3 1.523-7.712 4.253-10.471 4.65-4.7 9.59-9.173 14.794-13.253 9.157-7.178 18.815-13.725 27.878-21.016 12.454-10.02 19.912-23.996 28.304-37.196 2.499-3.932 5.17-7.754 7.682-11.678 2.414-3.768 5.59-6.55 9.77-8.208 5.792-2.298 10.428-6.254 13.418-11.543 7.039-12.45 13.638-25.151 20.342-37.787.395-.744.15-1.827.275-3.994-2.207 1.533-4.037 2.239-4.993 3.572-2.71 3.782-5.062 7.82-7.558 11.757-4.992 7.876-10.008 15.737-14.97 23.633-2.234 3.556-5.265 6.192-9.376 6.935-6.807 1.232-11.314 5.556-15.007 10.8-5.174 7.349-10.328 14.756-14.858 22.508-7.726 13.22-18.27 23.683-30.42 32.686-5.083 3.766-10.181 7.576-15.611 10.795-7.937 4.703-13.897 11.346-19.501 18.41a25.448 25.448 0 00-3.513 6.005c-4.091 9.867-.845 16.975 9.313 20.327 2.5.825 5.174 1.344 7.8 1.52 45.786 3.099 87.872-6.661 125.24-34.64 17.149-12.838 32.179-27.95 48.36-41.81 12.139-10.397 24.03-21.082 36.013-31.661 2.153-1.902 4.212-3.91 6.315-5.87l-.791-1.192M1338.219 1548.65c2.36.155 3.716.606 4.792.24 2.178-.746 4.517-1.56 6.24-3.003 8.71-7.29 17.914-13.466 28.855-17.203 3.74-1.277 7.03-5.016 9.586-8.35 3.826-4.993 6.885-10.582 10.142-15.996 1.714-2.847 3.034-5.93 4.738-8.784 9.974-16.713 27.218-19.207 41.942-6.103a55.702 55.702 0 013.59 3.47c5.884 6.27 12.617 6.702 19.977 2.971 1.188-.6 2.493-1.059 3.525-1.865 5.318-4.155 10.306-3.703 15.237.71 4.282 3.834 9.049 3.562 13.967 1.332 2.122-.962 4.188-2.28 6.42-2.714 3.866-.75 7.904-1.588 11.759-1.223 7.254.69 12.753 4.498 13.897 12.123 1.873 12.478 8.166 24.015 7.677 36.996-.053 1.41 1.306 2.873 2.369 5.042 1.842-1.628 3.705-2.588 4.504-4.108 2.54-4.834 3.342-10.098 2.36-15.512-1.484-8.182-2.948-16.373-4.664-24.508-2.98-14.12-12.053-21.634-26.544-22.328-6.486-.31-12.621 1.045-18.291 4.091-3.635 1.951-6.58 1.82-10.111-.569-7.256-4.908-14.901-5.229-22.472-.343-6.576 4.243-9.513 3.884-14.482-1.956-9.54-11.213-22.1-13.98-36.222-11.332-8.267 1.551-15.017 5.352-19.501 12.603-2.447 3.956-4.701 8.036-6.898 12.137-2.356 4.4-4.6 8.862-6.792 13.345-3.887 7.941-9.741 13.323-18.69 14.978-5.834 1.078-10.247 4.268-13.831 9.056-2.776 3.708-6.356 6.805-9.35 10.366-1.37 1.632-2.19 3.727-3.73 6.437M2476.5 1779.527c2.202-4.75 3.559-7.68 4.919-10.608 9.265-19.927 18.101-40.067 27.903-59.725 12.721-25.505 29.696-48.244 48.977-69.084 7.842-8.478 17.645-15.147 26.599-22.587 1.79-1.487 3.914-2.583 5.631-4.14 3.869-3.501 4.444-6.748 1.022-10.388-13.879-14.756-18.696-33.456-23.116-52.306-1.286-5.48-1.527-11.198-2.414-16.781-.662-4.175-1.592-8.31-2.457-12.734-5.323.812-5.88 4.48-5.882 7.508-.004 8.624-.321 17.4 1.111 25.84 3.074 18.123 8.369 35.63 19.471 51.37-2.128 1.807-3.676 3.469-5.534 4.64-11.134 7.027-19.916 16.453-28.467 26.349-32.44 37.536-52.337 81.617-67.659 128.127-1.261 3.828-3.756 7.85-.104 14.519M2509.081 1127.83c-1.61-4.438-5.553-6.559-9.49-7.854-7.242-2.379-14.63-4.79-22.142-5.766-16.856-2.19-33.793-2.505-50.844-1.44-25.63 1.603-51.042 4.726-76.433 8.371-7.738 1.11-15.615 2.411-25.995 1.612 3.502-2.229 4.917-3.382 6.524-4.105 4.86-2.185 9.728-4.373 14.707-6.257 21.003-7.954 40.338-19.014 58.953-31.423 4.668-3.113 9.371-6.249 12.848-12.54-2.408.168-3.937-.12-5.075.418-6.925 3.271-13.85 6.563-20.61 10.16-19.443 10.344-39.594 19.066-60.174 26.857-9.709 3.677-18.853 8.426-26.928 15.045-1.537 1.26-3.215 2.482-4.359 4.062-2.415 3.337-.893 7.762 3.1 8.707 2.542.602 5.284.446 7.94.484 20.448.298 40.425-3.675 60.466-6.907 27.336-4.408 54.755-7.493 82.503-7.174 17.083.196 33.947 1.412 49.992 8.001 1.172.481 2.561.466 3.858.594.242.023.525-.367 1.16-.846M1322.775 3062.57c-1.25-1.292-2.329-2.832-3.777-3.84-15.992-11.123-29.806-24.664-42.08-39.61-14.782-18-28.799-36.632-42.964-55.131-6.367-8.315-10.182-17.782-12.104-28.172-2.617-14.152-7.645-27.558-14.05-40.443-1.624-3.264-3.16-6.571-4.99-10.387 1.825-2.03 3.34-4.188 5.298-5.808 8.981-7.425 18.204-14.562 27.105-22.08 5.582-4.712 11.057-9.633 15.997-14.997 3.553-3.86 6.253-8.58 3.43-14.905-1.529.564-3.052.658-3.787 1.467-10.883 11.986-24.794 20.069-37.62 29.564-5.322 3.94-10.48 8.25-15.05 13.028-8.052 8.418-8.318 11.964-3.289 22.315.437.899.858 1.808 1.342 2.68 7.822 14.072 13.373 29.017 16.803 44.72 1.881 8.614 5.37 16.434 10.453 23.563 19.761 27.709 40.912 54.28 65.97 77.43 7.288 6.733 15.712 12.267 23.821 18.064 2.532 1.81 5.736 2.68 8.632 3.98l.86-1.437"/>
    <path d="M2145.691 2926.186c2.951.627 4.71 1.339 6.457 1.318 11.633-.141 23.265-.729 34.893-.628 29.143.253 52.945-11.689 72.691-32.161 10.017-10.384 14.574-23.832 16.428-37.927 2.257-17.156 3.934-34.392 5.634-51.616 1.7-17.225 3.161-34.474 4.626-51.721.297-3.515.902-7.181-1.659-11.425-1.716 1.695-3.592 2.721-4.132 4.226-1.897 5.298-4.073 10.661-4.818 16.179-2.937 21.763-5.216 43.616-8.052 65.394-1.63 12.523-3.38 25.069-5.959 37.42-2.916 13.961-11.087 24.68-22.784 32.842-17.287 12.063-35.7 20.525-57.424 20.061-6.955-.149-13.967.749-20.895 1.627-3.898.494-7.714 1.806-11.484 3.011-1.01.323-1.716 1.604-3.522 3.4M1674.577 1930.436c2.93 3.46 5.595 7.191 8.831 10.336 26.34 25.602 54.314 49.287 84.941 69.599 18.595 12.332 37.613 24.097 56.997 35.14 11.548 6.579 18.542 15.651 22.17 28.093 3.953 13.555 5.451 27.422 5.933 41.426.275 7.988-.052 15.994-.015 23.992.017 3.587.261 7.173 1.896 11.058.71-1.326 1.884-2.592 2.061-3.986 2.961-23.184 4.888-46.401 1.038-69.683-.597-3.609-1.494-7.17-2.32-10.738-2.996-12.947-9.472-22.312-22.168-28.679-19.915-9.987-39.02-21.682-58-33.412-30.979-19.145-59.326-41.867-86.828-65.667-3.96-3.426-8.253-6.467-12.392-9.686l-2.144 2.207M1560.722 1503.491c5.31-1.14 7.312-4.37 9.651-6.919 15.405-16.778 28.533-34.99 37.853-56.023 20.387-46.01 39.625-92.448 55.612-140.193 1.902-5.68 4.016-11.295 6.157-16.89.547-1.433 1.574-2.68 3.338-5.597 3.646 12.051 2 22.698 2.266 33.115.271 10.573-.399 21.171-.694 33.281 3.374-7.294 4.44-13.776 4.971-20.246.98-11.945 1.84-23.927 1.992-35.903.067-5.175-.976-10.683-2.895-15.488-2.697-6.759-9.004-7.074-12.917-.843-2.81 4.477-5.015 9.42-6.897 14.381-7.322 19.304-14.055 38.838-21.66 58.026-11.66 29.412-23.592 58.723-35.916 87.862-9.753 23.06-21.086 45.317-37.325 64.704-1.33 1.587-1.993 3.737-3.536 6.733M2441.172 1742.844c1.354 11.25 8.619 18.763 14.317 27.153 5.74 8.45 11.915 16.605 18.5 25.722-5.342 1.095-9.106-.056-12.848-.944-14.715-3.493-28.34-9.718-41.2-17.466-17.954-10.816-35.87-21.732-53.337-33.308-20.434-13.541-42.344-23.743-65.64-31.024-6.62-2.07-13.553-3.428-20.445-4.237-5.121-.6-10.652-.371-14.374 6.135 2.256.752 3.902 1.689 5.605 1.805 9.422.642 18.11 3.853 26.98 6.792 37.004 12.257 69.415 33.464 103.15 52.127 12.21 6.754 24.549 13.466 37.41 18.79 10.362 4.29 21.534 6.733 32.487 9.422 3.59.882 8.433 2.175 10.974-2.06 2.536-4.227-1.001-7.59-3.306-10.652-10.805-14.358-21.756-28.606-32.753-42.818-1.566-2.025-3.666-3.635-5.52-5.437M885.566 1969.167c1.106 3.728 1.724 7.696 3.418 11.134 3.814 7.743 7.747 15.486 12.36 22.768 33.02 52.142 75.073 95.689 125.68 130.96 12.828 8.94 25.916 17.51 38.972 26.118 2.46 1.623 5.26 2.83 8.053 3.784.923.314 2.818-.45 3.366-1.302.551-.856.481-2.921-.189-3.61-2.297-2.36-4.892-4.457-7.522-6.46-23.56-17.946-47.422-35.508-70.673-53.845-36.345-28.662-66.926-62.8-93.12-100.88-5.459-7.937-10.182-16.379-15.237-24.592-1.007-1.636-1.98-3.293-2.97-4.941l-2.138.866M1388.296 1015.475c2.13 2.577 3.093 4.32 4.55 5.392a134.29 134.29 0 0010.834 7.143c52.59 31.258 107.909 56.559 165.982 75.818 21.49 7.127 42.956 14.34 64.536 21.188 6.785 2.152 13.682 4.525 21.313 3.184-2.367-.996-4.683-2.138-7.108-2.965-77.06-26.27-151.678-58.24-223.915-95.784-7.98-4.147-15.975-8.265-24.041-12.24-3.173-1.562-6.426-3.448-12.151-1.736M2695.225 2343.427c11.193-7.607 15.7-19.11 17.034-31.997 1.7-16.437-.667-32.56-5.368-48.357-3.548-11.92-5.702-24.054-3.937-36.481 1.738-12.221 4.644-24.187 9.365-35.67 1.254-3.05 2.23-6.281 2.8-9.523.465-2.658-2.27-4.58-4.585-3.18-2.487 1.504-5.004 3.416-6.641 5.756-2.457 3.517-4.388 7.46-6.14 11.4-5.038 11.348-7.8 23.377-9.647 35.579-1.686 11.133.468 21.91 4.434 32.328 4.054 10.646 6.385 21.669 8.163 32.895 2.096 13.24.58 25.857-4.82 38.09-1.153 2.614-1.896 5.409-2.83 8.12zM921.902 1597.13c-5.316 1.672-7.179 5.825-8.179 9.846-1.756 7.05-3.466 14.296-3.705 21.509-.854 25.626 4.14 50.487 13.686 74.068 7.97 19.687 17.898 38.592 27.23 57.712 2.015 4.133 4.958 7.889 7.903 11.467 2.004 2.435 4.21 5.318 9.052 4.218-.517-1.815-.779-3.624-1.523-5.21-8.474-18.063-17.433-35.912-25.449-54.174-11.472-26.136-17.918-53.603-18.838-82.181-.277-8.604.78-17.251 1.24-25.877.187-3.555 1.501-7.21-1.417-11.378M2104.818 2702.651c4.021 4.764 7.938 10.144 12.61 14.762 6.59 6.514 13.472 12.8 20.735 18.547 5.383 4.258 11.884 5.634 19.64 3.416-.874-2.058-1.194-4.026-2.329-5.212-1.814-1.894-4.137-3.313-6.3-4.856-15.706-11.195-27.517-25.883-37.723-42.01-.529-.838-.85-1.805-1.344-2.67-1.459-2.563-3.722-3.827-6.625-3.508-2.956.324-5.33 2.174-5.347 5.043-.042 7.333-4.987 11.452-9.778 15.412-6.907 5.71-14.302 10.831-21.492 16.198-10.388 7.754-20.953 15.283-31.115 23.323-8.135 6.436-15.009 14.15-19.682 23.557-1.875 3.776-3.85 7.65-1.984 12.151.914-.29 1.823-.326 1.95-.659 5.04-13.264 14.35-23.034 25.654-31.06 7.045-5.002 14.391-9.579 21.565-14.4 13.493-9.07 26.96-18.18 41.565-28.034M2058.596 2574.83c-1.686.429-3.948.988-6.201 1.58-14.806 3.89-29.513 8.225-44.451 11.509-8.375 1.842-17.114 2.34-25.721 2.747-12.59.594-15.862 2.624-19.88 14.106-1.643 4.7.204 9.249 4.349 10.706 3.902 1.372 7.595-.245 8.866-5.34 1.337-5.365 4.587-6.5 9.272-7.156 13.179-1.847 26.383-3.673 39.43-6.254 8.446-1.67 16.732-4.362 24.898-7.162 4.558-1.563 7.964-1.388 11.935 1.722 4.657 3.647 10.004 6.478 15.264 9.263 2.577 1.365 4.106 2.968 4.884 5.785.785 2.846 1.89 5.703 3.449 8.183.596.95 2.914 1.326 4.294 1.087.84-.146 2.033-2.006 1.967-3.026a227.146 227.146 0 00-1.74-16.825c-.158-1.136-1.244-2.682-2.27-3.07-7.2-2.724-11.333-9.15-16.964-13.742-3.201-2.611-6.426-4.762-11.381-4.113M2927.441 2424.126c3.365 5.081 1.914 8.588.758 11.984-1.82 5.349-4.074 10.558-5.686 15.963-.459 1.54.667 3.555 1.067 5.352 1.812-.469 4.366-.332 5.321-1.502 7.313-8.952 12.392-19.11 12.055-30.876-.259-9.032-7.79-14.34-16.732-12.227-7.092 1.677-14.29 3.621-20.84 6.718-12.846 6.071-26.089 7.085-39.932 5.811-10.588-.974-21.244-1.213-31.873-1.734-5.758-.281-11.263.797-16.427 3.407-3.39 1.712-6.158 4.11-6.98 7.962-.225 1.058.461 2.556 1.198 3.475.425.53 1.827.524 2.72.366.943-.168 1.876-.695 2.69-1.25 5.562-3.801 11.743-4.202 18.192-3.563 11.918 1.18 23.877 2.011 35.766 3.43 12.546 1.499 24.474-.187 36.13-5.007 7.29-3.017 14.813-5.476 22.573-8.31M1983.05 1377.41c-3.01-1.785-4.494-3.178-6.218-3.605-10.641-2.643-21.264-5.465-32.041-7.413-6.15-1.11-12.591-1.06-18.88-.859-13.544.436-25.087 5.406-34.396 15.621-9.626 10.561-19.607 20.801-29.558 31.061-3.001 3.093-6.435 5.765-9.637 8.67-2.223 2.013-4.296 4.14-4.225 8.455 2.259.13 4.684.994 6.338.218 4.176-1.96 8.472-4.13 11.884-7.16 10.427-9.257 21.216-18.285 30.448-28.664 10.389-11.682 22.84-16.773 37.906-16.413 8.292.198 16.564 1.156 24.85 1.704 5.3.352 10.61.791 15.913.76 2.043-.014 4.079-1.223 7.616-2.375M2179.702 2441.782c-2.09 1.287-3.586 2.495-5.29 3.198-3.663 1.512-7.427 3.353-11.43 1.128-4.515-2.51-9.117-1.877-13.502-.134-7.36 2.928-14.777 3.309-22.508 2.02-12.119-2.021-24.297-3.683-36.427-5.641-4.602-.742-8.795-2.222-12.597-5.433-4.18-3.531-8.684-2.357-10.38 2.536-1.72 4.965-2.58 10.272-3.37 15.497-.383 2.535 2.702 4.257 4.882 2.805 3.013-2.008 5.755-4.422 9.967-7.723 3.623 1.149 9.625 2.82 15.462 4.945 18.106 6.593 36.433 6.995 54.965 2.273 7.1-1.808 13.608-1.497 19.982 2.84 4.682 3.186 7.386 2.046 8.704-3.348 1.11-4.536 4.075-9.05 1.542-14.963M1578.443 2440.86c.24-2.088.58-4.172.692-6.27.12-2.262.028-4.536.028-7.303 7.754-1.141 14.99-.554 22.202.137 14.427 1.383 28.625-.036 42.636-3.445 7.503-1.826 14.635-4.71 20.57-9.817 4.539-3.905 8.19-8.417 8.196-14.893-4.646-1.595-7.32.895-9.896 2.654-11.712 7.993-24.977 10.769-38.732 11.819-9.63.735-19.3.946-28.94 1.57-5.641.365-11.321.74-16.872 1.734-6.113 1.095-7.562 3.104-6.748 8.843.74 5.215 1.718 10.47 6.864 14.972M1256.597 1783.438c-.709-5.289-4.557-7.072-7.654-9.326-9.427-6.86-19.12-13.367-28.408-20.409-18.322-13.894-36.547-27.929-52.575-44.544-.919-.952-1.832-2.1-2.987-2.58-1.039-.432-2.536-.376-3.58.061-.609.254-1.182 1.805-.98 2.56.597 2.224 1.205 4.613 2.5 6.452 3.44 4.886 6.724 10.055 10.99 14.155 20.251 19.466 42.463 36.438 66.794 50.532 3.114 1.805 6.661 3.015 10.156 3.942 1.62.43 3.594-.482 5.744-.843M1885.906 1722.428l-4.613 7.858c-1.86-2.162-3.012-3.701-4.366-5.034-3.062-3.011-6.108-6.062-9.39-8.822-1.988-1.671-4.31-3.408-7.199-1.721-2.459 1.436-3.708 5.679-1.43 8.934 3.762 5.376 8.017 10.576 12.861 14.97 3.722 3.377 8.89 2.133 13.366.676 12.55-4.08 15.871-18.23 6.378-27.268-4.905-4.67-8.898-9.92-11.144-16.281-3.533-10.008-6.719-20.138-10.156-30.18-1.239-3.613-1.113-8.03-6.256-10.64-.719 2.306-2.06 4.368-1.84 6.247 1.858 15.872 4.518 31.653 12.032 45.964 2.708 5.159 7.15 9.408 11.757 15.297M1051.107 1228.57c-2.784 2.711-5.43 5.025-7.774 7.614-14.565 16.087-28.359 32.825-39.405 51.548-12.526 21.232-24.454 42.816-36.624 64.256-.654 1.151-1.566 2.387-1.596 3.602-.037 1.443.407 3.212 1.318 4.242.508.574 2.713.38 3.585-.253 1.854-1.345 3.613-3.01 4.918-4.887 2.85-4.097 5.625-8.279 8.022-12.65 20.04-36.546 41.077-72.473 65.373-106.402 1.145-1.598 1.986-3.418 2.913-5.163.095-.177-.198-.559-.73-1.907M2236.769 2770.074c1.257-2.01 2.645-3.455 3.152-5.161 5.08-17.072 14.009-32.258 22.762-47.58 8.572-15.005 16.883-30.171 24.839-45.51 2.559-4.935 3.719-10.616 5.312-16.018.419-1.42.063-3.066.063-6.31-2.668 2.145-4.162 3.16-5.415 4.415-.925.924-1.615 2.116-2.274 3.267-13.376 23.38-26.897 46.68-40.012 70.206-5.361 9.615-9.044 20.017-10.652 30.99-.548 3.75-1.654 7.82 2.225 11.7"/>
    <path d="M1725.148 1963.814c3.46.863 6.878 2.06 10.392 2.535 24.709 3.335 49.434 6.556 74.163 9.74 14.838 1.912 29.69 3.73 44.546 5.495 3.289.39 6.657.728 9.934.448 3.749-.32 5.69-4.547 3.274-7.438-4.524-5.413-10.18-9.61-16.88-11.98-2.483-.878-4.624.784-5.352 3.3-1.421 4.903-4.654 5.574-9.235 5.125-25.478-2.495-50.987-4.69-76.472-7.122-8.935-.853-17.826-2.153-26.754-3.09-2.41-.254-4.881.071-7.324.131l-.292 2.856M2236.195 1173.094c-2.74 0-5.112-.637-6.924.1-15.637 6.369-32.3 7.788-48.695 10.566-4.569.773-9.044 2.2-13.492 3.557-7.252 2.209-13.075 6.497-17.457 12.693-2.693 3.806-5.405 7.6-7.978 11.486-4.756 7.18-9.415 14.424-14.855 22.778 2.494-.695 4.48-.668 5.532-1.646 3.64-3.387 7.128-6.977 10.353-10.763 4.103-4.815 7.993-9.821 11.793-14.88 4.662-6.204 10.856-9.756 18.405-10.936 8.55-1.337 17.146-2.371 25.697-3.7 9.9-1.536 19.7-3.573 28.585-8.484 3.997-2.208 8.073-4.573 9.036-10.771M2172.977 2614.126l3.849-8.353c2.13.834 4.175 1.682 6.254 2.443 13.115 4.799 26.16 9.8 39.386 14.27 6.28 2.122 12.706 3.378 18.36 7.381 4.959 3.512 8.465 2.579 11.278-1.399 2.566-3.631 1.91-7.351-2.237-8.958-3.993-1.547-8.293-2.739-12.54-3.085-7.816-.637-14.81-3.362-21.879-6.452-12.19-5.33-24.645-10.053-36.89-15.26-3.3-1.402-6.133-3.887-9.407-5.373-1.518-.69-4.221-.893-5.216-.005-.959.855-1.213 4.07-.372 5.087 3.08 3.725 3.337 7.389 2.298 11.979-1.036 4.585.028 5.278 7.116 7.725M2654.573 2012.32c0 11.149-.569 22.333.122 33.438 1.32 21.236 3.38 42.427 5.094 63.639 2.467 30.496 4.987 60.987 7.31 91.493 1.211 15.918 2.02 31.867 3.078 47.796.21 3.13-.294 6.536 3.35 10.765.21-4.485.608-7.27.424-10.014-1.736-25.876-3.573-51.745-5.377-77.617-1.41-20.24-2.609-40.495-4.269-60.713-2.61-31.814-5.526-63.602-8.336-95.398-.106-1.195-.462-2.367-.702-3.55l-.694.162M1625.848 1577.678c1.102-1.971 2.321-3.886 3.29-5.921 19.125-40.217 38.244-80.436 57.284-120.694 1.545-3.267 2.683-6.762 3.625-10.254.245-.91-.699-2.746-1.58-3.183-.904-.448-3.02-.138-3.53.59-2.458 3.52-4.938 7.116-6.714 11.003-11.606 25.387-23.172 50.795-34.46 76.324-6.046 13.672-11.607 27.563-17.175 41.44-1.299 3.236-3.143 6.554-.74 10.695M1940.775 1475.249c-2.358-2.168-3.76-3.464-5.17-4.751-3.42-3.119-7.326-5.854-10.142-9.445-3.542-4.518-7.823-6.225-13.093-5.209-8.608 1.658-17.086 2.295-25.68-.142-3.393-.962-6.563.219-9.097 2.826-5.334 5.49-10.712 10.936-16.024 16.446a15.064 15.064 0 00-2.35 3.2c-1.808 3.311-.039 6.37 3.597 5.913 2.238-.282 4.595-1.028 6.506-2.203 3.96-2.433 7.832-5.081 11.414-8.036 3.252-2.684 6.516-3.711 10.856-3.709 6.905.004 13.875-.879 20.688-2.108 3.626-.653 6.058-.104 9.073 2.044 3.966 2.827 8.611 4.808 13.175 6.62 1.347.534 3.407-.728 6.247-1.446M1954.42 2710.479l-6.816 4.308c-7.51-26.697-13.48-53.397-20.593-81.86-1.65 3.34-3.156 4.944-3.06 6.443.469 7.257.754 14.613 2.23 21.7 4.737 22.731 9.96 45.361 15.025 68.022.505 2.257.746 4.785 1.974 6.603 1.134 1.681 3.338 3.328 5.245 3.561 1.315.16 3.877-1.872 4.25-3.34 2.004-7.866 4.495-15.805 1.746-25.437M2892.284 2208.996c-.673-5.183-1.372-10.362-2.016-15.548-2.499-20.14-4.677-40.322-7.547-60.408-3.53-24.69-7.643-49.297-11.482-73.944-3.072-19.723-6.11-39.451-9.164-59.178-.912-5.893-1.822-11.788-3.394-17.685 0 5.636-.286 11.289.08 16.9.387 5.967 1.252 11.914 2.151 17.833 5.296 34.86 10.898 69.677 15.913 104.578 2.791 19.42 4.487 38.997 6.988 58.463 1.06 8.237 2.836 16.386 4.48 24.536.346 1.726 1.53 3.283 2.328 4.918l1.663-.465M2653.08 2234.052c.236-2.202.822-4.429.66-6.6a95174.56 95174.56 0 00-14.497-190.168c-.115-1.502-1.037-2.94-1.952-5.403-2.81 14.532 9.748 189.007 15.788 202.171M2769.445 2562.764c-6.694 2.554-7.252 6.075-8.296 9.076-1.968 5.655-3.523 11.452-5.452 17.122-1.634 4.804-4.053 9.18-8.64 11.844-3.558 2.068-6.837.381-6.878-3.763-.036-3.64.565-7.29.936-10.93 1.253-12.287 2.104-24.572-.667-36.776-.424-1.868-1.274-3.64-2.6-7.327-1.242 3.22-2.21 4.724-2.375 6.312-1.584 15.222-2.989 30.463-4.538 45.69-.828 8.143.866 12.586 6.405 15.291 6.21 3.033 11.626 1.063 16.596-3.026a16.217 16.217 0 001.478-1.342c10.953-11.504 10.826-26.28 14.031-42.17M1938.78 2570.716c1.942-4.117 4.022-8.177 5.798-12.366 2.464-5.815 4.582-11.777 7.058-17.586 4.47-10.482 12.378-17.127 23.315-20.145 4.164-1.15 8.395-2.054 12.595-3.076 10.254-2.494 15.958-9.059 17.267-19.46.101-.802-.466-1.688-1.044-3.598-1.533 1.816-2.81 2.834-3.443 4.16-3.228 6.78-8.989 9.268-15.98 10.321-5.576.841-11.168 1.96-16.548 3.618-11.086 3.415-19.525 10.312-23.49 21.381-3.244 9.05-5.636 18.421-8.042 27.744-.688 2.67-.105 5.666-.105 8.513l2.618.494M571.355 1641.731c1.057-4.682 2.18-8.452 2.724-12.304 1.358-9.609 3.205-19.022 7.863-27.703 2.93-5.46 3.259-11.468 2.972-17.518-.27-5.656-.485-11.317-.941-16.957-1.173-14.495 2.786-27.664 10.013-40.044 1.95-3.339 3.803-6.735 4.513-11.039-1.292 1.184-2.771 2.22-3.848 3.576-11.117 14.012-17.558 29.705-17.025 47.881.087 2.994-.22 6.004-.041 8.99.476 7.906-1.196 15.297-5.458 21.934-6.903 10.753-6.877 22.701-6.37 34.75.126 2.968.759 5.897 5.598 8.434M2879.96 1987.753c7.654 64.894 15.65 129.74 27.106 195.076 3.463-2.576 2.688-5.322 2.406-7.605-2.447-19.799-4.876-39.6-7.615-59.36-3.79-27.334-7.806-54.636-11.797-81.94a2556.657 2556.657 0 00-5.933-38.446c-.462-2.849-1.494-5.606-2.264-8.406l-1.902.681M1883.324 1548.913c4.367 1.701 7.297 3.123 10.385 3.966 3.16.863 6.502 1.724 9.717 1.574 5.051-.235 8.038-4.667 6.043-9.143-3.174-7.12-8.748-12.444-14.98-16.979-.778-.564-2.805-.359-3.584.29-.802.67-1.29 2.443-1.027 3.515.624 2.528 1.776 4.926 3.2 8.643-2.846-1.063-4.807-1.828-6.789-2.529-2.487-.879-4.939-2.13-7.503-2.455-3.693-.468-6.399 2.173-6.63 5.848-.062.981-.063 2.061.275 2.957 5.47 14.46 12.597 27.864 24.69 38.015.33.278 1.203-.09 2.847-.269-.56-6.639-5.46-11.104-8.175-16.477-2.633-5.212-6.126-10.01-8.469-16.956M2736.331 2143.382c3.761-12.383-9.997-155.644-15.633-167.88-.264 18.759 2.23 37.39 3.361 56.074 1.126 18.597 3.308 37.13 5.142 55.68 1.851 18.725 2.546 37.6 7.13 56.126M2675.576 1995.103c-2.487 15.558-1.938 30.819-.696 46.026 2.87 35.126 6.124 70.221 9.087 105.339 1.007 11.927 1.552 23.893 2.442 35.831.214 2.874.964 5.707 3.033 8.565.114-2.67.303-5.34.324-8.011.025-2.994-.008-5.994-.178-8.981-1.033-18.259-1.813-36.539-3.246-54.767-2.267-28.84-5.022-57.642-7.49-86.467-.965-11.265-1.704-22.549-2.585-33.822-.097-1.248-.455-2.476-.69-3.713M2711.736 2153.888c.293-2.218.953-4.457.824-6.65a63414.073 63414.073 0 00-9.47-158.294c-.072-1.155-.982-2.26-1.809-4.06-2.272 12.534 1.794 127.465 5.485 153.85.706 5.045-.09 10.558 4.97 15.154M2127.913 2487.557c5.991 4.873 11.304 9.356 16.795 13.61 4.273 3.308 7.463 3.631 8.571 1.106 1.633-3.718-1.576-5.35-3.65-7.315-4.829-4.575-9.993-8.822-14.567-13.634-3.215-3.384-6.313-4.41-10.597-2.453-4.233 1.935-8.564 3.677-12.935 5.28-6.859 2.512-13.78 4.857-20.692 7.226-1.569.537-3.277.71-4.79 1.357-2.383 1.018-5.82 1.874-5.13 5.092.478 2.237 2.662 4.454 4.641 5.936 2.442 1.828 5.51 2.305 8.51.8 2.672-1.343 5.335-2.703 8.008-4.045 8.57-4.302 17.142-8.599 25.836-12.96M2016.85 2552.48c-3.772 1.234-7.293 2.184-10.652 3.535-5.21 2.097-10.313 4.463-15.455 6.724-4.193 1.842-4.814 3.336-3.265 7.78 1.668 4.784 3.795 6.175 8.112 4.788 6.263-2.012 12.468-4.211 18.65-6.464 3.069-1.118 5.685-.59 8.497.97 3.748 2.081 7.639 4.005 11.665 5.457 4.592 1.656 7.223.58 8.279-2.595 1.343-4.04-.327-9.47-3.912-9.933-6.343-.82-10.917-4.232-15.635-7.947-1.68-1.321-4.192-1.584-6.284-2.315M2906.972 1999.412c-1.966 8.739.39 15.47 1.116 22.255 2.442 22.803 4.825 45.619 7.834 68.35 2.399 18.113 5.577 36.127 8.662 54.14.514 2.996.684 6.589 3.516 8.542.849-.264 1.189-.28 1.39-.455.239-.207.507-.555.504-.838-.03-2.641.197-5.333-.231-7.915-7.653-46.237-11.142-93.101-20.971-139.007-.258-1.207-.83-2.347-1.82-5.072M2280.602 2581.264c1.033-4.885-.425-8.567-2.12-12.13-7.841-16.481-17.968-31.155-33.984-40.747-7.12-4.265-12.353-9.97-15.935-17.338-3.881-7.982-7.757-15.967-11.973-24.647-.11 1.943-.455 3.265-.21 4.467 3.53 17.283 9.409 33.06 24.82 43.846 13.902 9.73 23.112 23.689 31.68 38.037 1.525 2.554 3.176 5.037 4.876 7.477.286.41 1.125.435 2.846 1.035M2230.39 2592.279c1.807-9.668.393-11.765-6.611-14.492-6.402-2.492-12.606-5.625-18.59-9.02-4.804-2.726-8.915-3.422-13.791-.05-2.894 2.003-6.634 2.822-10.05 4.014-2.936 1.025-5.791 2.074-5.653 5.88.139 3.85 1.563 7.21 5.064 9.125 2.804 1.534 5.515.11 7.06-2.013 5.378-7.392 11.746-7.01 19.033-3.371 5.029 2.512 10.267 4.616 15.446 6.82 2.606 1.109 5.289 2.038 8.093 3.107M2777.976 1960.367c-.341 1.21-1.048 2.444-.97 3.626 2.71 41.092 3.005 82.36 9 123.209.225 1.519 1.099 2.943 2.402 6.293 1.13-2.947 2.033-4.21 2.022-5.466-.044-5.314-.217-10.636-.601-15.937-1.875-25.847-3.796-51.69-5.784-77.53a822.566 822.566 0 00-2.42-25.8c-.313-2.9-1.191-5.738-1.812-8.604zM1569.996 1794.798c.458-1.109 1.242-2.194 1.329-3.333 3.508-46.36 6.96-92.726 10.342-139.096.056-.766-.862-1.604-1.585-2.857-3.167 1.195-3.561 3.858-3.857 6.33-.79 6.598-1.58 13.207-2.02 19.835-2.01 30.167-4.04 60.334-5.746 90.52-.534 9.437-.083 18.931-.083 28.398l1.62.203M2320.185 2683.058c-4.595 3.248-4.366 7.349-4.585 11.11-.654 11.285-1.098 22.58-1.69 33.868-.151 2.902-.542 5.792-.79 8.34-3.863 1.939-5.641-.51-7.652-2.02-3.18-2.384-5.973-5.527-9.485-7.143-2.773-1.275-6.443-1.23-9.598-.837-2.43.304-5.158 1.62-5.014 4.98.338.388.579.86.757.839 8.406-1.064 14.527 3.079 20.017 8.703.46.473 1.009.868 1.548 1.256 9.872 7.117 17.846 3.856 18.388-8.274.65-14.593.212-29.237.054-43.857-.022-2.086-1.132-4.16-1.95-6.965M2750.34 1961.962c0 6.234-.365 12.494.064 18.7 1.747 25.187 3.618 50.37 5.692 75.532.845 10.257 2.235 20.474 3.582 30.682.268 2.03 1.47 3.936 3.16 8.247 1.033-3.825 1.706-5.202 1.735-6.593.408-19.408-9.645-118.138-14.232-126.568M1159.133 1300.092c-2.25 0-4.555-.328-6.74.048-46.445 7.989-92.9 15.93-139.2 24.72 13.21 2.748 132.352-16.66 145.94-24.768M1562.832 1650.875c-.522.345-1.248.576-1.516 1.062-.469.848-.859 1.836-.935 2.793-3.732 46.698-7.43 93.398-11.075 140.103-.03.399.708.858 1.09 1.289 5.982-14.054 16.052-131.662 12.435-145.247M1156.927 1314.231c-51.622 7.481-103.246 14.958-154.858 22.503-.771.113-1.416 1.088-2.356 1.851 14.068 2.133 142.53-16.44 157.214-24.354M1919.082 2475.262c.862-4.035-2.099-6.038-4.422-8.259-4.307-4.119-8.962-7.89-13.074-12.189a252.287 252.287 0 01-14.357-16.379c-5.009-6.232-8.656-5.908-12.134 1.507-.421.898-1.01 1.79-1.145 2.737-.352 2.466-.495 4.961-.721 7.445l8.338-.383c3.777 3.666 8.1 8.2 12.787 12.32 4.715 4.143 9.677 8.033 14.755 11.726 2.9 2.11 6.168 4.176 9.973 1.475M1606.29 1797.507c.472-1.158 1.266-2.29 1.368-3.48 3.2-37.131 8.01-74.134 8.999-111.441.05-1.875-.69-3.77-1.427-7.507-1.631 3.064-2.986 4.528-3.16 6.12-.792 7.277-1.274 14.588-1.83 21.89-2.02 26.55-4.08 53.097-5.984 79.655-.351 4.903-.05 9.853-.05 14.78l2.085-.017M2132.379 2590.868c3.168-.3 4.869-2.067 5.863-4.808 3.162-8.71 6.387-17.398 9.584-26.095 1.374-3.74.905-7.139-1.79-10.19-2.261-2.566-4.641-4.964-8.451-4.03-3.541.868-4.275 4.063-4.681 6.97-1.554 11.155-2.94 22.335-4.216 33.525-.288 2.53.774 4.578 3.69 4.628M943.208 1584.472c49.107-1.05 98.124-3.282 147.123-9.3-9.903-2.153-136.265 5.279-147.123 9.3M946.532 1601.425c9.117 1.743 18.31 2.262 27.623 1.907 33.616-1.28 67.238-2.41 100.856-3.625 3.472-.125 7.117.436 12.264-2.442-11.054-2.085-20.19-1.353-29.243-1.252-9.317.104-18.626.85-27.943 1.182-9.322.33-18.652.435-27.974.75-9.32.316-18.634.922-27.956 1.12-9.258.196-18.523.043-27.785.043l.158 2.317M1515.332 1428.842c-9.457-.531-12.737.785-30.106 11.379-22.509 13.729-27.413 17.74-31.047 25.86 1.698.132 3.244.636 4.536.26 1.87-.541 3.645-1.582 5.308-2.648 14.782-9.478 29.563-18.958 44.257-28.572 2.313-1.513 4.188-3.697 7.052-6.28M1912.388 2654.645c-6.762 14.296-2.964 74.843 4.385 86.933.698-2.91 1.666-4.889 1.553-6.803-.664-11.264-1.638-22.509-2.393-33.769-.777-11.589-1.366-23.191-2.161-34.779-.266-3.874-.911-7.722-1.384-11.582M1143.166 1273.692l-111.593 18.601-.223 1.441c.984.431 2.013 1.32 2.945 1.227a831.843 831.843 0 00105.177-17.263c1.497-.345 2.865-1.246 4.293-1.888l-.6-2.118M1078.85 1553.427c-6.217.37-12.485.357-18.641 1.186-16.786 2.258-33.507 4.997-50.286 7.31-16.738 2.309-33.514 4.332-50.338 7.587 2.232.256 4.458.64 6.696.734 2.319.099 4.67.095 6.972-.17 18.8-2.154 37.608-4.263 56.384-6.626 12.852-1.617 25.652-3.644 38.484-5.431 3.82-.532 7.613-1.04 10.729-4.59M2804.365 1960.862c3.393 33.652 6.762 67.307 10.23 100.952.254 2.489 1.215 4.906 2.26 8.952 3.167-16.205-4.57-92.142-12.49-109.904M1143.542 1261.197c-35.153 5.117-70.307 10.226-105.449 15.417-.733.108-1.324 1.18-2.884 2.655 3.115.373 5.27 1.071 7.303.81 33.93-4.36 67.896-8.548 101.243-16.377l-.213-2.505M1073.344 1631.373c-1.514-.291-3.028-.841-4.54-.835-35.895.137-71.789.328-107.683.578-.386.003-.766.915-1.905 2.366 19.545 2.45 38.533 2.33 57.523 2.452 18.92.12 37.828.351 56.582-2.508l.023-2.053M2631.717 2204.393c-.527-20.767-4.463-41.261-6.088-61.941-1.637-20.818-3.938-41.585-6.59-62.365-1.503 5.284-.913 10.609-.521 15.942 1.265 17.223 2.269 34.469 3.78 51.67 1.51 17.196 3.48 34.353 5.337 51.517.199 1.84.996 3.616 1.516 5.422l2.566-.245M2932.822 2018.687c-2.377 14.811 7.453 89.802 13.538 104.471.296.033.67.193.87.07.252-.154.514-.541.512-.824-.02-2.32.121-4.671-.197-6.955a31610.324 31610.324 0 00-13.29-93.927c-.122-.856-.808-1.631-1.433-2.835M1143.06 1288.145c-39.911 6.623-79.825 13.232-119.728 19.907-2.162.363-4.232 1.27-6.176 2.664 40.652-4.691 81.157-9.978 121.105-18.837 1.806-.4 3.495-1.33 5.24-2.012-.148-.575-.295-1.15-.44-1.722M966.637 1650.597c2.367.52 4.71 1.308 7.105 1.526 37.952 3.467 85.177 3.564 98.393.205-.716-3.26-3.442-2.505-5.401-2.535-12.61-.186-25.224-.1-37.833-.328-17.58-.32-35.154-.875-52.733-1.232-3.126-.065-6.261.338-9.393.525l-.138 1.839M1597.24 1659.334c-4.457 12.229-10.604 106.055-8.818 126.609 2.67-8.673 10.359-114.901 8.819-126.609M1128.829 1249.812c-16.425-2.044-78.16 8.178-88.46 13.849 2.97.395 4.718 1.016 6.346.787 13.154-1.854 26.316-3.689 39.415-5.882 11.798-1.975 23.528-4.357 35.269-6.653 2.517-.493 4.955-1.39 7.43-2.102M953.713 1615.393c4.629.22 9.255.562 13.887.64 30.94.527 61.88 1.087 92.823 1.406 5.844.06 11.7-.908 17.493-1.916-20.74-3.395-113.984-4.15-124.203-.13M2841.519 2056.831c-1.47-31.67-3.556-63.309-6.188-96.526-2.818 5.488-3.036 9.958-2.866 14.388.485 12.6.902 25.21 1.844 37.78.992 13.227 2.542 26.414 3.9 39.614.165 1.596.657 3.157.997 4.734l2.313.01M1627.41 1795.087c1.245-2.424 1.942-3.168 1.981-3.944 1.45-29.494 2.851-58.991 4.18-88.49.035-.811-.8-1.663-1.892-3.78-.95 2.193-1.803 3.385-1.955 4.658-.47 3.952-.805 7.93-.959 11.907-.909 23.544-1.79 47.09-2.562 70.639-.079 2.43.63 4.888 1.206 9.01M1341.614 1686.031c-5.295 7.605-13.727 65.624-12.289 74.224.812-.74 1.978-1.276 2.1-1.988 3.761-22.25 7.46-44.51 11.022-66.795.275-1.724-.53-3.623-.833-5.44M1361.534 1675.062c-.548 1.389-1.385 2.733-1.601 4.172-4.165 27.819-9.7 55.45-10.913 83.987.537-1.132 1.398-2.22 1.563-3.402 3.914-28.15 11.422-55.766 13.443-84.195zM2146.253 2629.205c-2.121-5.213-1.47-9.148 2.957-12.413 1.945-1.436 3.292-4.229 3.95-6.665.416-1.542-.422-4.456-1.624-5.152-1.665-.965-4.93-1.362-6.234-.353-4.398 3.398-8.476 7.307-12.202 11.447-2.883 3.201-2.304 7.81.943 10.661 3.028 2.661 6.466 4.531 12.21 2.475M1062.462 1691.121c-23.066-4.012-69.936-5.132-79.911-2.205 12.414 3.733 62.966 5.423 79.91 2.205M973.702 1668.264c13.069 4.688 69.656 7.295 85.434 4.358-1.014-.7-1.74-1.635-2.496-1.661-27.072-.933-54.147-1.782-82.938-2.697M1778.872 1867.918c.206-1.213.747-2.478.57-3.631a6857.947 6857.947 0 00-8.873-55.985c-.176-1.087-1.218-2.034-2.714-4.405-2.503 8.638-.002 15.575.751 22.462.756 6.912 2.093 13.78 3.531 20.592 1.482 7.027 1.635 14.408 6.735 20.967M1095.81 1238.728c-15.41.93-30.612 3.43-45.765 6.23-1.317.242-2.409 1.707-4.543 3.307 5.256 3.235 9.854 2.043 14.146 1.55 22.705-2.62 30.17-4.769 36.162-11.087M2405.268 2513.143c1.753-10.796-6.61-40.073-14.334-50.185-.487 2.442-1.254 4.137-1.073 5.723 1.256 11.012 10.589 38.445 15.407 44.462M2951.885 2040.31c-1.407 13.973.943 27.552 3.243 41.12 1.159 6.844 1.282 6.824 5.134 12.163.49-2.127 1.172-3.57 1.096-4.972-1.207-22.108-4.538-40.948-9.473-48.31M1317.69 1697.843c-4.038 8.66-8.21 44.622-6.4 57.128 1.44-2.393 2.85-3.773 3.12-5.35 1.4-8.182 2.697-16.393 3.664-24.638.773-6.6 1.093-13.258 1.469-19.9.14-2.457.865-5.238-1.853-7.24M1761.305 1870.067c-1.658-20.134-4.616-40.085-9.358-59.83-3.241 3.192-2.216 6.763-1.91 10.092 2.138 23.22 6.324 43.137 11.268 49.738M552.24 1661.337c-8.967-2.145-15.646-3.873-22.387-5.308-4.397-.935-6.93.504-8.948 4.439-1.595 3.11-1.694 5.15-.432 10.302.914-.218 2.181-.127 2.685-.704 3.251-3.72 7.161-3.81 11.72-3.2 3.527.475 7.313.013 10.82-.77 1.876-.418 3.407-2.394 6.541-4.76M1745.665 1876.868c1.074-10.81-6.373-53.074-10.117-60.723-2.17 5.383-2.22 5.391.036 19.472 1.048 6.54 2.245 13.06 3.532 19.556 1.332 6.72 1.824 13.707 6.549 21.695M994.384 1705.057c6.366.852 12.713 2.215 19.101 2.447 12.871.47 25.765.348 38.65.369.706 0 1.414-.908 2.633-1.744-2.762-2.664-5.844-2.267-8.574-2.231-17.208.227-34.43-3.217-51.629-.922l-.18 2.08M1066.537 1345.207c-10.226-1.984-60.262 3.811-72.676 8.553 24.22-.488 46.566-3.117 68.842-6.482 1.118-.169 2.12-1.118 3.834-2.071M1057.995 1725.332c-13.933-3.635-40.481-4.096-48.763-.939 2.982 2.963 6.659 2.977 10.019 3.371 13.428 1.575 30.672.635 38.744-2.432M1719.532 1817.79c-2.66 12.91 2.879 46.584 7.575 55.396 2.01-5.267.585-9.565-.016-13.812a927.794 927.794 0 00-2.188-14.738c-.724-4.577-1.432-9.162-2.341-13.705-.881-4.406-2.01-8.762-3.03-13.14M1703.227 1821.287c.157 18.18.8 36.251 7.762 53.39 2.429-9.092-.821-17.785-1.886-26.58-1.097-9.075-1.655-18.33-5.876-26.81M1907.62 2484.933c-1.75 7.64-3.805 15.226-5.169 22.934-1.667 9.425-2.79 18.95-4.027 28.446-.1.772.738 1.665 1.66 3.582 1.248-1.743 2.572-2.784 2.791-4.02 2.96-16.774 4.92-33.67 4.744-50.942M2416.073 2497.816c.842-11.638-5.213-35.334-10.698-42.96-1.94 2.482-1.395 5.033-.789 7.428 2.941 11.643 4.577 23.742 11.487 35.532M1784.497 1817.208c-.063 16.476 3.6 31.391 6.667 46.5 2.36-2.683 1.051-5.813 1.084-8.697.04-3.293-.247-6.596-.503-9.886-.257-3.289-.679-6.564-.975-9.851-.295-3.287-.384-6.599-.825-9.864-.404-3-.475-6.378-5.448-8.202M1654.81 1744.91c-3.786 8.085-6.607 41.68-4.657 49.19 3.85-7.339 7.247-39.854 4.657-49.19M2393.747 2526.972c2.987-8.977.196-25.715-4.942-34.588-.876 1.679-2.258 3.057-2.109 4.242 1.218 9.667 1.036 19.712 7.051 30.346M1688.233 1813.679c-2.463 10.006-.185 30.43 3.606 39.877 2.314-4.136 2.287-4.133.683-18.392-.735-6.523-.954-13.138-4.289-21.485M1806.919 1853.666c2.469-10.177-.117-20.139-1.226-30.164-.221-2.006-1.676-3.877-3.381-7.597-.99 3.306-1.925 4.78-1.75 6.107 1.394 10.616 1.836 21.428 6.357 31.654M1890.749 2515.928c3.734-8.356 7.361-35.313 6.358-44.88-4.787 7.123-3.569 14.598-4.875 21.338-1.364 7.042-3.656 14.193-1.483 23.542M2136.695 2436.719c3.396-.234 5.268-2.513 4.82-4.798-1.272-6.476-10.24-10.481-15.59-6.926-1.947 1.294-2.615 3.329-1.137 5.077 3.307 3.912 7.754 5.957 11.907 6.647M1298.316 1712.425c-3.442 11.743-4.67 28.367-3.05 35.585 4.961-6.292 6.461-20.824 3.05-35.585M1847.769 1801.845c-.817 10.916 2.584 25.704 6.898 32.028 1.357-8.653-1.55-23.42-6.898-32.028M1824.89 1845.539c.203-10.468.049-20.781-4.037-32.348-1.503 2.487-2.636 3.48-2.563 4.375.789 9.633 1.907 19.219 6.6 27.973M2423.164 2461.026c-.677 9.265 1.543 17.832 6.115 26.813 2.61-5.677 2.737-5.715.1-14.577-1.276-4.284-1.597-9.072-6.215-12.236M1878.918 1793.74c-1.317 9.506 1.078 21.432 5.48 29.45 2.093-6.605-.287-20.883-5.48-29.45M1868.72 1826.406c1.878-9.501-.327-19.995-5.208-24.792-2.08 6.925.443 18.926 5.209 24.792M1833.888 1805.802c-1.972 9.004-.274 20.636 3.785 29.708 2.189-5.58.508-20.773-3.785-29.708M1055.345 1741.01c-9.363-2.551-22.087-1.961-29.146 1.35 8.1 2.826 20.923 2.232 29.146-1.35M1882.55 2497.156c5.378-10.956 5.175-21.018 6.788-32.036-3.988 4.426-3.982 4.428-5.8 14.588-.915 5.126-2.43 10.216-.988 17.448M1794.274 1735.499c-.127 4.287 2.305 5.855 5.138 7.047 3.26 1.371 6.048.714 6.733-1.651.84-2.894-1.095-4.239-3.342-5.141-1.818-.73-3.714-1.473-5.63-1.665-.988-.099-2.095.989-2.899 1.41M2381.7 2523.383c-2.45 5.692-3.062 11.23 1.425 17.157 4.405-6.626 1.51-11.898-1.426-17.157M1879.256 2454.662l-3.754 21.714c5.047-6.318 6.383-12.608 3.754-21.714M2725.65 2479.345c-2.307 3.498-4.745 6.916-6.889 10.51-3.435 5.763-6.922 11.386-13.477 14.18-2.376 1.014-3.847 2.81-2.927 5.51.89 2.614 3.204 3.277 5.658 3.017 1.612-.171 3.28-.633 4.73-1.354 9.61-4.781 16.774-19.966 12.904-31.863"/>
  </g>
</svg>
