<?xml version="1.0" encoding="UTF-8" standalone="no"?>
<svg
   xmlns:dc="http://purl.org/dc/elements/1.1/"
   xmlns:cc="http://creativecommons.org/ns#"
   xmlns:rdf="http://www.w3.org/1999/02/22-rdf-syntax-ns#"
   xmlns:svg="http://www.w3.org/2000/svg"
   xmlns="http://www.w3.org/2000/svg"
   viewBox="0 0 697.44397 689.82397"
   height="689.82397"
   width="697.44397"
   xml:space="preserve"
   id="svg2"
   version="1.1"><metadata
     id="metadata8"><rdf:RDF><cc:Work
         rdf:about=""><dc:format>image/svg+xml</dc:format><dc:type
           rdf:resource="http://purl.org/dc/dcmitype/StillImage" /></cc:Work></rdf:RDF></metadata><defs
     id="defs6"><clipPath
       id="clipPath18"
       clipPathUnits="userSpaceOnUse"><path
         id="path16"
         d="M 0,517.368 H 523.083 V 0 H 0 Z" /></clipPath><clipPath
       id="clipPath30"
       clipPathUnits="userSpaceOnUse"><path
         id="path28"
         d="M 0,517.368 H 523.083 V 0 H 0 Z" /></clipPath><clipPath
       id="clipPath102"
       clipPathUnits="userSpaceOnUse"><path
         id="path100"
         d="M 0,517.368 H 523.083 V 0 H 0 Z" /></clipPath></defs><g
     transform="matrix(1.3333333,0,0,-1.3333333,0,689.824)"
     id="g10"><g
       id="g12"><g
         clip-path="url(#clipPath18)"
         id="g14"><g
           transform="translate(508.3113,258.6841)"
           id="g20"><path
             id="path22"
             style="fill:#ffffff;fill-opacity:1;fill-rule:nonzero;stroke:none"
             d="m 0,0 c 0,-134.986 -109.428,-244.413 -244.413,-244.413 -134.986,0 -244.413,109.427 -244.413,244.413 0,134.986 109.427,244.413 244.413,244.413 C -109.428,244.413 0,134.986 0,0" /></g></g></g><g
       id="g24"><g
         clip-path="url(#clipPath30)"
         id="g26"><g
           transform="translate(430.7937,258.6841)"
           id="g32"><path
             id="path34"
             style="fill:#b11f25;fill-opacity:1;fill-rule:nonzero;stroke:none"
             d="m 0,0 c 0,-92.173 -74.722,-166.895 -166.896,-166.895 -92.173,0 -166.895,74.722 -166.895,166.895 0,92.174 74.722,166.895 166.895,166.895 C -74.722,166.895 0,92.174 0,0" /></g><g
           transform="translate(366.9988,180.9385)"
           id="g36"><path
             id="path38"
             style="fill:#ffffff;fill-opacity:1;fill-rule:nonzero;stroke:none"
             d="m 0,0 c -29.335,0 -56.564,9.172 -78.987,24.787 14.473,16.168 25.916,35.101 33.432,55.896 -0.031,-0.089 -0.06,-0.18 -0.092,-0.268 C -12.348,65.179 13.907,37.127 26.775,2.606 18.108,0.902 9.158,0 0,0 m -129.872,90.295 c 8.665,1.703 17.615,2.605 26.771,2.605 9.158,0 18.107,-0.902 26.772,-2.605 -6.124,-16.422 -15.272,-31.383 -26.772,-44.194 -11.5,12.811 -20.647,27.772 -26.771,44.194 M -206.201,0 c -9.158,0 -18.109,0.902 -26.776,2.606 12.869,34.521 39.124,62.573 72.424,77.809 -0.035,0.096 -0.067,0.194 -0.102,0.291 7.516,-20.805 18.962,-39.745 33.441,-55.919 C -149.637,9.172 -176.866,0 -206.201,0 m 103.1,231 c 22.029,-24.54 35.451,-56.955 35.451,-92.449 0,-5.734 -0.373,-11.381 -1.055,-16.933 -11.113,2.282 -22.617,3.482 -34.396,3.482 -11.778,0 -23.281,-1.2 -34.395,-3.482 -0.682,5.552 -1.055,11.199 -1.055,16.933 0,35.494 13.423,67.909 35.45,92.449 M 57.453,12.485 c -16.327,44.953 -51.025,81.16 -94.973,99.51 -0.019,-0.121 -0.042,-0.241 -0.061,-0.362 1.395,8.771 2.13,17.76 2.13,26.918 0,43.66 -16.48,83.539 -43.536,113.762 -7.305,8.161 -15.381,15.616 -24.114,22.252 -8.732,-6.636 -16.808,-14.091 -24.113,-22.252 -27.056,-30.223 -43.536,-70.102 -43.536,-113.762 0,-9.158 0.734,-18.147 2.13,-26.919 -0.019,0.122 -0.043,0.242 -0.062,0.363 -43.947,-18.35 -78.645,-54.557 -94.972,-99.51 -3.675,-10.119 -6.419,-20.679 -8.128,-31.58 9.951,-4.155 20.373,-7.402 31.167,-9.619 11.119,-2.285 22.629,-3.485 34.414,-3.485 38.702,0 74.431,12.951 103.1,34.735 28.669,-21.784 64.399,-34.735 103.101,-34.735 11.785,0 23.295,1.2 34.414,3.485 10.794,2.217 21.216,5.464 31.167,9.619 -1.71,10.901 -4.453,21.461 -8.128,31.58" /></g><g
           transform="translate(358.742,236.1807)"
           id="g40"><path
             id="path42"
             style="fill:#6c0b19;fill-opacity:1;fill-rule:nonzero;stroke:none"
             d="m 0,0 c -4.291,-19.604 -14.521,-37.011 -28.704,-50.231 -10.052,-9.37 -22.085,-16.638 -35.398,-21.093 -9.666,-3.235 -20.002,-4.991 -30.742,-4.991 -10.739,0 -21.076,1.756 -30.742,4.991 -12.713,-5.975 -26.273,-10.434 -40.453,-13.126 20.324,-13.796 44.834,-21.865 71.195,-21.865 26.361,0 50.871,8.069 71.196,21.865 11.755,7.979 22.111,17.873 30.612,29.233 6.329,8.458 11.623,17.731 15.71,27.624 C 16.318,-17.439 8.684,-8.169 0,0" /></g><g
           transform="translate(169.055,236.1807)"
           id="g44"><path
             id="path46"
             style="fill:#6c0b19;fill-opacity:1;fill-rule:nonzero;stroke:none"
             d="m 0,0 c -1.465,6.695 -2.245,13.644 -2.245,20.772 0,6.905 0.73,13.641 2.107,20.141 4.074,19.233 13.858,36.38 27.49,49.581 0.606,14.568 3.049,28.667 7.099,42.077 -39.687,-21.525 -66.696,-63.566 -66.696,-111.799 0,-2.522 0.083,-5.025 0.228,-7.511 0.843,-14.386 4.089,-28.135 9.343,-40.854 4.087,-9.893 9.381,-19.167 15.71,-27.624 12.336,0.113 24.296,1.832 35.668,4.986 C 14.52,-37.011 4.291,-19.604 0,0" /></g><g
           transform="translate(324.2898,368.7515)"
           id="g48"><path
             id="path50"
             style="fill:#6c0b19;fill-opacity:1;fill-rule:nonzero;stroke:none"
             d="m 0,0 c -12.287,6.665 -25.793,11.355 -40.087,13.661 -6.613,1.066 -13.394,1.629 -20.305,1.629 -6.91,0 -13.691,-0.563 -20.305,-1.629 -5.428,-10.6 -9.536,-21.983 -12.092,-33.936 10.138,3.599 21.041,5.565 32.397,5.565 11.357,0 22.26,-1.966 32.398,-5.565 13.252,-4.706 25.188,-12.21 35.094,-21.803 13.631,-13.199 23.416,-30.346 27.49,-49.58 11.735,-7.885 22.445,-17.18 31.878,-27.652 0.146,2.486 0.228,4.989 0.228,7.512 C 66.696,-63.566 39.688,-21.524 0,0" /></g><g
           transform="translate(174.9597,181.6826)"
           id="g52"><path
             id="path54"
             style="fill:#f3e5e7;fill-opacity:1;fill-rule:nonzero;stroke:none"
             d="M 0,0 C 1.762,0.18 3.515,0.393 5.257,0.639 3.514,0.394 1.762,0.18 0,0.001 0,0 0,0 0,0" /></g><g
           transform="translate(238.2742,370.6963)"
           id="g56"><path
             id="path58"
             style="fill:#f3e5e7;fill-opacity:1;fill-rule:nonzero;stroke:none"
             d="m 0,0 c -0.003,0 -0.006,-0.001 -0.009,-0.002 -1.334,-3.341 -2.544,-6.744 -3.619,-10.206 l 0.016,0.004 C -2.537,-6.744 -1.335,-3.339 0,0" /></g><g
           transform="translate(374.1521,219.0703)"
           id="g60"><path
             id="path62"
             style="fill:#f3e5e7;fill-opacity:1;fill-rule:nonzero;stroke:none"
             d="M 0,0 C 0.002,0.005 0.004,0.01 0.005,0.015 -2.164,2.861 -4.439,5.622 -6.817,8.29 L -6.823,8.27 C -4.445,5.603 -2.168,2.846 0,0" /></g><g
           transform="translate(219.2747,159.0771)"
           id="g64"><path
             id="path66"
             style="fill:#f3e5e7;fill-opacity:1;fill-rule:nonzero;stroke:none"
             d="m 0,0 c -3.972,-1.454 -8.013,-2.761 -12.116,-3.921 0.005,-0.003 0.009,-0.005 0.013,-0.007 4.105,1.16 8.15,2.465 12.124,3.919 C 0.014,-0.006 0.007,-0.003 0,0" /></g><g
           transform="translate(197.7107,341.6943)"
           id="g68"><path
             id="path70"
             style="fill:#f3e5e7;fill-opacity:1;fill-rule:nonzero;stroke:none"
             d="M 0,0 C 0.556,4.259 1.268,8.469 2.133,12.624 2.127,12.62 2.122,12.616 2.117,12.612 1.252,8.458 0.542,4.248 -0.014,-0.011 -0.009,-0.007 -0.004,-0.004 0,0" /></g><g
           transform="translate(185.3455,183.1436)"
           id="g72"><path
             id="path74"
             style="fill:#f3e5e7;fill-opacity:1;fill-rule:nonzero;stroke:none"
             d="M 0,0 C 0.103,0.019 0.208,0.031 0.312,0.05 0.311,0.052 0.309,0.053 0.308,0.055 0.206,0.035 0.103,0.019 0,0" /></g><g
           transform="translate(370.8972,268.2236)"
           id="g76"><path
             id="path78"
             style="fill:#f3e5e7;fill-opacity:1;fill-rule:nonzero;stroke:none"
             d="m 0,0 c 3.28,-2.644 6.46,-5.407 9.534,-8.282 0,0.007 -0.001,0.013 -0.001,0.019 C 6.457,-5.386 3.279,-2.618 -0.003,0.028 -0.002,0.019 -0.001,0.009 0,0" /></g><g
           transform="translate(149.8299,232.8135)"
           id="g80"><path
             id="path82"
             style="fill:#b12126;fill-opacity:1;fill-rule:nonzero;stroke:none"
             d="m 0,0 c 0.991,-4.687 2.273,-9.265 3.813,-13.725 -0.001,-0.002 -0.003,-0.004 -0.005,-0.006 0.027,-0.082 0.058,-0.162 0.087,-0.243 0.059,-0.171 0.122,-0.34 0.183,-0.511 0.495,-1.406 1.012,-2.8 1.559,-4.18 0.003,-0.007 0.006,-0.015 0.009,-0.022 0.578,-1.457 1.188,-2.896 1.823,-4.324 0.029,-0.065 0.057,-0.132 0.087,-0.197 0.637,-1.427 1.303,-2.838 1.996,-4.234 0.016,-0.035 0.033,-0.068 0.05,-0.102 4.224,-8.497 9.448,-16.414 15.527,-23.586 1.763,0.179 3.515,0.393 5.258,0.638 0.069,0.01 0.137,0.018 0.206,0.028 1.651,0.235 3.291,0.502 4.923,0.794 0.102,0.019 0.205,0.035 0.308,0.055 -4.249,4.504 -8.106,9.378 -11.532,14.56 -0.109,0.165 -0.222,0.328 -0.331,0.493 -5.804,8.888 -10.33,18.682 -13.32,29.12 C 10.639,-5.445 10.637,-5.447 10.636,-5.449 9.354,-0.979 8.345,3.606 7.65,8.294 7.093,12.047 6.735,15.863 6.578,19.731 6.519,21.194 6.48,22.663 6.48,24.14 c 0,3.817 0.207,7.587 0.598,11.302 10e-4,10e-4 0.003,0.003 0.004,0.004 3.124,29.74 18.411,55.905 40.785,73.424 0.556,4.258 1.266,8.468 2.131,12.623 -6.79,-4.483 -13.082,-9.658 -18.782,-15.421 -0.001,0.002 -0.002,0.004 -0.002,0.006 -0.751,-0.76 -1.489,-1.532 -2.219,-2.311 -0.082,-0.089 -0.163,-0.179 -0.245,-0.267 -0.655,-0.704 -1.301,-1.415 -1.938,-2.134 -0.148,-0.167 -0.294,-0.334 -0.441,-0.502 C 25.774,100.183 25.186,99.495 24.605,98.8 24.482,98.654 24.359,98.509 24.238,98.362 22.816,96.645 21.442,94.889 20.119,93.091 20.106,93.074 20.094,93.057 20.082,93.04 19.451,92.181 18.833,91.313 18.226,90.437 18.129,90.298 18.034,90.158 17.937,90.018 17.391,89.223 16.854,88.42 16.326,87.611 16.246,87.488 16.165,87.366 16.085,87.242 14.254,84.409 12.543,81.493 10.958,78.499 10.916,78.419 10.875,78.34 10.833,78.261 10.341,77.325 9.861,76.383 9.394,75.433 9.357,75.358 9.319,75.284 9.283,75.209 7.765,72.108 6.381,68.931 5.138,65.684 c 0,-10e-4 0,-10e-4 0,-0.002 C 4.724,64.601 4.326,63.511 3.944,62.414 3.937,62.394 3.93,62.374 3.923,62.354 -0.246,50.376 -2.52,37.52 -2.52,24.14 c 0,-4.295 0.241,-8.535 0.696,-12.709 C -1.403,7.561 -0.792,3.748 0,0" /></g><g
           transform="translate(303.3484,366.6655)"
           id="g84"><path
             id="path86"
             style="fill:#b12126;fill-opacity:1;fill-rule:nonzero;stroke:none"
             d="m 0,0 c -6.391,2.305 -13.04,4.062 -19.889,5.226 -0.151,0.026 -0.303,0.05 -0.455,0.075 -0.849,0.141 -1.702,0.273 -2.558,0.395 -0.183,0.026 -0.366,0.054 -0.549,0.078 -0.968,0.134 -1.939,0.259 -2.914,0.368 -0.025,0.003 -0.05,0.006 -0.075,0.009 -1.018,0.114 -2.041,0.214 -3.067,0.301 -0.19,0.016 -0.381,0.028 -0.57,0.044 -0.796,0.064 -1.593,0.12 -2.393,0.167 -0.305,0.018 -0.611,0.035 -0.918,0.05 -0.721,0.037 -1.444,0.068 -2.17,0.092 -0.296,0.009 -0.593,0.021 -0.89,0.029 -0.998,0.025 -1.998,0.042 -3.002,0.042 -1.462,0 -2.916,-0.037 -4.365,-0.091 -0.344,-0.013 -0.689,-0.028 -1.033,-0.044 -2.936,-0.135 -5.844,-0.379 -8.72,-0.729 -0.248,-0.031 -0.496,-0.062 -0.745,-0.094 -3.641,-0.467 -7.232,-1.092 -10.761,-1.887 -1.335,-3.339 -2.537,-6.744 -3.613,-10.204 4.416,1.25 8.95,2.215 13.574,2.896 0.812,0.119 1.628,0.224 2.445,0.325 0.463,0.057 0.926,0.119 1.391,0.17 0.865,0.096 1.736,0.173 2.607,0.248 0.435,0.037 0.867,0.082 1.302,0.114 0.931,0.068 1.869,0.116 2.806,0.16 0.382,0.018 0.761,0.046 1.144,0.06 1.316,0.049 2.639,0.076 3.968,0.076 1.143,0 2.282,-0.024 3.417,-0.06 0.32,-0.01 0.638,-0.024 0.958,-0.037 0.875,-0.035 1.748,-0.081 2.618,-0.137 0.284,-0.018 0.568,-0.035 0.852,-0.056 2.308,-0.168 4.596,-0.408 6.862,-0.72 0.191,-0.027 0.381,-0.055 0.571,-0.082 1.027,-0.148 2.051,-0.308 3.069,-0.484 0.119,-0.021 0.237,-0.04 0.354,-0.06 2.348,-0.415 4.67,-0.905 6.964,-1.469 0.06,-0.016 0.12,-0.031 0.181,-0.046 1.141,-0.283 2.277,-0.583 3.404,-0.902 4.586,-1.299 9.051,-2.887 13.367,-4.757 3.563,-1.543 7.027,-3.272 10.38,-5.177 4.742,-2.697 9.259,-5.746 13.517,-9.106 0.32,-0.253 0.636,-0.51 0.953,-0.765 0.394,-0.318 0.788,-0.637 1.177,-0.96 0.301,-0.25 0.6,-0.505 0.899,-0.758 0.398,-0.34 0.797,-0.679 1.191,-1.024 0.279,-0.245 0.558,-0.493 0.835,-0.741 0.407,-0.364 0.814,-0.73 1.216,-1.1 0.257,-0.237 0.512,-0.476 0.767,-0.714 0.417,-0.391 0.831,-0.785 1.242,-1.183 0.234,-0.227 0.467,-0.455 0.698,-0.684 0.425,-0.419 0.847,-0.841 1.264,-1.267 0.212,-0.215 0.423,-0.432 0.632,-0.65 0.435,-0.45 0.866,-0.904 1.291,-1.362 0.187,-0.199 0.372,-0.398 0.556,-0.599 0.447,-0.488 0.891,-0.98 1.329,-1.476 0.157,-0.176 0.313,-0.353 0.468,-0.531 0.463,-0.53 0.92,-1.065 1.372,-1.603 0.127,-0.151 0.254,-0.301 0.379,-0.452 0.481,-0.58 0.957,-1.166 1.426,-1.756 0.091,-0.114 0.182,-0.227 0.273,-0.342 0.504,-0.639 1.001,-1.284 1.491,-1.935 0.053,-0.07 0.107,-0.14 0.16,-0.21 0.536,-0.717 1.065,-1.44 1.584,-2.17 0.004,-0.004 0.006,-0.009 0.01,-0.014 8.047,-11.321 13.96,-24.259 17.152,-38.223 0.002,0 0.003,0 0.004,0.001 0.947,-4.142 1.661,-8.371 2.113,-12.679 3.282,-2.646 6.46,-5.414 9.536,-8.291 -0.175,6.886 -0.963,13.62 -2.287,20.162 0.004,-10e-4 0.008,-10e-4 0.012,-0.002 -0.041,0.201 -0.089,0.399 -0.131,0.6 -0.137,0.659 -0.281,1.315 -0.43,1.969 -0.108,0.478 -0.218,0.956 -0.332,1.432 -0.159,0.667 -0.326,1.33 -0.497,1.992 -0.118,0.457 -0.238,0.913 -0.361,1.368 -0.183,0.672 -0.371,1.342 -0.566,2.009 -0.128,0.439 -0.258,0.877 -0.39,1.314 -0.205,0.675 -0.416,1.347 -0.633,2.017 -0.137,0.423 -0.278,0.844 -0.419,1.265 -0.228,0.676 -0.46,1.35 -0.7,2.021 -0.146,0.406 -0.294,0.81 -0.444,1.214 -0.251,0.677 -0.505,1.351 -0.767,2.022 -0.155,0.393 -0.313,0.784 -0.47,1.175 -0.272,0.674 -0.549,1.346 -0.833,2.014 -0.162,0.379 -0.328,0.755 -0.494,1.132 -0.294,0.671 -0.592,1.341 -0.899,2.006 -0.17,0.367 -0.343,0.73 -0.516,1.095 -0.317,0.667 -0.636,1.333 -0.965,1.993 -0.176,0.354 -0.357,0.704 -0.537,1.056 -0.339,0.663 -0.679,1.325 -1.03,1.981 -0.182,0.34 -0.371,0.677 -0.556,1.015 -0.36,0.659 -0.723,1.316 -1.097,1.968 -0.187,0.327 -0.381,0.65 -0.572,0.976 -0.383,0.653 -0.768,1.306 -1.163,1.952 -0.192,0.313 -0.391,0.622 -0.586,0.934 -0.406,0.649 -0.813,1.296 -1.231,1.937 -0.195,0.298 -0.397,0.592 -0.595,0.89 -0.43,0.644 -0.86,1.289 -1.302,1.924 -0.193,0.278 -0.394,0.551 -0.59,0.828 -0.458,0.646 -0.917,1.293 -1.388,1.93 -0.18,0.244 -0.368,0.483 -0.55,0.726 -0.497,0.661 -0.993,1.321 -1.504,1.97 -0.15,0.192 -0.306,0.378 -0.458,0.569 -0.551,0.692 -1.104,1.384 -1.67,2.064 -0.055,0.065 -0.111,0.129 -0.166,0.194 -1.986,2.373 -4.066,4.664 -6.23,6.871 -0.121,0.123 -0.238,0.251 -0.36,0.374 -0.496,0.502 -1.005,0.992 -1.51,1.484 -0.307,0.3 -0.609,0.605 -0.92,0.901 -0.454,0.433 -0.919,0.855 -1.38,1.281 -0.373,0.345 -0.741,0.694 -1.119,1.033 -0.435,0.393 -0.881,0.775 -1.322,1.16 -0.414,0.362 -0.825,0.727 -1.244,1.083 -0.431,0.366 -0.869,0.721 -1.305,1.08 -0.44,0.363 -0.878,0.729 -1.324,1.085 -0.431,0.346 -0.869,0.681 -1.306,1.02 -0.462,0.359 -0.922,0.72 -1.388,1.072 -0.432,0.325 -0.87,0.642 -1.306,0.961 -0.482,0.353 -0.963,0.707 -1.45,1.052 -0.435,0.309 -0.876,0.609 -1.317,0.912 -0.498,0.343 -0.995,0.686 -1.498,1.022 -0.124,0.082 -0.243,0.168 -0.367,0.25 0.001,-0.004 0.002,-0.008 0.003,-0.013 -4.414,2.916 -9.032,5.547 -13.838,7.851 C 7.282,-2.835 3.684,-1.329 0,0" /></g><g
           transform="translate(263.8982,210.4355)"
           id="g88"><path
             id="path90"
             style="fill:#b12126;fill-opacity:1;fill-rule:nonzero;stroke:none"
             d="m 0,0 c -19.626,18.565 -34.257,42.355 -41.649,69.121 13.23,3.825 27.203,5.882 41.649,5.882 14.446,0 28.419,-2.057 41.649,-5.882 C 34.257,42.355 19.627,18.565 0,0 m 153.325,-32.447 c -0.399,1.432 -0.824,2.855 -1.263,4.271 -0.141,0.457 -0.291,0.91 -0.436,1.365 -0.309,0.966 -0.624,1.928 -0.95,2.886 -0.178,0.521 -0.359,1.04 -0.541,1.558 -0.323,0.914 -0.655,1.823 -0.993,2.728 -0.187,0.501 -0.371,1.003 -0.562,1.501 -0.432,1.121 -0.878,2.235 -1.334,3.343 -0.231,0.562 -0.468,1.119 -0.704,1.677 -0.41,0.965 -0.825,1.927 -1.254,2.882 -0.281,0.626 -0.571,1.246 -0.86,1.867 -0.316,0.679 -0.633,1.356 -0.957,2.029 -0.326,0.679 -0.659,1.355 -0.994,2.028 -0.296,0.591 -0.598,1.18 -0.901,1.768 -0.368,0.714 -0.734,1.429 -1.112,2.136 -0.235,0.44 -0.48,0.875 -0.719,1.312 -0.873,1.598 -1.771,3.178 -2.696,4.742 -0.173,0.291 -0.34,0.584 -0.515,0.875 -0.501,0.834 -1.015,1.661 -1.531,2.486 -0.221,0.352 -0.441,0.705 -0.664,1.056 -0.53,0.833 -1.068,1.66 -1.612,2.482 -0.192,0.289 -0.387,0.576 -0.581,0.863 -4.866,7.238 -10.296,14.068 -16.253,20.401 -2.699,2.868 -5.5,5.638 -8.403,8.3 -3.723,3.416 -7.614,6.651 -11.65,9.704 v 0 c -1.608,1.216 -3.239,2.401 -4.893,3.557 -0.072,0.05 -0.144,0.099 -0.217,0.15 -3.25,2.263 -6.586,4.408 -10.006,6.429 -0.181,0.107 -0.363,0.212 -0.544,0.318 -1.644,0.962 -3.301,1.901 -4.982,2.806 -0.032,0.017 -0.063,0.035 -0.094,0.052 -1.675,0.9 -3.371,1.765 -5.08,2.606 -0.307,0.152 -0.616,0.3 -0.924,0.45 -1.636,0.791 -3.283,1.562 -4.949,2.299 -0.066,0.03 -0.132,0.062 -0.2,0.091 -1.691,0.745 -3.402,1.453 -5.124,2.141 -0.402,0.16 -0.805,0.318 -1.208,0.476 -1.727,0.673 -3.465,1.328 -5.221,1.942 2.384,10.936 3.652,22.284 3.652,33.924 0,5.377 -0.292,10.686 -0.82,15.926 -0.047,0.476 -0.084,0.954 -0.137,1.428 -3.158,2.184 -6.453,4.185 -9.867,5.99 0.069,-0.445 0.13,-0.893 0.197,-1.339 1.063,-7.185 1.627,-14.53 1.627,-22.005 0,-10.688 -1.131,-21.116 -3.265,-31.178 C 29.869,81.864 15.18,84.003 0,84.003 c -15.18,0 -29.869,-2.139 -43.785,-6.127 -2.133,10.062 -3.265,20.49 -3.265,31.178 0,1.753 0.037,3.497 0.098,5.236 0.016,0.439 0.042,0.876 0.061,1.315 0.059,1.347 0.131,2.691 0.226,4.028 0.029,0.413 0.063,0.825 0.096,1.237 0.113,1.433 0.244,2.862 0.398,4.285 0.03,0.274 0.058,0.548 0.089,0.821 0.193,1.701 0.41,3.396 0.659,5.08 0.713,4.823 1.645,9.576 2.806,14.24 0.92,3.701 1.977,7.347 3.167,10.934 1.571,4.735 3.382,9.362 5.399,13.876 0.947,2.121 1.947,4.213 2.989,6.281 0.088,0.175 0.173,0.353 0.263,0.528 0.432,0.852 0.879,1.695 1.328,2.537 0.2,0.377 0.402,0.755 0.606,1.13 0.432,0.794 0.871,1.585 1.317,2.371 0.23,0.404 0.464,0.806 0.697,1.209 0.45,0.775 0.9,1.55 1.363,2.317 0.198,0.327 0.404,0.649 0.604,0.976 0.857,1.395 1.738,2.774 2.639,4.139 0.316,0.479 0.628,0.96 0.949,1.434 0.42,0.62 0.849,1.233 1.278,1.846 0.38,0.543 0.761,1.086 1.148,1.625 0.412,0.573 0.828,1.144 1.247,1.71 0.441,0.595 0.887,1.185 1.336,1.772 0.387,0.508 0.772,1.017 1.165,1.519 0.664,0.848 1.34,1.686 2.021,2.519 0.351,0.427 0.703,0.853 1.058,1.277 0.707,0.845 1.42,1.684 2.146,2.513 0.338,0.387 0.683,0.768 1.025,1.151 0.609,0.682 1.222,1.359 1.843,2.029 0.356,0.385 0.715,0.768 1.075,1.149 0.658,0.696 1.324,1.384 1.995,2.068 0.316,0.322 0.63,0.647 0.949,0.966 0.991,0.991 1.992,1.972 3.01,2.935 14.289,-13.516 25.912,-29.811 34.04,-47.998 0.198,-0.444 0.405,-0.884 0.6,-1.331 3.81,-1.08 7.555,-2.318 11.213,-3.736 -0.176,0.465 -0.367,0.923 -0.546,1.386 -8.532,21.999 -21.785,41.661 -38.561,57.684 -2.188,2.091 -4.442,4.113 -6.746,6.076 -2.304,-1.963 -4.558,-3.985 -6.746,-6.076 -1.175,-1.122 -2.33,-2.268 -3.47,-3.426 -0.371,-0.376 -0.734,-0.761 -1.101,-1.141 -0.767,-0.793 -1.527,-1.592 -2.277,-2.401 -0.422,-0.455 -0.84,-0.915 -1.257,-1.375 -0.69,-0.762 -1.371,-1.53 -2.045,-2.305 -0.416,-0.478 -0.833,-0.955 -1.244,-1.438 -0.698,-0.82 -1.383,-1.652 -2.064,-2.486 -0.357,-0.437 -0.719,-0.868 -1.071,-1.309 -0.972,-1.216 -1.926,-2.445 -2.862,-3.69 -0.381,-0.507 -0.748,-1.024 -1.123,-1.535 -0.575,-0.784 -1.15,-1.569 -1.711,-2.364 -0.452,-0.641 -0.893,-1.288 -1.336,-1.935 -0.463,-0.677 -0.923,-1.356 -1.376,-2.041 -0.463,-0.698 -0.919,-1.399 -1.37,-2.105 -0.409,-0.64 -0.81,-1.285 -1.21,-1.931 -0.462,-0.745 -0.925,-1.489 -1.375,-2.243 -0.346,-0.581 -0.681,-1.171 -1.021,-1.757 -0.987,-1.703 -1.944,-3.424 -2.869,-5.165 -0.19,-0.359 -0.389,-0.712 -0.576,-1.072 -0.47,-0.902 -0.921,-1.814 -1.375,-2.726 -0.26,-0.524 -0.524,-1.048 -0.779,-1.576 -0.439,-0.908 -0.866,-1.823 -1.288,-2.741 -0.245,-0.532 -0.487,-1.066 -0.726,-1.601 -0.419,-0.938 -0.833,-1.88 -1.234,-2.828 -0.207,-0.488 -0.406,-0.98 -0.607,-1.47 -2.369,-5.755 -4.431,-11.667 -6.121,-17.735 -1.062,-3.811 -1.984,-7.678 -2.763,-11.597 -1.488,-7.494 -2.453,-15.173 -2.848,-23 -10e-4,-0.021 -0.003,-0.041 -0.004,-0.061 -0.06,-1.212 -0.104,-2.428 -0.137,-3.646 -0.003,-0.117 -0.011,-0.233 -0.014,-0.351 -0.033,-1.332 -0.05,-2.667 -0.05,-4.007 0,-11.64 1.268,-22.988 3.652,-33.924 -15.756,-5.51 -30.377,-13.443 -43.442,-23.331 -0.38,-0.288 -0.764,-0.571 -1.141,-0.861 -0.066,-1.466 -0.107,-2.938 -0.107,-4.42 0,-2.357 0.093,-4.693 0.26,-7.008 0.345,0.291 0.696,0.574 1.042,0.862 13.426,11.149 28.808,20.017 45.562,25.981 7.797,-27.961 23.049,-52.846 43.478,-72.358 -0.992,-0.833 -1.998,-1.648 -3.011,-2.455 -0.33,-0.263 -0.665,-0.52 -0.997,-0.78 -0.694,-0.543 -1.392,-1.08 -2.095,-1.611 -0.393,-0.296 -0.786,-0.591 -1.182,-0.883 -0.673,-0.498 -1.352,-0.988 -2.033,-1.475 -0.396,-0.282 -0.79,-0.567 -1.189,-0.847 -0.877,-0.613 -1.762,-1.215 -2.652,-1.81 -0.549,-0.366 -1.102,-0.725 -1.656,-1.084 -0.641,-0.416 -1.282,-0.831 -1.929,-1.237 -0.57,-0.358 -1.144,-0.709 -1.719,-1.058 -0.499,-0.305 -1,-0.607 -1.503,-0.905 -0.633,-0.375 -1.267,-0.747 -1.906,-1.114 -0.419,-0.24 -0.84,-0.474 -1.261,-0.711 -2.567,-1.439 -5.179,-2.807 -7.836,-4.097 -0.159,-0.077 -0.315,-0.156 -0.473,-0.233 -0.879,-0.423 -1.764,-0.834 -2.652,-1.24 -0.221,-0.101 -0.441,-0.202 -0.662,-0.302 -0.919,-0.414 -1.842,-0.822 -2.77,-1.219 -0.077,-0.033 -0.154,-0.064 -0.23,-0.097 -3.105,-1.32 -6.263,-2.541 -9.47,-3.654 -4.535,-1.576 -9.163,-2.952 -13.883,-4.091 -3.662,-0.884 -7.374,-1.634 -11.135,-2.243 -4.848,-0.787 -9.773,-1.342 -14.762,-1.653 -1.407,-0.088 -2.821,-0.15 -4.238,-0.199 -0.293,-0.01 -0.588,-0.018 -0.882,-0.027 -1.405,-0.04 -2.814,-0.067 -4.229,-0.067 -14.445,0 -28.419,2.057 -41.649,5.882 4.596,16.641 12.005,32.12 21.66,45.92 0.275,0.394 0.545,0.79 0.824,1.181 -1.061,3.739 -1.966,7.542 -2.683,11.411 -0.305,-0.386 -0.6,-0.78 -0.901,-1.17 -12.432,-16.045 -21.88,-34.511 -27.475,-54.574 -0.806,-2.893 -1.529,-5.821 -2.174,-8.777 2.837,-0.992 5.707,-1.913 8.613,-2.746 13.916,-3.988 28.605,-6.127 43.785,-6.127 1.483,0 2.961,0.023 4.434,0.064 0.199,0.006 0.396,0.017 0.596,0.023 1.303,0.041 2.603,0.095 3.898,0.168 0.084,0.005 0.167,0.012 0.251,0.017 8.139,0.468 16.118,1.545 23.889,3.193 3.896,0.826 7.741,1.796 11.527,2.903 9.121,2.667 17.9,6.14 26.267,10.319 0.011,0.006 0.023,0.012 0.035,0.017 0.873,0.437 1.74,0.882 2.604,1.334 0.199,0.104 0.397,0.208 0.596,0.313 0.827,0.437 1.651,0.878 2.469,1.329 0.124,0.068 0.246,0.139 0.369,0.207 1.571,0.871 3.125,1.769 4.663,2.69 0.239,0.144 0.48,0.284 0.718,0.428 0.628,0.381 1.25,0.77 1.871,1.159 0.449,0.281 0.897,0.562 1.343,0.847 0.559,0.358 1.117,0.719 1.672,1.083 0.543,0.357 1.082,0.72 1.62,1.083 0.47,0.317 0.942,0.631 1.408,0.953 0.96,0.662 1.913,1.335 2.857,2.019 0.337,0.244 0.67,0.494 1.005,0.741 0.691,0.508 1.379,1.02 2.061,1.538 0.365,0.277 0.728,0.558 1.091,0.838 0.683,0.529 1.362,1.064 2.037,1.604 0.31,0.249 0.623,0.497 0.932,0.748 0.971,0.79 1.936,1.586 2.888,2.398 13.053,-11.126 27.926,-20.167 44.093,-26.645 0.445,-0.178 0.886,-0.362 1.334,-0.537 3.396,1.807 6.672,3.813 9.814,5.996 -0.427,0.144 -0.847,0.299 -1.272,0.447 -17.41,6.046 -33.377,15.201 -47.223,26.815 20.429,19.512 35.681,44.397 43.479,72.358 1.211,-0.431 2.412,-0.882 3.608,-1.343 0.387,-0.149 0.77,-0.303 1.154,-0.455 0.816,-0.322 1.629,-0.651 2.438,-0.987 0.44,-0.183 0.88,-0.367 1.318,-0.554 0.78,-0.333 1.557,-0.675 2.331,-1.021 0.412,-0.185 0.826,-0.365 1.237,-0.553 1.087,-0.498 2.169,-1.008 3.244,-1.532 0.49,-0.239 0.974,-0.488 1.462,-0.732 0.62,-0.311 1.239,-0.622 1.854,-0.941 0.594,-0.307 1.184,-0.621 1.773,-0.937 0.483,-0.259 0.965,-0.521 1.446,-0.785 0.642,-0.354 1.286,-0.709 1.924,-1.072 0.346,-0.197 0.689,-0.4 1.034,-0.6 2.468,-1.43 4.891,-2.926 7.267,-4.491 0.162,-0.106 0.324,-0.21 0.484,-0.317 0.815,-0.541 1.625,-1.09 2.429,-1.646 0.109,-0.076 0.217,-0.153 0.327,-0.229 3.521,-2.451 6.935,-5.048 10.23,-7.784 3.694,-3.068 7.249,-6.299 10.634,-9.702 2.651,-2.667 5.202,-5.435 7.649,-8.294 3.196,-3.732 6.202,-7.63 9.024,-11.665 0.598,-0.856 1.188,-1.718 1.77,-2.586 L 124.9,8.068 c 1.734,-2.591 3.388,-5.24 4.96,-7.941 0.019,-0.031 0.037,-0.063 0.056,-0.095 0.466,-0.802 0.922,-1.609 1.374,-2.421 0.124,-0.223 0.248,-0.448 0.372,-0.673 0.425,-0.773 0.846,-1.548 1.257,-2.329 0.105,-0.2 0.208,-0.401 0.311,-0.602 0.75,-1.438 1.476,-2.89 2.18,-4.355 0.152,-0.317 0.31,-0.631 0.46,-0.95 0.294,-0.624 0.579,-1.253 0.866,-1.882 0.232,-0.508 0.462,-1.018 0.689,-1.531 0.255,-0.577 0.507,-1.157 0.755,-1.738 0.265,-0.622 0.524,-1.247 0.781,-1.872 0.203,-0.496 0.411,-0.991 0.609,-1.49 0.433,-1.085 0.854,-2.177 1.261,-3.276 0.137,-0.369 0.266,-0.741 0.399,-1.111 0.298,-0.823 0.592,-1.649 0.875,-2.478 0.147,-0.428 0.29,-0.856 0.432,-1.286 0.274,-0.824 0.54,-1.652 0.8,-2.483 0.119,-0.382 0.24,-0.763 0.357,-1.146 0.366,-1.202 0.72,-2.409 1.056,-3.624 -13.23,-3.825 -27.203,-5.882 -41.649,-5.882 -3.135,0 -6.242,0.122 -9.328,0.316 -0.482,0.03 -0.967,0.045 -1.448,0.079 -2.707,-2.863 -5.531,-5.613 -8.491,-8.216 0.488,-0.06 0.981,-0.103 1.472,-0.157 5.844,-0.658 11.777,-1.022 17.795,-1.022 15.179,0 29.869,2.139 43.785,6.127 2.907,0.833 5.776,1.754 8.613,2.746 -0.645,2.956 -1.367,5.884 -2.174,8.777" /></g><g
           transform="translate(352.8523,181.6807)"
           id="g92"><path
             id="path94"
             style="fill:#b12126;fill-opacity:1;fill-rule:nonzero;stroke:none"
             d="m 0,0 c 0.252,0.298 0.497,0.603 0.747,0.902 0.236,0.285 0.474,0.569 0.707,0.856 0.363,0.445 0.721,0.896 1.077,1.348 0.198,0.249 0.397,0.498 0.591,0.748 0.39,0.501 0.773,1.007 1.153,1.515 0.157,0.208 0.316,0.415 0.471,0.625 0.417,0.562 0.825,1.13 1.233,1.699 0.114,0.161 0.23,0.319 0.343,0.48 0.449,0.636 0.891,1.278 1.327,1.924 0.066,0.097 0.134,0.193 0.2,0.291 0.478,0.713 0.949,1.43 1.412,2.153 l 0.07,0.108 C 14.242,20.333 18.28,28.626 21.3,37.39 19.132,40.235 16.854,42.992 14.477,45.659 12.979,40.436 11.094,35.375 8.856,30.509 8.853,30.501 8.85,30.493 8.846,30.485 3.915,19.771 -2.729,10 -10.727,1.521 c 0.003,-10e-4 0.006,-10e-4 0.01,-0.002 -3.247,-3.443 -6.71,-6.68 -10.382,-9.672 -2.988,-2.435 -6.108,-4.712 -9.348,-6.821 -4.421,-2.876 -9.07,-5.426 -13.905,-7.639 -1.496,-0.684 -3.012,-1.329 -4.544,-1.947 -0.286,-0.115 -0.571,-0.232 -0.858,-0.345 -0.666,-0.262 -1.335,-0.516 -2.007,-0.764 -0.354,-0.131 -0.711,-0.259 -1.067,-0.387 -2.123,-0.759 -4.276,-1.453 -6.458,-2.081 -0.488,-0.14 -0.978,-0.28 -1.469,-0.414 -0.574,-0.157 -1.151,-0.308 -1.729,-0.456 -0.579,-0.146 -1.16,-0.286 -1.741,-0.424 -0.507,-0.12 -1.013,-0.245 -1.524,-0.357 -1.017,-0.225 -2.038,-0.434 -3.065,-0.629 -0.451,-0.086 -0.904,-0.162 -1.356,-0.242 -0.718,-0.127 -1.436,-0.249 -2.159,-0.362 -0.446,-0.07 -0.894,-0.138 -1.342,-0.203 -0.892,-0.127 -1.787,-0.243 -2.686,-0.348 -0.257,-0.031 -0.512,-0.067 -0.77,-0.095 -1.142,-0.126 -2.29,-0.229 -3.443,-0.318 -0.355,-0.029 -0.71,-0.049 -1.066,-0.074 -0.878,-0.059 -1.758,-0.108 -2.64,-0.146 -0.357,-0.016 -0.713,-0.032 -1.071,-0.044 -1.198,-0.04 -2.399,-0.066 -3.607,-0.066 -1.337,0 -2.665,0.033 -3.99,0.082 -0.328,0.012 -0.657,0.025 -0.984,0.041 -1.313,0.059 -2.622,0.135 -3.922,0.243 -0.066,0.005 -0.13,0.012 -0.195,0.018 -1.243,0.105 -2.477,0.237 -3.707,0.384 -0.335,0.04 -0.671,0.08 -1.006,0.124 -1.263,0.162 -2.522,0.341 -3.771,0.547 -0.148,0.024 -0.294,0.055 -0.442,0.079 -1.122,0.191 -2.237,0.401 -3.347,0.627 -0.359,0.072 -0.718,0.146 -1.077,0.223 -1.196,0.255 -2.387,0.524 -3.568,0.819 -0.244,0.061 -0.484,0.129 -0.726,0.191 -0.978,0.251 -1.951,0.518 -2.918,0.796 -0.403,0.116 -0.806,0.232 -1.206,0.352 -1.11,0.334 -2.215,0.68 -3.309,1.048 -3.565,1.198 -7.046,2.578 -10.435,4.129 -3.973,-1.454 -8.018,-2.759 -12.123,-3.919 5.725,-3.204 11.752,-5.928 18.016,-8.145 -0.003,-0.003 -0.004,-0.007 -0.007,-0.01 0.193,-0.068 0.391,-0.126 0.585,-0.193 1.159,-0.403 2.327,-0.789 3.503,-1.156 0.234,-0.073 0.467,-0.152 0.703,-0.223 1.475,-0.451 2.961,-0.876 4.46,-1.269 0.007,-0.002 0.016,-0.004 0.024,-0.006 1.429,-0.374 2.871,-0.715 4.321,-1.035 0.315,-0.071 0.631,-0.136 0.948,-0.203 1.221,-0.26 2.448,-0.5 3.683,-0.72 0.295,-0.053 0.588,-0.11 0.883,-0.16 1.519,-0.259 3.046,-0.495 4.584,-0.695 0.012,-0.002 0.024,-0.003 0.036,-0.005 1.465,-0.189 2.941,-0.343 4.422,-0.477 0.421,-0.038 0.844,-0.07 1.266,-0.104 1.13,-0.089 2.264,-0.163 3.402,-0.22 0.439,-0.023 0.875,-0.047 1.315,-0.065 1.52,-0.059 3.047,-0.098 4.582,-0.098 1.489,0 2.97,0.036 4.445,0.091 0.475,0.019 0.946,0.046 1.418,0.07 1.013,0.05 2.022,0.112 3.027,0.189 0.537,0.04 1.073,0.083 1.607,0.131 0.981,0.089 1.958,0.192 2.933,0.306 0.495,0.056 0.993,0.106 1.487,0.17 1.356,0.174 2.707,0.37 4.05,0.591 0.585,0.096 1.164,0.211 1.746,0.316 0.799,0.144 1.596,0.289 2.389,0.45 0.72,0.146 1.435,0.302 2.149,0.46 0.629,0.14 1.256,0.285 1.882,0.435 0.779,0.186 1.557,0.377 2.332,0.579 0.469,0.123 0.936,0.256 1.404,0.385 3.03,0.833 6.011,1.786 8.939,2.853 0.228,0.083 0.458,0.165 0.687,0.25 1.005,0.373 2.002,0.761 2.994,1.161 0.152,0.062 0.304,0.125 0.456,0.188 9.359,3.824 18.124,8.81 26.088,14.813 3.11,2.345 6.099,4.843 8.957,7.481 3.528,3.255 6.851,6.732 9.956,10.397 0.002,0 0.005,0 0.008,-0.001" /></g></g></g><g
       id="g96"><g
         clip-path="url(#clipPath102)"
         id="g98"><g
           transform="translate(172.5349,68.6172)"
           id="g104"><path
             id="path106"
             style="fill:#6c0b19;fill-opacity:1;fill-rule:nonzero;stroke:none"
             d="m 0,0 4.864,9.729 -5.061,2.53 -4.864,-9.729 -3.505,1.753 4.864,9.729 -1.878,0.938 1.968,3.935 c 0.661,1.323 3.004,0.554 4.452,0.367 L -0.769,16.032 9.746,10.774 4.882,1.046 C 5.016,-0.071 4.999,-1.225 4.846,-2.423 Z" /></g><g
           transform="translate(166.262,87.668)"
           id="g108"><path
             id="path110"
             style="fill:#6c0b19;fill-opacity:1;fill-rule:nonzero;stroke:none"
             d="m 0,0 -5.661,-9.289 c 0.04,-1.125 -0.129,-2.286 -0.343,-3.444 l -11.508,7.014 1.431,1.235 c 0.663,0.509 1.24,0.766 2.026,0.288 l 5.037,-3.071 1.269,2.083 -5.395,3.289 c 0.622,0.675 1.979,2.095 2.884,1.544 l 3.023,-1.842 c 0.665,-0.406 0.32,-1.203 0.253,-1.582 l 0.068,-0.042 1.957,3.21 -5.328,3.247 c -0.905,0.551 -0.165,2.419 0.059,3.593 z" /></g><g
           transform="translate(134.7019,91.9365)"
           id="g112"><path
             id="path114"
             style="fill:#6c0b19;fill-opacity:1;fill-rule:nonzero;stroke:none"
             d="M 0,0 8.225,11.333 11.397,9.03 8.155,4.562 11.862,1.871 c 0.308,-0.224 0.429,-0.806 0.232,-1.28 l 0.114,-0.083 3.771,5.197 3.157,-2.291 -6.391,-8.808 C 12.718,-6.486 12.456,-7.631 12.11,-8.788 l -4.355,3.16 3.148,4.339 -4.581,3.325 -3.149,-4.339 z" /></g><g
           transform="translate(132.1614,93.9502)"
           id="g116"><path
             id="path118"
             style="fill:#6c0b19;fill-opacity:1;fill-rule:nonzero;stroke:none"
             d="m 0,0 -9.721,8.298 2.207,2.586 3.18,-2.714 6.882,8.062 L 5.53,13.688 -1.353,5.625 0.929,3.677 C 1.234,3.417 1.21,2.989 1.129,2.771 Z" /></g><g
           transform="translate(119.0809,109.6738)"
           id="g120"><path
             id="path122"
             style="fill:#6c0b19;fill-opacity:1;fill-rule:nonzero;stroke:none"
             d="M 0,0 3.18,3.214 0.691,5.677 C 0.591,5.774 0.393,5.773 0.294,5.702 L -2.96,3.294 C -3.059,3.223 -3.058,3.025 -2.958,2.927 Z M 4.22,4.437 4.305,4.352 7.709,7.794 10.497,5.036 2.844,-2.7 C 2.708,-3.72 2.304,-4.896 1.715,-5.974 l -8.916,8.821 c -0.597,0.591 -0.533,1.765 0.058,2.193 l 5.875,4.374 c 0.635,0.471 1.752,0.434 2.35,-0.157 L 4.225,6.148 C 4.48,5.895 4.625,5.415 4.485,5.074 Z" /></g><g
           transform="translate(106.2293,131.373)"
           id="g124"><path
             id="path126"
             style="fill:#6c0b19;fill-opacity:1;fill-rule:nonzero;stroke:none"
             d="M 0,0 2.335,1.851 -0.273,5.142 C -0.335,5.22 -0.479,5.208 -0.554,5.175 L -2.812,3.87 C -2.887,3.836 -2.944,3.714 -2.906,3.667 Z m -6.603,5.917 5.097,2.841 C -0.792,9.145 0.387,8.88 0.896,8.237 L 6.982,0.559 -1.621,-6.26 c -0.435,-0.931 -0.878,-2.176 -1.422,-3.066 l -8.421,10.624 3.069,1.438 c 0.291,-0.56 0.667,-1.13 1.077,-1.647 l 3.353,-4.232 3.056,2.423 c -0.625,-0.113 -1.583,-0.642 -2.167,0.094 l -3.838,4.842 c -0.372,0.471 -0.347,1.18 0.311,1.701" /></g><g
           transform="translate(98.3631,145.2354)"
           id="g128"><path
             id="path130"
             style="fill:#6c0b19;fill-opacity:1;fill-rule:nonzero;stroke:none"
             d="M 0,0 C 0.316,0.211 0.422,0.665 0.2,0.998 L -2.152,4.527 C -2.374,4.86 -2.823,4.922 -3.139,4.711 L -8.433,1.184 C -8.75,0.973 -8.849,0.545 -8.627,0.212 l 2.351,-3.528 c 0.222,-0.333 0.666,-0.422 0.982,-0.212 z m -8.196,-6.062 -4.36,6.541 c -0.676,1.016 -0.399,2.403 0.617,3.08 l 7.957,5.302 C -2.4,9.915 -1.158,8.628 -0.248,7.263 L 4.112,0.72 C 4.788,-0.295 4.511,-1.683 3.495,-2.359 l -7.957,-5.302 c -1.599,-1.066 -2.825,0.233 -3.734,1.599" /></g><g
           transform="translate(94.2649,158.6641)"
           id="g132"><path
             id="path134"
             style="fill:#6c0b19;fill-opacity:1;fill-rule:nonzero;stroke:none"
             d="m 0,0 -9.513,-5.279 c -0.521,-0.998 -1.241,-1.924 -2,-2.825 l -6.54,11.786 1.855,0.366 c 0.827,0.116 1.457,0.054 1.903,-0.751 l 2.863,-5.158 2.133,1.184 -3.066,5.526 c 0.874,0.279 2.756,0.843 3.271,-0.083 L -7.376,1.67 C -6.998,0.988 -7.692,0.466 -7.938,0.169 L -7.9,0.1 -4.612,1.924 -7.64,7.38 c -0.514,0.927 1.052,2.184 1.827,3.095 z" /></g><g
           transform="translate(79.8548,174.1943)"
           id="g136"><path
             id="path138"
             style="fill:#6c0b19;fill-opacity:1;fill-rule:nonzero;stroke:none"
             d="m 0,0 c 0.19,-0.419 0.315,-0.934 0.079,-1.283 l -0.482,-0.681 3.55,1.615 -2.096,4.607 C 1.026,4.312 0.975,4.377 0.794,4.339 L -1.518,3.77 C -1.573,3.744 -1.657,3.641 -1.632,3.586 Z m -4.208,-3.695 2.276,1.035 -1.508,3.313 c -0.041,0.091 -0.184,0.115 -0.265,0.1 L -5.832,0.355 C -5.904,0.322 -5.997,0.236 -5.964,0.164 Z m 1.726,-3.5 c 0,0 -1.306,-1.913 -2.219,-2.659 L -10.07,1.942 c -0.248,0.547 0.152,1.454 0.711,1.577 l 3.672,0.814 c 0.597,0.14 1.222,-0.125 1.704,-0.652 L -4.819,5.52 c -0.249,0.545 0.159,1.434 0.711,1.576 L 0.681,8.353 C 1.467,8.557 2.548,8.016 2.888,7.27 L 7.42,-2.688 Z" /></g><g
           transform="translate(72.6961,188.0479)"
           id="g140"><path
             id="path142"
             style="fill:#6c0b19;fill-opacity:1;fill-rule:nonzero;stroke:none"
             d="M 0,0 3.582,1.209 2.137,5.492 C 2.104,5.587 1.965,5.624 1.883,5.617 L -1.441,4.96 C -1.517,4.935 -1.637,4.852 -1.611,4.776 Z m -5.37,6.844 c -0.191,0.568 0.072,1.226 0.906,1.509 2.25,0.399 4.519,0.87 6.763,1.289 C 3.114,9.79 4.173,9.155 4.441,8.359 l 3.325,-9.855 -10.31,-3.478 c -0.831,-0.85 -1.467,-1.719 -2.47,-2.437 l -1.733,5.136 5.401,1.822 -0.032,0.095 c -0.834,-0.029 -1.587,0.076 -1.805,0.72 z M -11.676,12.336 1.59,16.812 2.843,13.097 -7.467,9.619 C -8.108,8.643 -9.067,7.854 -9.944,7.2 Z" /></g><g
           transform="translate(70.8484,219.7002)"
           id="g144"><path
             id="path146"
             style="fill:#6c0b19;fill-opacity:1;fill-rule:nonzero;stroke:none"
             d="M 0,0 C 0.263,-1.13 0.489,-2.104 0.344,-3.247 0.189,-4.434 -2.039,-6.513 -3.218,-7.712 l 5.362,-1.505 0.815,-3.507 -7.095,2.068 c -0.42,0.128 -0.706,0.389 -1.027,0.706 l -5.495,-6.044 -0.521,2.241 c -0.082,0.351 -0.308,1.325 -0.129,2.23 0.197,1.01 2.688,3.192 3.618,4.23 l -5.347,1.529 -0.812,3.488 7.131,-1.956 c 0.294,-0.117 0.672,-0.419 0.877,-0.68 l 5.555,6.14 z" /></g><g
           transform="translate(58.0017,230.2998)"
           id="g148"><path
             id="path150"
             style="fill:#6c0b19;fill-opacity:1;fill-rule:nonzero;stroke:none"
             d="m 0,0 c -0.929,-0.738 -1.829,-1.374 -2.944,-1.871 l -0.56,5.452 8.914,0.916 -7.598,4.085 c -1.669,0.774 -2.039,2.022 -2.198,3.575 L -4.545,13.709 9.383,15.141 9.784,11.24 0.87,10.324 8.49,6.222 c 1.746,-0.948 2.04,-2.244 2.177,-3.577 l 0.157,-1.533 z" /></g><g
           transform="translate(59.5496,257.4443)"
           id="g152"><path
             id="path154"
             style="fill:#6c0b19;fill-opacity:1;fill-rule:nonzero;stroke:none"
             d="m 0,0 -3.401,-0.057 0.066,-3.881 c 0.006,-0.42 0.332,-0.715 0.731,-0.708 l 6.342,0.106 c 0.4,0.007 0.734,0.373 0.727,0.773 L 4.336,3.955 C 5.502,3.594 7.468,3.327 7.491,1.926 L 7.63,-6.335 C 7.649,-7.476 6.744,-8.411 5.604,-8.43 l -9.882,-0.166 c -1.14,-0.019 -2.076,0.886 -2.095,2.026 l -0.172,10.242 4.241,0.071 c 0.5,0.008 1.046,-0.303 1.253,-0.759 z" /></g><g
           transform="translate(56.2205,265.8213)"
           id="g156"><path
             id="path158"
             style="fill:#6c0b19;fill-opacity:1;fill-rule:nonzero;stroke:none"
             d="M 0,0 C -0.726,-0.695 -1.998,-1.154 -3.211,-1.317 L -2.863,4.092 2.925,3.72 2.941,3.979 -1.128,7.387 c -1.028,0.848 -1.376,2.293 -1.269,3.969 l 0.18,2.795 c 0.993,-0.445 3.059,-1.039 3,-1.957 L 0.692,10.777 C 0.639,9.939 1.356,9.252 1.659,8.972 L 2.925,7.788 3.043,9.625 c 0.093,1.437 1.509,1.967 2.57,2.259 L 11.771,13.533 11.493,9.202 6.482,7.94 C 5.871,7.779 5.716,7.549 5.692,7.189 L 5.527,4.615 C 5.501,4.216 4.503,3.959 4.377,3.867 l -0.015,-0.24 6.745,-0.433 -0.25,-3.891 z" /></g><g
           transform="translate(55.7444,292.4502)"
           id="g160"><path
             id="path162"
             style="fill:#6c0b19;fill-opacity:1;fill-rule:nonzero;stroke:none"
             d="M 0,0 0.568,3.879 11.806,0.555 c 1.28,-0.37 2.12,-2.09 1.94,-3.317 l -1.272,-8.688 -1.291,0.715 c -1.087,0.584 -1.481,1.753 -1.278,3.138 l 0.472,3.226 c 0.102,0.693 -0.357,1.427 -0.956,1.616 L 7.684,-2.197 7.666,-2.316 C 7.883,-2.489 8.292,-2.873 8.22,-3.367 L 7.62,-7.464 C 7.498,-8.295 6.669,-9.124 5.851,-9.186 L 1.763,-9.497 c -0.992,-0.42 -2.278,-0.778 -3.279,-0.854 l 0.664,4.533 5.365,0.467 c 0.308,0.036 0.62,0.374 0.667,0.69 l 0.441,3.009 z" /></g><g
           transform="translate(65.2601,306.8677)"
           id="g164"><path
             id="path166"
             style="fill:#6c0b19;fill-opacity:1;fill-rule:nonzero;stroke:none"
             d="M 0,0 -3.313,0.76 -4.18,-3.02 c -0.093,-0.409 0.151,-0.773 0.541,-0.862 L 2.538,-5.3 c 0.389,-0.089 0.801,0.186 0.891,0.575 L 5.154,2.797 C 6.2,2.167 8.042,1.437 7.729,0.073 L 5.883,-7.975 C 5.628,-9.085 4.526,-9.776 3.415,-9.521 l -9.626,2.209 c -1.11,0.254 -1.801,1.356 -1.546,2.467 l 2.289,9.976 4.131,-0.947 C -0.85,4.072 -0.396,3.639 -0.304,3.146 Z" /></g><g
           transform="translate(69.7635,322.6733)"
           id="g168"><path
             id="path170"
             style="fill:#6c0b19;fill-opacity:1;fill-rule:nonzero;stroke:none"
             d="m 0,0 -3.242,1.027 -1.173,-3.7 c -0.127,-0.401 0.088,-0.784 0.47,-0.905 l 6.046,-1.915 c 0.381,-0.121 0.814,0.12 0.935,0.501 L 5.369,2.371 C 6.36,1.658 8.139,0.78 7.716,-0.556 L 5.22,-8.433 C 4.875,-9.52 3.72,-10.12 2.633,-9.775 l -9.422,2.985 c -1.087,0.344 -1.687,1.499 -1.342,2.587 l 3.093,9.765 4.044,-1.281 C -0.517,4.13 -0.099,3.662 -0.047,3.163 Z" /></g><g
           transform="translate(65.7635,331.1709)"
           id="g172"><path
             id="path174"
             style="fill:#6c0b19;fill-opacity:1;fill-rule:nonzero;stroke:none"
             d="M 0,0 4.768,11.856 7.922,10.588 6.363,6.71 16.197,2.755 14.734,-0.881 4.9,3.073 3.781,0.29 C 3.632,-0.081 3.22,-0.195 2.986,-0.187 Z" /></g><g
           transform="translate(82.0018,347.6963)"
           id="g176"><path
             id="path178"
             style="fill:#6c0b19;fill-opacity:1;fill-rule:nonzero;stroke:none"
             d="M 0,0 C -0.204,-0.413 -0.525,-0.834 -0.945,-0.872 L -1.777,-0.929 1.719,-2.66 3.966,1.876 C 3.993,1.93 4.01,2.01 3.867,2.126 L 1.964,3.56 C 1.91,3.586 1.776,3.585 1.75,3.532 Z m -5.524,0.928 2.241,-1.111 1.616,3.264 c 0.044,0.089 -0.027,0.214 -0.09,0.268 L -3.409,4.747 C -3.48,4.783 -3.606,4.8 -3.642,4.729 Z m -1.624,-3.55 c 0,0 -2.308,-0.196 -3.463,0.041 l 5.754,11.618 c 0.267,0.538 1.223,0.801 1.672,0.444 L -0.232,7.148 C 0.252,6.774 0.442,6.122 0.338,5.415 L 1.234,7.226 C 1.501,7.763 2.449,8.008 2.906,7.67 L 6.908,4.75 C 7.563,4.27 7.827,3.089 7.463,2.354 L 2.605,-7.453 Z" /></g><g
           transform="translate(87.3377,368.3501)"
           id="g180"><path
             id="path182"
             style="fill:#6c0b19;fill-opacity:1;fill-rule:nonzero;stroke:none"
             d="M 0,0 C -1.187,0.025 -2.286,0.111 -3.461,0.441 L -0.409,4.995 7.036,0.004 3.799,8.002 C 3.01,9.663 3.523,10.86 4.392,12.156 L 5.261,13.453 16.893,5.655 14.709,2.398 7.265,7.389 10.507,-0.637 c 0.739,-1.844 0.137,-3.03 -0.61,-4.143 L 9.04,-6.06 Z" /></g><g
           transform="translate(111.534,394.8701)"
           id="g184"><path
             id="path186"
             style="fill:#6c0b19;fill-opacity:1;fill-rule:nonzero;stroke:none"
             d="M 0,0 -2.561,2.239 -5.115,-0.683 C -5.392,-1 -5.348,-1.436 -5.047,-1.699 l 4.775,-4.175 c 0.3,-0.263 0.793,-0.216 1.057,0.085 l 5.083,5.814 c 0.623,-1.05 1.902,-2.567 0.98,-3.621 l -5.439,-6.22 c -0.75,-0.858 -2.049,-0.945 -2.907,-0.195 l -7.44,6.506 c -0.858,0.75 -0.946,2.048 -0.195,2.907 L -2.391,7.113 0.802,4.321 C 1.179,3.992 1.375,3.396 1.222,2.917 Z" /></g><g
           transform="translate(122.2195,414.9443)"
           id="g188"><path
             id="path190"
             style="fill:#6c0b19;fill-opacity:1;fill-rule:nonzero;stroke:none"
             d="m 0,0 9.73,-10.062 -2.817,-2.724 -7.562,7.819 -4.067,-3.933 7.562,-7.82 -2.818,-2.724 -7.562,7.819 c -1.096,0.414 -2.196,0.574 -3.246,1.2 z" /></g><g
           transform="translate(135.4344,412.8359)"
           id="g192"><path
             id="path194"
             style="fill:#6c0b19;fill-opacity:1;fill-rule:nonzero;stroke:none"
             d="m 0,0 c 0.239,-0.295 0.702,-0.358 1.013,-0.106 l 3.293,2.669 c 0.31,0.251 0.329,0.705 0.09,1 L 0.393,8.502 C 0.154,8.797 -0.281,8.857 -0.591,8.605 L -3.884,5.937 C -4.195,5.685 -4.242,5.235 -4.003,4.939 Z m -6.796,7.592 6.105,4.947 c 0.947,0.768 2.354,0.621 3.122,-0.327 L 8.448,4.787 C 9.644,3.312 8.478,1.955 7.205,0.923 L 1.1,-4.024 c -0.948,-0.768 -2.354,-0.621 -3.122,0.327 l -6.017,7.425 c -1.209,1.491 -0.03,2.832 1.243,3.864" /></g><g
           transform="translate(145.4392,429.4229)"
           id="g196"><path
             id="path198"
             style="fill:#6c0b19;fill-opacity:1;fill-rule:nonzero;stroke:none"
             d="m 0,0 2.548,-3.734 2.892,1.973 c 0.116,0.079 0.153,0.273 0.102,0.384 L 3.798,2.277 C 3.748,2.388 3.553,2.424 3.437,2.346 Z m 3.55,-4.989 -0.1,-0.068 2.729,-3.999 -3.239,-2.21 -6.134,8.99 c -0.974,0.328 -2.052,0.949 -2.998,1.732 L 4.169,6.526 C 4.863,7 6.003,6.712 6.311,6.05 L 9.483,-0.552 C 9.824,-1.265 9.575,-2.355 8.881,-2.828 L 5.229,-5.32 C 4.932,-5.523 4.433,-5.573 4.125,-5.371 Z" /></g><g
           transform="translate(152.6199,437.896)"
           id="g200"><path
             id="path202"
             style="fill:#6c0b19;fill-opacity:1;fill-rule:nonzero;stroke:none"
             d="M 0,0 11.057,6.406 12.761,3.464 9.145,1.369 14.458,-7.802 11.067,-9.767 5.753,-0.596 3.158,-2.1 C 2.812,-2.3 2.417,-2.136 2.237,-1.986 Z" /></g><g
           transform="translate(177.6795,441.3564)"
           id="g204"><path
             id="path206"
             style="fill:#6c0b19;fill-opacity:1;fill-rule:nonzero;stroke:none"
             d="M 0,0 -3.991,4.688 -5.304,4.05 -4.083,-1.985 Z M 6.988,-2.297 3.39,-4.046 0.732,-0.912 0.66,-0.947 c 0.099,-0.797 -0.017,-1.52 -0.79,-1.896 l -3.365,-1.635 0.516,-2.663 -3.436,-1.67 -2.255,11.002 c -1.229,0.559 -1.892,1.283 -2.696,2.16 l 9.139,4.441 z" /></g><g
           transform="translate(357.1492,432.3076)"
           id="g208"><path
             id="path210"
             style="fill:#b11f25;fill-opacity:1;fill-rule:nonzero;stroke:none"
             d="m 0,0 5.896,9.805 c -0.045,1.105 0.078,2.329 0.4,3.556 l 4.84,-2.91 1.176,-8.227 0.072,-0.043 c 2.146,0.717 6.051,2.607 8.077,2.27 0.799,-0.138 1.522,-0.523 3.142,-1.497 L 16.029,-9.639 12.503,-7.519 17.274,0.415 17.202,0.458 9.534,-2.476 9.463,-2.433 8.366,5.724 8.258,5.788 3.509,-2.109 Z" /></g><g
           transform="translate(386.2762,419.6689)"
           id="g212"><path
             id="path214"
             style="fill:#6c0b19;fill-opacity:1;fill-rule:nonzero;stroke:none"
             d="M 0,0 2.437,5.984 1.206,6.899 -3.823,2.844 Z m 1.24,-7.62 -3.369,2.506 1.634,3.991 -0.067,0.05 c -0.695,-0.478 -1.425,-0.72 -2.15,-0.181 l -3.149,2.343 -2.231,-1.769 -3.218,2.393 9.157,7.423 c -0.073,1.415 0.28,2.382 0.708,3.554 L 7.112,6.327 Z" /></g><g
           transform="translate(400.8533,410.7451)"
           id="g216"><path
             id="path218"
             style="fill:#6c0b19;fill-opacity:1;fill-rule:nonzero;stroke:none"
             d="m 0,0 c 0.048,-0.042 0.245,-0.104 0.388,-0.006 l 2.507,2.017 c 0.041,0.048 0.092,0.17 0.029,0.225 L -1.075,5.763 -3.464,3.055 Z M 7.642,2.443 C 8.098,2.04 8.204,1.304 7.621,0.642 L 2.137,-3.927 C 1.713,-4.281 1.07,-4.247 0.473,-3.719 L -0.426,-2.928 -0.48,-2.99 c 0.109,-0.098 0.222,-0.478 0.192,-0.702 l -0.908,-5.665 -3.685,3.249 1.401,5.398 -1.181,1.042 c -0.362,0.319 -0.066,1.037 0.028,1.206 l -0.095,0.083 -3.901,-4.425 -3.07,2.708 7.553,8.567 c 0.185,1.067 0.615,2.285 1.048,3.442 z" /></g><g
           transform="translate(410.6814,411.1514)"
           id="g220"><path
             id="path222"
             style="fill:#6c0b19;fill-opacity:1;fill-rule:nonzero;stroke:none"
             d="m 0,0 9.361,-9.624 -2.56,-2.49 -3.063,3.147 -7.981,-7.763 -2.871,2.952 7.981,7.763 -2.197,2.259 c -0.293,0.302 -0.227,0.746 -0.119,0.968 z" /></g><g
           transform="translate(424.781,396.0283)"
           id="g224"><path
             id="path226"
             style="fill:#6c0b19;fill-opacity:1;fill-rule:nonzero;stroke:none"
             d="m 0,0 -11.088,-9.656 -2.689,3.089 8.616,7.504 c 0.275,1.186 0.766,2.254 1.423,3.355 z" /></g><g
           transform="translate(425.7068,379.9785)"
           id="g228"><path
             id="path230"
             style="fill:#6c0b19;fill-opacity:1;fill-rule:nonzero;stroke:none"
             d="M 0,0 3.976,5.097 3.041,6.312 -2.906,3.779 Z m -0.881,-7.672 -2.56,3.329 2.659,3.397 -0.052,0.066 C -1.633,-1.149 -2.4,-1.184 -2.951,-0.468 L -5.346,2.645 -7.975,1.551 -10.419,4.73 0.416,9.381 c 0.315,1.381 0.919,2.216 1.65,3.228 L 8.57,4.152 Z" /></g><g
           transform="translate(437.5017,379.7256)"
           id="g232"><path
             id="path234"
             style="fill:#6c0b19;fill-opacity:1;fill-rule:nonzero;stroke:none"
             d="m 0,0 3.109,-4.764 -9.58,-6.254 4.269,-6.539 c -1.227,-0.424 -3,-1.356 -3.815,-0.108 l -5.416,8.297 9.563,6.242 C -1.416,-1.902 -0.772,-1.006 0,0" /></g><g
           transform="translate(447.1385,344.291)"
           id="g236"><path
             id="path238"
             style="fill:#b11f25;fill-opacity:1;fill-rule:nonzero;stroke:none"
             d="M 0,0 4.937,4.172 4.271,5.553 -2.068,4.296 Z m -2.438,-7.327 -1.823,3.784 3.301,2.778 -0.036,0.076 c -0.838,-0.1 -1.597,0.024 -1.988,0.837 L -4.687,3.687 -7.485,3.155 -9.225,6.77 2.334,9.095 c 0.592,1.287 1.354,1.98 2.277,2.821 L 9.239,2.305 Z" /></g><g
           transform="translate(455.9119,329.6172)"
           id="g240"><path
             id="path242"
             style="fill:#b11f25;fill-opacity:1;fill-rule:nonzero;stroke:none"
             d="M 0,0 C 0.022,-0.059 0.168,-0.206 0.34,-0.185 L 3.498,0.437 C 3.557,0.459 3.66,0.543 3.63,0.621 L 1.727,5.605 -1.648,4.317 Z M 7.904,-1.389 C 8.122,-1.958 7.873,-2.66 7.049,-2.975 L 0.066,-4.472 c -0.541,-0.116 -1.093,0.212 -1.378,0.958 l -0.426,1.118 -0.078,-0.029 c 0.051,-0.138 -0.025,-0.526 -0.157,-0.712 l -3.439,-4.595 -1.752,4.591 3.751,4.131 -0.562,1.472 c -0.172,0.451 0.424,0.949 0.586,1.056 L -3.434,3.635 -8.947,1.53 -10.408,5.356 0.266,9.432 c 0.662,0.859 1.607,1.738 2.529,2.562 z" /></g><g
           transform="translate(464.7996,325.4014)"
           id="g244"><path
             id="path246"
             style="fill:#6c0b19;fill-opacity:1;fill-rule:nonzero;stroke:none"
             d="m 0,0 3.803,-12.87 -3.425,-1.012 -1.243,4.21 -10.675,-3.154 -1.166,3.948 10.674,3.153 -0.893,3.022 c -0.119,0.403 0.147,0.766 0.344,0.912 z" /></g><g
           transform="translate(457.5467,307.5654)"
           id="g248"><path
             id="path250"
             style="fill:#6c0b19;fill-opacity:1;fill-rule:nonzero;stroke:none"
             d="m 0,0 2.004,-9.365 c 0.049,-0.226 0.323,-0.404 0.57,-0.351 l 1.293,0.277 c 0.246,0.052 0.422,0.241 0.401,0.537 L 3.841,-1.283 C 3.765,0.075 5.156,0.803 5.977,0.979 l 3.738,0.799 c 1.089,0.234 2.243,-0.443 2.484,-1.573 l 2.418,-11.296 c -1.03,-0.006 -2.832,0.081 -3.06,1.15 l -1.52,7.106 C 9.984,-2.589 9.73,-2.407 9.504,-2.455 L 8.375,-2.697 C 8.148,-2.745 7.962,-2.979 8.01,-3.204 l 0.4,-7.39 C 8.5,-12.12 7.502,-12.871 6.577,-13.069 l -4.251,-0.91 c -1.13,-0.242 -2.226,0.469 -2.469,1.598 l -2.021,9.448 c -0.172,0.801 -0.074,1.853 0.724,2.239 z" /></g><g
           transform="translate(465.6726,271.9629)"
           id="g252"><path
             id="path254"
             style="fill:#6c0b19;fill-opacity:1;fill-rule:nonzero;stroke:none"
             d="M 0,0 6.116,2.085 6.001,3.613 -0.36,4.753 Z m -4.94,-5.933 -0.318,4.187 4.085,1.384 -0.006,0.084 c -0.816,0.212 -1.478,0.603 -1.547,1.504 L -3.021,5.141 -5.819,5.665 -6.123,9.664 5.486,7.617 C 6.507,8.6 7.469,8.968 8.635,9.414 L 9.44,-1.221 Z" /></g><g
           transform="translate(461.5056,253.749)"
           id="g256"><path
             id="path258"
             style="fill:#6c0b19;fill-opacity:1;fill-rule:nonzero;stroke:none"
             d="m 0,0 8.432,5.872 10e-4,0.084 -9.175,0.146 0.062,3.926 11.422,-0.182 c 0.871,0.637 2.098,1.142 3.301,1.543 L 13.96,6.182 C 13.947,5.426 13.535,4.593 12.898,4.162 L 4.785,-1.505 4.783,-1.61 l 9.05,-0.144 -0.063,-3.927 -14.698,0.235 0.059,3.675 C -0.857,-1.1 -0.553,-0.37 0,0" /></g><g
           transform="translate(462.4685,235.7637)"
           id="g260"><path
             id="path262"
             style="fill:#6c0b19;fill-opacity:1;fill-rule:nonzero;stroke:none"
             d="M 0,0 C -0.072,-0.689 0.432,-1.312 1.121,-1.385 L 7.18,-2.022 c 0.688,-0.073 1.291,0.434 1.363,1.124 L 9.033,3.76 0.49,4.658 Z m 7.834,-6.23 -8.376,0.88 c -1.358,0.143 -2.927,1.491 -2.714,3.517 L -2.108,9.071 8.587,7.946 C 9.723,8.502 11.309,8.928 12.679,9.1 L 11.367,-3.371 C 11.135,-5.374 9.192,-6.373 7.834,-6.23" /></g><g
           transform="translate(459.3328,217.5586)"
           id="g264"><path
             id="path266"
             style="fill:#b11f25;fill-opacity:1;fill-rule:nonzero;stroke:none"
             d="m 0,0 -2.296,-9.297 c -0.056,-0.224 0.113,-0.504 0.358,-0.564 l 1.285,-0.317 c 0.244,-0.06 0.483,0.032 0.594,0.307 l 2.95,7.037 c 0.526,1.254 2.094,1.299 2.91,1.098 l 3.71,-0.916 c 1.08,-0.268 1.822,-1.381 1.545,-2.502 l -2.77,-11.212 c -0.928,0.446 -2.51,1.311 -2.247,2.372 l 1.742,7.054 c 0.06,0.245 -0.089,0.518 -0.312,0.574 L 6.348,-6.089 C 6.124,-6.033 5.854,-6.162 5.798,-6.386 l -2.873,-6.817 c -0.587,-1.412 -1.814,-1.651 -2.731,-1.424 l -4.22,1.043 c -1.121,0.276 -1.796,1.395 -1.52,2.516 l 2.317,9.378 c 0.197,0.794 0.744,1.698 1.63,1.695 z" /></g><g
           transform="translate(462.1033,194.3398)"
           id="g268"><path
             id="path270"
             style="fill:#6c0b19;fill-opacity:1;fill-rule:nonzero;stroke:none"
             d="m 0,0 -4.501,1.508 -1.167,-3.485 c -0.047,-0.14 0.047,-0.326 0.159,-0.385 l 3.777,-1.951 c 0.112,-0.06 0.298,0.032 0.344,0.172 z m 0.652,-8.102 c -0.28,-0.836 -1.41,-1.299 -2.093,-0.961 l -6.842,3.51 c -0.737,0.379 -1.219,1.449 -0.94,2.285 l 1.475,4.401 c 0.232,0.697 0.983,0.822 1.614,0.789 l 0.04,0.119 -4.818,1.613 1.307,3.904 L 1.227,3.93 C 2.25,4.273 3.545,4.438 4.833,4.383 Z" /></g><g
           transform="translate(449.6219,182.0732)"
           id="g272"><path
             id="path274"
             style="fill:#6c0b19;fill-opacity:1;fill-rule:nonzero;stroke:none"
             d="m 0,0 c -0.366,0.157 -0.827,-0.01 -0.993,-0.396 l -1.76,-4.088 c -0.166,-0.386 0.037,-0.817 0.404,-0.974 l 6.133,-2.641 c 0.367,-0.157 0.8,-10e-4 0.966,0.385 l 1.76,4.089 C 6.676,-3.239 6.5,-2.798 6.134,-2.64 Z m 10.024,-3.743 -3.261,-7.58 C 6.257,-12.499 4.877,-13.049 3.7,-12.542 l -9.219,3.967 c -1.832,0.789 -1.41,2.619 -0.73,4.201 l 3.263,7.579 c 0.507,1.177 1.885,1.726 3.062,1.22 L 9.295,0.457 c 1.851,-0.797 1.411,-2.618 0.729,-4.2" /></g><g
           transform="translate(443.3201,160.1836)"
           id="g276"><path
             id="path278"
             style="fill:#6c0b19;fill-opacity:1;fill-rule:nonzero;stroke:none"
             d="m 0,0 c -0.029,-0.055 -0.045,-0.262 0.084,-0.378 l 2.537,-1.978 c 0.055,-0.031 0.186,-0.052 0.226,0.021 L 5.366,2.366 2.183,4.072 Z M 4.127,-6.881 C 3.84,-7.418 3.146,-7.689 2.369,-7.272 l -5.703,4.294 c -0.441,0.332 -0.555,0.965 -0.179,1.668 l 0.566,1.056 -0.074,0.039 c -0.07,-0.129 -0.414,-0.326 -0.639,-0.347 l -5.725,-0.413 2.322,4.332 5.577,-0.13 0.744,1.388 c 0.227,0.426 0.994,0.301 1.181,0.248 l 0.059,0.112 -5.201,2.787 1.934,3.609 10.07,-5.395 C 8.383,6.039 9.666,5.899 10.892,5.742 Z" /></g><g
           transform="translate(445.9471,150.7041)"
           id="g280"><path
             id="path282"
             style="fill:#6c0b19;fill-opacity:1;fill-rule:nonzero;stroke:none"
             d="m 0,0 -7.234,-11.301 -3.007,1.925 2.366,3.695 -9.373,6.002 2.219,3.466 9.373,-6.001 1.699,2.652 c 0.227,0.355 0.674,0.392 0.914,0.338 z" /></g><g
           transform="translate(419.3611,125.4717)"
           id="g284"><path
             id="path286"
             style="fill:#6c0b19;fill-opacity:1;fill-rule:nonzero;stroke:none"
             d="M 0,0 2.737,-2.293 5.354,0.83 C 5.637,1.168 5.582,1.625 5.26,1.896 L 0.156,6.171 C -0.165,6.44 -0.682,6.38 -0.951,6.058 l -5.207,-6.213 c -0.678,1.088 -2.053,2.651 -1.109,3.778 l 5.572,6.648 c 0.768,0.917 2.13,1.039 3.047,0.269 L 9.305,3.876 C 10.223,3.108 10.342,1.747 9.573,0.829 l -6.906,-8.242 -3.413,2.859 c -0.402,0.338 -0.621,0.959 -0.472,1.465 z" /></g><g
           transform="translate(408.4392,124.9756)"
           id="g288"><path
             id="path290"
             style="fill:#6c0b19;fill-opacity:1;fill-rule:nonzero;stroke:none"
             d="m 0,0 8.159,-7.993 c 1.161,-0.227 2.309,-0.675 3.443,-1.168 l -9.905,-10.11 -0.924,1.758 c -0.364,0.797 -0.49,1.45 0.186,2.14 l 4.336,4.425 -1.83,1.793 -4.644,-4.741 c -0.543,0.797 -1.675,2.522 -0.895,3.317 l 2.601,2.655 C 1.1,-7.339 1.833,-7.881 2.205,-8.04 l 0.06,0.061 -2.821,2.761 -4.585,-4.679 c -0.778,-0.795 -2.512,0.404 -3.662,0.912 z" /></g><g
           transform="translate(390.9431,107.2422)"
           id="g292"><path
             id="path294"
             style="fill:#6c0b19;fill-opacity:1;fill-rule:nonzero;stroke:none"
             d="m 0,0 9.99,-2.409 0.063,0.055 -5.981,6.961 2.979,2.559 7.446,-8.666 c 1.055,-0.229 2.247,-0.811 3.346,-1.444 l -3.95,-3.395 c -0.575,-0.493 -1.471,-0.737 -2.217,-0.547 l -9.625,2.308 -0.08,-0.068 5.9,-6.867 -2.979,-2.559 -9.581,11.151 2.787,2.396 C -1.393,-0.088 -0.643,0.168 0,0" /></g><g
           transform="translate(393.5525,91.4043)"
           id="g296"><path
             id="path298"
             style="fill:#6c0b19;fill-opacity:1;fill-rule:nonzero;stroke:none"
             d="m 0,0 -10.861,-7.879 -2.097,2.891 3.553,2.576 -6.534,9.01 3.332,2.416 6.533,-9.009 2.551,1.849 c 0.339,0.247 0.769,0.119 0.973,-0.02 z" /></g><g
           transform="translate(368.8924,82.9902)"
           id="g300"><path
             id="path302"
             style="fill:#6c0b19;fill-opacity:1;fill-rule:nonzero;stroke:none"
             d="m 0,0 c -0.054,-0.033 -0.171,-0.204 -0.119,-0.369 l 1.193,-2.988 c 0.033,-0.054 0.135,-0.139 0.207,-0.096 l 4.546,2.791 -1.889,3.078 z m 0.096,-8.024 c -0.52,-0.32 -1.256,-0.205 -1.717,0.547 l -2.761,6.586 c -0.214,0.509 0.007,1.113 0.687,1.53 l 1.02,0.627 -0.044,0.071 C -2.844,1.26 -3.24,1.264 -3.446,1.358 L -8.598,3.889 -4.409,6.46 0.342,3.536 1.685,4.36 C 2.096,4.613 2.695,4.118 2.83,3.979 l 0.108,0.066 -3.087,5.029 3.49,2.143 5.976,-9.737 c 0.967,-0.491 2.005,-1.258 2.985,-2.011 z" /></g><g
           transform="translate(358.1043,85.7393)"
           id="g304"><path
             id="path306"
             style="fill:#6c0b19;fill-opacity:1;fill-rule:nonzero;stroke:none"
             d="m 0,0 5.18,-10.177 c 1.027,-0.584 1.971,-1.375 2.887,-2.204 l -12.608,-6.417 -0.314,1.959 c -0.091,0.873 -10e-4,1.531 0.859,1.969 l 5.518,2.808 -1.162,2.283 -5.911,-3.009 c -0.261,0.928 -0.781,2.924 0.21,3.428 l 3.312,1.685 c 0.729,0.371 1.251,-0.376 1.553,-0.646 l 0.075,0.039 -1.789,3.516 -5.838,-2.97 c -0.991,-0.505 -2.252,1.185 -3.178,2.033 z" /></g><g
           transform="translate(199.4759,51.8906)"
           id="g308"><path
             id="path310"
             style="fill:#b12126;fill-opacity:1;fill-rule:nonzero;stroke:none"
             d="m 0,0 4.404,19.121 c -0.662,1.777 -1.111,3.84 -1.239,6.011 l 9.437,-2.172 6.291,-12.791 0.14,-0.033 c 3.118,2.312 8.481,7.468 11.965,7.996 1.376,0.201 2.76,-0.045 5.918,-0.773 L 31.26,-7.199 24.383,-5.615 27.947,9.856 27.806,9.89 16.862,1.03 16.722,1.062 10.599,13.777 10.388,13.826 6.841,-1.575 Z" /></g><g
           transform="translate(259.2596,51.9902)"
           id="g312"><path
             id="path314"
             style="fill:#b12126;fill-opacity:1;fill-rule:nonzero;stroke:none"
             d="M 0,0 -2.335,10.834 -4.961,10.939 -8.167,0.332 Z M 9.124,-9.596 1.929,-9.304 0.385,-2.07 0.24,-2.063 c -0.523,-1.348 -1.322,-2.398 -2.869,-2.335 l -6.727,0.274 -1.452,-4.662 -6.871,0.279 5.796,19.368 c -1.471,1.933 -1.906,3.645 -2.434,5.72 L 3.958,15.84 Z" /></g><g
           transform="translate(283.5086,63.4336)"
           id="g316"><path
             id="path318"
             style="fill:#b12126;fill-opacity:1;fill-rule:nonzero;stroke:none"
             d="m 0,0 0.936,-8.084 6.259,0.725 c 0.25,0.03 0.472,0.309 0.483,0.528 L 7.958,0.45 C 7.97,0.669 7.689,0.89 7.439,0.861 Z M 1.482,-10.92 1.268,-10.944 2.27,-19.6 -4.74,-20.411 -6.992,-0.955 C -8.271,0.383 -9.468,2.273 -10.32,4.313 L 12.104,6.91 c 1.501,0.174 3.078,-1.238 3.013,-2.551 L 14.648,-8.816 c -0.052,-1.418 -1.362,-2.948 -2.864,-3.122 L 3.88,-12.854 c -0.644,-0.073 -1.481,0.264 -1.801,0.843 z" /></g><g
           transform="translate(322.406,64.8379)"
           id="g320"><path
             id="path322"
             style="fill:#b12126;fill-opacity:1;fill-rule:nonzero;stroke:none"
             d="M 0,0 -1.643,5.895 -8.368,4.019 C -9.097,3.815 -9.462,3.116 -9.27,2.422 l 3.066,-10.989 c 0.193,-0.695 0.981,-1.109 1.676,-0.916 l 13.382,3.732 c -0.098,-2.194 0.329,-5.738 -2.098,-6.414 l -14.318,-3.993 c -1.977,-0.551 -4.016,0.599 -4.567,2.576 l -4.776,17.126 c -0.551,1.977 0.599,4.016 2.575,4.566 L 3.421,13.06 5.471,5.711 C 5.713,4.844 5.418,3.753 4.718,3.185 Z" /></g><g
           transform="translate(207.9339,442.0254)"
           id="g324"><path
             id="path326"
             style="fill:#b12126;fill-opacity:1;fill-rule:nonzero;stroke:none"
             d="m 0,0 -4.111,19.182 c -1.353,1.33 -2.633,3.007 -3.669,4.92 l 9.467,2.03 11.116,-8.92 0.141,0.031 c 1.845,3.414 4.517,10.356 7.448,12.309 1.162,0.765 2.519,1.129 5.687,1.808 L 31.36,6.723 24.461,5.244 21.134,20.765 20.994,20.735 14.835,8.076 14.694,8.046 3.762,16.968 3.551,16.923 6.863,1.472 Z" /></g><g
           transform="translate(263.2224,458.8877)"
           id="g328"><path
             id="path330"
             style="fill:#b12126;fill-opacity:1;fill-rule:nonzero;stroke:none"
             d="M 0,0 -3.009,10.666 -5.637,10.608 -8.171,-0.181 Z M 9.708,-9.005 2.509,-9.165 0.514,-2.042 0.369,-2.045 C -0.067,-3.423 -0.8,-4.52 -2.348,-4.554 l -6.732,-0.15 -1.155,-4.743 -6.875,-0.153 4.569,19.695 c -1.589,1.837 -2.131,3.518 -2.789,5.556 l 18.288,0.406 z" /></g><g
           transform="translate(296.4168,460.4805)"
           id="g332"><path
             id="path334"
             style="fill:#b12126;fill-opacity:1;fill-rule:nonzero;stroke:none"
             d="M 0,0 C 0.107,-0.015 0.448,0.083 0.56,0.358 L 2.246,5.609 C 2.261,5.716 2.22,5.94 2.077,5.96 L -6.977,7.237 -7.841,1.107 Z M 8.637,10.706 C 9.67,10.56 10.517,9.604 10.306,8.107 L 6.762,-3.608 C 6.488,-4.514 5.537,-5.071 4.184,-4.88 l -2.033,0.287 -0.02,-0.142 c 0.25,-0.036 0.77,-0.473 0.938,-0.824 l 4.042,-8.968 -8.34,1.177 -3.084,9.051 -2.674,0.378 c -0.821,0.115 -1.073,1.423 -1.098,1.754 l -0.214,0.03 -1.414,-10.016 -6.949,0.982 2.735,19.39 c -0.741,1.704 -1.274,3.851 -1.746,5.917 z" /></g><g
           transform="translate(310.658,449.0688)"
           id="g336"><path
             id="path338"
             style="fill:#b12126;fill-opacity:1;fill-rule:nonzero;stroke:none"
             d="m 0,0 15.667,-4.894 c 0.378,-0.118 0.874,0.142 1.003,0.554 l 0.676,2.165 c 0.129,0.412 -0.004,0.831 -0.464,1.05 L 5.148,4.652 C 3.057,5.682 3.143,8.371 3.572,9.745 l 1.953,6.254 c 0.569,1.82 2.551,2.974 4.441,2.383 L 28.862,12.479 C 28.004,10.938 26.357,8.322 24.57,8.88 l -11.887,3.713 c -0.412,0.129 -0.898,-0.096 -1.016,-0.474 l -0.591,-1.89 C 10.958,9.852 11.149,9.376 11.527,9.259 L 22.894,3.634 c 2.355,-1.151 2.635,-3.274 2.152,-4.821 l -2.222,-7.111 c -0.59,-1.89 -2.573,-2.93 -4.464,-2.34 L 2.556,-5.701 c -1.34,0.418 -2.828,1.449 -2.732,2.965 z" /></g></g></g></g></svg>