<svg xmlns="http://www.w3.org/2000/svg" viewBox="0 0 492 44">
  <g fill="#1D1D1B" fill-rule="evenodd" font-family="RussoOne-Regular, Russo One" font-size="18">
    <text transform="rotate(-15.41 -22.517 55.637)">
      <tspan x="3.548" y="50.854">«</tspan>
    </text>
    <text transform="rotate(-14.452 -12.822 53.499)">
      <tspan x="14.214" y="47.706">д</tspan>
    </text>
    <text transform="rotate(-13.92 -2.961 51.276)">
      <tspan x="26.305" y="44.893">а</tspan>
    </text>
    <text transform="rotate(-13.08 7.804 49.25)">
      <tspan x="36.695" y="41.805">ж</tspan>
    </text>
    <text transform="rotate(-12.095 17.923 47.774)">
      <tspan x="52.168" y="38.87">е</tspan>
    </text>
    <text transform="rotate(-11.19 31.22 45.916)">
      <tspan x="68.052" y="35.5">п</tspan>
    </text>
    <text transform="rotate(-10.408 38.82 45.45)">
      <tspan x="79.26" y="33.53">у</tspan>
    </text>
    <text transform="rotate(-9.87 46.062 44.894)">
      <tspan x="89.388" y="31.732">т</tspan>
    </text>
    <text transform="rotate(-9.181 52.444 44.97)">
      <tspan x="98.749" y="30.029">ь</tspan>
    </text>
    <text transform="rotate(-8.2 62.505 45.508)">
      <tspan x="114.808" y="27.607">в</tspan>
    </text>
    <text transform="rotate(-7.481 72.685 46.082)">
      <tspan x="130.878" y="25.507">т</tspan>
    </text>
    <text transform="rotate(-6.43 75.117 49.627)">
      <tspan x="140.328" y="24.022">ы</tspan>
    </text>
    <text transform="rotate(-5.711 78.59 52.77)">
      <tspan x="155.765" y="22.615">с</tspan>
    </text>
    <text transform="rotate(-4.97 77.489 57.787)">
      <tspan x="165.658" y="21.703">я</tspan>
    </text>
    <text transform="rotate(-4.26 73.28 64.585)">
      <tspan x="176.828" y="20.811">ч</tspan>
    </text>
    <text transform="rotate(-3.6 64.12 73.728)">
      <tspan x="187.902" y="20.086">у</tspan>
    </text>
    <text transform="rotate(-2.291 7.56 109.28)">
      <tspan x="203.635" y="19.231">л</tspan>
    </text>
    <text transform="rotate(-1.718 -47.557 142.143)">
      <tspan x="215.167" y="18.775">и</tspan>
    </text>
    <text transform="rotate(-1.146 -165.039 208.022)">
      <tspan x="231" y="18">н</tspan>
    </text>
    <text transform="rotate(.93 750.933 -238.08)">
      <tspan x="254.077" y="18.348">ч</tspan>
    </text>
    <text transform="rotate(.93 739.856 -238.428)">
      <tspan x="243" y="18">а</tspan>
    </text>
    <text transform="rotate(1.24 638.804 -176.297)">
      <tspan x="265.168" y="18.521">и</tspan>
    </text>
    <text transform="rotate(1.94 516.768 -109.288)">
      <tspan x="276.52" y="18.837">н</tspan>
    </text>
    <text transform="rotate(2.63 465.653 -77.848)">
      <tspan x="287.9" y="19.279">а</tspan>
    </text>
    <text transform="rotate(3.31 440.558 -59.383)">
      <tspan x="298.617" y="19.838">е</tspan>
    </text>
    <text transform="rotate(4.004 426.906 -46.733)">
      <tspan x="309.468" y="20.453">т</tspan>
    </text>
    <text transform="rotate(4.574 422.08 -38.9)">
      <tspan x="318.904" y="21.145">с</tspan>
    </text>
    <text transform="rotate(5.21 420.718 -31.83)">
      <tspan x="328.8" y="22.13">я</tspan>
    </text>
    <text transform="rotate(6.22 421.97 -23.123)">
      <tspan x="345.351" y="23.687">с</tspan>
    </text>
    <text transform="rotate(7.481 425.775 -14.952)">
      <tspan x="360.599" y="25.657">п</tspan>
    </text>
    <text transform="rotate(7.93 433.064 -11.808)">
      <tspan x="371.855" y="27.046">е</tspan>
    </text>
    <text transform="rotate(8.616 439.681 -7.88)">
      <tspan x="382.572" y="28.656">р</tspan>
    </text>
    <text transform="rotate(9.181 447.156 -4.56)">
      <tspan x="393.819" y="30.319">в</tspan>
    </text>
    <text transform="rotate(10.04 454.031 -.47)">
      <tspan x="404.494" y="32.298">о</tspan>
    </text>
    <text transform="rotate(10.972 459.867 3.281)">
      <tspan x="415.728" y="34.124">г</tspan>
    </text>
    <text transform="rotate(11.32 468.74 5.874)">
      <tspan x="424.381" y="36.054">о</tspan>
    </text>
    <text transform="rotate(12.52 483.225 11.704)">
      <tspan x="440.76" y="39.937">ш</tspan>
    </text>
    <text transform="rotate(13.35 493.566 15.753)">
      <tspan x="455.887" y="42.842">а</tspan>
    </text>
    <text transform="rotate(13.97 501.483 18.82)">
      <tspan x="466.335" y="45.144">г</tspan>
    </text>
    <text transform="rotate(14.452 509.422 21.641)">
      <tspan x="474.366" y="47.396">а</tspan>
    </text>
    <text transform="rotate(15.25 518.134 25.258)">
      <tspan x="484.755" y="50.198">»</tspan>
    </text>
  </g>
</svg>
