<svg xmlns="http://www.w3.org/2000/svg" viewBox="0 0 4666.667 4666.667" fill="#ffffff">
  <defs>
    <clipPath id="a" clipPathUnits="userSpaceOnUse">
      <path d="M0 3500h3500V0H0z"/>
    </clipPath>
  </defs>
  <g clip-path="url(#a)" transform="matrix(1.33333 0 0 -1.33333 0 4666.667)">
    <path d="M1514.927 1416.377c4.236-3.46 4.685-7.535 5.296-11.372 1.94-12.167 4.091-24.321 5.387-36.564 2.547-24.065 9.031-47.104 17.73-69.519 6.017-15.508 12.906-30.685 19.673-45.89 1.397-3.138 1.5-5.606-.433-8.336-1.73-2.444-3.132-5.142-5.009-7.461-17.87-22.07-29.51-47.451-39.15-73.852-5.01-13.722-9.52-27.626-14.264-41.467 8.02-2.428 22.344-.849 64.387 6.35 21.192 3.629 40.564 12.635 61.363 19.21-.578 2.928-.762 5.185-1.47 7.262-13.986 40.979-28.942 81.655-41.742 122.998-8.353 26.981-13.906 54.856-20.022 82.484-1.623 7.329-4.63 12.987-10.185 17.641-13.347 11.183-24.808 24.193-35.87 37.543-24.434 29.491-31.83 62.98-22.959 100.141.298 1.248.912 2.461 1.597 3.554.265.423 1.137.465 2.4.921.351-1.889 1.048-3.688.945-5.44a237.438 237.438 0 00-1.465-15.909c-3.077-24.198 1.745-46.192 16.73-65.968 12.766-16.847 27.723-31.48 43.165-45.73 14.448-13.333 29.148-26.409 41.372-41.957 5.826-7.411 6.151-8.788.95-16.462-1.053-1.554-2.704-2.703-4.303-4.256-5.435 4.605-2.746 12.616-8.609 16.711-4.836 3.378-8.784 8.027-13.843 12.789 0-2.708-.382-5.15.06-7.43 4.314-22.244 9.084-44.386 16.416-65.878 10.757-31.53 21.803-62.908 35.78-93.257 8.76-19.026 14.98-39.207 23.092-58.552 15.33-36.556 30.685-73.116 47.026-109.225 11.392-25.171 24.434-49.595 36.773-74.336 1.027-2.058 2.31-3.989 3.805-6.547 6.987 3.619 13.628 7.305 20.473 10.564 33.385 15.892 66.796 31.731 100.273 47.429 5.41 2.538 11.057 4.845 16.84 6.253 11 2.678 18.884 9.386 25.714 17.86 11.082 13.749 21.986 27.651 33.396 41.124 6.225 7.35 13.358 13.931 20.043 20.897 3.713 3.87 8.197 5.27 13.523 5.191 9.326-.138 18.673.466 27.984.085 5.255-.215 8.691 1.429 11.831 5.583 10.245 13.555 20.456 27.166 31.323 40.218 34.942 41.97 76.67 75.791 124.484 102.096 5.527 3.04 11.45 5.386 17.29 7.809 1.325.55 3.073.081 4.811.081-.496-4.808-4.347-5.304-7.024-6.913-16.837-10.122-34.26-19.371-50.5-30.369-40.617-27.51-76.079-60.588-104.269-101.008-4.559-6.538-8.828-13.375-12.345-20.51-2.629-5.335-6.05-7.232-11.782-6.941-9.977.503-19.985.348-29.97.726-4.986.189-8.974-1.269-12.607-4.753-5.736-5.499-11.809-10.647-18.092-16.259 12.057-11.575 23.543-22.539 34.958-33.576 14.852-14.358 29.646-28.775 44.466-43.166 5.497-5.338 10.771-10.934 16.554-15.945 8.603-7.455 18.11-13.453 28.98-17.348 38.26-13.706 76.296-28.049 114.67-41.421 59.804-20.84 118.744-43.889 177.338-67.863 7.697-3.149 15.22-6.743 22.726-10.333 1.97-.941 3.58-2.637 6.488-4.846-5.49-1.058-9.062.688-12.575 1.959a4465.366 4465.366 0 00-47.827 17.624c-32.129 12.049-63.898 25.167-96.422 36.032-45.212 15.102-89.716 32.075-134.492 48.338-2.677.972-5.472 1.625-8.884 1.155 2.324-2.281 4.558-4.661 6.986-6.825 20.65-18.409 41.11-37.042 62.1-55.053a487.51 487.51 0 0137.067-28.83c27.536-19.354 55.25-38.477 83.31-57.059 47.626-31.538 92.766-66.163 134.464-105.259 7.024-6.586 14.657-12.605 22.472-18.247 23.544-16.994 50.191-25.791 78.886-28.839 7.287-.773 14.588-1.415 21.86-2.298 2.064-.25 4.05-1.142 6.001-3.321-1.713-.418-3.41-1.126-5.14-1.212-32.419-1.624-62.819 4.686-90.877 21.818-14.577 8.901-28.477 18.476-40.99 30.113-25.679 23.878-53.385 45.277-82.107 65.284-37.737 26.283-75.92 51.924-113.957 77.775-27.626 18.775-53.62 39.516-77.763 62.65-19.006 18.211-38.495 35.924-57.947 53.662-3.123 2.847-6.954 5.199-10.849 6.868-12.117 5.195-22.87 12.39-32.256 21.513-8.358 8.125-16.209 16.771-24.345 25.129a30119.908 30119.908 0 01-59.356 60.804c-1.824 1.863-3.964 3.419-6.097 5.236-4.156-1.233-6.012-4.524-8.144-7.364-7.2-9.595-14.479-19.142-21.356-28.968-4.157-5.94-9.192-10.5-15.92-13.137-38.244-14.985-73.602-35.95-110.684-53.335-15.51-7.271-29.138-17.414-42.982-27.268-2.975-2.118-6.005-4.261-9.28-5.827-3.358-1.606-5.755-.301-6.97 3.234-.536 1.56-.769 3.234-1.06 4.87-2.703 15.202-7.416 29.811-14.533 43.454-27.336 52.401-50.124 106.726-69.594 162.484-1.18 3.381-2.68 6.651-3.879 9.599-16.515-6.626-32.062-13.388-47.977-19.131-25.832-9.321-52.756-14.053-79.975-16.957-6.6-.704-10.89-2.643-13.62-9.226-6.714-16.188-17.14-29.961-29.116-42.721-6.356-6.772-11.988-14.269-17.512-21.759-3.338-4.527-6.04-9.514-6.298-15.528-.063-1.473-2.004-3.905-3.247-4.014-1.428-.125-3.722 1.497-4.456 2.956-3.588 7.132-6.736 14.483-10.124 21.717-6.349 13.562-12.709 27.119-19.178 40.623-1.276 2.662-3.066 5.077-4.922 8.1-4.079-.75-7.955-1.403-11.805-2.18-13.384-2.706-26.727-5.63-40.155-8.096-5.02-.922-8.373-3.328-11.08-7.539-41.913-65.177-91.704-124.407-139.785-184.927-8.498-10.697-17.536-21.03-25.228-32.282-7.113-10.403-12.93-21.717-18.954-32.826-2.316-4.271-4.65-8.692-2.935-14.2.98-3.149-1.254-5.735-4.504-6.777-2.959-.948-5.3.322-6.85 2.756-1.583 2.484-2.826 5.184-3.965 7.316 6.551 12.697 12.898 24.733 18.968 36.907 2.114 4.24 4.188 8.242 8.447 10.808 1.651.995 2.945 2.689 4.187 4.237 21.28 26.507 42.706 52.897 63.733 79.602 26.184 33.253 52.134 66.692 77.961 100.222 7.681 9.972 14.61 20.522 22.867 32.199-3.886-.291-6.02-.293-8.1-.63-23.336-3.791-46.567-8.448-70.023-11.198-18.15-2.128-36.626-1.34-54.874-2.845-19.888-1.641-39.712-4.196-59.499-6.84-7.91-1.057-15.276-4.303-23.048-9.274 12.821-5.884 26.124-7.634 38.29-13.3-1.775-4.36-5.137-3.294-7.732-2.881-6.903 1.099-13.738 2.622-20.594 4.011-7.842 1.588-15.587 3.458-23.539-.089-1.462-.651-4.514.65-5.97 1.988-1.994 1.832-1.176 4.652.68 6.227 5.762 4.885 9.407 11.119 12.504 17.839 1.837 3.985 5.316 5.683 9.586 6.228 14.52 1.853 28.981 4.354 43.551 5.584 14.242 1.202 28.661.426 42.873 1.832 17.21 1.702 34.367 4.307 51.397 7.361 39.33 7.053 78.568 14.616 117.844 21.966 5.54 1.036 11.084 2.037 17.523 3.22-1.365 2.93-2.083 5.473-3.553 7.457-6.742 9.091-13.313 18.352-20.656 26.946-12.339 14.438-25.079 28.543-37.92 42.541-7.43 8.098-15.204 15.9-23.148 23.496-12.179 11.646-22.025 24.945-29.726 39.892-4.425 8.59-8.926 17.141-13.353 25.731-7.123 13.821-10.986 28.391-11.654 44.046-.624 14.622-2.198 29.227-3.947 43.768-.667 5.539-2.654 11.001-4.603 16.291-12.103 32.847-12.648 65.606-.49 98.644 5.396 14.668 9.805 29.705 14.445 44.643 2.407 7.75 2.75 15.686.604 24.43-2.22-1.241-4.273-2.107-6.008-3.398-47.692-35.475-98.197-66.5-150.173-95.221-54.552-30.145-108.35-61.601-161.404-94.298-21.537-13.273-42.536-27.434-61.955-43.855-18.02-15.239-27.194-35.003-31.476-57.512-2.316-12.173-2.073-24.477-1.43-36.857 1.65-31.808 8.88-62.481 16.304-93.326 11.267-46.82 27.19-91.974 44.776-136.628 11.163-28.344 18.877-57.547 24.135-87.505 4.605-26.239 9.127-52.517 14.792-78.536 3.747-17.207 9.434-33.992 14.295-50.953.601-2.098 1.468-4.122 1.552-6.487-4.953 3.396-7.048 8.574-8.903 13.743-7.428 20.703-13.694 41.674-18.07 63.332-6.79 33.619-14.886 66.975-22.653 100.39-1.389 5.978-3.122 12.006-6.78 18.722-6.19-10.84-7.89-21.744-11.56-31.896-3.85-10.648-7.14-21.509-11.287-32.036-4.024-10.22-8.72-20.183-13.313-30.17-4.734-10.291-9.685-20.482-14.569-30.704-4.716-9.873-9.466-19.728-14.39-29.986 2.745-2.055 4.694-3.802 6.902-5.113 6.59-3.911 13.327-7.575 19.927-11.471 20.236-11.947 38.248-26.657 54.17-43.927 11.974-12.987 24.074-25.864 35.811-39.063 12.773-14.363 27.311-26.327 44.512-35.022 6.837-3.456 13.536-7.192 20.218-10.943 2.465-1.384 4.701-3.177 8.675-5.905-3.62-1.102-5.408-2.282-6.882-1.972-3.885.818-7.667 2.189-11.433 3.504-22.78 7.949-42.418 20.678-58.73 38.525-12.37 13.531-25.01 26.814-37.277 40.436-19.174 21.288-41.323 38.636-66.809 51.756-5.622 2.895-11.15 6.035-16.45 9.478-5.909 3.838-6.959 7.141-4.166 13.561 3.32 7.633 7.16 15.04 10.778 22.541 12.88 26.705 25.876 53.352 38.561 80.147 3.27 6.905 5.37 14.353 8.347 21.407 4.14 9.807 8.076 19.764 13.145 29.088 2.531 4.653 2.9 8.209 1.065 12.991-7.997 20.838-15.485 41.872-23.489 62.708-10.67 27.78-17.434 56.639-24.234 85.5-3.666 15.556-8.039 30.992-10.758 46.713-3.978 23-6.103 46.297-5.136 69.671.762 18.441 4.258 36.589 13.251 52.862 4.26 7.708 10.564 14.576 16.997 20.72 7.92 7.566 16.66 14.361 25.534 20.821 28.051 20.418 58.061 37.803 87.427 56.208 57.92 36.304 118.418 68.144 176.924 103.406 14.544 8.766 28.72 18.162 42.875 27.553 17.215 11.422 34.163 23.249 51.37 34.688 6.49 4.314 9.98 9.902 11.774 17.595 3.918 16.809 13.815 30.088 27.005 40.976 2.566 2.118 5.408 3.898 8.05 5.928 7.78 5.977 12.674 13.43 12.721 23.681.075 16.225 16.706 33.145 35.116 35.658 2.958.403 5.945.584 9.888.96 1.037 5.672 2.133 11.47 3.147 17.284.67 3.844-2.326 5.975-4.15 8.684-9.107 13.533-18.654 26.802-27.084 40.747-11.302 18.694-17.409 39.561-23.069 60.504-.389 1.44-.207 3.033 1.086 5.109 1.066-1.456 2.458-2.776 3.133-4.395 1.662-3.99 3.21-8.056 4.428-12.201 9.575-32.567 26.734-60.833 48.606-86.5 18.431-21.629 38.9-41.141 60.481-59.578 11.143-9.519 21.811-19.592 32.66-29.453 1.464-1.332 2.871-2.785 4.013-4.389.464-.651.542-2.365.104-2.707-.902-.702-2.268-1.067-3.445-1.071-.904-.002-1.832.721-2.712 1.19-4.682 2.5-9.4 4.936-14.012 7.563-3.436 1.958-6.813 3.824-8.07 8.28-.652 2.312-2.746 4.446-4.656 6.132-6.244 5.512-12.964 10.504-19.024 16.202-11.888 11.179-23.48 22.675-35.132 34.101-2.114 2.073-3.937 4.443-6.776 7.683-.908-2.693-1.648-4.009-1.767-5.38-1.01-11.614-1.449-23.297-2.944-34.845-2.237-17.265 1-33.745 5.2-50.318 5.68-22.411 16.548-42.27 30.337-60.339 14.175-18.572 21.124-39.84 26.916-61.825.255-.965.503-1.947.591-2.935.335-3.76-1.687-6.093-5.296-5.207-5.799 1.424-11.488 3.371-17.098 5.435-1.373.505-2.572 2.153-3.328 3.557-4.872 9.048-9.598 18.175-15.278 29.002 3.031-1.461 5.002-1.796 5.925-2.961 4.33-5.458 9.005-10.797 12.322-16.856 2.94-5.368 6.79-7.753 13.37-8.264-.43 2.553-.694 4.707-1.165 6.814-3.987 17.848-11.923 33.82-22.718 48.517-4.729 6.438-9.113 13.156-13.29 19.97-19.274 31.428-27.688 65.353-23.12 102.203.368 2.969.544 5.971.626 8.964.025.904-.57 1.825-.995 3.07-13.896-.697-23.775-7.891-31.187-18.854-3.058-4.523-3.652-9.975-3.192-15.408.743-8.762-.097-17.216-3.323-25.531-1.13-2.911-1.28-6.634-.64-9.73 3.498-16.892 2.411-33.831.784-50.739-1.183-12.287-3.036-24.573-1.15-36.854 1.05-6.832 2.661-13.841 5.518-20.084 9.934-21.705 14.866-44.846 20.205-67.849 1.398-6.025 1.055-12.633.498-18.884-.53-5.948-2.889-11.411-9.752-13.478 8.22 9.901 7.056 21.452 4.538 32.184-5.242 22.338-10.908 44.67-21.428 65.34-7.696 15.121-8.924 31.204-6.906 47.731 1.738 14.237 3.154 28.486 2.02 42.851-.314 3.984-.68 7.971-1.254 11.923-.893 6.144-1.985 12.258-3.078 18.909-15.747-11.452-28.48-25.301-32.01-45.594-1.306-7.512-1.885-15.184-2.304-22.81-.479-8.715-1.502-17.262-4.753-25.421-5.547-13.922-10.694-28.024-16.797-41.698-7.077-15.857-11.089-32.017-8.898-49.468.538-4.28-.107-8.726.576-12.97 1.37-8.508 1.89-17.536 5.255-25.262 7.368-16.917 9.427-34.594 10.655-52.58.34-4.986.523-9.984.721-14.979.507-12.832 3.25-25.079 9.437-36.437 1.753-3.217 3.63-6.375 5.252-9.656 14.35-29.006 33.867-53.763 57.588-75.965 18.425-17.243 34.265-37.265 51.025-56.255 4.612-5.226 8.9-10.879 12.482-16.85 14.237-23.727 27.62-47.913 37.348-73.935 2.062-5.514 4.334-10.951 6.475-16.339 1.201.386 1.7.394 1.805.602 7.79 15.257 18.928 28.073 29.557 41.323 13.734 17.121 21.643 37.395 29.34 57.67 7.328 19.304 14.092 38.829 21.777 57.987 8.74 21.789 20.558 41.838 36.394 59.356 1.318 1.457 2.411 3.117 3.465 4.494-6.039 14.83-11.965 29.282-17.813 43.765-11.563 28.635-18.454 58.35-20.992 89.138-.654 7.933-2.506 15.761-3.666 23.658-.553 3.761-2.476 7.626.646 12.443M1986.033 2141.49c.791 3.077 1.708 6.127 2.342 9.235.853 4.18 2.255 8.452 1.996 12.596-.248 3.97.967 6.603 3.945 8.404 3.868 2.34 8.037 4.183 12.754 6.585-1.85 1.64-3.29 3.436-5.154 4.483-10.246 5.76-21.053 10.143-32.867 11.168-10.279.892-20.598 1.357-30.908 1.814-5.3.235-10.622.04-17.065.04-3.586-3.908-6.08-9.902-7.688-15.803-2.212-8.115-6.47-15.635-6.695-24.404-.116-4.56-2.242-8.851-6.552-11.361-.886.804-1.77 1.294-1.712 1.597 1.24 6.25 1.527 12.375-.32 18.66-1.394 4.746-1.087 9.15 4.986 11.21 1.834.622 3.226 3.215 4.34 5.179 3.445 6.077 6.66 12.285 10.395 19.246-8.989 13.729-19.12 26.01-37.252 28.13-2.976.349-5.94.827-8.924 1.065-16.82 1.34-17.863 1.708-31.617 11.97-.866-1.768-1.672-3.413-2.477-5.06-5.55-11.351-10.717-22.912-16.75-34.002-7.642-14.044-15.964-27.718-24.034-41.527-11.94-20.43-22.018-59.456-20.236-82.147 5.306 11.13 9.872 22.02 15.566 32.283 5.543 9.99 9.831 21.042 20.988 30.246-.776-3.931-.714-5.77-1.479-7.15a1502.16 1502.16 0 00-15.804-27.804c-9.188-15.783-14.607-32.876-16.99-50.855-.909-6.855-.315-13.936-.112-20.906.185-6.37-1.128-10.093-4.246-9.715-4.862.59-4.809 4.942-5.379 8.417-8.148 49.644-.3 96.106 27.463 138.687 9.824 15.069 19.351 30.337 28.721 45.694 3.566 5.842 6.958 11.933 8.341 20.02-2.094-1.045-3.224-1.484-4.222-2.13-5.586-3.615-10.899-7.735-16.748-10.85-26.492-14.106-49.083-33.143-69.873-54.51-12.17-12.51-22.267-26.513-29.999-42.195-2.915-5.914-5.914-11.788-10.2-17.206.077 1.228-.09 2.533.266 3.673 6.233 19.88 14.745 38.667 28.55 54.49 8.091 9.275 16.94 17.91 25.697 26.58 16.223 16.059 34.777 28.964 54.748 39.933 5.478 3.009 11.161 5.886 15.153 10.85-7.55 4.774-15.296 8.592-21.76 13.955-21.32 17.686-41.06 37.04-58.409 58.715-1.442 1.802-2.54 3.892-3.664 5.923-.252.456.07 1.227.21 2.778 1.55-.686 3.111-.962 4.07-1.873 5.067-4.82 9.965-9.818 14.958-14.721 13.788-13.54 27.486-27.176 41.457-40.527 4.313-4.122 9.241-7.657 14.152-11.082 4.728-3.297 10.018-5.576 15.958-3.904 3.801 1.07 6.576.015 8.693-3.016 8.777-12.56 21.368-17.25 36.088-18.134 14.96-.9 26.798-8.55 35.592-19.91 6.474-8.361 13.777-11.653 23.848-10.17 1.957.289 4-.062 5.992.056 21.846 1.3 41.362-5.7 59.52-17.062 4.17-2.61 7.766-6.247 11.288-9.751 9.637-9.586 21.31-13.71 34.56-11.962 10.18 1.343 20.215 3.906 30.234 6.269 4.886 1.152 9.554 2.864 14.662 1.045 1.386-.493 3.096-.075 5.791-.075-8.668 15.774-7.493 31.873-6.062 47.759 1.87 20.766 7.61 40.562 17.868 58.875 21.927 39.15 49.717 73.346 85.963 100.133 26.823 19.823 54.83 37.872 84.335 53.505 5.16 2.734 10.317 5.639 16.074 5.989-21.089-13.143-42.35-26.184-63.38-39.59-10.389-6.621-20.504-13.703-30.478-20.942-35.43-25.716-62.46-58.725-83.62-96.811-12.949-23.307-18.463-48.411-18.37-74.864.015-4.965.637-9.99 1.563-14.875 2.296-12.124 8.403-18.571 20.752-19.366 12.23-.788 24.602-.072 36.87.674 5.921.36 11.837 1.977 17.6 3.583 34.4 9.589 67.99 21.399 100.146 37.074 20.761 10.12 40.454 22.064 58.074 36.938 22.4 18.906 44.354 38.362 65.965 58.165 18.336 16.8 32.713 36.799 44.158 58.912 5.206 10.059 10.691 19.978 16.256 29.843 1.711 3.03 2.932 6.837 8.458 7.839-.585-3-.577-5.624-1.59-7.764-15.733-33.183-32.153-65.901-58.256-92.625-21.682-22.2-44.207-43.434-68.249-63.067-25.225-20.6-52.876-37.115-82.892-49.67-28.304-11.836-56.992-22.588-87.029-29.272-6.45-1.435-13.008-2.396-21.58-3.95 8.192-4.064 14.901-6.941 21.842-8.72 19.414-4.974 39.046-8.806 59.273-6.367 17.548 2.117 34.924 5.058 51.664 11.057 4.936 1.769 10.09 2.934 15.693 3.13-2.134-1.151-4.222-2.405-6.414-3.44-22.889-10.803-47.323-16.127-72.235-18.686-24.342-2.501-47.794 1.975-69.75 13.234-2.834 1.453-5.777 2.689-10.439 4.843 2.906-8.516 7.017-14.041 11.78-18.97 4.613-4.776 9.775-9.03 14.76-13.442 5.045-4.468 11.676-7.204 15.986-13.397-6.922-1.694-12.065-.27-23.667 8.669-6.498 5.007-12.677 11.06-17.18 17.85-4.68 7.055-7.167 15.564-11.216 24.817-7.943.95-17.104 2.039-26.264 3.148-2.974.36-6.165.212-8.867 1.283-6.096 2.418-11.679 1.163-17.438-.978-11.065-4.116-22.685-5.142-34.357-5.72-9.04-.447-17.095 2.657-24.44 7.498-3.887 2.56-7.948 3.296-12.32 3.073-6.834-.35-9.798-2.927-12.18-9.595-1.678-4.69-3.567-9.322-5.704-13.818-.734-1.545-2.507-2.597-3.805-3.875l-1.486.729"/>
    <path d="M1831.703 1086.366c-2.5 3.898-.469 7.108.574 10.005 6.543 18.17 12.714 36.516 20.272 54.267 19.705 46.277 40.35 92.153 60.057 138.428 13.606 31.945 23.52 65.195 30.914 99.078 3.096 14.186 9.247 26.163 18.503 36.991 17.325 20.266 34.25 40.808 48.856 63.23 10.07 15.46 18.476 31.607 24.851 48.863 2.193 5.936 4.424 11.867 6.316 17.902 1.651 5.27 5.06 8.872 8.83 12.83 9.145 9.61 17.696 19.871 25.698 30.465 8.092 10.712 6.953 10.778 2.666 23.264-7.587 22.097-22.794 36.252-43.67 45.254-3.973 1.714-7.743 3.917-11.754 5.531-22.6 9.098-42.062 22.865-59.515 39.668-1.176 1.132-2.485 2.124-4.329 3.687-1.593-1.934-2.98-3.626-4.377-5.312-6.372-7.687-12.86-15.28-19.1-23.074-21.07-26.31-47.632-46.387-74.54-66.114-5.894-4.319-11.44-9.157-16.814-14.118-3.603-3.326-6.646-7.276-7.334-14.307 2.671 2.36 4.273 3.663 5.748 5.098 3.338 3.251 6.294 7.013 10.031 9.698 2.488 1.788 6.027 2.757 9.142 2.874 4.344.163 5.763-2.68 3.967-6.67-1.537-3.414-3.089-7.002-7.962-5.61-3.114.89-5.069-.962-7.067-2.7-3.013-2.625-5.867-5.433-8.926-8-2.457-2.064-5.349-2.84-8.338-1.226-3.143 1.698-3.816 4.974-2.919 7.812 1.374 4.345 2.857 9.132 5.777 12.41 5.947 6.675 12.572 12.846 19.476 18.547 15.926 13.152 32.911 25.104 48.125 39.011 18.686 17.08 36.221 35.506 46.983 59.055 6.342 13.878 4.753 23.807-7.845 32.368-14.942 10.156-20.544 24.622-23.715 41.093-4.014 20.858-2.08 41.06 5.731 60.801 3.463 8.755 7.537 17.017 15.934 22.916-4.379 4.566-8.486 6.364-13.899 4.54-2.835-.957-5.74-1.799-8.677-2.345-9.838-1.828-19.342-1-27.799 4.828-13.844 9.542-29.357 15.632-44.685 22.148-4.896 2.08-9.952 4.022-14.412 6.85-22.312 14.151-42.93 30.444-60.88 49.924-7.225 7.841-14.11 15.995-21.24 23.924-2.142 2.382-4.592 4.488-7.553 6.241 1.644-12.796 4.061-25.04 14.735-34.32-1.722.342-3.64.311-5.13 1.093-5.48 2.878-9.86 7.196-12.03 12.923-4.714 12.445-8.967 25.07-13.14 37.707-.518 1.564.006 4.172 1.076 5.4 1.725 1.98 4.337 1.41 6.336-.135 2.101-1.622 4.157-3.364 5.948-5.315 11.491-12.514 23.201-24.844 34.272-37.722 16.664-19.38 36.293-35.274 57.178-49.695 5.424-3.746 11.601-6.559 17.723-9.1 16.005-6.644 32.165-12.832 46.374-23.143 7.991-5.799 17.133-5.247 25.86-2.088 10.282 3.724 20.755 4.604 31.475 3.927 2.064-.13 4.075-1.085 6.46-1.757-3.098-4.834-7.748-3.458-11.309-4.966 0-.579-.244-1.348.036-1.696 6.107-7.604 6.134-10.267-1.674-14.838-7.984-4.674-12.793-11.46-15.963-19.765-9.364-24.53-7.89-48.962.856-73.273 2.222-6.18 6.694-10.638 11.87-14.477 3.74-2.777 7.67-5.367 11.073-8.515 7.818-7.23 11.934-16.103 9.644-26.904-1.058-4.996.533-8.129 4.422-11.06 16.788-12.653 33.91-24.64 53.082-33.63 12.034-5.643 23.547-12.459 35.03-19.198 12.841-7.536 21.538-18.763 26.58-32.7 2.83-7.822 5.124-15.838 7.705-23.75 1.276-3.914.188-6.963-2.596-9.97-4.744-5.125-9.112-10.596-13.654-15.907-7.104-8.307-14.22-16.603-21.707-25.342 6.846-.689 13.896-1.365 20.937-2.119 4.304-.46 8.597-1.02 12.89-1.574 7.561-.972 11.69-5.43 13.58-12.689 1.847-7.098 1.37-13.865-1.63-20.462-1.232-2.712-2.812-5.267-4.448-8.287 6.068-6.176 12.18-12.219 18.095-18.448 21.254-22.376 38.312-47.86 53.602-74.468 16.468-28.656 35.877-55.346 53.811-83.019 4.53-6.989 9.571-13.648 14.051-20.666 23.513-36.834 49.294-72.043 76.024-106.578 2.377-3.072 4.641-6.232 6.34-9.924-5.133 1.318-8.077 5.236-11.126 8.883-21.593 25.824-43.022 51.79-62.06 79.6-20.89 30.515-41.767 61.042-62.36 91.76-5.737 8.558-10.333 17.873-15.652 26.722-12.52 20.835-24.423 42.097-38.052 62.186-7.193 10.602-17.084 19.521-26.506 28.405-6.039 5.696-13.534 9.675-22.293 10.343-1.52.116-3.183.996-4.392 1.993-2.188 1.806-1.946 5.458.443 6.916 1.357.83 3.066 1.353 4.658 1.471 3.748.28 7.714.456 9.576 4.19 2.046 4.1 4.057 8.466 4.762 12.925.822 5.207-2.294 9.381-7.294 10.335-8.08 1.542-16.17 4.15-24.569.808-1.752-.697-4.512.078-6.386 1.016-2.294 1.148-4.144 3.183-6.702 5.251-1.335-3.206-2.702-5.845-3.56-8.642-9.534-31.065-26.46-58.113-45.895-83.694-10.678-14.054-21.888-27.729-33.367-41.14-7.954-9.293-13.334-19.23-16.11-31.42-12.989-57.014-32.356-111.867-56.45-165.187-16.319-36.106-30.986-72.958-46.412-109.467-2.72-6.44-5.41-12.9-8.384-19.226-1.357-2.884-2.37-6.288-6.754-7.703M2794.027 552.284c1.474.546 2.91 1.24 4.425 1.613 13.574 3.343 27.264 6.268 40.704 10.08 6.966 1.977 13.532 5.411 20.191 8.384 1.416.633 2.447 2.131 3.543 3.128.202 3.83-2.009 6.046-4.507 7.57-4.797 2.928-9.613 6.247-14.89 7.9-25.88 8.1-52.23 9.825-78.914 4.38-.204-.042-.33-.469-.8-1.184.671-.829 1.352-1.889 2.238-2.735 10.224-9.78 16.677-21.717 18.792-35.593 2.181-14.306 9.267-25.483 19.763-34.86 17.913-16.003 32.11-34.87 41.501-56.9 11.402-26.749 20.314-54.292 20.494-83.865.05-8.307.223-16.62-.082-24.917-.106-2.898-1.01-6.014-2.435-8.53-.95-1.68-3.437-3.404-5.283-3.454-3.05-.085-4.399 2.615-4.547 5.545-.083 1.648.212 3.312.266 4.972.683 21.018.18 41.925-5.485 62.394-5.693 20.565-11.608 40.98-22.62 59.587-7.873 13.298-17 25.435-28.253 36.027-9.567 9.003-17.934 18.876-20.983 32.146-.743 3.236-1.234 6.533-1.747 9.815-1.672 10.716-5.446 20.578-11.87 29.357-6.288 8.591-12.473 10.883-22.427 7.94-34-10.057-66.698-22.994-96.603-42.494-17.004-11.087-33.977-22.336-52.665-30.577-.734-.323-1.21-1.226-2.523-2.617 5.606-1.373 10.545-1.415 15.375-1.134 28.155 1.635 51.961-9.533 74.312-24.992 10.29-7.118 15.753-17.84 20.663-28.857.416-.936-.259-2.358-.61-4.869-2.514 2.208-4.466 3.391-5.706 5.093-14.739 20.234-35.845 31.758-58.199 40.671-10.273 4.096-22.108 4.27-33.232 6.245-5.566.987-11.252 1.581-16.643 3.17-4.73 1.396-8.967 1.017-13.654-.106-10.659-2.557-21.389-5.154-32.242-6.5-19.75-2.449-38.337 2.774-56.282 10.584-12.21 5.314-24.307 10.893-36.52 16.2-10.79 4.686-22.258 7.158-33.845 8.29-7.118.696-14.43-.603-22.984-1.08 7.535 4.94 15.022 5.17 22.464 4.903 18.683-.67 35.824-6.987 52.49-14.893 13.232-6.278 26.36-12.673 40.768-16.177 14.898-3.622 29.652-3.63 44.532-.613 21.11 4.28 40.884 12.053 59.093 23.524 16.062 10.12 31.663 20.978 47.808 30.957 30.9 19.098 64.411 31.985 99.916 39.24 18.268 3.731 36.966 5.976 55.627 3.184 11.802-1.765 23.462-4.714 35.026-7.738 7.158-1.87 13.49-5.837 18.516-11.379 2.19-2.413 4.164-5.273 5.357-8.28 1.871-4.71 1.108-9.306-3.296-12.487-3.223-2.327-6.464-4.977-10.126-6.278-9.06-3.219-18.274-6.12-27.605-8.427-7.083-1.75-14.418-2.576-21.684-3.46-4.809-.584-9.754-1.834-14.602 2.097M866.394 757.523c1.56-2.31 3.316-3.94 3.864-5.908 1.6-5.746 3.36-11.571 3.867-17.467.712-8.27.945-16.677.333-24.947-1.622-21.907-3.066-43.873-5.983-65.628-2.783-20.76-7.319-41.284-11.127-61.904-.603-3.272-1.464-6.495-2.155-9.751-1.421-6.697 1.108-11.828 6.668-15.385 3.632-2.325 7.65-4.036 11.404-6.183 9.522-5.445 19.088-10.823 28.46-16.52 11.379-6.918 22.379-14.478 33.898-21.149 20.787-12.037 41.128-24.683 59.777-39.9 1.547-1.263 3.272-2.318 4.76-3.642 3.715-3.303 7.453-3.711 11.789-1.002 4.513 2.82 9.419 5.014 13.929 7.837 26.443 16.552 55.585 27.083 84.415 38.407 33.93 13.328 69.199 21.71 104.578 29.885 11 2.54 21.799 6.05 32.55 9.547 6.14 1.996 7.957 2.908 6.987 11.824-5.016 46.096-6.688 92.368-4.651 138.69 1.404 31.924 3.644 63.823 6.018 95.695 1.583 21.244 4.007 42.427 6.19 63.624.339 3.275 1.24 6.53 2.25 9.676.32.993 2.342 2.451 2.727 2.225 1.224-.713 2.807-2.07 2.884-3.268.275-4.3.258-8.66-.133-12.954a6364.74 6364.74 0 00-5.9-61.654c-3.345-33.157-5.188-66.39-5.908-99.709-.886-41.008.178-81.931 4.406-122.75.583-5.626 1.34-11.235 1.893-16.864.52-5.318-1.716-9.031-6.837-10.818-9.416-3.287-18.681-7.171-28.304-9.672-18.361-4.772-37-8.467-55.396-13.113-31.398-7.93-61.405-19.9-91.38-31.98-22.332-8.998-43.535-20.203-63.74-33.113-10.251-6.551-18.238-5.38-26.884 2.09-22.782 19.689-48.378 35.336-74 50.934-5.97 3.635-11.83 7.5-17.433 11.67-10.73 7.98-21.862 15.225-34.152 20.586-.305.133-.595.299-.892.45-16.961 8.736-20.377 16.365-16.25 34.773 4.004 17.866 8.177 35.722 11.272 53.754 2.643 15.392 3.905 31.025 5.692 46.56.874 7.608 1.325 15.269 2.364 22.85 2.377 17.336 2.564 34.512-2.613 51.449-.153.502.309 1.193.764 2.755M965.805 2418.124c.941-1.11 2.113-2.097 2.79-3.352 6.4-11.879 15.52-21.555 24.651-31.31 14.34-15.317 28.383-30.917 42.347-46.579 3.298-3.7 6.041-7.97 8.597-12.244 13.853-23.163 27.602-46.388 41.313-69.635 6.626-11.233 14.265-21.66 22.95-31.419 26.62-29.913 50.85-61.684 73.123-94.96 4.626-6.91 9.605-13.594 14.638-20.217 1.276-1.679 3.385-2.723 6.452-5.097.81 10.307 1.383 19.147 2.232 27.961.83 8.621 1.69 17.252 2.995 25.81 1.355 8.88 3.162 17.695 4.95 26.503 1.704 8.391 3.64 16.735 5.532 25.377 4.686-1.408 3.705-4.586 3.39-6.792-1.32-9.225-3.045-18.392-4.577-27.587-7.43-44.61-9.585-89.365-3.9-134.368 8.65-68.487 34.038-130.563 72.293-187.567 25.08-37.372 51.293-73.949 81.606-107.36 9.178-10.116 18.7-19.92 28.151-29.784 1.827-1.908 3.802-4.154 6.154-4.989 7.017-2.49 8.233-8.257 8.664-14.327.325-4.588-.134-9.24-.404-13.856-.162-2.772-2.733-4.066-4.989-2.627-.83.53-1.51 1.292-2.279 1.925-4.04 3.341-8.087 6.674-12.717 10.494 1.197.441 2.563 1.451 3.764 1.281 2.532-.357 4.977-1.33 7.923-2.187.674 4.297.708 7.785-2.84 10.291-14.016 9.901-24.974 23.012-36.474 35.444-36.115 39.038-66.834 82.265-94.814 127.305-26.943 43.373-44.644 90.74-55.383 140.684-5.62 26.136-9.007 52.54-9.216 79.267-.048 6.243-1.994 10.285-6.68 14.465-5.637 5.025-10.306 11.297-14.704 17.516-12.117 17.136-23.704 34.646-35.852 51.76-5.383 7.581-11.58 14.59-17.467 21.81-24.434 29.967-49.246 59.774-68.039 93.701-18.284 33.01-42.027 61.56-67.778 88.687-10.21 10.756-18.688 22.561-24.442 36.25-1.236 2.94-2.178 6.005-3.255 9.013l1.295.713M2257.001 2211.814c-.127.242-.184.606-.198 1.181-.041 1.555.356 3.25.604 4.782.52 3.196 1.251 6.353 2.073 9.484 1.674 6.384 3.752 12.657 5.342 19.064 2.893 11.657 5.461 23.393 7.867 35.159 3.656 17.891 6.932 35.854 10.419 53.778 3.635 18.706 9.142 36.833 16.383 54.452 2.659 6.471 5.148 13.012 7.673 19.536 3.155 8.148 4.62 16.559 5.104 25.33.474 8.602 1.372 17.356 3.564 25.651 4.374 16.558 14.451 27.764 32.603 28.989 9.95.673 19.963.421 29.949.592 8.658.148 17.357-.18 25.966.554 19.812 1.689 33.33 13.478 38.082 32.704 2.492 10.078 3.319 20.19 2.246 30.688-1.454 14.219-1.991 28.583 1.206 42.745.438 1.944.954 3.896 1.692 5.742 1.965 4.912 4.714 6.578 10.038 6.326 7.901-.376 16.101-7.152 17.721-15.207.78-3.88.438-7.971.925-11.928.769-6.252 1.058-12.701 2.887-18.657 3.964-12.905 5.987-25.888 5.152-39.391-.299-4.842-.871-9.846.756-15.073 8.735.925 15.193 5.289 20.824 11.107 13.023 13.459 19.808 29.699 21.693 48.246 1.178 11.591 2.7 23.159 4.47 34.675 2.103 13.683 8.573 25.045 19.066 34.185 5.519 4.807 11.077 7.245 17.986 1.719 2.903 11.095 10.658 17.935 18.562 24.639a22.217 22.217 0 004.129 2.791c6.345 3.278 11.127 1.558 13.176-5.336 1.113-3.741 1.424-7.884 1.268-11.814-1.152-29.07-5.048-57.67-14.111-85.489-5.155-15.825-9.342-31.964-14.051-47.936-.985-3.34-1.11-7.3-6.124-9.521-.475 2.505-1.488 4.658-1.13 6.551 1.051 5.552 2.525 11.034 4.052 16.481 5.934 21.159 12.436 42.172 17.789 63.475 4.551 18.107 6.945 36.659 7.315 55.384.091 4.543.995 9.382-2.482 13.287-8.294-2.482-16.432-10.862-19.202-19.825-.784-2.539-.805-5.407-1.994-7.699-.855-1.65-3.068-2.595-6.433-5.231-1.235-2.427 2.55-8.521-2.463-13.021-5.62 5.077-2.52 13.235-7.833 18.78-1.714-.758-4.006-1.254-5.626-2.575-8.927-7.276-14.058-16.963-15.793-28.142-2.297-14.795-4.274-29.665-5.633-44.572-1.559-17.084-9.09-31.008-20.249-43.566-8.391-9.444-19.673-13.398-30.918-17.518-3.357-1.23-5.516 1.036-5.208 5.069.429 5.627 1.189 11.231 1.572 16.861 1.009 14.792-.868 29.101-5.624 43.285-2.603 7.761-3.148 16.276-4.094 24.512-1.029 8.97-4.529 12.896-14.546 14.686-3.004-3.476-3.004-7.86-2.867-12.113.519-15.972 1.061-31.947 1.912-47.904.507-9.509-.988-18.552-4.398-27.393-7.572-19.634-24.825-31.868-45.992-32.624-17.309-.619-34.613-1.373-51.918-2.072-1.332-.054-2.669-.082-3.991-.23-15.044-1.689-22.684-9.369-24.006-24.494-.492-5.629-.859-11.336-.494-16.956.636-9.837-.927-19.28-3.953-28.529-1.862-5.695-3.829-11.389-6.246-16.865-11.376-25.771-18.285-52.756-23.371-80.399-4.638-25.206-9.562-50.421-18.097-74.711-3.167-9.011-6.252-18.076-10.895-26.459-1.24.283-1.85.232-2.126.76M1203.88 2608.226c-5.654-9.671-10.958-19.575-17.137-28.898-2.467-3.723-6.46-6.945-10.467-9.042-11.644-6.093-16.322-16.48-17.839-28.402-2.27-17.854.835-34.462 13.608-48.358 8.168-8.887 14.692-18.83 18.482-30.538 2.108-6.51 4.616-7.772 11.31-7.397 4.98.28 9.948.972 14.887 1.712 14.094 2.11 25.662-2.13 34.346-13.551 4.434-5.83 8.903-11.66 12.908-17.784 7.817-11.955 18.316-18.77 32.863-19.797 7.581-.534 15.142-2.36 22.535-4.282 7.872-2.046 15.671-2.791 23.724-1.712 5.043.674 10.078.3 14.426-2.66 1.42-.965 2.253-2.791 4.984-6.341-10.754 3.74-19.093.803-27.556.54-3.943-.122-7.965.448-11.864 1.174-11.78 2.19-23.504 4.684-35.277 6.92-9.98 1.897-17.905 7.115-24.079 14.944-4.117 5.223-7.67 10.888-11.608 16.259-2.558 3.489-5.236 6.905-8.06 10.18-6.863 7.958-15.423 11.272-25.913 9.207-4.245-.836-8.525-1.517-12.81-2.124-12.845-1.822-18.29 1.39-23.13 13.522-5.39 13.507-11.758 23.316-21.642 32.878 0-3.51-.227-6.325.035-9.094 3.984-42.251-.16-83.782-10.843-124.755-1.595-6.121-2.946-12.304-4.558-18.42-2.76-10.468-.87-19.644 7.676-27.641l11 14.186 1.626-1.065c-2.86-5.46-6.023-10.786-8.495-16.416-2.323-5.291-3.918-10.904-6.472-18.201-1.748 3.03-3.155 4.324-3.078 5.52.522 8.164-2.664 15.025-7.3 21.293-3.19 4.312-4.45 8.735-3.2 14.023 1.913 8.087 3.163 16.349 5.412 24.335 5.606 19.91 10.205 40.007 12.653 60.56.512 4.294.753 8.628.952 12.95.473 10.315 1.274 20.637 1.16 30.948-.164 14.639-.869 29.279-1.703 43.898-.22 3.84-1.769 7.605-3.149 13.19-1.882-2.821-2.907-3.931-3.452-5.24-9.726-23.31-25.74-41.836-44.385-58.334-8.732-7.727-18.05-14.833-26.367-22.974-7.818-7.654-14.829-16.164-21.853-24.582-2.426-2.906-3.823-6.671-6.642-11.762l29.022 9.374c-1.382-4.534-5.12-4.681-8.067-6.05-3.015-1.401-6.23-2.361-9.273-3.706-3.349-1.48-6.669-3.054-9.876-4.816-2.83-1.555-5.489-3.426-8.32-5.22-2.74 3.675-1.51 6.986-.063 9.797 3.185 6.184 6.372 12.47 10.437 18.08 11.844 16.342 27.443 28.99 42.755 41.832 14.644 12.28 27.623 26.017 38.613 41.656 5.99 8.524 10.453 17.796 13.82 27.607.714 2.078.833 4.36.051 7.124-1.629-1.94-3.47-3.74-4.85-5.841-7.965-12.132-18.135-22.143-29.578-30.912-10.313-7.904-20.644-15.79-31.143-23.441-22.138-16.135-47.305-23.986-74.297-26.716-30.945-3.13-60.168 4.64-89.11 14.107-2.094.684-3.938 2.13-6.31 3.45 1.873 3.14 4.166 2.357 6.3 1.873 14.286-3.24 28.487-6.923 42.864-9.69 33.661-6.474 66.323-3.103 97.603 11.33 4.22 1.946 8.446 4.08 12.212 6.77 14.366 10.262 28.59 20.725 42.782 31.228 14.717 10.89 25.211 25.542 35.3 40.47 2.204 3.262 3.49 7.165 5.054 10.835 3.362 7.886 8.12 14.382 16.095 18.329 8.757 4.335 13.982 12.05 18.45 20.418 3.145 5.889 6.351 11.875 13.966 13.056z"/>
    <path d="M2649.965 778.396c-5.46-.079-7.668 3.205-9.632 5.894-6.868 9.4-13.784 18.817-19.86 28.731-9.248 15.092-15.596 31.63-22.686 47.807-5.868 13.39-12.142 26.733-19.648 39.252-25.934 43.26-55.276 84.053-89.74 121.054-12.26 13.164-23.76 27.033-35.725 40.477-28.005 31.47-59.797 58.838-91.968 85.897-29.641 24.931-61.8 46.43-92.39 70.041-16.882 13.031-33.931 25.89-50.181 39.68-17.438 14.797-30.8 33.14-41.873 53.104-1.527 2.754-3.897 5.682-1.242 9.328.9 0 1.997.314 2.783-.047a4111.504 4111.504 0 0038.793-18.095c.343-.162.279-1.184.538-2.46-6.763-3.874-13.132 1.806-20.7 1.547 3.515-8.673 7.119-16.51 13.003-22.785 7.728-8.242 15.479-16.703 24.387-23.553 27.469-21.122 55.537-41.463 83.29-62.216 57.478-42.98 112.902-88.189 159.622-143.242 21.77-25.654 45.13-49.947 64.807-77.375 16.524-23.033 32.769-46.263 46.484-71.078 6.907-12.494 12.87-25.59 18.252-38.824 8.294-20.392 16.504-40.783 28.118-59.57 3.843-6.22 8.286-12.068 12.404-18.121 1.002-1.474 1.803-3.086 3.164-5.445M2405.376 2105.462c.242-1.7 1.036-3.415.583-4.684-4.92-13.787-4.565-28.294-5.154-42.5-1.099-26.495-5.377-52.328-13.109-77.602-5.356-17.51-11.44-34.8-16.819-52.306-3.81-12.4-6.966-25-10.448-37.503-1.697-6.088-3.552-12.133-5.191-18.236-2.201-8.194-7.77-11.988-15.922-12.704-4.646-.409-9.331-.705-13.901-1.568-11.109-2.097-22.199-4.333-33.227-6.823-9.4-2.122-18.698-4.694-28.047-7.037-7.742-1.939-15.215-1.094-22.389 2.35-4.203 2.016-8.207 4.568-12.574 6.1-8.448 2.963-16.948 6.138-25.699 7.763-6.504 1.208-11.165 3.625-14.284 9.332-.59 1.078-1.718 1.861-3.22 3.43-2.459-5.626-2.436-10.855-2.371-16.06.024-1.982.632-3.966.569-5.935-.097-2.995-3.317-4.584-5.76-2.906-1.074.737-2.005 1.764-2.801 2.811-7.946 10.461-18.964 16.541-30.703 21.59-2.446 1.051-4.965 1.936-7.421 2.968-7.045 2.962-10.875 8.105-11.988 15.84-1.474 10.226-2.825 20.37-.025 30.797.373-1.829.816-3.647 1.102-5.489.612-3.948.986-7.94 1.735-11.86 3.844-20.127 2.878-19.026 20.258-25.429 8.957-3.298 17.25-8.397 25.842-12.682 4.404 9.456 6.041 21.92 3.135 31.27-2.758 8.867-6.086 17.58-9.613 26.175-1.359 3.31-3.474 6.644-6.098 9.026-4.846 4.401-6.988 9.845-7.125 15.951-.336 14.96-.961 29.976-.053 44.883.759 12.45.873 24.554-2.856 36.562-2.924 9.415-2.108 19.144-1.689 28.787.535 12.306 1.262 24.604 1.951 36.903.163 2.887-.716 6.122 2.444 8.244 4.067.438 5.758-2.843 7.611-5.396 7.73-10.645 8.689-23.43 10.918-35.852-6.5 9.193-7.377 20.95-12.738 30.62-.76-.162-1.519-.322-2.277-.482-.106-3.827-.129-7.658-.332-11.479-.421-7.983-.971-15.959-1.408-23.94-.566-10.378-.112-20.597 3.548-30.542 2.794-7.593 3.154-15.568 2.881-23.646a931.677 931.677 0 01-.539-36.966c.063-11.042 3.765-20.697 11.258-29.114 11.149-12.525 16.363-28.013 20.751-43.857 1.951-7.047 4.393-13.96 6.711-20.902 1.395-4.18 4.26-6.579 8.807-6.923 12.232-.926 23.291-5.267 33.691-11.595 7.801-4.748 16.223-5.817 25.012-3.434 4.809 1.303 9.795 2.351 14.263 4.45 16.252 7.632 33.331 11.814 51.185 11.946 8.92.066 13.569 3.95 15.63 12.07.327 1.29.919 2.515 1.202 3.811 7.452 34.24 19.787 67.04 29.712 100.548 7.802 26.345 12.348 53.154 13.279 80.608.181 5.313 1.02 10.6 1.433 15.91.206 2.63.493 5.334.121 7.915-1.143 7.92 1.458 12.625 10.149 16.792M1248.04 2747.224c-9.06-2.753-16.191-7.169-21.95-13.857-4.821-5.598-10.088-10.674-16.822-13.91-1.946-.936-4.157-1.32-6.543-2.047.135 1.425-.047 2.322.285 2.596 8.016 6.613 14.18 14.93 21.179 22.475 4.382 4.724 10.474 8.231 16.374 11.095 9.682 4.7 20.173 6.366 31.023 6.527 13.295.197 26.587 1.013 39.865 1.818 19.275 1.168 38.527 2.761 57.809 3.758 6.614.341 13.29-.599 19.942-.888 5.985-.26 11.997-.869 17.955-.55 13.148.705 23.743 8.505 29.485 21.733-6.491.454-12.66 1.044-18.84 1.291-27.952 1.114-55.91 2.086-83.862 3.236-3.92.161-7.81 1.023-11.632 2.658 7.42 0 14.844.077 22.264-.014 30.313-.374 60.624-.812 90.936-1.199 10.955-.14 11.986-1.93 6.85-11.307-9.58-17.484-24.112-26.12-44.15-25.149-5.324.258-10.64.75-15.967.853-7.633.148-15.27.038-22.302.038-3.049-3.946-5.35-7.532-8.237-10.562-21.714-22.808-34.426-49.35-35.8-81.276-.773-17.917 1.194-35.208 6.84-52.152 3.156-9.477 6.488-18.9 9.424-28.446 3.781-12.294 9.027-24.438 4.528-37.889 21.925 2.405 29.857-.608 32.62-13.026-3.467 1.527-6.344 2.852-9.264 4.07-16.799 7.01-27.047 1.096-29.709-17.094-1.142-7.8-.14-15.398 3.142-22.464 3.64-7.834 7.566-15.579 11.983-22.996 6.305-10.586 13.47-20.663 19.675-31.3 3.32-5.692 5.486-12.07 7.975-18.218.534-1.319.211-2.985.296-4.773-.962.377-1.459.417-1.549.63-6.862 16.153-19.02 28.823-28.354 43.34-6.278 9.763-12.077 19.93-17.047 30.412-4.339 9.153-5.893 19.143-2.546 29.195 1.36 4.082 2.43 8.591 4.956 11.892 7.428 9.704 6.233 19.876 2.61 30.206-4.738 13.51-10.022 26.826-14.873 40.297-7.07 19.64-10.342 39.723-9.05 60.784 2.088 34.04 15.706 62.17 40.587 85.144.687.634 1.17 1.49 2.273 2.926l-91.598-5.05c-.57-5.863-1.618-11.062-1.485-16.23.624-24.23-8.394-45.562-19.44-66.314-.668-1.254-2.128-2.085-4.824-4.624.635 3.993.613 5.91 1.26 7.565 2.548 6.51 5.332 12.927 7.983 19.398 6.714 16.38 8.235 33.517 7.267 50.985-.104 1.873-.87 3.71-1.542 6.413M903.747 416.258c-2.003-1.088-3.933-2.35-6.021-3.235-18.456-7.831-35.904-17.574-52.964-28.022-25.826-15.817-53.548-26.793-83.117-33.233a247.168 247.168 0 01-18.375-4.74c-4.422-1.327-9.01-2.636-12.37-7.366 1.098-6.687 6.574-9.988 12.066-12.924 3.178-1.698 6.852-2.576 10.393-3.466 28.173-7.081 55.425-16.857 82.269-27.854 7.089-2.904 14.127-6.003 21.39-8.396 22.597-7.446 45.776-9.341 69.006-4.244 19.172 4.206 37.993 9.992 57.007 14.934 27.709 7.202 55.268 15.129 83.235 21.147 24.4 5.25 49.368 7.418 74.304 9.376 11.89.932 23.643 3.576 35.469 5.375 2.479.377 5.004.45 9.378.823-1.962-3.423-2.562-5.991-4.123-6.894-3.983-2.298-8.235-4.654-12.67-5.54-9.124-1.82-18.405-3.421-27.68-3.84-49.942-2.253-98.317-12.7-146.071-26.821-19.794-5.853-39.691-11.41-59.701-16.473-30.61-7.744-60.727-5.881-90.193 5.84-18.254 7.262-36.49 14.622-55.02 21.13-13.168 4.628-26.755 8.117-40.265 11.706-7.587 2.016-14.433 5.15-20.154 10.483-2.165 2.018-4.208 4.337-5.7 6.875-4.77 8.11-3.35 14.763 4.574 19.67 3.9 2.417 8.355 4.198 12.79 5.428 8.338 2.312 16.813 4.159 25.284 5.947 24.969 5.27 48.489 14.383 70.904 26.462 19.95 10.75 39.846 21.613 61.706 28.177 1.237.372 2.486.702 3.73 1.053l.919-1.378M1425.809 2106.914c-.2 1.717-.296 3.384-.6 5.013-1.341 7.218-3.638 8.865-11.044 8.03-10.015-1.13-18.39-12.679-16.335-22.527 2.036-9.762 11.732-13.683 19.704-7.773 5.722 4.243 8.17 10.268 8.275 17.257m58.729 150.283c-9.02-19.06-20.381-37.256-25.986-58.016-3.71-13.743-11.764-23.722-24.465-29.917-3.46-1.687-4.846-4.25-5.076-7.845-.806-12.585-2.638-25.083 2.604-37.444 2.124-5.008 2.109-11.038 2.496-16.642.673-9.716-3.587-17.434-10.816-23.603-12.56-10.718-27.687-6.859-34.04 8.41-3.468 8.337-1.723 23.91 9.399 29.83 6.717 3.574 13.238 7.52 20.353 11.587 1.327 8.551 2.845 18.023 4.22 27.516.23 1.586-.057 3.278-.285 4.895-.725 5.137.07 8.13 4.569 9.264 15.5 3.906 19.217 17.092 24.24 29.39 1.382 3.38.695 6.444-1.127 9.491a2725.15 2725.15 0 00-15.721 26.653c-6.026 10.345-12.237 20.595-17.898 31.14-5.51 10.26-10.261 20.923-15.633 31.26-11.286 21.711-19.695 44.422-24.442 68.453-.613 3.105-1.663 6.236.298 10.754 1.204-2.964 2.114-4.673 2.604-6.497 7.214-26.835 17.419-52.424 31.25-76.574 3.967-6.925 7.377-14.186 10.756-21.427 6.518-13.965 14.279-27.072 24.592-38.643 4.13-4.635 7.595-9.863 12.328-16.092 1.935 4.531 3.414 7.723 4.676 11 4.187 10.871 8.36 21.75 12.395 32.678 1.33 3.606 3.81 5.404 7.457 5.567 3.65.164 7.318.142 10.97-.004 24.726-.987 49.414-.557 73.49 5.694 22.869 5.938 45.67 12.221 67.44 21.73 26.424 11.54 47.505 29.174 63.01 53.53 2.387 3.75 4.182 8.144 9.873 12.01-1.013-3.293-1.25-4.817-1.92-6.119-13.775-26.846-33.192-48.41-60.538-61.71-38.293-18.625-78.421-31.498-120.991-35.954-13.221-1.384-26.43-2.875-40.082-4.365M961.082 2719.733c-.731 4.921 1.475 8.007 3.219 11.012 8.883 15.297 18.5 30.182 30.667 43.051 13.95 14.758 28.135 29.372 43.148 43.026 17.76 16.154 34.991 32.763 51.363 50.311 5.209 5.583 10.99 10.683 16.847 15.602 10.038 8.431 21.854 12.523 34.898 13.17 9.315.461 18.648.684 27.94 1.418 14.732 1.164 28.574 6.134 42.636 10.268 25.228 7.418 50.388 15.26 75.981 21.18 17.428 4.03 35.49 5.65 53.365 7.32 16.556 1.545 33.234 1.873 49.868 2.4 4.252.134 8.667-.56 12.788-1.679 5.711-1.552 7.339-4.958 5.681-10.662-2.214-7.618-7.609-12.652-14.681-15.348-6.168-2.35-12.728-3.918-19.251-5.046-20.015-3.459-40.082-6.62-60.154-9.744-16.692-2.598-32.189-8.259-46.529-17.207-2.981-1.859-5.814-4.484-10.807-3.982.508 2.043.366 4.452 1.428 5.24 5.299 3.938 10.592 8.113 16.484 10.978 13.31 6.473 27.867 8.84 42.328 11.29 19.041 3.226 38.112 6.28 57.131 9.63 5.22.92 10.437 2.26 15.413 4.072 7.293 2.655 9.676 5.505 12.541 13.171-2.716 3.771-7.077 3.271-10.801 3.242-25.675-.198-51.237-2.159-76.687-5.594-39.128-5.28-76.68-16.986-114.324-28.233-16.117-4.815-32.373-7.653-49.207-7.022-3.326.125-6.665.034-9.994-.083-11.78-.415-22.333-4.258-30.714-12.585-9.684-9.62-18.78-19.833-28.285-29.639-7.64-7.883-15.433-15.62-23.292-23.286-17.165-16.744-35.053-32.804-51.417-50.293-12.01-12.837-22.069-27.5-32.996-41.353-3.297-4.18-6.488-8.453-9.954-12.49-.853-.995-2.588-1.234-4.633-2.135"/>
    <path d="M1204.025 2608.038c-6.936 17.686-13.904 35.24-29.4 47.79-10.302 8.342-22.57 11.05-34.9 13.91-6.486 1.504-13.007 2.864-19.517 4.265-10.758 2.315-19.826 7.585-27.4 15.53-1.345 1.411-2.867 2.656-4.327 3.996-24.398-12.819-41.83-31.942-54.884-55.464-9.586-17.27-16.804-35.508-22.79-54.278-1.06-3.322-1.501-7.07-5.633-9.43-2.248 4.398-1.351 8.31-.282 11.93 2.73 9.248 5.226 18.642 8.937 27.508 7.61 18.184 17.029 35.404 29.718 50.696 9.206 11.094 19.218 21.238 31.34 29.181 2.73 1.788 5.215 3.95 7.745 5.888-17.808 33.354-11.657 65.08-2.808 83.731-.8-7.154-1.35-14.347-2.44-21.456-4.468-29.146 6.777-52.137 27.999-70.996 3.854-3.424 8.913-5.93 13.842-7.616 11.966-4.09 24.076-7.867 36.324-10.999 16.369-4.187 28.964-13.342 37.947-27.37 4.656-7.27 8.269-15.199 12.65-22.656 3.186-5.42 6.465-10.882 10.454-15.703 2.644-3.196 6.616-5.292 9.996-7.882 6.653 3.623 9.582 8.838 9.098 15.133-.607 7.903-2.023 15.803-3.813 23.537-1.113 4.811-3.176 9.515-5.482 13.916-8.307 15.856-14.483 32.8-26.134 46.94-9.628 11.682-16.507 25.048-17.547 40.677-.154 2.322-.63 4.684-.376 6.963 1.942 17.498-1.472 34.497-4.574 51.533-.271 1.488-.502 2.983.882 5 1.157-2.967 2.506-5.875 3.435-8.912 4.232-13.838 5.638-28.169 5.443-42.476-.21-15.407 4.246-28.823 13.372-40.946 2.604-3.459 5.089-7.025 7.899-10.312 10.089-11.802 17.205-25.255 22.873-39.626 5.274-13.372 9.71-26.91 11.499-41.257 1.317-10.558-2.677-18.826-10.154-25.822-2.747-2.569-5.707-3.45-8.93-.892-6.755 5.36-13.473 10.768-20.207 16.156zM2566.401 901.6c.537-4.486 1.038-7.334 1.194-10.2.923-16.967 6.26-32.644 14.12-47.503 14.505-27.423 33.312-51.097 58.308-70.045 29.268-22.188 59.71-42.584 91.858-60.12 30.94-16.874 58.99-37.41 85.646-60.18 15.728-13.432 30.844-27.47 44.417-43.101 2.505-2.884 5.972-5.398 5.318-9.84-3.13-2.547-5.502-.698-7.394.972-4.734 4.18-9.417 8.463-13.714 13.083-21.658 23.28-46.289 43.049-71.904 61.719-15.126 11.026-31.536 19.789-47.836 28.88-32.859 18.326-65.1 37.626-94.96 60.798-28.224 21.9-47.599 49.992-61.338 82.384-5.36 12.635-8.569 25.937-8.472 39.806.03 4.203-.626 8.759 4.757 13.347M1409.115 2435.563c2.693-1.746 5.517-3.321 8.06-5.264 18.023-13.775 31.915-31.072 42.95-50.768.977-1.741 1.89-3.537 2.635-5.386 4.02-9.986 10.626-14.035 22.089-14.436 18.236-.638 36.397-3.919 54.548-6.384 28.713-3.899 57.367-8.234 86.096-12.008 13.624-1.789 27.304-1.554 40.589 2.687 3.788 1.21 7.558 2.665 11.073 4.511 13.109 6.883 20.102 17.656 18.055 32.617-2.094 15.306.649 29.75 4.85 44.294 1.92 6.641 3.099 13.717 3.204 20.617.232 15.175 2.159 29.867 8.324 43.861 1.204 2.732 2.004 5.652 2.863 8.523 3.112 10.405 4.224 20.854.905 31.478-2.78 8.898-5.396 17.848-8.01 26.797-.692 2.376-1.108 4.832-2.18 9.604 3.084-2.74 4.455-3.61 5.37-4.823 11.143-14.769 16.512-31.253 13.049-49.69-1.774-9.442-4.381-18.851-7.778-27.834-4.667-12.339-7.544-24.856-7.222-38.017.225-9.192-1.96-17.883-5.092-26.337-4.134-11.153-6.521-22.367-3.485-34.211.327-1.275.284-2.647.385-3.977 1.558-20.385-6.547-33.733-25.51-41.649-16.35-6.826-33.61-8.609-51.002-7.242-16.918 1.33-33.728 4.034-50.583 6.154-34.035 4.28-68.06 8.652-102.118 12.742-3.421.411-5.641 1.524-7.108 4.418-2.26 4.456-4.568 8.892-6.68 13.419-10.72 22.979-25.864 42.648-44.576 59.637-1.706 1.549-3.82 2.649-5.743 3.958.68.903 1.36 1.806 2.042 2.709M1788.855 1596.203c-2.348-1.036-4.64-2.228-7.05-3.084-24.518-8.713-49.39-16.015-75.319-19.274-8.582-1.079-17.14-2.464-25.64-4.07-27.719-5.24-55.752-3.748-83.698-4.189-4.865-.076-9.848.538-15.079-1.34 1.446-6.293 5.65-9.659 10.146-12.18 7.53-4.224 15.142-8.677 23.27-11.385 26.003-8.663 52.421-11.672 79.616-4.968 33.281 8.203 66.668 16.034 100.175 23.253 25.04 5.394 50.276 9.963 75.557 14.096 11.45 1.872 23.207 2.037 34.843 2.506 6.131.248 11.96.486 16.564 5.274.544.566 1.792.457 3.094.745 1.485-4.147-.917-7.343-2.61-10.23-.844-1.439-3.841-2.16-5.906-2.249-9.972-.427-19.957-.507-29.937-.753-22.101-.544-43.643-4.962-65.081-9.807-40.26-9.099-80.462-18.453-120.672-27.773-28.077-6.508-56.16-7.232-83.96.92-9.5 2.785-18.573 7.197-27.593 11.401-6.13 2.857-10.824 7.772-14.467 13.465-1.585 2.48-2.937 5.284-3.618 8.126-1.196 4.995.7 7.632 5.794 8.338 3.947.546 7.969.77 11.957.76 14.654-.038 29.318-.634 43.958-.254 13.948.361 27.955 1.005 41.785 2.73 22.12 2.758 44.17 6.204 66.144 9.975 11.788 2.023 23.357 5.32 35.019 8.063 4.13.972 8.247 2.011 12.369 3.02zM2219.034 2020.13c4.057 1.782 7.192 2.71 9.84 4.403 9.252 5.914 18.227 12.265 27.513 18.127 11.81 7.454 23.728 14.748 35.794 21.776 3.691 2.149 7.993 3.285 12.075 4.71 3.484 1.219 7.022 1.506 11.74-.662-2.356-1.828-3.793-3.644-5.635-4.264-20.154-6.793-37.672-18.223-54.846-30.406-8.404-5.962-17.25-11.325-26.086-16.642-2.78-1.672-6.103-2.821-9.314-3.314-5.574-.857-9.477 2.335-8.814 7.922.652 5.5 2.1 11.239 4.647 16.118 7.416 14.207 15.814 27.978 27.905 38.736 15.922 14.165 32.272 27.859 48.688 41.454 18.728 15.51 37.793 30.614 56.603 46.027 36.547 29.947 65.502 66.182 88.54 107.298 4.03 7.192 8.243 14.28 13.92 20.722-.396-1.461-.583-3.02-1.217-4.368-16.1-34.164-34.24-67.048-59.594-95.452-18.702-20.952-39.843-39.296-61.275-57.298-23.468-19.712-47.257-39.043-70.915-58.532-13.797-11.365-24.762-25.105-33.84-40.413-2.657-4.48-5.312-9.007-5.729-15.942M1323.97 1157.72l-3.342 12.358c2.534-1.293 4.372-1.601 4.92-2.611 3.643-6.711 7.335-13.434 10.345-20.437 1.798-4.183-1.238-7.384-5.673-6.49-2.585.522-5.088 1.578-7.543 2.597-49.93 20.695-101.316 37.146-152.962 52.904-17.828 5.44-35.285 12.103-52.863 18.339-14.728 5.225-28.998 11.962-44.95 12.968-2.866.18-5.29 1.519-5.448 4.764-.155 3.184 2.136 5.146 4.84 5.466 6.581.779 13.277 1.704 19.842 1.272 11.555-.76 23.047-2.485 34.615-3.813-.077-4.333-.077-4.333-7.999-8.457 10.337-3.694 19.854-7.411 29.568-10.505 26.347-8.398 52.902-16.155 79.141-24.87 29.721-9.87 59.237-20.38 87.788-33.38 2.963-1.347 5.97-3.344 9.721-.104M2307.667 1950.381c6.633 1.966 11.512 7.088 16.929 11.125 5.512 4.107 10.521 8.891 17.134 14.567-1.115-9.293-5.094-15.192-9.55-20.755-1.844-2.302-4.36-4.103-6.709-5.956a5646.45 5646.45 0 00-33.811-26.469c-1.24-.964-2.773-1.552-5.109-2.827-.44 2.49-1.123 4.243-.932 5.894.183 1.571 1.285 3.033 1.977 4.546 13.425 29.375 26.853 58.748 40.273 88.124 11.77 25.761 23.384 51.63 40.329 74.562 7.314 9.898 15.191 19.383 22.856 29.02 1.24 1.56 2.691 2.955 4.083 4.39 6.59 6.79 10.225 13.882 7.107 24.115-3.198 10.502-3.345 21.695-2.347 32.722.537 5.935 1.456 11.823 6.134 17.98.727-2.404 1.614-3.777 1.444-5.003-3.104-22.22 2.776-42.924 10.69-63.24 2.688-6.897 2.626-8.27-4.127-9.872-5.015-1.189-8.245-4.395-11.074-8.007-12.321-15.729-24.957-31.253-36.476-47.56-23.939-33.89-42.844-70.553-57.802-109.248-.831-2.147-1.397-4.398-2.024-6.618-.057-.2.339-.528 1.005-1.49"/>
    <path d="M1162.503 2587.636c-.323-1.882-.133-4.003-1.046-5.406-1.797-2.76-3.895-5.505-6.432-7.564-4.895-3.973-9.843-8.095-15.362-11.05-27.698-14.827-57.299-20.971-88.649-18.196-3.626.32-7.302.934-10.775 1.994-35.925 10.97-65.895 29.878-84.793 63.63-8.609 15.376-18.308 30.087-24.133 46.99-7.528 21.847-9.468 44.163-7.712 66.938.431 5.589 1.621 11.243 3.333 16.589 8.28 25.865 21.372 48.649 42.76 66.143 18.215 14.897 37.305 28.129 60.896 32.849 8.4 1.68 17.014 2.295 25.681 2.206-5.548-.937-11.098-1.868-16.645-2.813-14.669-2.5-28.135-8.015-40.469-16.29-13.324-8.937-26.134-18.675-36.466-30.953-21.99-26.13-34.173-55.606-31.722-90.782 1.93-27.686 10.26-52.74 24.715-76.08 1.402-2.265 2.865-4.505 4.084-6.87 10.65-20.654 26.378-36.235 45.711-49.113 26.171-17.433 53.986-23.383 84.633-16.69 23.475 5.128 44.971 14.325 63.418 30.079 2.336 1.995 4.144 5.467 8.973 4.389M1327.268 2347.153c-.367-4.846-2.689-7.655-4.548-10.66-7.36-11.9-14.794-23.753-22.042-35.72-9.708-16.028-17.017-33.113-22.97-50.892-12.442-37.157-20.048-75.286-23.637-114.224-1.71-18.56-3.893-37.22-3.574-55.796.826-48.074 6.208-95.667 18.525-142.342 4.48-16.974 7.864-34.238 10.05-52.134-1.144 1.67-2.743 3.19-3.352 5.036-2.609 7.898-4.872 15.91-7.36 23.849-8.079 25.77-15.07 51.825-19.23 78.529-2.048 13.149-3.205 26.444-4.548 39.694-2.962 29.228-3.778 58.459-1.258 87.812 3.61 42.04 12.44 82.85 25.516 122.962 10.968 33.645 27.474 64.219 47.395 93.174 2.73 3.967 5.321 8.186 11.033 10.712M1056.39 1145.557c.667-2.246 1.112-3.752 1.669-5.63 1.472-.19 3.09-.43 4.716-.606 10.58-1.148 21.252-1.758 31.72-3.548 14.517-2.482 29.037-3.943 43.742-3.264 32.758 1.509 65.207-1.347 97.507-6.612 23.987-3.91 47.994-7.705 72-11.5 11.829-1.87 23.64-3.923 35.527-5.312 7.086-.828 14.439-2.476 22.005 1.288l-2.971 10.444c7.24-2.293 12.113-10.865 9.869-16.67-1.263-3.268-4.106-4.34-7.181-4.483-7.626-.357-15.397-1.46-22.874-.473-26.402 3.479-52.706 7.702-79.044 11.657-22.39 3.362-44.703 7.375-67.184 9.906-16.173 1.822-32.571 2.343-48.863 2.252-22.071-.123-43.83 1.474-65.535 5.706-14.767 2.879-29.832 2.609-44.627-1.078-1.614-.402-3.2-.94-4.828-1.263-2.518-.496-4.79.088-5.827 2.615-1.287 3.134.656 5.025 3.144 6.419 1.152.645 2.438 1.064 3.685 1.526 7.47 2.77 14.947 5.523 23.35 8.626M1708.985 2618.336c-8.538 8.128-4.88 15.85-4.683 23.028-.317.58-.484 1.353-.963 1.706-11.488 8.481-17.974 20.224-22.418 33.48-4.334 12.923-8.413 25.937-16.632 37.245-2.77 3.812-5.225 5.066-9.807 4.617-7.696-.755-15.253-1.737-22.228-5.236-7.963-3.995-15.83-4.232-24.075-.658-5.17 2.241-10.62 3.938-16.075 5.396-4.459 1.192-5.599 3.88-5.419 8.291 9.796-5.23 20.104-7.227 30.093-10.043 3.285-.926 7.538-.566 10.733.726 11.271 4.557 23.064 6.364 35.742 7.723l-6.206 9.533c4.688 1.083 8.276 1.538 11.571 2.776 3.327 1.252 6.363 3.28 10.473 5.472-2.008 1.382-2.895 2.396-3.97 2.673-17.236 4.44-31.42 14.131-44.844 25.368-10.727 8.98-21.739 17.631-32.823 26.171-21.075 16.236-45.738 22.521-71.607 25.277-22.72 2.422-44.416-2.176-65.7-9.605a6212.082 6212.082 0 00-37.775-13.05c-.825-.282-1.829-.036-3.395-.036 1.31 4.321 4.77 5.824 7.83 7.161 10.061 4.397 20.138 8.838 30.48 12.5 22.527 7.974 45.64 11.96 69.708 9.695 31.4-2.953 59.64-13.12 83.604-34.21 10.753-9.463 21.89-18.498 33.006-27.538 9.675-7.867 20.617-13.532 32.578-17.019 4.653-1.356 9.553-1.863 14.906-2.863-1.333-5.965-6.472-7.71-10.374-10.248-4.063-2.642-8.755-4.317-13.733-6.682 3.237-1.432 6.554-2.714 9.66-4.39.885-.478 1.477-2.068 1.58-3.204.055-.637-1.063-1.81-1.838-2.008-2.549-.646-5.183-.957-8.555-1.526.9-1.962 1.36-3.847 2.458-5.22 5.708-7.135 9.596-15.149 12.348-23.817 1.41-4.439 3.317-8.717 4.877-13.11 3.884-10.944 9.83-20.466 19.483-27.173 5.05-3.51 6.801-7.723 5.323-13.69-1.254-5.063-1.979-10.256-3.333-17.512M1492.705 1672.775c2.72-1.746 4.73-3.707 7.12-4.464 17.753-5.617 35.416-11.635 53.423-16.307 31.212-8.098 62.921-9.8 95.08-6.375 31.445 3.351 62.877 6.722 93.954 12.584 33.112 6.247 65.554 14.771 95.67 30.61 11.186 5.883 22.732 11.091 34.218 16.384 2.796 1.288 6.854 4.33 8.87.545 2.257-4.238-2.862-5.164-5.556-6.468-12.578-6.094-25.324-11.842-37.905-17.93-40.314-19.508-83.263-29.63-127.342-35.464-26.717-3.535-53.477-7.132-80.335-9.058-15.483-1.112-31.448-.457-46.759 2.06-28.192 4.636-56.063 11.225-84.062 17.033-1.62.336-3.21.888-4.756 1.491-10.198 3.977-10.612 7.111-1.62 15.36M1459.92 1128.552c-2.813 2.206-4.36 3.176-5.612 4.437-17.039 17.174-30.523 36.812-41.476 58.38-16.906 33.288-27.692 68.373-33.12 105.266-3.538 24.035-7.738 47.974-11.759 71.936-.658 3.92-2.245 7.7-2.749 11.628-.199 1.553 1.014 3.802 2.304 4.84.793.639 3.344.067 4.41-.81 2.288-1.878 4.313-4.163 6.115-6.533 8.183-10.76 18.051-19.567 29.893-26.1 18.145-10.01 32.96-23.694 44.5-40.824 9.484-14.076 18.643-28.372 27.78-42.678 2.25-3.525 4.327-7.303 4.763-12.644-4.516 1.908-5.708 5.52-7.667 8.332-9.327 13.386-18.37 26.973-27.896 40.214-10.463 14.544-23.635 26.104-39.616 34.426-10.937 5.695-21.082 12.599-30.782 22.4-.315-2.28-.732-3.397-.573-4.427 4.49-29.282 8.526-58.647 13.706-87.808 6.49-36.53 21.302-69.996 40.61-101.431 5.89-9.592 13.646-18.04 20.521-27.03 2.324-3.038 5.325-5.7 6.647-11.574M1551.814 1494.363c5.423-.738 7.952-3.508 10.801-5.524 32.653-23.109 66.57-44.18 101.713-63.282 15.863-8.622 32.51-15.294 49.91-20.113 21.946-6.08 42.946-14.35 61.756-27.452 8.742-6.088 17.18-12.608 25.893-18.738 10.078-7.09 20.125-14.263 32.782-16.338 1.473-.24 3.62-2.448 3.65-3.782.03-1.43-1.885-3.952-3.273-4.2-10.12-1.807-20.317-4.292-30.496-4.316-8.804-.022-17.97 1.884-26.348 4.766-15.802 5.436-31.66 10.01-48.715 11.811.916.277 1.817.647 2.753.806.978.167 1.99.133 2.988.188 11.792.652 23.175-1.449 34.437-4.79 7.003-2.079 14.136-3.744 21.259-5.386 8.272-1.907 16.515-1.154 25.618.766-1.077 1.35-1.613 2.467-2.5 3.066-12.131 8.203-24.483 16.09-36.442 24.536-20.078 14.177-42 24.468-65.556 31.058-17.122 4.79-33.458 11.211-48.756 20.17-31.332 18.346-61.947 37.827-91.528 58.898-5.146 3.665-10.029 7.711-14.883 11.764-1.613 1.348-2.75 3.266-5.063 6.092M1836.826 1967.548c1.72-.796 3.514-1.462 5.146-2.409 14.38-8.35 28.58-17.029 43.127-25.073 23.356-12.914 47.63-23.719 73.587-30.426 11.936-3.083 23.526-3.234 35.15 1.762 20.994 9.022 42.108 7.811 63.201-.086a724.303 724.303 0 0130.142-10.543c10.684-3.472 21.497-6.552 32.708-9.939-2.434-2.858-5.892-2.94-9.31-2.27-5.542 1.086-11.074 2.32-16.503 3.87-14.713 4.197-29.298 8.855-44.065 12.841-16.067 4.335-32.368 5.681-47.842-1.889-19.029-9.308-37.998-7.708-57.263-1.462-21.638 7.016-42.159 16.406-61.119 29.016-12.19 8.108-24.234 16.441-36.246 24.815-4.266 2.974-8.807 5.746-11.947 10.004l1.234 1.79M2664.664 314.525c7.78-1.65 13.258 1.118 18.47 4.56 3.046 2.01 5.721 4.581 8.766 6.594 2.18 1.442 4.684 2.838 7.79-.323-4.945-7.802-10.843-14.77-19.782-18.11-6.503-2.43-13.396-3.879-20.196-5.41-2.529-.57-5.335-.467-7.929-.086-5.265.773-6.892 3.657-4.845 8.467 2.8 6.576 7.285 11.966 12.912 16.265 11.38 8.694 23.154 16.698 36.121 23.048 20.044 9.814 41.058 13.02 63.07 11.446 29.506-2.11 57.49-10.665 85.27-20.07 3.664-1.24 7.655-2.36 9.365-7.238-2.29-2.228-4.822-1.745-7.328-1.078a3169.152 3169.152 0 00-24.096 6.5c-23.17 6.363-46.609 11.337-70.7 12.076-31.804.974-59.423-9.508-82.594-31.419-1.369-1.295-2.423-2.924-4.294-5.222M815.486 2448.524c1.594-1.826 3.209-3.635 4.78-5.482 8.403-9.882 16.657-19.894 25.225-29.631 10.922-12.412 24.266-22.117 38.76-29.521 10.802-5.52 20.252-12.466 29.749-19.684 8.218-6.246 16.702-12.15 25.174-18.053 46.074-32.113 87.47-69.754 127.987-108.416 12.286-11.724 24.133-23.908 36.153-35.91 1.086-1.084 1.965-2.375 2.409-4.155-7.303 4.476-13.952 9.663-20.291 15.343-31.008 27.788-61.71 55.936-93.287 83.064-31.357 26.939-64.627 51.37-100.245 72.587-12.824 7.639-24.701 16.945-36.621 26.002-13.455 10.222-23.278 23.699-31.911 38.06-2.991 4.975-7.1 9.338-7.882 15.796M2584.8 2448.67c2.189-6.587 2.064-8.079-1.58-9.618-2.698-1.139-5.733-1.592-8.667-2.028-2.288-.34-4.656-.333-6.978-.226-24.81 1.143-49.133-2.566-73.316-7.448-20.243-4.088-40.486-7.812-61.26-8.086-5.86-.077-11.786-1.63-17.512-3.149-3.877-1.028-5.663-4.11-5.412-8.442.404-6.975.16-13.99.646-20.959 1.328-19.038-.177-37.919-2.951-56.718-.633-4.289-.776-9.143-6.4-13.614-.044 5.895-.28 10.076-.074 14.234 1.232 24.961 1.3 49.916-.677 74.834-.67 8.435 2.39 14.296 10.158 17.445 3.655 1.483 7.488 2.83 11.365 3.412 20.379 3.058 40.83 5.634 61.19 8.808 15.444 2.407 30.74 5.762 46.195 8.083 7.19 1.08 14.599.676 21.907 1.002 11.213.5 22.556-1.592 33.367 2.47M2504.55 582.82c-5.897-1.365-9.707.328-13.097 1.994-15.524 7.63-30.993 15.394-46.237 23.566-7.32 3.923-14.183 8.731-21.105 13.358a41529.341 41529.341 0 00-108.744 72.897c-5.796 3.902-11.428 8.083-16.892 12.443-14.501 11.567-26.62 25.07-34.32 42.252-3.262 7.283-7.342 14.198-10.95 21.332-.976 1.933-1.58 4.056-2.607 6.76 5.004-.193 6.598-3.324 8.26-5.954 3.914-6.19 8.026-12.325 11.208-18.894 8.968-18.512 22.703-32.743 39.035-44.723 8.325-6.105 16.784-12.038 25.324-17.84 30.309-20.595 60.639-41.159 91.035-61.623 24.84-16.722 49.722-33.395 79.09-45.569"/>
    <path d="M1365.56 2325.016c.046-.257-.012-.563-.216-.957-1.33-2.564-3.026-4.708-4.687-7.023-8.757-12.168-17.131-24.495-24.18-37.839-25.484-48.246-45.961-98.327-57.867-151.718-3.55-15.917-7.09-31.837-10.705-47.739-.575-2.53-1.523-4.975-2.51-8.137-3.76 3.434-3.155 7.087-2.622 10.565 1.862 12.167 3.224 24.46 5.957 36.433 4.223 18.496 9.418 36.77 14.2 55.138 11.286 43.34 30.85 82.95 54.91 120.427 6.277 9.778 13.947 18.67 21.092 27.877 1.222 1.575 2.822 2.811 4.32 4.107.126.11.257.221.415.275.63.215 1.784-.799 1.893-1.409M2142.439 1911.752c-9.503 6.147-16.016 14.654-18.611 25.808-3.952 16.985-4.804 34.221-3.28 51.592 2.323 26.451.949 52.917.11 79.487-11.562-29.828-20.3-60.169-20.12-92.991-.827 1.421-2.358 2.837-2.37 4.265-.096 11.954-1.18 24.086.45 35.829 3.253 23.454 10.174 46.103 18.946 68.119 1.964 4.927 4.498 9.642 7.029 14.314.47.868 2.314 1.619 3.293 1.399.92-.208 1.76-1.676 2.216-2.766.353-.844.205-1.985.029-2.949-3.617-19.836-1.69-39.845-1.891-59.786-.155-15.31-.33-30.62-.358-45.931-.02-10.973.03-21.951.336-32.919.314-11.219 3.604-21.578 9.73-31.045 2.3-3.555 4.265-7.327 6.384-11a2344.1 2344.1 0 01-1.894-1.426M1302.466 1002.952c-8.958-21.072-17.922-42.142-26.872-63.218-7.81-18.394-14.59-37.144-19.59-56.517-4.922-19.075-11.712-37.456-20.839-54.935-7.853-15.04-15.618-30.133-23.77-45.012-4.726-8.624-7.753-17.749-8.637-27.395-.503-5.495.587-11.155 1.148-16.722.44-4.347-.83-6.434-4.838-7.22-8.29-1.624-12.437 1.953-10.627 10.346 1.954 9.065 4.393 18.16 7.895 26.72 4.27 10.433 9.698 20.413 14.937 30.427 5.55 10.607 11.51 20.998 17.21 31.53 9.064 16.747 15.981 34.358 21.081 52.704 5.806 20.886 13.512 41.066 22.83 60.633 7.866 16.52 15.728 33.043 23.67 49.526 1.575 3.268 3.507 6.363 5.275 9.538.376-.134.752-.269 1.127-.405M2677.008 2603.78c-4.278-1.927-7.771-3.054-10.784-4.944-7.048-4.42-14.357-8.626-20.687-13.955-19.415-16.348-37.447-34.07-51.431-55.51-2.286-3.504-4.112-7.506-9.356-10.79.547 3.088.443 4.931 1.186 6.322 6.639 12.407 14.925 23.647 24.648 33.812 14.754 15.422 29.877 30.456 47.886 42.153 4.434 2.88 9.148 5.64 14.12 7.306 8.055 2.7 12.164-.676 12.228-9.037.042-5.52-1.426-10.615-4.975-14.853-3.628-4.333-7.382-8.597-11.42-12.543-13.196-12.899-24.15-27.435-33.524-43.332-8.975-15.218-18.107-30.319-24.621-46.8-2.32-5.867-4.33-11.864-6.252-17.873-2.145-6.699-5.735-11.743-12.583-13.486-3.076 2.667-2.156 4.878-.331 6.508 4.234 3.786 5.169 9.005 7.177 13.931 5.52 13.546 11.004 27.228 18.066 39.991 8.207 14.831 17.619 29.064 27.382 42.94 6.478 9.208 14.466 17.357 21.83 25.936 3.033 3.535 6.34 6.842 9.263 10.464 2.843 3.523 3.828 7.595 2.178 13.76M876.215 2715.534c-2.214-1.216-4.347-2.62-6.657-3.616-13.287-5.72-25.255-13.486-35.973-23.16-20.057-18.105-41.24-34.799-63.202-50.509-4.36-3.119-6.428-6.486-6.655-12.273-1.107-28.307.437-56.579.777-84.856.143-11.898 2.316-23.878 4.602-35.619 3.876-19.905 14.246-36.404 28.63-50.516 3.928-3.854 7.652-7.915 11.47-11.882l-1.39-1.49c-3.102 2.721-6.207 5.437-9.303 8.164-18.363 16.181-29.694 36.323-35.158 60.186-5.102 22.277-5.587 44.844-6.336 67.486-.539 16.29-1.63 32.591-3.346 48.795-.707 6.69 1.423 10.511 6.594 14.136 18.272 12.807 36.393 25.833 54.427 38.972 6.995 5.096 13.621 10.701 20.391 16.102 10.217 8.153 21.221 14.988 33.421 19.761 2.277.891 4.767 1.235 7.16 1.831zM2477.567 2380.58c3.323-2.833 1.735-5.833 1.104-8.528-4.73-20.198-11.632-39.627-22.046-57.607-12.748-22.01-27.893-42.245-46.755-59.464-16.23-14.816-32.65-29.422-48.988-44.12-.247-.222-.508-.429-.76-.647-9.062-7.804-18.678-15.14-23.738-27.27-.356 1.667-1.123 3.365-.996 4.994.463 5.92 3.453 10.73 7.51 14.846 4.44 4.505 9.033 8.86 13.64 13.197 14.79 13.925 29.662 27.763 44.421 41.721 33.334 31.524 57.04 69.15 71.427 112.708 1.153 3.492 1.236 7.848 5.181 10.17M2053.879 1539.19c.496-3.495 1.148-6.976 1.467-10.485 6.005-66.076 30.008-125.188 69.01-178.497 11.594-15.849 24.739-30.652 33.308-48.543 4.022-8.397 7.613-17.008 11.164-25.62 1.22-2.96 1.726-6.214 1.23-9.968-1.061 1.372-2.376 2.616-3.142 4.135-9.178 18.206-20.325 35.135-32.408 51.535-33.936 46.057-59.247 96.46-74.322 151.708-4.37 16.018-6.85 32.566-9.838 48.936-.765 4.191-.327 8.641-.097 12.953.073 1.363 1.27 2.665 1.954 3.995l1.674-.15M1383.7 2408.351c-6.29-7.83-8.112-16.522-15.72-21.82.805 7.38 9.393 24.464 15.78 31.646 1.556-1.593 3.419-2.933 4.529-4.738 4.013-6.52 8.074-13.042 11.575-19.842 16.02-31.117 38.96-55.35 70.24-71.425 1.185-.609 2.328-1.313 3.55-1.833 4.45-1.892 6.058-5.522 4.648-9.75-1.984-5.95-4.415-11.819-7.306-17.384-3.818-7.352-8.267-14.375-12.2-21.119 6.042-12.199 4.89-18.09-5.696-29.585-2.017 2.965-1.108 5.714-.125 8.304 1.974 5.2 3.183 10.048-1.578 14.688-2.533 2.467-1.272 5.52.414 8.25 3.496 5.664 6.989 11.334 10.313 17.1 1.488 2.581 2.733 5.336 3.787 8.126 1.515 4.008 2.755 8.12 4.217 12.505-4.678 4.451-10.028 7.156-15.15 10.022-10.004 5.597-18.554 12.804-26.371 21.15-13.74 14.67-25.962 30.332-34.86 48.482-2.745 5.6-6.276 10.812-10.047 17.223M2279.253 2009.138c-11.347-7.445-22.57-15.09-34.076-22.28-12.138-7.584-24.471-14.867-36.882-21.998-3.864-2.221-7.91-4.745-14.255-4.186 2.236 1.889 3.34 3.032 4.635 3.883a45645.78 45645.78 0 0080.165 52.58c3.614 2.364 7.237 4.799 11.134 6.6 1.395.646 3.972.006 5.323-.984.873-.64 1.095-3.23.56-4.51-1.264-3.043-3.101-5.86-4.797-8.713-6.97-11.734-14.31-23.262-20.886-35.211-10.648-19.346-16.471-39.926-14.311-62.32.297-3.073 1.662-7.844-2.6-8.536-4.253-.692-4.442 4.237-5.133 7.26-2.345 10.259-1.542 20.529.734 30.703 4.27 19.092 12.743 36.375 22.972 52.884 2.792 4.506 5.648 8.972 8.475 13.455zM2045.576 1516.308c.336-12.43-2.327-22.476-4.783-32.38-3.926-15.828-9.075-31.35-13.404-47.082-6.713-24.402-13.467-48.8-19.657-73.338-6.719-26.638-8.287-53.932-9.18-81.28-.546-16.641-.812-33.327-2.388-49.881-.706-7.417-4.187-14.604-6.695-21.796-.744-2.13-2.284-4.082-3.82-5.79-.714-.791-2.51-1.356-3.414-1.001-.804.316-1.545 2.093-1.44 3.137.197 1.953.893 3.893 1.613 5.749 5.014 12.919 6.337 26.499 7.41 40.147 1.93 24.575 3.125 49.247 6.22 73.676 2.294 18.11 6.39 36.088 10.98 53.787 5.77 22.235 12.345 44.296 19.53 66.116 7.098 21.559 13.247 43.304 17.581 65.573.164.842.536 1.645 1.447 4.363"/>
    <path d="M892.056 2721.187c-19.06-30.782-25.22-65.422-29.924-100.497-.708-5.28-1.244-10.584-1.984-15.859-5.13-36.577.365-71.66 14.706-105.522 1.556-3.674 2.912-7.431 4.333-11.161.102-.268-.033-.628-.153-2.151-1.487 1.418-2.77 2.165-3.365 3.279-17.206 32.225-29.018 65.868-25.838 103.152 2.725 31.944 7.505 63.486 20.073 93.345 6.268 14.894 13.274 26.599 22.152 35.414M1162.92 514.57c-.13-1.914-.282-3.827-.388-5.743-.776-13.932-1.907-27.857-2.216-41.798-.35-15.779 3.077-31.05 8.146-45.92 4.328-12.698 10.85-24.19 19.276-34.699 3.705-4.62 7.03-9.732 9.538-15.084 4.202-8.97 2.15-17.576-3.623-25.288-.967-1.293-3.031-1.767-5.848-3.308.428 3.285.387 5.233.96 6.977 2.843 8.65.593 16.404-4.012 23.725-1.587 2.525-3.46 4.887-5.354 7.2-14.296 17.461-21.984 37.681-25.618 59.766-3.453 20.981-2.33 41.73 1.935 62.421.919 4.458 1.768 8.987 7.204 11.751M1431.164 2868.229c1.76.715 2.87 1.611 3.874 1.504 9.569-1.018 19.14-2.074 28.663-3.446 2.192-.315 4.419-1.587 6.256-2.929 4.3-3.139 5.482-7.965 2.338-12.268-2.484-3.399-5.71-6.786-9.38-8.678-7.652-3.943-15.581-7.713-23.82-10.08-16.946-4.87-34.22-8.582-51.268-13.115-27.983-7.441-55.88-15.209-83.852-22.688-3.611-.965-7.237-3.657-12.283-.736 1.845 1.833 3.068 3.872 4.846 4.666 6.374 2.846 12.857 5.493 19.44 7.816 28.026 9.891 57.032 15.9 86.056 21.969 15.935 3.331 31.666 7.766 47.3 12.344 5.64 1.651 11.102 4.636 15.977 7.983 5.638 3.872 4.916 8.957-1.752 10.838-7.615 2.149-15.666 2.754-23.525 4.039-2.737.447-5.874-.409-8.87 2.781"/>
    <path d="M923.188 2526.844c-11.166 9.675-19.49 21.545-25.547 34.999-7.899 17.54-11.19 36.207-11.817 55.273-.935 28.4 1.108 56.492 9.893 83.82 6.364 19.796 15.358 38.137 28.951 54.37-.411-1.216-.6-2.572-1.264-3.63-20.483-32.617-27.198-69.021-28.88-106.66-.771-17.241-1.297-34.458.997-51.794 2.895-21.858 11.925-40.651 24.508-58.185 1.675-2.333 3.294-4.705 4.939-7.06l-1.78-1.133M1514.7 1578.629c3.121 5.449 7.603 6.136 11.59 7.28 18.281 5.253 37.023 8.108 55.882 10.253 22.81 2.595 45.64 5.008 68.43 7.767 4.898.594 9.633 2.46 14.498 3.473 1.767.369 4.183.653 5.448-.238 2.384-1.681.996-4.181-.09-6.253-1.08-2.061-2.182-4.127-3.465-6.064-3.063-4.628-3.83-5.147-8.79-2.806-5.218 2.462-10.5 1.607-15.682 1.134-24.84-2.267-49.69-4.531-74.464-7.424-16.496-1.927-32.867-4.916-49.3-7.388-.905-.136-1.867.109-4.057.266M1278.545 1216.383c2.11-4.992 4.073-8.878.76-11.664-3.35-2.816-6.974.062-10.049 1.879-20.125 11.892-41.456 21.007-63.738 27.968-17.2 5.374-34.697 9.065-52.805 9.276-.996.012-2-.016-2.986.103-3.67.443-5.508 2.182-5.062 4.719.611 3.484 3.314 5.045 7.143 4.485 2.884-.423 5.853-.803 8.74-.592 14.124 1.032 27.758-1.026 41.222-5.346 22.907-7.351 44.61-17.237 64.848-30.213 3.855-2.471 7.205-4.41 11.927-.615M2087.964 2161.54c2.517-5.003 1.995-8.598 1.213-12.057-1.977-8.746-4.018-17.484-6.33-26.145-5.077-19.011-8.687-38.228-8.85-57.98-.027-3.3-.004-6.6.617-10.083 6.246 10.5 8.439 23.162 16.51 32.437.798-.36 1.597-.72 2.396-1.078-.575-2.416-.985-4.884-1.75-7.237-2.876-8.843-6.158-17.564-8.746-26.488-3.38-11.651-4.18-23.51-1.192-35.444.319-1.274.798-2.767.415-3.89-.475-1.397-1.55-3.152-2.771-3.576-1.261-.437-3.713.036-4.404 1-1.478 2.064-2.595 4.613-3.097 7.116-5.821 29.065-5.143 58.15.232 87.186.904 4.887 2.35 9.684 3.714 14.475 3.806 13.376 7.7 26.728 12.043 41.765M1932.914 1179.34c0 2.445-.334 4.944.054 7.326 2.88 17.715 6.181 35.365 8.822 53.113 5.484 36.856 12.306 73.43 22.01 109.425 1.321 4.902 2.001 10.259 6.931 15.142.75-2.484 1.611-3.908 1.503-5.253-.345-4.29-.644-8.651-1.68-12.806-10.787-43.254-18.5-87.12-26.319-130.967-1.75-9.813-3.949-19.548-6.092-29.287-.545-2.473-1.67-4.82-2.53-7.224l-2.699.532M1864.814 1682.064c-.854-.509-1.699-1.035-2.565-1.524-42.6-24.028-87.487-42.253-135.685-51.167-22.853-4.227-46.1-6.323-69.164-9.42-12.118-1.626-24.226-3.331-36.769-3.35 1.607.625 3.172 1.404 4.827 1.849 29.311 7.87 59.318 11.76 89.333 15.64 37.842 4.893 74.376 14.508 108.962 30.859 10.222 4.833 20.194 10.192 30.31 15.25 3.147 1.574 6.274 3.427 10.751 1.864M1414.89 2868.044l7.083 9.255c-4.373 4.249-9.496 4.624-14.327 4.355-11.943-.663-23.938-1.355-35.757-3.092-19.09-2.806-37.98-7.003-57.092-9.601-18.113-2.462-36.397-3.69-54.62-5.292-2.933-.258-5.95.317-8.912.64-.395.044-.702.885-1.551 2.037 1.66.527 3.04 1.263 4.47 1.375 30.909 2.434 61.345 7.926 91.8 13.506 17.32 3.173 34.882 5.15 52.4 7.062 6.547.712 13.332.145 19.909-.649 4.947-.596 9.999-2.273 11.388-8.167.972-4.126-2.823-9.116-8.882-11.98-1.15-.541-2.516-.726-3.802-.822-.49-.036-1.032.643-2.106 1.373M1567.56 2575.668c-1.683-.574-3.299-.922-4.717-1.654-2.468-1.273-3.373-4.798-2.083-7.686 1.125-2.518 3.268-3.179 5.667-2.358 2.423.83 4.997 1.71 6.966 3.255 2.617 2.054 1.838 5.845-1.216 7.185-1.449.635-3.08.854-4.617 1.258m20.888-1.468c3.414 10.166 3.414 10.166 6.861 13.517 2.418-5.899 2.145-11.737 1.126-17.531-.65-3.698-3.437-5.688-7.056-6.032-2.268-.215-4.599.239-7.07.403-2.984-3.369-5.826-7.032-9.137-10.205-4.39-4.207-9.75-5.65-15.686-3.751-5.807 1.858-7.784 5.323-6.655 11.38.358 1.926.896 3.818 1.678 7.091-2.863-1.389-4.929-2.027-6.557-3.248-6.122-4.594-11.929-9.624-18.19-14.012-4.865-3.41-10.12-6.321-15.432-9-1.733-.874-4.187-.317-6.75.963 9.575 6.96 18.955 14.215 28.79 20.789 7.71 5.153 15.872 9.669 24.036 14.093 8.662 4.693 17.122 4.895 24.917-2.263 1.281-1.177 3.37-1.474 5.125-2.194M2655.822 457.704c-4.02 6.907-7.614 11.81-9.856 17.267-2.548 6.201-5.343 11.404-12.598 12.746-2.12.391-3.784 2.066-2.836 4.305.5 1.176 2.392 2.273 3.775 2.448 2.266.286 4.628-.245 6.954-.366 5.642-.294 9.383-2.914 10.845-8.549.5-1.928 1.283-3.784 1.951-5.667 2.045-5.768 5.033-10.663 10.374-14.224 4.948-3.297 5.354-6.1 1.864-10.809-3.96-5.34-8.202-10.54-12.829-15.31-10.557-10.88-14.284-23.584-11.739-38.438.813-4.74.793-9.625 1.226-15.39-1.854 1.101-3.029 1.375-3.306 2.027-4.348 10.294-6.253 21.045-5.042 32.171.883 8.115 4.111 15.366 9.195 21.824 4.288 5.448 8.351 11.073 12.022 15.965M1594.852 2431.228c6.27 2.173 8.876-2.978 13.836-5.379 2.538 1.442 5.776 2.995 8.706 5 12.513 8.563 26.33 14.206 40.776 18.435 9.43 2.761 19.002 3.32 28.635 1.115 2.252-.515 4.571-1.093 6.605-2.138 5.006-2.573 5.44-5.739 1.666-10.229-.64-.762-1.36-1.458-2.037-2.19-5.008-5.408-6.03-5.433-9.27 1.232-1.469 3.024-3.814 3.902-6.359 3.756-6.932-.396-14.008-.575-20.712-2.167-11.69-2.776-22.727-7.511-33.072-13.759a104.762 104.762 0 00-10.577-5.577c-4.18-1.912-7.76-.731-10.637 2.796-2.268 2.778-4.58 5.521-7.56 9.105M1660.245 2538.757c-2.204 4.793-4.444 9.57-6.603 14.383-3.593 8.01-8.425 15.003-15.342 20.613-5.68 4.607-5.951 7.438-2.366 13.771 2.292 4.05 4.824 7.974 6.93 12.116 1.997 3.922 3.396 7.878-.377 11.941-.95 1.022-.768 3.802-.097 5.333.352.805 3.294 1.404 4.366.817 7.374-4.04 13.385-.18 19.726 2.745 6.622 3.054 13.38 5.824 20.158 8.524 3.6 1.434 7.39 1.191 10.45-1.219 1.494-1.176 2.125-3.45 4.093-6.874-13.273 2.69-22.167-3.179-31.344-8.502-6.507-3.773-12.4-9.228-20.856-8.4-1.652-7.373-3.45-14.412-4.756-21.54-.992-5.419 2.272-9.573 5.48-13.344 7.427-8.727 9.149-19.428 10.538-30.364M1488.458 2582.033c2.352 2.954 5.026 1.162 7.074-.047 4.897-2.894 8.708-1.313 12.709 1.797 9.177 7.135 18.436 14.171 27.816 21.036 3.47 2.54 7.224 4.804 11.11 6.636 9.094 4.287 18.422 4.261 26.48-1.875 12.148-9.25 24.934-6.732 37.977-3.558 2.428.591 4.774 1.518 7.491 1.636-2.998-5.2-7.444-8.739-13.014-9.683-8.808-1.492-17.763-2.466-26.685-2.747-3.282-.103-6.764 2.156-9.93 3.777-2.024 1.036-3.557 2.986-5.445 4.337-6.173 4.418-12.7 5.334-19.723 1.98-9.09-4.344-17.22-10.08-24.493-16.978-4.332-4.108-8.306-8.599-12.387-12.968-4.888-5.233-7.912-5.516-13.699-1.162-2.568 1.932-2.842 2.337-5.281 7.82M1450.062 2111.045c2.18 0 3.998.187 5.767-.028 22.468-2.726 44.865-6.42 67.412-8.018 21.869-1.55 43.917-2.315 65.797 1.07 1.315.204 2.647.328 3.975.408 2.752.167 5.507.113 6.579-3.107.951-2.86-1.434-6.755-4.877-7.582-1.856-.447-3.921-.165-5.88-.027-3.924.279-7.843 1.029-11.758.985-39.095-.436-77.849 2.498-116.018 11.4-3.234.755-6.423 1.714-9.593 2.708-.457.143-.683 1.023-1.405 2.19M1461.19 1721.752c10.879.743 21.75 1.602 32.637 2.207 26.348 1.466 52.323 4.761 77.093 14.606 3.036 1.208 6.376 1.926 9.634 2.217 3.258.292 5.052-1.901 4.809-4.916-.51-6.346-6.77-12.476-13.121-12.835-.663-.037-1.343-.07-1.994.032-12.743 1.981-25.15-1.073-37.702-2.315-22.52-2.228-45.09-4.043-67.7-.951-1.25.171-2.47.559-3.703.846l.048 1.109M1028.378 370.883c4.39 3.489 7.338 5.962 10.417 8.259 16.026 11.954 31.635 24.429 45.436 38.93 5.935 6.237 11.359 13.05 16.323 20.09 4.047 5.74 3.583 6.596-1 12.198-2.904 3.549-6.425 6.814-4.452 13.158 6.094-4.225 11.485-8.24 15.362-13.918 2.247-3.294 2.138-7.05.242-10.456-2.417-4.341-4.721-8.88-7.895-12.64-16.874-19.984-36.615-36.718-58.864-50.452-3.373-2.082-7.153-3.522-10.805-5.121-.753-.33-1.774-.048-4.764-.048M1498.858 1580.16c5.352-1.983 6.325-6.886 6.826-11.838.268-2.655-1.82-3.838-4.13-4.896-3.534-1.619-7.46-3.11-10.116-5.762-5.264-5.253-3.713-10.784 3.19-13.706 2.112-.894 4.272-1.67 6.324-2.466 7.406 5.656 10.97 13.044 10.584 22.744 9.625-6.365 10.68-15.549 3.889-21.668-2.192-1.974-3.994-4.379-6.018-6.545-4.391-4.7-7.358-5.216-13.237-2.43-2.687 1.272-5.333 2.69-8.13 3.666-9.878 3.445-13.526 10.574-9.013 20.06 2.36 4.96 6.328 9.234 9.958 13.485 2.664 3.118 5.959 5.696 9.873 9.356M1424.22 1868.83c4.045-.4 6.186-.477 8.276-.844 8.815-1.552 17.56-3.647 26.43-4.715 27.17-3.27 54.366-2.962 81.531.36 4.287.523 8.591 1.128 12.896 1.21 4.576.088 6.96-2.71 6.433-6.819-.698-5.444-3.92-8.897-8.173-7.745-23.448 6.347-47.492 4.83-71.35 5.835-14.97.632-29.842 2.178-44.269 6.476-3.586 1.068-7.606 1.655-11.775 6.242M2380.176 540.454c-.758 2.073-1.732 4.095-2.244 6.228-6.365 26.54-14.27 52.55-24.938 77.74-4.128 9.746-6.86 20.098-9.972 30.253-.71 2.315-.36 4.954-.598 9.26 2.98-2.032 4.59-2.824 5.773-4.035.877-.899 1.269-2.313 1.762-3.545 13.365-33.353 25.953-66.944 31.127-102.779.428-2.956.86-5.915 1.129-8.888.115-1.267-.18-2.572-.29-3.86l-1.75-.374M1379.379 1972.227c6.148.612 11.775.885 17.275 1.87 1.98.355 4.227 2.04 5.374 3.767 5.407 8.148 3.417 17.396-4.631 23.362-.998.739-1.832 1.7-2.67 2.49 1.08 3.729 3.628 4.223 6.353 3.75 4.988-.864 8.29-3.946 10.115-8.616 2.774-7.1 2.779-14.262.303-21.428-2.756-7.978-7.903-12.825-16.8-13.028-4.971-.113-9.928-.758-14.9-.925-4.017-.135-7.044 1.62-8.514 5.558a227.8 227.8 0 00-2.02 5.62c-5.402 15.723-.31 24.13 18.473 27.804-2.858-2.585-4.356-4.591-6.355-5.633-8.348-4.351-9.162-11.744-4.894-19.43.798-1.436 1.606-2.868 2.89-5.161M2232.303 2206.156a1.24 1.24 0 00-.247.25c-.3.401-.31.941-.304 1.442.033 3.955.18 7.913.32 11.866.244 6.721.584 13.44.949 20.154.533 9.834.938 19.714 1.842 29.524 2.22 24.134 3.282 48.353 4.994 72.524.678 9.592 1.494 19.174 2.505 28.737.51 4.84 1.073 9.675 1.693 14.503.31 2.415.634 4.828.973 7.24.129.916.03 2.863.52 3.63.3.466 1.389 1.247 1.903.563.16-.213.17-.498.174-.763.124-8.867.54-17.785-.1-26.64-2.326-32.147-5.226-64.252-7.601-96.396-.83-11.24-1.462-22.493-2.077-33.747-.324-5.936-.385-11.883-.735-17.818-.172-2.91-.41-5.82-.783-8.713-.223-1.73-.07-6.893-2.401-6.774-.564.028-1.192.09-1.625.418M2220.814 2377.149c1.353-5.4.56-11.871.476-17.36-.178-11.5-.636-22.995-1.147-34.485a2791.324 2791.324 0 00-2.245-42.694c-.837-14.002-1.76-28-2.823-41.986-1.062-13.972-2.423-27.883-3.932-41.811-.078-.718-.197-1.514-.762-1.964-2.717-2.173-2.084 6.412-2.046 7.243.532 11.955 1.436 23.893 2.067 35.844 1.247 23.579 2.334 47.166 3.612 70.743 1.043 19.258 2.23 38.508 3.46 57.755.177 2.787-.473 5.995 3.34 8.715M1319.604 2384.486c0-.05-.003-.1-.012-.146-.081-.479-.468-.837-.835-1.154-2.234-1.934-4.507-3.914-6.82-5.744-4.701-3.712-9.619-7.15-14.286-10.903-15.226-12.24-28.033-26.382-36.246-44.46-4.258-9.373-9.353-18.403-14.608-27.267-2.75-4.638-3.811-9.073-2.386-14.199.35-1.257.694-2.612.565-3.873-.082-.798-.903-1.836-1.655-2.164-.75-.326-2.055-.227-2.724.244-4.8 3.38-6.308 9.65-3.388 15.064 2.524 4.681 5.619 9.051 8.203 13.702 6.294 11.33 12.903 22.518 18.532 34.175 7.957 16.481 19.741 29.026 35.629 37.89 3.618 2.018 7.226 4.053 10.831 6.095 1.843 1.044 3.684 2.09 5.525 3.136.508.288 1.799 1.368 2.376 1.306.637-.069 1.297-1.042 1.299-1.702M1421.797 1994.779c1.819-.152 3.668-.143 5.45-.483 12.78-2.436 25.554-3.833 38.66-2.87 22.88 1.686 45.808 2.695 68.717 3.98 4.666.263 7.427-1.996 7.31-5.948-.134-4.522-3.17-7.292-7.726-6.657-22.49 3.136-45.133 2.197-67.718 2.963-12.566.426-25.083 2.617-37.584 4.297-2.64.355-5.112 1.955-7.662 2.98l.553 1.738M1387.663 1876.835c.819-10.065-1.524-17.242-4.51-24.314-1.152-2.731-2.442-5.496-2.973-8.374-.801-4.339 1.408-6.175 5.756-5.207 5.813 1.295 11.589 2.753 17.412 3.998 3.582.766 6.189 2.306 6.478 6.352.28 3.922-1.462 7.523-5.017 8.911-2.418.943-5.23.84-7.714 1.663-1.362.451-3.511 2.06-3.375 2.783.316 1.679 1.455 3.869 2.88 4.548 4.765 2.27 9.663 2.012 14.203-.972 7.824-5.141 10.457-16.657 5.715-24.784-1.946-3.334-4.654-5.613-8.551-6.186-7.54-1.108-15.064-2.374-22.637-3.17-8.35-.876-12.56 3.717-11.375 11.954.187 1.3.508 2.625 1.028 3.825 3.918 9.054 7.9 18.079 12.68 28.973M1431.769 1736.942c-.601-.882-.974-1.978-1.716-2.364-.738-.385-2.286-.449-2.713.03-1.508 1.69-3.021 3.525-3.937 5.572-4.746 10.608-9.497 21.222-13.84 31.998-1.716 4.258-3.117 8.896-3.381 13.436-.701 12.06-2.993 23.693-7.281 34.961-.936 2.46-2.52 5.347.671 7 2.939 1.521 6.071.336 7.996-2.218 1.326-1.758 2.185-4.12 2.522-6.325 1.458-9.513 3.252-19.034 3.768-28.615.549-10.18 3.061-19.608 7.295-28.745 3.069-6.623 5.997-13.312 8.937-19.994.661-1.504 1.106-3.1 1.679-4.736M1383.578 1928.387c0 8.961-.108 17.924.095 26.88.04 1.696.926 4.315 2.116 4.8 1.42.575 3.952-.2 5.356-1.254 3.255-2.44 5.555-5.232 3.89-10.137-2.483-7.306-1.887-14.904-1.46-22.619.747-13.57.253-27.216-.02-40.825-.029-1.412-2.078-2.784-3.189-4.176-1.347 1.223-3.626 2.277-3.88 3.695-1.17 6.518-2.148 13.118-2.486 19.725-.406 7.951-.096 15.94-.096 23.911h-.326M2259.405 2258.982c-.266.43-.41.994-.379 1.552a1279.092 1279.092 0 00.869 13.946c.414 6.11.873 12.219 1.374 18.324a1367.142 1367.142 0 003.507 36.59l.201 1.829.038.338c2.627 23.71 6.355 47.435 8.356 71.18.418 4.962 1.134 9.065 3.154 13.572 3.525-.646 3.318-3.292 2.965-6.295-2.11-17.934-4.259-35.865-6.303-53.807 0-5.91-1.377-12.14-2.038-18.018a35614.65 35614.65 0 01-2.059-18.387c-1.37-12.251-2.628-24.521-4.129-36.756-.872-7.115-1.52-14.266-2.258-21.398-.096-.92-.214-1.9-.798-2.616-1-1.23-1.98-.898-2.5-.054M2263.862 2408.574a.611.611 0 00.08-.162c.04-.122.03-.255.018-.383-2.244-24.215-4.365-48.443-6.54-72.665l-6.626-73.735-2.187-24.333c-.677-7.533-1.26-15.071-1.835-22.614-.03-.402-.068-.824-.294-1.16-.426-.632-1.35-.57-1.527.186-1.266 5.464-.147 11.41.21 16.957.394 6.139.787 12.278 1.19 18.417.803 12.277 1.646 24.55 2.618 36.816l.296 3.678c1.973 24.205 4.44 48.369 6.785 72.54.782 8.062 1.612 16.119 2.491 24.17.454 4.168.751 8.355 1.372 12.504.318 2.124.716 4.238 1.263 6.316.233.883.247 2.354.912 3.052.31.326 1.393.962 1.774.416M1628.54 2504.977c-3.059-2.112-5.33-3.448-7.33-5.11-4.625-3.841-4.44-7.426.49-11.265 1.543-1.202 3.25-2.193 4.97-3.34 2.452 1.682 4.605 3.223 6.824 4.664 4.75 3.084 9.918 3.779 15.336 2.333 4.487-1.198 8.873-3.363 13.397-3.66 4.065-.266 8.26 1.426 13.437 2.463-.396-2.431-.19-4.456-1.047-5.806-2.493-3.93-6.538-5.93-11.022-5.838-4.929.1-10.007.557-14.714 1.918-6.096 1.763-10.946.583-15.803-3.24-2.97-2.336-5.089-6.48-10.482-5.772-.583 1.595-1.594 3.337-1.809 5.173-.402 3.434-1.602 6.118-4.013 8.795-5.413 6.01-3.822 13.534 3.241 17.369 1.447.786 3.077 1.304 4.684 1.696.823.2 1.781-.15 3.84-.38M1491.072 1585.231c-2.8 2.891-4.785 4.405-6.076 6.373-3.82 5.825-6.914 12.175-11.113 17.695-9.703 12.756-17.118 26.566-22.438 41.702-2.398 6.823-6.512 13.043-9.848 19.536-1.324 2.58-1.92 5.111 1.17 6.852 3.262 1.841 6.858.762 8.434-2.384.294-.587.471-1.236.69-1.86 4.464-12.81 8.843-25.653 13.46-38.409.991-2.738 2.835-5.169 4.3-7.734 7.061-12.375 14.145-24.738 21.146-37.146.4-.709.136-1.792.275-4.625M1359.093 2005.743c-2.779.535-5.575.996-8.334 1.617-19.229 4.332-36.942 12.754-54.994 20.292-5.128 2.141-10.664 3.285-15.88 5.238-2.005.75-4.254 2.11-5.298 3.85-1.497 2.49-2.223 5.531-2.852 8.43-.725 3.338 1.636 5.222 4.646 3.877 1.503-.672 2.88-1.638 4.28-2.526 22.497-14.262 46.307-25.905 71.067-35.666 2.657-1.048 5.232-2.307 7.845-3.467l-.48-1.645M1383.363 2654.192c0-4.597.358-9.226-.062-13.784-1.75-18.953 2.846-35.54 16.964-49.038 6.232-5.96 11.983-12.423 17.937-18.672 2.881-3.025 2.63-6.113-1.29-12.934-2.022 1.804-4.133 3.34-5.814 5.254a1005.385 1005.385 0 00-16.872 19.729c-11.883 14.255-17.238 30.544-14.919 49.114.854 6.838 1.898 13.653 2.855 20.478l1.201-.147M1440.117 1722.077c-9.718-1.326-12.485-4.2-12.724-12.52-.019-.664-.004-1.33.022-1.994.422-10.686 5.621-14.84 16.182-12.504 1.52.336 3.195 2.31 3.808 3.907 1.268 3.3 1.87 6.855 3.133 11.84 1.85-2.337 3.26-3.322 3.492-4.532 3.146-16.335-1.383-21.502-17.822-20.523-2.316.138-4.692.138-6.919.692-4.923 1.225-8.535 4.326-9.052 9.46-.596 5.91-.985 11.988-.258 17.844.951 7.663 6.374 12.205 13.471 14.522 3.99 1.302 5.442-.129 6.667-6.192M2209.137 2372.824l-9.676-176.68c-4.705 18.076 2.915 160.731 9.676 176.68M1385.602 2006.27c-.337 3.009-.805 4.545-.627 6.003 2.292 18.771 4.688 37.528 7.024 56.293.41 3.292.182 7.007 4.83 7.381 3.434.275 5.062-2.308 5.256-7.999.034-.995.074-2.011-.085-2.986-2.656-16.339-3.444-33.015-8.935-48.846-1.213-3.497-2.572-6.745-7.463-9.846M1376.54 2136.295c-3.083.549-5.549.735-7.856 1.442-14.1 4.32-26.62 11.787-38.779 19.895-3.579 2.388-6.674 5.26-11.655 4.257-3.483-.702-5.662 1.737-6.137 5.064-.558 3.909-1.235 8.158 2.626 10.903 1.122.798 3.228.85 4.64.428 1.472-.44 2.783-1.73 3.937-2.878 15.187-15.102 32.683-26.897 51.808-36.391.456-.226.594-1.091 1.415-2.72M2195.292 2358.013c.437-.383.201-1.29.206-1.95.073-9.917.377-19.842-.095-29.755-1.803-35.915-3.948-71.814-5.981-107.718-.468-8.27-1.014-16.536-2.748-24.91-.298 1.994-.796 3.981-.862 5.982-.858 26.018 1.087 51.903 3.216 77.813 1.635 19.903 2.118 39.9 3.205 59.85.367 6.736.98 13.46 1.509 20.186.04.492.779.744 1.201.663a.722.722 0 00.349-.16M1733.341 2323.64c-5.266 11.865-3.752 24.998-6.092 38.376-3.53 1.871-7.672 3.873-11.623 6.198-7.299 4.295-11.953 10.398-12.078 19.221-.017 1.13.633 2.267 1.127 3.907 1.313-.956 2.436-1.335 2.724-2.05 3.617-8.973 10.733-13.829 19.286-17.498 11.47-4.919 11.17-5.143 10.206-17.568-.536-6.917-.293-13.895-.389-20.846-.045-3.182-.065-6.365-.096-9.547l-3.065-.193M1473.041 2734.752c-15.092-11.788-12.612-27.071-7.888-43.191-5.131 3.812-7.041 8.328-7.535 17.261-.37 6.686-.473 13.413 3.673 19.202 3.843 5.369 7.906 10.581 11.799 15.765.868-.101 1.854.064 2.099-.287 4.616-6.612 11.042-10.074 18.796-11.922 4.803-1.145 9.449-3.19 13.953-5.287 5.547-2.583 10.032-6.548 12.637-12.234.596-1.302.529-2.906.137-4.869-9.028 10.801-21.962 13.457-33.901 18.133-4.558 1.785-8.692 4.647-13.77 7.429M2221.18 2203.638c-1.671 2.638-.764 6.375-.6 9.287.217 3.81.43 7.619.653 11.428.44 7.618.91 15.234 1.47 22.844.979 13.266 2.565 26.49 3.362 39.765 1.356 22.592 2.175 45.217 3.486 67.812.468 8.07 1.427 16.085 2.312 24.103.25 2.273 1.127 7.62 3.725 8.403 1.43-6.52-.182-13.584-.797-20.125-.727-7.756-1.628-15.496-2.29-23.258a3958.972 3958.972 0 01-2.964-36.734 3710.532 3710.532 0 01-4.861-73.546c-.288-5.387-.591-10.772-.868-16.16-.167-3.248 1.377-12.257-2.627-13.82M2180.914 2346.376c.257-.417.244-.94.185-1.426-.716-5.793-.51-11.842-.737-17.678l-.715-18.46-1.43-36.918c-.968-24.29-2.006-48.583-2.804-72.88a61.515 61.515 0 00-.277-4.246c-.18-1.74-1.256.157-1.33.913-.495 5.007-1.324 10.1-1.183 15.142.848 30.269 1.934 60.532 3.111 90.789.48 12.287 1.33 24.56 2.174 36.83.127 1.837.538 3.633.946 5.423.15.654.755 4.63 2.06 2.51M1061.754 2560.384c.764 2.093 4.388 6.03 4.902 6.616 7.478 8.533 16.048 16.111 24.126 24.064a21290.276 21290.276 0 0030.713 30.19c10.406 10.22 20.791 20.47 31.388 30.494 1.386 1.311 2.878 2.674 4.748 3.053.472.096 1.007.111 1.384-.188 1.465-1.16-2.458-4.82-3.194-5.547-16.844-16.624-33.959-32.966-50.935-49.455-13.584-13.193-27.17-26.384-40.754-39.579-.452-.439-.959-.903-1.587-.946-.95-.064-1.092.474-.79 1.298M1064.687 2614.678c.398 1.09 2.285 3.14 2.552 3.444 3.892 4.443 8.353 8.388 12.56 12.528a10176.231 10176.231 0 0015.988 15.715c5.417 5.321 10.823 10.658 16.34 15.876.722.683 1.498 1.392 2.472 1.59.245.05.524.057.72-.098.763-.604-1.279-2.51-1.662-2.888-8.77-8.654-17.679-17.162-26.517-25.746-7.072-6.868-14.145-13.735-21.216-20.604-.235-.229-.499-.47-.826-.493-.495-.033-.568.247-.412.676M1404.195 2853.94c-2.3-.873-4.531-2.088-6.911-2.565-34.686-6.95-69.42-13.638-105.121-16.151 1.444.86 2.794 2.213 4.345 2.51 28.015 5.356 56.027 10.729 84.104 15.745 7.615 1.36 15.438 1.562 23.166 2.295l.417-1.834M1435.996 2580.106c-15.01 11.506-27.738 23.792-32.033 42.524-3.065 13.365-1.791 33.357 2.573 42.75 0-6.852.275-14.8-.067-22.721-.46-10.611 2.054-20.549 6.654-29.871 1.989-4.031 5.17-7.754 8.585-10.729 4.227-3.684 9.243-6.468 13.946-9.599 5.545-3.693 5.69-5.417.342-12.354"/>
    <path d="M1667.373 2583.847c-4.445-1.38-6.89-7.3-13.69-6.011 1.706 2.508 2.92 4.359 4.2 6.165 4.605 6.498 9.306 12.929 13.828 19.485 4.334 6.28 10.238 7.217 15.77 2.004 2.74-2.582 5.78-5.45 3.054-10.501l-10.037 6.463-8.598-12.186c6.572-4.017 6.572-4.017 10.968 6.19 1.435-1.462 3.277-2.522 3.713-3.996.5-1.7.265-4.013-.53-5.628-3.291-6.693-8.18-7.131-18.678-1.985M2152.745 2311.408c2.094-8.757.274-118.8-2.405-128.034 0 8.35.022 16.7-.006 25.052-.028 8.635-.128 17.27-.156 25.906-.03 8.636-.019 17.272-.007 25.908.011 8.635-.163 17.278.128 25.905.284 8.433-1.45 17.08 2.446 25.263M1145.555 2662.147c.132-.521.094-1.209-.088-1.577-.262-.529-.682-.961-1.094-1.382-12.788-13.072-25.604-26.119-38.488-39.095l-.195-.196c-12.753-12.842-25.938-25.285-38.55-38.26a350.94 350.94 0 00-10.295-10.168c-.907-.859-1.87-2.145-3.107-2.481-.003 1.514 1.199 2.812 2.174 3.848 8.504 9.116 16.838 18.425 25.654 27.241 12.863 13.139 25.848 26.157 38.85 39.156 7.866 7.863 15.88 15.562 23.906 23.26.68.653 1.076.27 1.233-.346M1022.538 616.233c-2.394 1.487-4.878 2.848-7.166 4.482-12.353 8.83-26.032 14.714-40.8 17.892-5.702 1.227-11.65 1.306-17.498 1.91.07 3.92 3.095 4.79 5.45 5.037 4.904.516 10.094 1.118 14.811.076 13.745-3.039 26.563-8.539 37.76-17.288 3.612-2.822 7.321-5.716 7.443-12.109M1366.782 2569.078c9.316-10.908 21.336-16.013 32.305-22.558 10.078-6.012 17.43-14.207 23.497-23.905.523-.836 1.339-1.823 1.237-2.642-.185-1.478-.573-3.497-1.598-4.142-1.021-.643-3.261-.358-4.361.399-1.242.854-1.911 2.638-2.651 4.107-4.77 9.476-11.86 16.674-20.87 22.24a287.879 287.879 0 00-19.801 13.43c-5.463 4.04-6.007 5.422-7.758 13.07M1359.406 1875.275c-3.777.787-7.6 1.404-11.324 2.39-17.911 4.749-35.788 9.629-53.7 14.376-2.933.777-4.57 2.423-5.022 5.386-.548 3.574 1.795 5.775 5.343 4.842 1.262-.332 2.48-.932 3.632-1.57 15.79-8.738 32.79-14.185 50.183-18.631 4.02-1.028 7.879-2.69 11.812-4.06l-.924-2.733M2167.967 2327.41c-.52-8.61-1.038-17.218-1.56-25.827-.1-1.66-.267-3.318-.303-4.979-.706-31.946-1.41-63.894-2.076-95.84-.103-4.949-.014-9.9-.41-14.84-3.262 14.485-.542 127.256 4.349 141.485M1417.537 1727.352c-2.608-.574-3.663-1.173-4.45-.924-11.124 3.534-21.463 8.76-30.94 15.51-4.24 3.019-3.937 6.34-.018 9.859 3.182 2.857 5.86 2.939 8.375-.618 6.086-8.608 14.302-14.647 23.003-20.213 1.038-.665 1.867-1.655 4.03-3.614M1083.877 2565.385c9.64 15.546 73.266 76.359 86.038 83.436.155-.253.423-.5.438-.761.016-.305-.095-.727-.31-.92-29.508-26.388-58.573-53.241-86.166-81.755M2129.05 2286.37c.967-4.712.363-9.647.329-14.42a964.008 964.008 0 00-.122-9.768c-.131-7.702-.321-15.403-.544-23.103-.424-14.62-.906-29.244-1.746-43.845-.048-.834-.202-11.818-1.045-11.968-.313-.056-.714-.254-.918-.13-.233.14-.412.57-.41.874.065 9.3.06 18.6.262 27.899 0 23.479 1.067 46.948 1.702 70.415.017.64.036 1.29.233 1.9.114.353 2.215 2.364 2.26 2.147M1534.165 2753.267c4.971-.49 7.081-3.682 9.195-6.533 3.348-4.516 6.695-9.11 9.355-14.042 4.854-9 12.137-14.694 21.732-17.72 3.783-1.194 7.558-2.414 11.198-3.953-13.648 1.165-26.361 4.243-36.052 15.344-7.243 8.297-13.504 18.165-15.428 26.904M1423.623 2609.712c-3.103 3.103-4.02 6.634-3.604 10.137.7 5.865 1.225 11.987 3.352 17.4 5.523 14.055 9.065 28.35 8.791 43.523-.032 1.741.843 3.5 1.81 7.22 1.49-2.638 2.437-3.56 2.5-4.54.771-11.97.603-23.845-4.03-35.219-2.499-6.13-5.552-12.16-7.039-18.542-1.447-6.215-1.217-12.82-1.78-19.979M1377.065 2512.112c8.205-2.692 10.574-7.454 10.781-12.792.186-4.82-.224-10.178-2.216-14.436-2.52-5.387-2.199-9.325 1.687-13.48 1.05-1.123 1.57-2.743 2.756-4.911-6.673-.637-9.434 3.855-12.602 7.21-2.789 2.955-3.109 7.019-.872 10.167 6.044 8.506 5.666 17.217.466 28.242M1680.995 2411.653c-3.077-3.514-6.152-2.417-8.874-1.592a166.962 166.962 0 00-15.023 5.362c-4.81 1.979-5.63 5.674-2.064 9.336 1.813 1.86 4.072 3.489 6.43 4.57 3.706 1.702 7.234.513 7.794-3.356.745-5.145 4.02-7.171 7.72-9.541 1.705-1.092 2.75-3.217 4.017-4.78M1130.926 2664.158c.238-.669-1.078-2.292-1.457-2.663-17.255-16.895-34.478-33.822-51.703-50.749l-3.158-3.104-19.093-18.768c.328.473 1.136 2.08 2.335 3.303a27013.08 27013.08 0 0051.737 52.606c3.912 3.966 7.87 8.2 11.947 12.123 2.127 2.047 4.31 4.037 6.587 5.918.466.385 2.216 2.324 2.77 1.405a.422.422 0 00.035-.07M1092.679 2679.467c-4.535-7.965-57.5-67.077-64.358-71.825 5.902 10.547 56.09 66.558 64.358 71.825M1099.679 2671.467c-4.535-7.965-57.5-67.077-64.358-71.825 5.902 10.547 56.09 66.558 64.358 71.825M1178.39 2637.486c-.941-2.274-3.643-4.048-5.444-5.59-2.763-2.363-5.43-4.851-8.13-7.287-8.414-7.598-17.191-15.031-25.207-23.047l-1.637-1.498-25.355-23.193c1.997 3.322 4.718 6.262 7.299 9.129 3.999 4.443 8.18 8.722 12.414 12.94 12.695 12.65 25.79 24.642 39.665 35.967l3.43 2.799c.433.354.88.715 1.414.879.534.163 1.182.084 1.546-.34.15-.176.14-.436.006-.76M2141.195 2300.722c1.996-39.477-2.087-78.866-1.75-118.319-1.96 9.906-.55 109.32 1.75 118.32M1127.033 2574.477c-.408.01 1.104 2.238 1.19 2.334.841.956 1.76 1.854 2.64 2.776 1.76 1.85 3.524 3.698 5.293 5.54 3.972 4.14 7.931 8.297 11.992 12.35 4.103 4.095 8.481 7.917 12.576 12.012 3.932 3.613 8.132 7.185 12.305 10.619a812.42 812.42 0 006.617 5.378c2.014 1.625 3.782 3.74 6.316 4.558.33-1.205-.67-2.33-1.585-3.182-13.31-12.398-26.68-24.737-40.058-37.063-4.669-4.301-9.274-8.674-13.91-13.01-.822-.768-2.2-2.338-3.376-2.311M1445.293 2661.242c.839 6.22 6.147 10.625 7.649 16.694-3.024 4.948-6.512 9.758-9.03 15.032-2.494 5.22-5.119 10.695-3.636 18.653 1.807-2.861 3.062-4.248 3.647-5.876 2.931-8.161 6.454-15.961 12.727-22.173 2.82-2.793 2.976-5.691.811-8.875-3.291-4.84-6.574-9.685-9.861-14.528l-2.307 1.073M2533.988 2507.02c1.536 1.748 2.486 3.591 3.993 4.402 4.462 2.404 6.315 6.218 7.775 10.852 1.57 4.99 4 9.748 6.441 14.404.962 1.833 2.973 3.116 5.971 6.116-.332-4.166-.177-6.365-.732-8.367-1.582-5.71-3.428-11.35-5.218-17.003-2.395-7.574-8.476-11.218-18.23-10.405M1551.072 2715.798c-8.872 1.512-14.446 7.227-20.228 12.6-5.776 5.37-11.43 10.87-18.177 17.3 2.935-.313 4.88-.053 6.343-.772 3.26-1.6 6.335-3.605 9.37-5.62 1.365-.909 2.51-2.182 3.655-3.386 6.363-6.69 12.695-13.412 19.037-20.122M2282.8 2365.831c-.452 18.336 4.039 47.12 7.933 52.688 2.058-7.707-2.488-39.663-7.932-52.688M1030.269 2578.372c-.009.534.26 1.245.894 1.99 13.476 15.87 28.027 30.753 43.779 44.374.771.667 1.545 1.33 2.321 1.99.199.17.666.43.783.666l-23.848-25.725-11.799-12.727c-3.123-3.368-6.184-6.793-9.24-10.228-.341-.383-.69-.773-1.139-1.022-.746-.415-1.734-.33-1.751.682M2114.784 2188.841c-.05.074-.094.155-.132.243-.21.486-.188 1.037-.162 1.567.5 10.266.634 20.557.906 30.834l.424 15.976c.142 5.357.493 10.701.591 16.058 3.085-.658 3.4-3.039 3.247-5.719a6455.894 6455.894 0 00-1.772-29.827c-.302-4.909-.606-9.819-.91-14.728-.303-4.878-.128-10.097-.973-14.902a1.15 1.15 0 00-1.219.498M1706.42 2610.735c9.547-8.858 8.343-23.865-2.402-37.702-1.755 4.866 1.127 8.537 1.783 12.483.653 3.922 1.213 7.897 1.308 11.862.1 4.148-.4 8.31-.69 13.357"/>
  </g>
</svg>
