<svg xmlns="http://www.w3.org/2000/svg" height="689.824" width="697.444"><defs><clipPath id="a" clipPathUnits="userSpaceOnUse"><path d="M0 517.368h523.083V0H0z"/></clipPath><clipPath id="b" clipPathUnits="userSpaceOnUse"><path d="M0 517.368h523.083V0H0z"/></clipPath><clipPath id="c" clipPathUnits="userSpaceOnUse"><path d="M0 517.368h523.083V0H0z"/></clipPath></defs><g clip-path="url(#a)" transform="matrix(1.33333 0 0 -1.33333 0 689.824)"><path d="M508.311 258.684c0-134.986-109.428-244.413-244.413-244.413-134.986 0-244.413 109.427-244.413 244.413s109.427 244.413 244.413 244.413c134.985 0 244.413-109.427 244.413-244.413" fill="#fff"/></g><g clip-path="url(#b)" transform="matrix(1.33333 0 0 -1.33333 0 689.824)"><path d="M430.794 258.684c0-92.173-74.722-166.895-166.896-166.895-92.173 0-166.895 74.722-166.895 166.895 0 92.174 74.722 166.895 166.895 166.895 92.174 0 166.896-74.72 166.896-166.895" fill="#b11f25"/><path d="M366.999 180.939c-29.335 0-56.564 9.172-78.987 24.787 14.473 16.168 25.916 35.1 33.432 55.896-.031-.09-.06-.18-.092-.268 33.299-15.236 59.554-43.288 72.422-77.81a138.672 138.672 0 00-26.775-2.605m-129.872 90.295a138.71 138.71 0 0026.77 2.605c9.159 0 18.108-.902 26.773-2.605a138.78 138.78 0 00-26.772-44.194 138.778 138.778 0 00-26.771 44.194m-76.33-90.295c-9.157 0-18.108.902-26.775 2.606 12.869 34.52 39.124 62.573 72.424 77.809-.035.096-.067.194-.102.29 7.516-20.804 18.962-39.744 33.44-55.918-22.422-15.615-49.651-24.787-78.986-24.787m103.1 231c22.029-24.54 35.45-56.955 35.45-92.45 0-5.733-.372-11.38-1.054-16.932a170.865 170.865 0 01-34.396 3.482 170.87 170.87 0 01-34.395-3.482 138.776 138.776 0 00-1.055 16.933c0 35.494 13.423 67.909 35.45 92.449m160.554-218.515c-16.327 44.953-51.025 81.16-94.973 99.51-.02-.121-.042-.241-.061-.362a171.268 171.268 0 012.13 26.918c0 43.66-16.48 83.539-43.536 113.762a172.173 172.173 0 01-24.114 22.252 172.221 172.221 0 01-24.113-22.252c-27.056-30.223-43.536-70.102-43.536-113.762 0-9.158.734-18.147 2.13-26.92-.02.123-.043.243-.062.364-43.947-18.35-78.645-54.557-94.972-99.51a169.266 169.266 0 01-8.128-31.58 169.23 169.23 0 0131.167-9.62 170.827 170.827 0 0134.414-3.484c38.702 0 74.43 12.95 103.1 34.735 28.669-21.784 64.399-34.735 103.1-34.735 11.786 0 23.296 1.2 34.415 3.485a169.23 169.23 0 0131.167 9.619 169.344 169.344 0 01-8.128 31.58" fill="#fff"/><path d="M358.742 236.18c-4.291-19.603-14.521-37.01-28.704-50.23-10.052-9.37-22.085-16.638-35.398-21.093a96.691 96.691 0 00-30.742-4.991 96.696 96.696 0 00-30.742 4.99 169.286 169.286 0 00-40.453-13.125c20.324-13.796 44.834-21.865 71.195-21.865 26.361 0 50.871 8.069 71.196 21.865a128.152 128.152 0 0130.612 29.233 127.131 127.131 0 0115.71 27.624 139.566 139.566 0 01-22.674 27.593m-189.687-.001a97.08 97.08 0 00-2.245 20.773c0 6.905.73 13.64 2.107 20.14 4.074 19.234 13.858 36.38 27.49 49.582a169.788 169.788 0 007.099 42.077c-39.687-21.525-66.696-63.566-66.696-111.8 0-2.521.083-5.024.228-7.51a126.18 126.18 0 019.343-40.854 127.108 127.108 0 0115.71-27.624c12.336.113 24.296 1.832 35.668 4.986-14.184 13.22-24.413 30.627-28.704 50.23M324.29 368.752a126.135 126.135 0 01-40.087 13.66 127.51 127.51 0 01-20.305 1.63c-6.91 0-13.691-.563-20.305-1.63a137.514 137.514 0 01-12.092-33.935 96.65 96.65 0 0032.397 5.565 96.652 96.652 0 0032.398-5.565c13.252-4.706 25.188-12.21 35.094-21.803 13.63-13.2 23.416-30.346 27.49-49.58a172.083 172.083 0 0031.878-27.652c.146 2.486.228 4.989.228 7.512 0 48.232-27.008 90.274-66.696 111.798" fill="#6c0b19"/><path d="M238.274 370.696c-.003 0-.006 0-.009-.002a137.417 137.417 0 01-3.619-10.206l.016.004a136.864 136.864 0 003.612 10.204M374.152 219.07l.005.015a139.722 139.722 0 01-6.822 8.275l-.006-.02a138.925 138.925 0 006.823-8.27m-154.877-59.993a168.96 168.96 0 00-12.116-3.92.178.178 0 01.013-.008c4.105 1.16 8.15 2.465 12.124 3.92l-.021.008M197.71 341.694a169.739 169.739 0 002.134 12.624l-.016-.012a169.62 169.62 0 01-2.131-12.623l.014.011m-12.366-158.55c.103.019.208.03.312.05 0 .002-.003.003-.004.005-.101-.02-.204-.036-.307-.055m185.551 85.08c3.28-2.644 6.46-5.407 9.534-8.282v.019a172.038 172.038 0 01-9.537 8.29l.003-.027" fill="#f3e5e7"/><path d="M149.83 232.814a114.803 114.803 0 013.813-13.725l-.005-.006c.027-.082.058-.162.087-.243.059-.171.122-.34.183-.511.495-1.406 1.012-2.8 1.559-4.18l.009-.022a115.08 115.08 0 011.823-4.324c.029-.065.057-.132.087-.197a114.358 114.358 0 011.996-4.234c.016-.036.033-.069.05-.103a117.108 117.108 0 0115.527-23.586c1.763.18 3.515.393 5.258.638l.206.028c1.65.235 3.29.502 4.923.794.102.02.205.035.308.055a108.062 108.062 0 00-11.532 14.56c-.11.165-.222.328-.331.493a107.285 107.285 0 00-13.32 29.12l-.005-.007a106.467 106.467 0 00-2.986 13.743 107.62 107.62 0 00-1.072 11.437 109.342 109.342 0 00-.098 4.41c0 3.817.207 7.587.598 11.302l.004.004c3.124 29.74 18.41 55.905 40.785 73.424a169.796 169.796 0 002.13 12.623 117.426 117.426 0 01-18.781-15.421.014.014 0 00-.002.006c-.751-.76-1.49-1.532-2.22-2.311a15.79 15.79 0 00-.244-.267 118.33 118.33 0 01-1.938-2.134l-.441-.502a115.702 115.702 0 01-1.766-2.064c-.123-.146-.246-.291-.367-.438a116.667 116.667 0 01-4.12-5.271l-.036-.051a115.84 115.84 0 01-1.856-2.603c-.097-.14-.192-.28-.29-.42a122.943 122.943 0 01-1.61-2.406c-.08-.123-.161-.245-.241-.37a116.665 116.665 0 01-5.127-8.742l-.125-.238c-.492-.936-.972-1.878-1.44-2.828l-.11-.224a115.93 115.93 0 01-4.145-9.525v-.002a113.521 113.521 0 01-1.194-3.268l-.021-.06a116.034 116.034 0 01-6.443-38.214c0-4.295.24-8.535.696-12.71a115.59 115.59 0 011.824-11.43m153.518 133.852a115.773 115.773 0 01-19.889 5.226c-.15.026-.303.05-.455.075-.849.14-1.702.273-2.558.395-.183.025-.366.053-.549.077-.968.134-1.939.26-2.914.368l-.075.01c-1.018.113-2.04.213-3.067.3-.19.016-.38.028-.57.044a111.28 111.28 0 01-3.31.217c-.722.037-1.445.068-2.17.092l-.89.03c-.999.024-1.999.041-3.003.041a117.111 117.111 0 01-5.398-.135 116.45 116.45 0 01-8.72-.729c-.248-.03-.496-.062-.745-.094a116.257 116.257 0 01-10.76-1.887 137.325 137.325 0 01-3.614-10.204c4.416 1.25 8.95 2.215 13.574 2.896.812.12 1.628.224 2.445.325.463.057.926.12 1.391.17.865.096 1.736.173 2.607.248.435.037.867.082 1.302.114.931.068 1.87.116 2.806.16.382.018.761.046 1.144.06 1.316.05 2.64.076 3.968.076 1.143 0 2.282-.024 3.417-.06.32-.01.638-.024.958-.037a107.9 107.9 0 002.618-.137c.284-.018.568-.035.852-.056a107.54 107.54 0 006.862-.72l.571-.082a110.73 110.73 0 003.07-.484l.353-.06a107.62 107.62 0 0010.55-2.416 106.886 106.886 0 0023.746-9.935 108.095 108.095 0 0013.517-9.106c.32-.253.636-.51.953-.765.394-.318.788-.637 1.177-.96.301-.25.6-.505.9-.758.397-.34.796-.678 1.19-1.023.28-.245.558-.493.835-.741.407-.364.814-.73 1.216-1.1.257-.237.512-.476.767-.714a106.518 106.518 0 007.012-7.221 109.45 109.45 0 001.84-2.134l.38-.452c.48-.58.956-1.166 1.425-1.756l.273-.342c.504-.64 1.001-1.284 1.491-1.935l.16-.21c.536-.717 1.065-1.44 1.584-2.17l.01-.014a107.18 107.18 0 0017.152-38.223h.004a106.919 106.919 0 002.113-12.679 172.038 172.038 0 009.536-8.29 116.48 116.48 0 01-2.287 20.162l.012-.002c-.04.2-.089.399-.13.6-.138.659-.282 1.315-.43 1.969a109.313 109.313 0 01-.829 3.424 112.517 112.517 0 01-1.317 4.691c-.206.675-.417 1.347-.634 2.017-.137.423-.278.844-.419 1.265-.228.676-.46 1.35-.7 2.02a125.591 125.591 0 01-1.211 3.236c-.155.394-.313.785-.47 1.176-.272.674-.549 1.346-.833 2.014-.162.379-.328.755-.494 1.132-.294.67-.592 1.34-.899 2.006-.17.367-.343.73-.516 1.095-.317.667-.636 1.333-.965 1.993-.176.354-.357.704-.537 1.056a119.76 119.76 0 01-1.03 1.98c-.182.34-.37.678-.556 1.016-.36.659-.723 1.316-1.097 1.968-.187.327-.38.65-.572.976-.383.653-.768 1.306-1.163 1.952-.192.313-.39.622-.586.934-.406.649-.813 1.296-1.23 1.937-.196.298-.398.592-.596.89-.43.644-.86 1.289-1.302 1.924-.193.278-.394.55-.59.828-.458.646-.917 1.293-1.388 1.93-.18.244-.368.483-.55.726-.497.66-.993 1.32-1.504 1.97-.15.192-.306.378-.458.569-.55.692-1.104 1.384-1.67 2.064l-.166.194a117.869 117.869 0 01-6.23 6.87c-.12.124-.238.252-.36.375-.496.502-1.005.992-1.51 1.484-.307.3-.609.605-.92.9-.454.434-.919.856-1.38 1.282-.373.345-.74.694-1.119 1.033-.435.393-.88.775-1.322 1.16-.414.362-.825.727-1.244 1.083-.43.366-.869.72-1.305 1.08-.44.363-.878.729-1.324 1.085-.43.346-.869.68-1.306 1.02-.462.359-.922.72-1.388 1.072-.432.325-.87.642-1.306.96-.482.354-.963.708-1.45 1.053-.435.309-.876.609-1.317.912-.498.343-.995.686-1.498 1.022-.124.082-.243.168-.367.25l.003-.013a116.399 116.399 0 01-13.838 7.85 115.956 115.956 0 01-10.784 4.515" fill="#b12126"/><path d="M263.898 210.435C244.272 229 229.641 252.79 222.25 279.556a149.742 149.742 0 0041.65 5.882 149.74 149.74 0 0041.648-5.882c-7.392-26.766-22.022-50.556-41.649-69.12m153.325-32.448a154.156 154.156 0 01-1.263 4.271c-.14.457-.29.91-.436 1.365a165.008 165.008 0 01-1.49 4.444c-.324.914-.656 1.823-.994 2.728-.187.501-.37 1.003-.562 1.501a159.303 159.303 0 01-1.334 3.343c-.23.562-.468 1.12-.704 1.677-.41.965-.825 1.927-1.254 2.882-.28.626-.57 1.246-.86 1.867a158.578 158.578 0 01-1.951 4.057c-.296.591-.598 1.18-.9 1.768-.369.714-.735 1.43-1.113 2.136-.235.44-.48.875-.719 1.312a159.961 159.961 0 01-2.696 4.742c-.173.291-.34.584-.515.875-.5.834-1.015 1.661-1.53 2.486-.222.352-.442.705-.665 1.056-.53.833-1.068 1.66-1.612 2.482-.192.29-.387.576-.58.863a160.288 160.288 0 01-16.254 20.401 160.446 160.446 0 01-8.403 8.3 159.989 159.989 0 01-11.65 9.704 161.405 161.405 0 01-4.893 3.557l-.217.15a159.623 159.623 0 01-10.006 6.43l-.544.317a160.698 160.698 0 01-4.982 2.806l-.094.052c-1.675.9-3.37 1.765-5.08 2.606-.307.152-.616.3-.924.45a161.115 161.115 0 01-4.949 2.3c-.066.03-.132.061-.2.09a159.277 159.277 0 01-5.124 2.141c-.402.16-.805.318-1.208.476a158.147 158.147 0 01-5.22 1.942 159.116 159.116 0 013.651 33.924c0 5.377-.292 10.686-.82 15.926-.047.476-.084.954-.137 1.428a97.306 97.306 0 01-9.867 5.99c.07-.445.13-.893.197-1.339a150.14 150.14 0 00-1.638-53.183c-13.916 3.988-28.605 6.127-43.785 6.127-15.18 0-29.869-2.139-43.785-6.127a150.207 150.207 0 00-3.265 31.178c0 1.753.037 3.497.098 5.236.016.44.042.876.061 1.315.06 1.347.131 2.691.226 4.028.03.413.063.825.096 1.237.113 1.433.244 2.862.398 4.285.03.274.058.548.09.821a149.393 149.393 0 003.465 19.32c.92 3.701 1.976 7.347 3.166 10.934a149.145 149.145 0 008.388 20.157c.088.175.173.353.263.528.432.852.88 1.695 1.328 2.537a152.083 152.083 0 001.923 3.501c.23.404.464.806.697 1.21.45.774.9 1.55 1.363 2.316.198.327.404.65.604.976a150.903 150.903 0 002.64 4.14c.315.479.627.96.948 1.434.42.62.85 1.233 1.278 1.846.38.543.761 1.086 1.148 1.625a146.524 146.524 0 002.583 3.482c.387.508.772 1.017 1.165 1.519a153.519 153.519 0 003.08 3.796c.706.844 1.42 1.683 2.145 2.512.338.387.683.768 1.025 1.151a147.752 147.752 0 004.913 5.246c.316.322.63.647.95.966.99.991 1.991 1.972 3.01 2.935a150.805 150.805 0 0034.04-47.998c.197-.444.404-.884.6-1.33 3.81-1.08 7.554-2.319 11.212-3.737-.176.465-.367.923-.546 1.386a159.628 159.628 0 01-38.56 57.684 159.087 159.087 0 01-6.747 6.076 159.087 159.087 0 01-6.746-6.075 157.875 157.875 0 01-3.47-3.426c-.37-.376-.734-.761-1.1-1.141a156.348 156.348 0 01-2.278-2.401 163.775 163.775 0 01-3.302-3.68c-.416-.478-.833-.955-1.244-1.438-.698-.82-1.383-1.652-2.064-2.486-.357-.437-.719-.868-1.07-1.31a157.28 157.28 0 01-2.863-3.69c-.38-.507-.748-1.024-1.123-1.535-.575-.784-1.15-1.569-1.71-2.364-.453-.64-.894-1.288-1.337-1.935a158.24 158.24 0 01-2.746-4.146c-.409-.64-.81-1.285-1.21-1.93-.462-.745-.925-1.49-1.375-2.243-.346-.581-.68-1.171-1.02-1.757a160.176 160.176 0 01-2.87-5.165c-.19-.36-.389-.713-.576-1.073-.47-.902-.92-1.814-1.375-2.726-.26-.524-.524-1.048-.779-1.576a159.031 159.031 0 01-2.014-4.342c-.419-.938-.833-1.88-1.234-2.828-.207-.488-.406-.98-.607-1.47a157.85 157.85 0 01-6.12-17.735 157.8 157.8 0 01-2.764-11.597 159.259 159.259 0 01-2.848-23c0-.02-.003-.04-.004-.06a163.42 163.42 0 01-.137-3.647c-.003-.117-.01-.233-.014-.35a159.116 159.116 0 013.602-37.931c-15.756-5.51-30.377-13.443-43.442-23.331-.38-.289-.764-.572-1.14-.862a98.191 98.191 0 01-.108-4.42c0-2.357.093-4.693.26-7.008.345.291.696.574 1.042.862 13.426 11.15 28.808 20.017 45.562 25.981 7.797-27.96 23.05-52.846 43.478-72.358a150.54 150.54 0 00-3.01-2.455c-.33-.263-.666-.52-.998-.78a155.222 155.222 0 00-3.277-2.494c-.673-.498-1.352-.988-2.033-1.475-.396-.282-.79-.567-1.189-.847a154.827 154.827 0 00-2.652-1.81c-.549-.366-1.102-.725-1.656-1.084-.64-.416-1.282-.83-1.929-1.237-.57-.358-1.144-.709-1.719-1.058a163.535 163.535 0 00-3.409-2.019c-.419-.24-.84-.474-1.26-.71a150.041 150.041 0 00-7.837-4.098c-.159-.077-.315-.156-.473-.233a148.71 148.71 0 00-2.652-1.24c-.22-.1-.44-.202-.662-.302-.919-.414-1.842-.822-2.77-1.219l-.23-.097a149.469 149.469 0 00-9.47-3.654 148.187 148.187 0 00-13.883-4.09 150.579 150.579 0 00-25.897-3.896c-1.407-.089-2.82-.15-4.238-.2-.293-.01-.588-.018-.882-.027-1.405-.04-2.814-.067-4.229-.067a149.748 149.748 0 00-41.649 5.882c4.596 16.641 12.005 32.12 21.66 45.92.275.394.545.79.824 1.181a125.685 125.685 0 00-2.683 11.411c-.305-.386-.6-.78-.9-1.17-12.433-16.045-21.88-34.51-27.476-54.574a159.017 159.017 0 01-2.174-8.777 158.002 158.002 0 018.613-2.746c13.916-3.988 28.605-6.127 43.785-6.127 1.483 0 2.961.023 4.434.064.2.006.396.017.596.023 1.303.041 2.603.095 3.898.168l.251.017a159.147 159.147 0 0123.89 3.193c3.895.826 7.74 1.796 11.526 2.903a158.055 158.055 0 0129.502 11.983c.827.437 1.651.878 2.47 1.33.123.067.245.138.368.206 1.571.871 3.125 1.77 4.663 2.69.24.144.48.284.718.428.628.381 1.25.77 1.871 1.16a131.99 131.99 0 013.015 1.929c.543.357 1.082.72 1.62 1.083.47.317.942.631 1.408.953.96.662 1.913 1.335 2.857 2.02.337.243.67.493 1.005.74.691.508 1.38 1.02 2.061 1.538.365.277.728.558 1.091.838.683.53 1.362 1.064 2.037 1.604.31.25.623.497.932.748.971.79 1.936 1.586 2.888 2.398a159.352 159.352 0 0144.093-26.645c.445-.178.886-.362 1.334-.537a97.351 97.351 0 019.814 5.996c-.427.144-.847.3-1.272.447a150.138 150.138 0 00-47.223 26.815c20.43 19.512 35.681 44.397 43.48 72.358 1.21-.43 2.411-.882 3.607-1.343.387-.149.77-.303 1.154-.455a147.789 147.789 0 006.087-2.562c.412-.185.826-.365 1.237-.553a149.831 149.831 0 003.244-1.532c.49-.239.974-.488 1.462-.732.62-.31 1.24-.622 1.854-.94a168.72 168.72 0 003.219-1.722c.642-.355 1.286-.71 1.924-1.073.346-.197.69-.4 1.034-.6a149.083 149.083 0 007.267-4.49c.162-.107.324-.21.484-.318a154.39 154.39 0 002.43-1.646c.108-.076.216-.153.326-.229a151.532 151.532 0 0010.23-7.784 151.641 151.641 0 0010.634-9.702 150.754 150.754 0 0016.673-19.959c.598-.856 1.188-1.718 1.77-2.586l.038-.059a149.369 149.369 0 004.96-7.94c.02-.032.037-.064.056-.096a150.956 150.956 0 001.746-3.094c.425-.773.846-1.548 1.257-2.329.105-.2.208-.4.311-.602.75-1.438 1.476-2.89 2.18-4.355.152-.317.31-.63.46-.95.294-.624.58-1.253.866-1.882a142.111 142.111 0 001.444-3.269c.265-.622.524-1.247.781-1.872.203-.496.411-.99.61-1.49a144.81 144.81 0 001.26-3.276c.137-.369.266-.74.4-1.11a142.616 142.616 0 002.106-6.248c.12-.382.24-.763.357-1.146.366-1.202.72-2.409 1.056-3.624A149.742 149.742 0 00367 169.338c-3.135 0-6.242.122-9.328.316-.482.03-.967.045-1.448.08a128.337 128.337 0 00-8.49-8.217c.487-.06.98-.103 1.471-.157A158.919 158.919 0 01367 160.338c15.18 0 29.87 2.14 43.785 6.127 2.907.833 5.776 1.754 8.613 2.746a158.122 158.122 0 01-2.174 8.777" fill="#b12126"/><path d="M352.852 181.68c.252.299.497.604.747.903.236.285.474.569.707.856.363.445.721.896 1.077 1.348.198.249.397.498.591.748.39.5.773 1.007 1.153 1.515.157.208.316.415.471.625.417.562.825 1.13 1.233 1.699.114.16.23.319.343.48.45.636.891 1.278 1.327 1.924l.2.29c.478.714.95 1.43 1.412 2.154l.07.108a116.3 116.3 0 0111.97 24.74 139.617 139.617 0 01-6.824 8.27 106.561 106.561 0 00-5.62-15.15l-.01-.024a108.115 108.115 0 00-19.574-28.964l.01-.002a108.414 108.414 0 00-10.382-9.672 108.45 108.45 0 00-9.348-6.821 107.653 107.653 0 00-13.905-7.64 108.857 108.857 0 00-4.544-1.946c-.286-.115-.57-.232-.858-.345-.666-.262-1.335-.516-2.007-.764a107.501 107.501 0 00-8.994-2.882c-.574-.157-1.15-.308-1.729-.456-.579-.146-1.16-.286-1.74-.424-.508-.12-1.014-.245-1.525-.357a103.94 103.94 0 00-3.065-.63c-.45-.085-.904-.161-1.356-.241a109.162 109.162 0 00-3.5-.565c-.893-.127-1.788-.243-2.687-.348-.257-.031-.512-.067-.77-.095a105.28 105.28 0 00-3.443-.318c-.355-.03-.71-.05-1.066-.074-.878-.06-1.758-.108-2.64-.146-.357-.016-.713-.032-1.07-.044-1.199-.04-2.4-.066-3.608-.066a107.835 107.835 0 00-4.974.123 103.55 103.55 0 00-3.922.243c-.066.005-.13.012-.195.018-1.243.105-2.477.237-3.707.384a106.253 106.253 0 00-4.777.671c-.148.024-.294.055-.442.079a105.58 105.58 0 00-3.347.627 105.509 105.509 0 00-4.645 1.042c-.244.06-.484.129-.726.19-.978.252-1.95.519-2.918.797a107.834 107.834 0 00-4.515 1.4 106.892 106.892 0 00-10.435 4.129 168.965 168.965 0 00-12.123-3.92 116.408 116.408 0 0118.016-8.144l-.007-.01c.193-.068.391-.126.585-.193 1.16-.403 2.327-.79 3.503-1.156.234-.073.467-.152.703-.223 1.475-.451 2.961-.876 4.46-1.27l.024-.005c1.43-.374 2.871-.715 4.321-1.035.315-.071.631-.136.948-.203 1.221-.26 2.448-.5 3.683-.72.295-.053.588-.11.883-.16 1.52-.26 3.046-.495 4.584-.695l.036-.005a114.9 114.9 0 014.422-.477c.421-.038.844-.07 1.266-.104 1.13-.09 2.264-.163 3.402-.22.44-.023.875-.047 1.315-.065 1.52-.06 3.047-.098 4.582-.098 1.49 0 2.97.036 4.445.09.475.02.946.047 1.418.07 1.013.05 2.022.113 3.027.19.537.04 1.073.083 1.607.13.981.09 1.958.193 2.933.307.495.056.993.106 1.487.17 1.356.174 2.707.37 4.05.59.585.097 1.164.212 1.746.317.8.144 1.596.289 2.39.45a123.938 123.938 0 014.03.895c.78.186 1.557.377 2.332.579.47.123.936.256 1.404.385 3.03.833 6.011 1.786 8.94 2.853.227.083.457.165.686.25 1.005.373 2.002.76 2.994 1.16l.456.189a116.599 116.599 0 0126.088 14.813 117.366 117.366 0 0118.913 17.878l.008-.001" fill="#b12126"/></g><g clip-path="url(#c)" transform="matrix(1.33333 0 0 -1.33333 0 689.824)"><path d="M172.535 68.617l4.864 9.73-5.061 2.53-4.864-9.73-3.505 1.753 4.864 9.73-1.878.937 1.968 3.935c.66 1.323 3.004.554 4.452.367l-1.61-3.22 10.516-5.258-4.864-9.728a14.07 14.07 0 00-.036-3.469zm-6.273 19.051l-5.661-9.289c.04-1.125-.129-2.286-.343-3.444l-11.508 7.014 1.431 1.235c.663.509 1.24.766 2.026.288l5.037-3.071 1.269 2.083-5.395 3.289c.622.675 1.979 2.095 2.884 1.544l3.023-1.842c.665-.406.32-1.203.253-1.582l.068-.042 1.957 3.21-5.328 3.247c-.905.551-.165 2.419.059 3.593zm-31.56 4.268l8.225 11.333 3.172-2.303-3.242-4.467 3.707-2.692c.308-.224.429-.806.232-1.28l.114-.083 3.77 5.197 3.158-2.29-6.391-8.809c-.027-1.092-.29-2.237-.635-3.394l-4.355 3.16 3.148 4.34-4.581 3.324-3.15-4.339zm-2.541 2.014l-9.72 8.298 2.206 2.586 3.18-2.714 6.882 8.062 2.982-2.544-6.883-8.063 2.282-1.948c.305-.26.281-.688.2-.906zm-13.081 15.724l3.18 3.214-2.488 2.463c-.1.097-.298.096-.397.025l-3.254-2.408c-.1-.071-.098-.27.002-.367zm4.22 4.437l.086-.085 3.404 3.442 2.788-2.758-7.653-7.736c-.136-1.02-.54-2.196-1.13-3.274l-8.915 8.82c-.597.592-.533 1.766.058 2.194l5.875 4.374c.635.47 1.752.434 2.35-.157l3.143-3.11c.255-.252.4-.732.26-1.073zm-17.07 17.262l2.334 1.851-2.608 3.291c-.062.078-.206.066-.28.033l-2.259-1.305c-.075-.034-.132-.156-.094-.203zm-6.604 5.917l5.097 2.841c.714.387 1.893.122 2.402-.521l6.086-7.678-8.603-6.819c-.435-.931-.878-2.176-1.422-3.066l-8.42 10.624 3.068 1.438c.291-.56.667-1.13 1.077-1.647l3.353-4.232 3.056 2.423c-.625-.113-1.583-.642-2.167.094l-3.838 4.842c-.372.471-.347 1.18.311 1.701m-1.263 7.945a.73.73 0 01.2.998l-2.352 3.53a.712.712 0 01-.987.183l-5.294-3.527a.696.696 0 01-.194-.972l2.351-3.528a.714.714 0 01.982-.212zm-8.196-6.062l-4.36 6.541a2.23 2.23 0 00.617 3.08l7.957 5.302c1.582 1.054 2.824-.233 3.734-1.598l4.36-6.543a2.228 2.228 0 00-.617-3.079l-7.957-5.302c-1.599-1.066-2.825.233-3.734 1.6m4.098 19.49l-9.513-5.279c-.521-.998-1.241-1.924-2-2.825l-6.54 11.786 1.855.366c.827.116 1.457.054 1.903-.75l2.863-5.159 2.133 1.184-3.066 5.526c.874.28 2.756.843 3.27-.083l1.719-3.096c.378-.682-.316-1.204-.562-1.5l.038-.07 3.288 1.824-3.028 5.456c-.514.927 1.052 2.184 1.827 3.095zm-14.41 15.53c.19-.419.315-.934.079-1.283l-.482-.68 3.55 1.614-2.096 4.607c-.025.054-.076.12-.257.081l-2.312-.569c-.055-.026-.14-.129-.114-.184zm-4.208-3.695l2.276 1.035-1.508 3.313c-.041.091-.184.115-.265.1l-2.127-.398c-.072-.033-.165-.119-.132-.19zm1.726-3.5s-1.306-1.913-2.22-2.659l-5.368 11.796c-.248.547.152 1.454.71 1.577l3.673.814c.597.14 1.222-.125 1.704-.652l-.836 1.84c-.25.544.159 1.433.71 1.575l4.79 1.257c.786.204 1.867-.337 2.207-1.083l4.532-9.958zm-4.677 21.049l3.582 1.209-1.445 4.283c-.033.095-.172.132-.254.125l-3.324-.657c-.076-.025-.196-.108-.17-.184zm-5.37 6.844c-.19.568.072 1.226.906 1.509 2.25.399 4.52.87 6.763 1.289.815.148 1.874-.487 2.142-1.283l3.325-9.855-10.31-3.478c-.83-.85-1.467-1.72-2.47-2.437l-1.733 5.136 5.401 1.822-.032.095c-.834-.03-1.587.076-1.805.72zm-6.306 5.492l13.266 4.476 1.253-3.715-10.31-3.478c-.64-.976-1.6-1.765-2.477-2.42zm9.828 19.316c.263-1.13.49-2.104.344-3.247-.155-1.187-2.383-3.266-3.562-4.465l5.362-1.505.815-3.507-7.095 2.068c-.42.128-.706.39-1.027.706l-5.495-6.044-.52 2.241c-.083.351-.309 1.325-.13 2.23.197 1.01 2.688 3.192 3.618 4.23l-5.347 1.53-.812 3.487 7.131-1.956c.294-.117.672-.419.877-.68l5.555 6.14zm-12.846 10.6c-.93-.738-1.83-1.374-2.944-1.871l-.56 5.452 8.914.916-7.598 4.085c-1.67.774-2.04 2.022-2.198 3.575l-.16 1.552 13.929 1.432.4-3.901-8.913-.916 7.62-4.102c1.746-.948 2.04-2.244 2.177-3.577l.157-1.533zm1.548 27.144l-3.401-.057.066-3.88a.704.704 0 01.73-.709l6.343.106c.4.007.734.373.727.773l-.13 7.722c1.167-.36 3.133-.628 3.156-2.029l.139-8.26a2.058 2.058 0 00-2.026-2.096l-9.882-.166a2.058 2.058 0 00-2.095 2.026l-.172 10.242 4.24.071c.5.008 1.047-.303 1.254-.759zm-3.33 8.377c-.725-.695-1.997-1.154-3.21-1.317l.348 5.41 5.788-.373.015.26-4.069 3.407c-1.028.848-1.376 2.293-1.269 3.97l.18 2.794c.993-.445 3.06-1.039 3-1.957l-.09-1.417c-.054-.838.663-1.525.966-1.805l1.266-1.184.118 1.837c.093 1.437 1.51 1.967 2.57 2.26l6.158 1.648-.277-4.33-5.012-1.263c-.61-.16-.766-.39-.79-.75l-.165-2.575c-.026-.399-1.024-.656-1.15-.748l-.015-.24 6.745-.433-.25-3.89zm-.476 26.629l.568 3.88 11.238-3.325c1.28-.37 2.12-2.09 1.94-3.317L68.218 281l-1.29.715c-1.088.584-1.482 1.753-1.279 3.138l.472 3.226c.102.693-.357 1.427-.956 1.616l-1.737.558-.018-.119c.217-.173.626-.557.554-1.05l-.6-4.098c-.122-.83-.95-1.66-1.769-1.722l-4.088-.31c-.992-.42-2.278-.779-3.279-.855l.664 4.533 5.365.467c.308.036.62.374.667.69l.441 3.01zm9.516 14.418l-3.313.76-.867-3.78a.705.705 0 01.541-.862l6.177-1.418c.39-.09.801.186.891.575l1.725 7.522c1.046-.63 2.888-1.36 2.575-2.724l-1.846-8.048a2.057 2.057 0 00-2.468-1.546l-9.626 2.209a2.055 2.055 0 00-1.546 2.467l2.29 9.976 4.13-.947c.487-.112.941-.545 1.033-1.038zm4.503 15.805l-3.242 1.027-1.173-3.7a.706.706 0 01.47-.905l6.046-1.915c.381-.12.814.12.935.501l2.333 7.363c.991-.713 2.77-1.59 2.347-2.927l-2.496-7.877a2.058 2.058 0 00-2.587-1.342l-9.422 2.985a2.057 2.057 0 00-1.342 2.587l3.093 9.765 4.045-1.28c.476-.152.894-.62.946-1.119zm-4 8.497l4.768 11.857 3.154-1.268-1.559-3.878 9.834-3.955-1.462-3.636-9.835 3.954-1.118-2.783c-.15-.371-.562-.485-.796-.477zm16.239 16.526c-.204-.413-.525-.834-.945-.872l-.832-.057 3.496-1.73 2.247 4.535c.027.054.044.134-.1.25l-1.902 1.434c-.054.026-.188.025-.214-.028zm-5.524.928l2.24-1.11 1.617 3.263c.044.09-.027.214-.09.268l-1.652 1.398c-.071.036-.197.053-.233-.018zm-1.624-3.55s-2.308-.196-3.463.041l5.754 11.618c.267.538 1.223.801 1.672.444l2.953-2.333c.484-.374.674-1.026.57-1.733l.896 1.811c.267.537 1.215.782 1.672.444l4.002-2.92c.655-.48.919-1.66.555-2.396l-4.858-9.807zm12.484 23.276c-1.187.025-2.286.111-3.461.441l3.052 4.554 7.445-4.99-3.237 7.997c-.79 1.661-.276 2.858.593 4.154l.869 1.297 11.632-7.798-2.184-3.257-7.444 4.991 3.242-8.026c.739-1.844.137-3.03-.61-4.143l-.857-1.28zm24.196 26.52l-2.561 2.24-2.554-2.923a.704.704 0 01.068-1.016l4.775-4.175c.3-.263.793-.216 1.057.085l5.083 5.814c.623-1.05 1.902-2.567.98-3.62l-5.439-6.22a2.058 2.058 0 00-2.907-.196l-7.44 6.506a2.057 2.057 0 00-.195 2.907l6.742 7.711 3.193-2.792c.377-.329.573-.925.42-1.404zm10.686 20.074l9.73-10.062-2.817-2.724-7.563 7.82-4.066-3.934 7.561-7.82-2.817-2.724-7.563 7.82c-1.095.413-2.195.573-3.245 1.2zm13.214-2.108a.73.73 0 011.013-.106l3.293 2.669c.31.25.33.705.09 1l-4.003 4.939a.695.695 0 01-.984.103l-3.293-2.668a.714.714 0 01-.119-.998zm-6.796 7.592l6.105 4.947a2.227 2.227 0 003.122-.327l6.017-7.425c1.196-1.475.03-2.832-1.243-3.864l-6.105-4.947a2.227 2.227 0 00-3.122.327l-6.017 7.425c-1.209 1.49-.03 2.832 1.243 3.864m16.802 8.995l2.547-3.734 2.892 1.973c.116.079.153.273.102.384l-1.744 3.654c-.05.11-.245.147-.36.069zm3.55-4.99l-.1-.067 2.728-4-3.239-2.21-6.134 8.99c-.974.329-2.052.95-2.998 1.733l10.361 7.07c.694.474 1.834.186 2.142-.476l3.172-6.602c.341-.713.092-1.803-.602-2.276l-3.652-2.492c-.297-.203-.796-.253-1.104-.051zm3.63 13.463l11.057 6.406 1.704-2.942-3.616-2.095 5.313-9.171-3.391-1.965-5.314 9.171-2.595-1.504c-.346-.2-.741-.036-.921.114zm25.06 3.46l-3.992 4.688-1.313-.638 1.221-6.035zm6.987-2.297l-3.598-1.749-2.658 3.134-.072-.035c.1-.797-.017-1.52-.79-1.896l-3.365-1.635.516-2.663-3.436-1.67-2.255 11.002c-1.229.56-1.892 1.283-2.696 2.16l9.14 4.441z" fill="#6c0b19"/><path d="M357.15 432.308l5.895 9.805a12.21 12.21 0 00.4 3.556l4.84-2.91 1.176-8.227.072-.043c2.146.717 6.051 2.607 8.077 2.27.8-.138 1.522-.523 3.142-1.497l-7.574-12.593-3.526 2.12 4.771 7.934-.072.043-7.668-2.934-.07.043-1.098 8.157-.108.064-4.749-7.897z" fill="#b11f25"/><path d="M386.276 419.669l2.437 5.984-1.23.915-5.03-4.055zm1.24-7.62l-3.369 2.506 1.634 3.99-.067.05c-.695-.477-1.425-.72-2.15-.18l-3.149 2.343-2.23-1.77-3.219 2.394 9.157 7.423c-.073 1.415.28 2.382.708 3.554l8.557-6.363zm13.337-1.304c.048-.042.245-.104.388-.006l2.507 2.017c.041.048.092.17.03.225l-4 3.527-2.389-2.708zm7.642 2.443c.456-.403.562-1.139-.02-1.8l-5.485-4.57c-.424-.354-1.067-.32-1.664.208l-.899.791-.054-.062c.11-.098.222-.478.192-.702l-.908-5.665-3.685 3.25 1.401 5.397-1.18 1.042c-.363.32-.067 1.037.027 1.206l-.095.083-3.9-4.425-3.07 2.708 7.552 8.567c.185 1.067.615 2.285 1.048 3.442zm2.186-2.037l9.361-9.624-2.56-2.49-3.063 3.147-7.98-7.763-2.872 2.952 7.981 7.763-2.197 2.26c-.293.301-.227.745-.119.967zm14.1-15.123l-11.088-9.656-2.689 3.09 8.616 7.503c.275 1.186.766 2.254 1.423 3.355zm.926-16.05l3.976 5.097-.935 1.215-5.947-2.533zm-.881-7.672l-2.56 3.33 2.659 3.396-.052.066c-.8-.269-1.566-.304-2.117.412l-2.395 3.113-2.63-1.094-2.443 3.18 10.835 4.65c.315 1.381.919 2.216 1.65 3.228l6.504-8.457zm12.676 7.42l3.109-4.764-9.58-6.254 4.269-6.54c-1.227-.423-3-1.355-3.815-.107l-5.416 8.297 9.563 6.242c.454 1.224 1.098 2.12 1.87 3.126" fill="#6c0b19"/><path d="M447.139 344.291l4.937 4.172-.666 1.381-6.34-1.257zm-2.438-7.327l-1.823 3.784 3.3 2.778-.035.076c-.838-.1-1.597.024-1.988.837l-1.703 3.539-2.798-.532-1.74 3.615 11.559 2.325c.592 1.287 1.354 1.98 2.277 2.821l4.628-9.611zm11.211-7.347c.022-.059.168-.206.34-.185l3.158.622c.059.022.162.106.132.184l-1.903 4.984-3.375-1.288zm7.904-1.389c.218-.569-.031-1.27-.855-1.586l-6.983-1.497c-.541-.116-1.093.212-1.378.958l-.426 1.118-.078-.029c.05-.138-.025-.526-.157-.712l-3.44-4.595-1.751 4.591 3.75 4.131-.561 1.472c-.172.451.424.95.586 1.056l-.045.117-5.513-2.105-1.461 3.826 10.674 4.076c.662.86 1.607 1.738 2.529 2.562z" fill="#b11f25"/><path d="M464.8 325.401l3.803-12.87-3.425-1.012-1.243 4.21-10.675-3.154-1.166 3.948 10.674 3.153-.893 3.022c-.12.403.147.766.344.912zm-7.253-17.836l2.004-9.365c.049-.226.323-.404.57-.35l1.293.276a.483.483 0 01.4.537l-.426 7.62c-.076 1.357 1.315 2.085 2.136 2.261l3.738.8c1.089.233 2.243-.444 2.484-1.574l2.418-11.296c-1.03-.006-2.832.081-3.06 1.15l-1.52 7.106c-.053.246-.307.428-.533.38l-1.13-.242c-.226-.048-.412-.282-.364-.507l.4-7.39c.09-1.526-.908-2.277-1.833-2.475l-4.251-.91a2.072 2.072 0 00-2.47 1.598l-2.02 9.448c-.172.801-.074 1.853.724 2.24zm8.126-35.602l6.116 2.085-.115 1.528-6.361 1.14zm-4.94-5.933l-.318 4.187 4.085 1.384-.006.084c-.816.212-1.478.603-1.547 1.504l-.295 3.915-2.798.524-.304 3.999 11.609-2.047c1.02.983 1.983 1.35 3.149 1.797l.805-10.635zm.773-12.281l8.432 5.872v.084l-9.174.146.062 3.926 11.422-.182c.87.637 2.098 1.142 3.3 1.543l-.082-5.207c-.013-.756-.425-1.589-1.062-2.02l-8.113-5.667-.002-.105 9.05-.144-.063-3.927-14.698.235.059 3.675c.012.671.316 1.401.869 1.771m.963-17.985a1.264 1.264 0 011.12-1.385l6.06-.637a1.245 1.245 0 011.363 1.124l.49 4.658-8.543.898zm7.834-6.23l-8.376.88c-1.358.143-2.927 1.49-2.714 3.517l1.148 10.904 10.695-1.125c1.136.556 2.722.982 4.092 1.154l-1.312-12.471c-.232-2.003-2.175-3.002-3.533-2.86" fill="#6c0b19"/><path d="M459.333 217.559l-2.296-9.297c-.056-.224.113-.504.358-.564l1.285-.317a.482.482 0 01.594.307l2.95 7.037c.526 1.254 2.094 1.299 2.91 1.098l3.71-.916c1.08-.268 1.822-1.381 1.545-2.502l-2.77-11.212c-.928.446-2.51 1.31-2.247 2.372l1.742 7.054c.06.245-.09.518-.312.574l-1.121.277c-.224.056-.494-.073-.55-.297l-2.873-6.817c-.587-1.412-1.814-1.651-2.731-1.424l-4.22 1.043a2.07 2.07 0 00-1.52 2.516l2.317 9.378c.197.794.744 1.698 1.63 1.695z" fill="#b11f25"/><path d="M462.103 194.34l-4.5 1.508-1.168-3.485c-.047-.14.047-.326.16-.385l3.776-1.951c.112-.06.298.032.344.172zm.652-8.102c-.28-.836-1.41-1.3-2.093-.961l-6.842 3.51c-.737.379-1.219 1.449-.94 2.285l1.475 4.4c.232.698.983.823 1.614.79l.04.119-4.818 1.613 1.307 3.904 10.832-3.628c1.023.343 2.318.508 3.606.453zm-13.133-4.165a.767.767 0 01-.993-.396l-1.76-4.088c-.166-.386.037-.817.404-.974l6.133-2.64a.731.731 0 01.966.384l1.76 4.09a.749.749 0 01-.376.984zm10.024-3.743l-3.261-7.58a2.34 2.34 0 00-3.063-1.219l-9.22 3.967c-1.831.79-1.41 2.62-.73 4.201l3.264 7.58a2.339 2.339 0 003.062 1.22l9.219-3.969c1.85-.797 1.41-2.618.729-4.2m-16.326-18.146c-.029-.055-.045-.262.084-.378l2.537-1.978c.055-.031.186-.052.226.02l2.52 4.702-3.184 1.706zm4.127-6.881c-.287-.537-.98-.808-1.758-.391l-5.703 4.294c-.44.332-.555.965-.179 1.668l.566 1.056-.074.039c-.07-.13-.414-.326-.639-.347l-5.725-.413 2.322 4.332 5.577-.13.744 1.388c.227.426.994.3 1.181.248l.06.112-5.202 2.787 1.934 3.609 10.07-5.395c1.082.063 2.365-.077 3.591-.234zm-1.5-2.599l-7.234-11.3-3.007 1.924 2.366 3.695-9.373 6.002 2.22 3.466 9.372-6 1.7 2.651c.226.355.673.392.913.338zm-26.586-25.232l2.737-2.293 2.617 3.123a.741.741 0 01-.094 1.066l-5.104 4.275c-.32.269-.838.209-1.107-.113l-5.207-6.213c-.678 1.088-2.053 2.65-1.109 3.778l5.572 6.648a2.16 2.16 0 003.047.269l7.953-6.664a2.159 2.159 0 00.268-3.047l-6.906-8.242-3.413 2.859c-.402.338-.62.959-.472 1.465zm-10.921-.496l8.158-7.993c1.161-.227 2.31-.675 3.443-1.168l-9.905-10.11-.924 1.758c-.364.797-.49 1.45.186 2.14l4.336 4.425-1.83 1.793-4.644-4.741c-.543.797-1.675 2.522-.895 3.317l2.601 2.655c.573.585 1.306.043 1.678-.116l.06.06-2.82 2.762-4.586-4.68c-.778-.794-2.512.405-3.662.913zm-17.497-17.734l9.99-2.409.063.055-5.98 6.961 2.978 2.56 7.446-8.667c1.055-.229 2.247-.81 3.346-1.444l-3.95-3.395c-.575-.493-1.47-.737-2.217-.547l-9.625 2.308-.08-.068 5.9-6.867-2.979-2.559-9.58 11.151 2.786 2.396c.51.437 1.26.693 1.902.525m2.61-15.838l-10.861-7.879-2.097 2.891 3.553 2.576-6.534 9.01 3.332 2.416 6.533-9.009 2.55 1.85c.34.246.77.118.974-.02zm-24.661-8.414c-.054-.033-.17-.204-.119-.369l1.193-2.988c.033-.054.135-.139.207-.096l4.546 2.791-1.889 3.078zm.096-8.024c-.52-.32-1.256-.205-1.717.547l-2.76 6.586c-.215.51.006 1.113.686 1.53l1.02.627-.044.071c-.125-.077-.52-.073-.727.021l-5.152 2.531 4.19 2.571 4.75-2.924 1.343.824c.411.253 1.01-.242 1.145-.38l.108.065-3.087 5.03 3.49 2.142 5.976-9.737c.967-.49 2.005-1.258 2.985-2.01zM358.104 85.74l5.18-10.178c1.027-.584 1.971-1.375 2.887-2.204l-12.608-6.417-.314 1.96c-.09.872 0 1.53.86 1.968l5.517 2.808-1.162 2.283-5.91-3.009c-.262.928-.782 2.924.21 3.428l3.311 1.685c.73.371 1.251-.376 1.553-.646l.075.04-1.789 3.515-5.838-2.97c-.99-.505-2.252 1.185-3.178 2.033z" fill="#6c0b19"/><path d="M199.476 51.89l4.404 19.122c-.662 1.777-1.111 3.84-1.24 6.01l9.438-2.171 6.29-12.791.14-.033c3.119 2.312 8.482 7.468 11.966 7.996 1.376.2 2.76-.045 5.918-.773l-5.656-24.558-6.877 1.584 3.564 15.47-.141.035-10.944-8.86-.14.032-6.123 12.715-.211.049-3.547-15.401zm59.784.1l-2.335 10.834-2.626.105-3.206-10.607zm9.124-9.596l-7.195.292-1.544 7.234-.145.007c-.523-1.348-1.322-2.398-2.87-2.335l-6.726.274-1.452-4.662-6.871.28 5.796 19.367c-1.471 1.933-1.906 3.645-2.434 5.72l18.275-.74zm15.125 21.04l.936-8.084 6.259.725c.25.03.472.309.483.528l.28 7.28c.012.22-.27.44-.52.412zm1.482-10.92l-.214-.024 1.002-8.656-7.01-.811-2.252 19.456c-1.28 1.338-2.476 3.228-3.328 5.268l22.424 2.597c1.5.174 3.078-1.238 3.013-2.551l-.47-13.175c-.051-1.418-1.361-2.948-2.863-3.122l-7.904-.916c-.644-.073-1.481.264-1.801.843zm37.415 12.324l-1.643 5.895-6.725-1.876c-.729-.204-1.094-.903-.902-1.597l3.066-10.99c.193-.694.981-1.108 1.676-.915l13.382 3.732c-.098-2.194.329-5.738-2.098-6.414l-14.318-3.993a3.702 3.702 0 00-4.567 2.576l-4.776 17.126a3.7 3.7 0 002.575 4.566l17.751 4.95 2.05-7.35c.242-.866-.053-1.957-.753-2.525zM207.934 442.025l-4.111 19.182c-1.353 1.33-2.633 3.007-3.67 4.92l9.468 2.03 11.116-8.92.14.031c1.846 3.414 4.518 10.356 7.449 12.31 1.162.764 2.519 1.128 5.687 1.807l5.28-24.637-6.898-1.479-3.327 15.521-.14-.03-6.16-12.659-.14-.03-10.932 8.922-.211-.045 3.312-15.45zm55.288 16.863l-3.009 10.666-2.628-.058-2.534-10.79zm9.708-9.005l-7.199-.16-1.995 7.123-.145-.003c-.436-1.378-1.169-2.475-2.717-2.51l-6.732-.15-1.155-4.742-6.875-.153 4.57 19.695c-1.59 1.837-2.132 3.518-2.79 5.556l18.288.406zm23.487 10.597c.107-.015.448.083.56.358l1.686 5.251c.015.107-.026.331-.17.351l-9.053 1.277-.864-6.13zm8.637 10.706c1.033-.145 1.88-1.101 1.669-2.598l-3.544-11.715c-.274-.906-1.225-1.463-2.578-1.272l-2.033.287-.02-.142c.25-.036.77-.473.938-.824l4.042-8.968-8.34 1.177-3.084 9.05-2.674.379c-.821.115-1.073 1.423-1.098 1.754l-.214.03-1.414-10.016-6.95.982 2.736 19.39c-.741 1.704-1.274 3.85-1.746 5.917zm5.604-22.117l15.667-4.894c.378-.118.874.142 1.003.554l.676 2.165c.129.412-.004.83-.464 1.05l-11.734 5.777c-2.091 1.03-2.005 3.719-1.576 5.093l1.953 6.254c.569 1.82 2.551 2.974 4.441 2.383l18.896-5.903c-.858-1.541-2.505-4.157-4.292-3.6l-11.887 3.714c-.412.129-.898-.096-1.016-.474l-.591-1.89c-.118-.377.073-.853.451-.97l11.367-5.625c2.355-1.151 2.635-3.274 2.152-4.821l-2.222-7.111a3.549 3.549 0 00-4.464-2.34l-15.804 4.937c-1.34.418-2.828 1.449-2.732 2.965z" fill="#b12126"/></g></svg>